G04 #@! TF.GenerationSoftware,KiCad,Pcbnew,(5.1.4)-1*
G04 #@! TF.CreationDate,2019-10-15T14:43:25+09:00*
G04 #@! TF.ProjectId,LME49600_HPA,4c4d4534-3936-4303-905f-4850412e6b69,rev?*
G04 #@! TF.SameCoordinates,Original*
G04 #@! TF.FileFunction,Legend,Top*
G04 #@! TF.FilePolarity,Positive*
%FSLAX46Y46*%
G04 Gerber Fmt 4.6, Leading zero omitted, Abs format (unit mm)*
G04 Created by KiCad (PCBNEW (5.1.4)-1) date 2019-10-15 14:43:25*
%MOMM*%
%LPD*%
G04 APERTURE LIST*
%ADD10C,0.300000*%
%ADD11C,0.400000*%
%ADD12C,0.120000*%
%ADD13C,0.150000*%
G04 APERTURE END LIST*
D10*
X188638571Y-92933333D02*
X187138571Y-92933333D01*
X188638571Y-92333333D02*
X187852857Y-92333333D01*
X187710000Y-92400000D01*
X187638571Y-92533333D01*
X187638571Y-92733333D01*
X187710000Y-92866666D01*
X187781428Y-92933333D01*
X187638571Y-91866666D02*
X187638571Y-91333333D01*
X187138571Y-91666666D02*
X188424285Y-91666666D01*
X188567142Y-91600000D01*
X188638571Y-91466666D01*
X188638571Y-91333333D01*
X187638571Y-91066666D02*
X187638571Y-90533333D01*
X187138571Y-90866666D02*
X188424285Y-90866666D01*
X188567142Y-90800000D01*
X188638571Y-90666666D01*
X188638571Y-90533333D01*
X187638571Y-90066666D02*
X189138571Y-90066666D01*
X187710000Y-90066666D02*
X187638571Y-89933333D01*
X187638571Y-89666666D01*
X187710000Y-89533333D01*
X187781428Y-89466666D01*
X187924285Y-89400000D01*
X188352857Y-89400000D01*
X188495714Y-89466666D01*
X188567142Y-89533333D01*
X188638571Y-89666666D01*
X188638571Y-89933333D01*
X188567142Y-90066666D01*
X188567142Y-88866666D02*
X188638571Y-88733333D01*
X188638571Y-88466666D01*
X188567142Y-88333333D01*
X188424285Y-88266666D01*
X188352857Y-88266666D01*
X188210000Y-88333333D01*
X188138571Y-88466666D01*
X188138571Y-88666666D01*
X188067142Y-88800000D01*
X187924285Y-88866666D01*
X187852857Y-88866666D01*
X187710000Y-88800000D01*
X187638571Y-88666666D01*
X187638571Y-88466666D01*
X187710000Y-88333333D01*
X188495714Y-87666666D02*
X188567142Y-87600000D01*
X188638571Y-87666666D01*
X188567142Y-87733333D01*
X188495714Y-87666666D01*
X188638571Y-87666666D01*
X187710000Y-87666666D02*
X187781428Y-87600000D01*
X187852857Y-87666666D01*
X187781428Y-87733333D01*
X187710000Y-87666666D01*
X187852857Y-87666666D01*
X187067142Y-86000000D02*
X188995714Y-87200000D01*
X187067142Y-84533333D02*
X188995714Y-85733333D01*
X188638571Y-83466666D02*
X187138571Y-83466666D01*
X188567142Y-83466666D02*
X188638571Y-83600000D01*
X188638571Y-83866666D01*
X188567142Y-84000000D01*
X188495714Y-84066666D01*
X188352857Y-84133333D01*
X187924285Y-84133333D01*
X187781428Y-84066666D01*
X187710000Y-84000000D01*
X187638571Y-83866666D01*
X187638571Y-83600000D01*
X187710000Y-83466666D01*
X188638571Y-82200000D02*
X187852857Y-82200000D01*
X187710000Y-82266666D01*
X187638571Y-82400000D01*
X187638571Y-82666666D01*
X187710000Y-82800000D01*
X188567142Y-82200000D02*
X188638571Y-82333333D01*
X188638571Y-82666666D01*
X188567142Y-82800000D01*
X188424285Y-82866666D01*
X188281428Y-82866666D01*
X188138571Y-82800000D01*
X188067142Y-82666666D01*
X188067142Y-82333333D01*
X187995714Y-82200000D01*
X188638571Y-80933333D02*
X187138571Y-80933333D01*
X188567142Y-80933333D02*
X188638571Y-81066666D01*
X188638571Y-81333333D01*
X188567142Y-81466666D01*
X188495714Y-81533333D01*
X188352857Y-81600000D01*
X187924285Y-81600000D01*
X187781428Y-81533333D01*
X187710000Y-81466666D01*
X187638571Y-81333333D01*
X187638571Y-81066666D01*
X187710000Y-80933333D01*
X187781428Y-80066666D02*
X187710000Y-80200000D01*
X187638571Y-80266666D01*
X187495714Y-80333333D01*
X187424285Y-80333333D01*
X187281428Y-80266666D01*
X187210000Y-80200000D01*
X187138571Y-80066666D01*
X187138571Y-79800000D01*
X187210000Y-79666666D01*
X187281428Y-79600000D01*
X187424285Y-79533333D01*
X187495714Y-79533333D01*
X187638571Y-79600000D01*
X187710000Y-79666666D01*
X187781428Y-79800000D01*
X187781428Y-80066666D01*
X187852857Y-80200000D01*
X187924285Y-80266666D01*
X188067142Y-80333333D01*
X188352857Y-80333333D01*
X188495714Y-80266666D01*
X188567142Y-80200000D01*
X188638571Y-80066666D01*
X188638571Y-79800000D01*
X188567142Y-79666666D01*
X188495714Y-79600000D01*
X188352857Y-79533333D01*
X188067142Y-79533333D01*
X187924285Y-79600000D01*
X187852857Y-79666666D01*
X187781428Y-79800000D01*
X187781428Y-78733333D02*
X187710000Y-78866666D01*
X187638571Y-78933333D01*
X187495714Y-79000000D01*
X187424285Y-79000000D01*
X187281428Y-78933333D01*
X187210000Y-78866666D01*
X187138571Y-78733333D01*
X187138571Y-78466666D01*
X187210000Y-78333333D01*
X187281428Y-78266666D01*
X187424285Y-78200000D01*
X187495714Y-78200000D01*
X187638571Y-78266666D01*
X187710000Y-78333333D01*
X187781428Y-78466666D01*
X187781428Y-78733333D01*
X187852857Y-78866666D01*
X187924285Y-78933333D01*
X188067142Y-79000000D01*
X188352857Y-79000000D01*
X188495714Y-78933333D01*
X188567142Y-78866666D01*
X188638571Y-78733333D01*
X188638571Y-78466666D01*
X188567142Y-78333333D01*
X188495714Y-78266666D01*
X188352857Y-78200000D01*
X188067142Y-78200000D01*
X187924285Y-78266666D01*
X187852857Y-78333333D01*
X187781428Y-78466666D01*
X188638571Y-77533333D02*
X188638571Y-77266666D01*
X188567142Y-77133333D01*
X188495714Y-77066666D01*
X188281428Y-76933333D01*
X187995714Y-76866666D01*
X187424285Y-76866666D01*
X187281428Y-76933333D01*
X187210000Y-77000000D01*
X187138571Y-77133333D01*
X187138571Y-77400000D01*
X187210000Y-77533333D01*
X187281428Y-77600000D01*
X187424285Y-77666666D01*
X187781428Y-77666666D01*
X187924285Y-77600000D01*
X187995714Y-77533333D01*
X188067142Y-77400000D01*
X188067142Y-77133333D01*
X187995714Y-77000000D01*
X187924285Y-76933333D01*
X187781428Y-76866666D01*
X187138571Y-76400000D02*
X187138571Y-75533333D01*
X187710000Y-76000000D01*
X187710000Y-75800000D01*
X187781428Y-75666666D01*
X187852857Y-75600000D01*
X187995714Y-75533333D01*
X188352857Y-75533333D01*
X188495714Y-75600000D01*
X188567142Y-75666666D01*
X188638571Y-75800000D01*
X188638571Y-76200000D01*
X188567142Y-76333333D01*
X188495714Y-76400000D01*
X188495714Y-74933333D02*
X188567142Y-74866666D01*
X188638571Y-74933333D01*
X188567142Y-75000000D01*
X188495714Y-74933333D01*
X188638571Y-74933333D01*
X188638571Y-74266666D02*
X187138571Y-74266666D01*
X187710000Y-74266666D02*
X187638571Y-74133333D01*
X187638571Y-73866666D01*
X187710000Y-73733333D01*
X187781428Y-73666666D01*
X187924285Y-73600000D01*
X188352857Y-73600000D01*
X188495714Y-73666666D01*
X188567142Y-73733333D01*
X188638571Y-73866666D01*
X188638571Y-74133333D01*
X188567142Y-74266666D01*
X188638571Y-72800000D02*
X188567142Y-72933333D01*
X188424285Y-73000000D01*
X187138571Y-73000000D01*
X188638571Y-72066666D02*
X188567142Y-72200000D01*
X188495714Y-72266666D01*
X188352857Y-72333333D01*
X187924285Y-72333333D01*
X187781428Y-72266666D01*
X187710000Y-72200000D01*
X187638571Y-72066666D01*
X187638571Y-71866666D01*
X187710000Y-71733333D01*
X187781428Y-71666666D01*
X187924285Y-71600000D01*
X188352857Y-71600000D01*
X188495714Y-71666666D01*
X188567142Y-71733333D01*
X188638571Y-71866666D01*
X188638571Y-72066666D01*
X187638571Y-70400000D02*
X188852857Y-70400000D01*
X188995714Y-70466666D01*
X189067142Y-70533333D01*
X189138571Y-70666666D01*
X189138571Y-70866666D01*
X189067142Y-71000000D01*
X188567142Y-70400000D02*
X188638571Y-70533333D01*
X188638571Y-70800000D01*
X188567142Y-70933333D01*
X188495714Y-71000000D01*
X188352857Y-71066666D01*
X187924285Y-71066666D01*
X187781428Y-71000000D01*
X187710000Y-70933333D01*
X187638571Y-70800000D01*
X187638571Y-70533333D01*
X187710000Y-70400000D01*
X188567142Y-69800000D02*
X188638571Y-69666666D01*
X188638571Y-69400000D01*
X188567142Y-69266666D01*
X188424285Y-69200000D01*
X188352857Y-69200000D01*
X188210000Y-69266666D01*
X188138571Y-69400000D01*
X188138571Y-69600000D01*
X188067142Y-69733333D01*
X187924285Y-69800000D01*
X187852857Y-69800000D01*
X187710000Y-69733333D01*
X187638571Y-69600000D01*
X187638571Y-69400000D01*
X187710000Y-69266666D01*
X187638571Y-68600000D02*
X189138571Y-68600000D01*
X187710000Y-68600000D02*
X187638571Y-68466666D01*
X187638571Y-68200000D01*
X187710000Y-68066666D01*
X187781428Y-68000000D01*
X187924285Y-67933333D01*
X188352857Y-67933333D01*
X188495714Y-68000000D01*
X188567142Y-68066666D01*
X188638571Y-68200000D01*
X188638571Y-68466666D01*
X188567142Y-68600000D01*
X188638571Y-67133333D02*
X188567142Y-67266666D01*
X188495714Y-67333333D01*
X188352857Y-67400000D01*
X187924285Y-67400000D01*
X187781428Y-67333333D01*
X187710000Y-67266666D01*
X187638571Y-67133333D01*
X187638571Y-66933333D01*
X187710000Y-66800000D01*
X187781428Y-66733333D01*
X187924285Y-66666666D01*
X188352857Y-66666666D01*
X188495714Y-66733333D01*
X188567142Y-66800000D01*
X188638571Y-66933333D01*
X188638571Y-67133333D01*
X187638571Y-66266666D02*
X187638571Y-65733333D01*
X187138571Y-66066666D02*
X188424285Y-66066666D01*
X188567142Y-66000000D01*
X188638571Y-65866666D01*
X188638571Y-65733333D01*
X188495714Y-65266666D02*
X188567142Y-65200000D01*
X188638571Y-65266666D01*
X188567142Y-65333333D01*
X188495714Y-65266666D01*
X188638571Y-65266666D01*
X188567142Y-64000000D02*
X188638571Y-64133333D01*
X188638571Y-64400000D01*
X188567142Y-64533333D01*
X188495714Y-64600000D01*
X188352857Y-64666666D01*
X187924285Y-64666666D01*
X187781428Y-64600000D01*
X187710000Y-64533333D01*
X187638571Y-64400000D01*
X187638571Y-64133333D01*
X187710000Y-64000000D01*
X188638571Y-63200000D02*
X188567142Y-63333333D01*
X188495714Y-63400000D01*
X188352857Y-63466666D01*
X187924285Y-63466666D01*
X187781428Y-63400000D01*
X187710000Y-63333333D01*
X187638571Y-63200000D01*
X187638571Y-63000000D01*
X187710000Y-62866666D01*
X187781428Y-62800000D01*
X187924285Y-62733333D01*
X188352857Y-62733333D01*
X188495714Y-62800000D01*
X188567142Y-62866666D01*
X188638571Y-63000000D01*
X188638571Y-63200000D01*
X188638571Y-62133333D02*
X187638571Y-62133333D01*
X187781428Y-62133333D02*
X187710000Y-62066666D01*
X187638571Y-61933333D01*
X187638571Y-61733333D01*
X187710000Y-61599999D01*
X187852857Y-61533333D01*
X188638571Y-61533333D01*
X187852857Y-61533333D02*
X187710000Y-61466666D01*
X187638571Y-61333333D01*
X187638571Y-61133333D01*
X187710000Y-60999999D01*
X187852857Y-60933333D01*
X188638571Y-60933333D01*
X187067142Y-59266666D02*
X188995714Y-60466666D01*
D11*
X185280952Y-91735714D02*
X185280952Y-92926190D01*
X182780952Y-92926190D01*
X185280952Y-90902380D02*
X182780952Y-90902380D01*
X184566666Y-90069047D01*
X182780952Y-89235714D01*
X185280952Y-89235714D01*
X183971428Y-88045238D02*
X183971428Y-87211904D01*
X185280952Y-86854761D02*
X185280952Y-88045238D01*
X182780952Y-88045238D01*
X182780952Y-86854761D01*
X183614285Y-84711904D02*
X185280952Y-84711904D01*
X182661904Y-85307142D02*
X184447619Y-85902380D01*
X184447619Y-84354761D01*
X185280952Y-83283333D02*
X185280952Y-82807142D01*
X185161904Y-82569047D01*
X185042857Y-82450000D01*
X184685714Y-82211904D01*
X184209523Y-82092857D01*
X183257142Y-82092857D01*
X183019047Y-82211904D01*
X182900000Y-82330952D01*
X182780952Y-82569047D01*
X182780952Y-83045238D01*
X182900000Y-83283333D01*
X183019047Y-83402380D01*
X183257142Y-83521428D01*
X183852380Y-83521428D01*
X184090476Y-83402380D01*
X184209523Y-83283333D01*
X184328571Y-83045238D01*
X184328571Y-82569047D01*
X184209523Y-82330952D01*
X184090476Y-82211904D01*
X183852380Y-82092857D01*
X182780952Y-79950000D02*
X182780952Y-80426190D01*
X182900000Y-80664285D01*
X183019047Y-80783333D01*
X183376190Y-81021428D01*
X183852380Y-81140476D01*
X184804761Y-81140476D01*
X185042857Y-81021428D01*
X185161904Y-80902380D01*
X185280952Y-80664285D01*
X185280952Y-80188095D01*
X185161904Y-79950000D01*
X185042857Y-79830952D01*
X184804761Y-79711904D01*
X184209523Y-79711904D01*
X183971428Y-79830952D01*
X183852380Y-79950000D01*
X183733333Y-80188095D01*
X183733333Y-80664285D01*
X183852380Y-80902380D01*
X183971428Y-81021428D01*
X184209523Y-81140476D01*
X182780952Y-78164285D02*
X182780952Y-77926190D01*
X182900000Y-77688095D01*
X183019047Y-77569047D01*
X183257142Y-77450000D01*
X183733333Y-77330952D01*
X184328571Y-77330952D01*
X184804761Y-77450000D01*
X185042857Y-77569047D01*
X185161904Y-77688095D01*
X185280952Y-77926190D01*
X185280952Y-78164285D01*
X185161904Y-78402380D01*
X185042857Y-78521428D01*
X184804761Y-78640476D01*
X184328571Y-78759523D01*
X183733333Y-78759523D01*
X183257142Y-78640476D01*
X183019047Y-78521428D01*
X182900000Y-78402380D01*
X182780952Y-78164285D01*
X182780952Y-75783333D02*
X182780952Y-75545238D01*
X182900000Y-75307142D01*
X183019047Y-75188095D01*
X183257142Y-75069047D01*
X183733333Y-74950000D01*
X184328571Y-74950000D01*
X184804761Y-75069047D01*
X185042857Y-75188095D01*
X185161904Y-75307142D01*
X185280952Y-75545238D01*
X185280952Y-75783333D01*
X185161904Y-76021428D01*
X185042857Y-76140476D01*
X184804761Y-76259523D01*
X184328571Y-76378571D01*
X183733333Y-76378571D01*
X183257142Y-76259523D01*
X183019047Y-76140476D01*
X182900000Y-76021428D01*
X182780952Y-75783333D01*
X185280952Y-71973809D02*
X182780952Y-71973809D01*
X183971428Y-71973809D02*
X183971428Y-70545238D01*
X185280952Y-70545238D02*
X182780952Y-70545238D01*
X185280952Y-69354761D02*
X182780952Y-69354761D01*
X182780952Y-68402380D01*
X182900000Y-68164285D01*
X183019047Y-68045238D01*
X183257142Y-67926190D01*
X183614285Y-67926190D01*
X183852380Y-68045238D01*
X183971428Y-68164285D01*
X184090476Y-68402380D01*
X184090476Y-69354761D01*
X184566666Y-66973809D02*
X184566666Y-65783333D01*
X185280952Y-67211904D02*
X182780952Y-66378571D01*
X185280952Y-65545238D01*
X182780952Y-63164285D02*
X185280952Y-62330952D01*
X182780952Y-61497619D01*
X183019047Y-60783333D02*
X182900000Y-60664285D01*
X182780952Y-60426190D01*
X182780952Y-59830952D01*
X182900000Y-59592857D01*
X183019047Y-59473809D01*
X183257142Y-59354761D01*
X183495238Y-59354761D01*
X183852380Y-59473809D01*
X185280952Y-60902380D01*
X185280952Y-59354761D01*
D10*
X118630000Y-97397142D02*
X118558571Y-97540000D01*
X118558571Y-97754285D01*
X118630000Y-97968571D01*
X118772857Y-98111428D01*
X118915714Y-98182857D01*
X119201428Y-98254285D01*
X119415714Y-98254285D01*
X119701428Y-98182857D01*
X119844285Y-98111428D01*
X119987142Y-97968571D01*
X120058571Y-97754285D01*
X120058571Y-97611428D01*
X119987142Y-97397142D01*
X119915714Y-97325714D01*
X119415714Y-97325714D01*
X119415714Y-97611428D01*
X182130000Y-97397142D02*
X182058571Y-97540000D01*
X182058571Y-97754285D01*
X182130000Y-97968571D01*
X182272857Y-98111428D01*
X182415714Y-98182857D01*
X182701428Y-98254285D01*
X182915714Y-98254285D01*
X183201428Y-98182857D01*
X183344285Y-98111428D01*
X183487142Y-97968571D01*
X183558571Y-97754285D01*
X183558571Y-97611428D01*
X183487142Y-97397142D01*
X183415714Y-97325714D01*
X182915714Y-97325714D01*
X182915714Y-97611428D01*
X166762857Y-50050000D02*
X166620000Y-49978571D01*
X166405714Y-49978571D01*
X166191428Y-50050000D01*
X166048571Y-50192857D01*
X165977142Y-50335714D01*
X165905714Y-50621428D01*
X165905714Y-50835714D01*
X165977142Y-51121428D01*
X166048571Y-51264285D01*
X166191428Y-51407142D01*
X166405714Y-51478571D01*
X166548571Y-51478571D01*
X166762857Y-51407142D01*
X166834285Y-51335714D01*
X166834285Y-50835714D01*
X166548571Y-50835714D01*
X131202857Y-50050000D02*
X131060000Y-49978571D01*
X130845714Y-49978571D01*
X130631428Y-50050000D01*
X130488571Y-50192857D01*
X130417142Y-50335714D01*
X130345714Y-50621428D01*
X130345714Y-50835714D01*
X130417142Y-51121428D01*
X130488571Y-51264285D01*
X130631428Y-51407142D01*
X130845714Y-51478571D01*
X130988571Y-51478571D01*
X131202857Y-51407142D01*
X131274285Y-51335714D01*
X131274285Y-50835714D01*
X130988571Y-50835714D01*
X146467142Y-116942142D02*
X147610000Y-116942142D01*
X147038571Y-117513571D02*
X147038571Y-116370714D01*
X150252857Y-116085000D02*
X150110000Y-116013571D01*
X149895714Y-116013571D01*
X149681428Y-116085000D01*
X149538571Y-116227857D01*
X149467142Y-116370714D01*
X149395714Y-116656428D01*
X149395714Y-116870714D01*
X149467142Y-117156428D01*
X149538571Y-117299285D01*
X149681428Y-117442142D01*
X149895714Y-117513571D01*
X150038571Y-117513571D01*
X150252857Y-117442142D01*
X150324285Y-117370714D01*
X150324285Y-116870714D01*
X150038571Y-116870714D01*
X152110000Y-116942142D02*
X153252857Y-116942142D01*
X147860000Y-120063571D02*
X147860000Y-118563571D01*
X148431428Y-118563571D01*
X148574285Y-118635000D01*
X148645714Y-118706428D01*
X148717142Y-118849285D01*
X148717142Y-119063571D01*
X148645714Y-119206428D01*
X148574285Y-119277857D01*
X148431428Y-119349285D01*
X147860000Y-119349285D01*
X149217142Y-118563571D02*
X149574285Y-120063571D01*
X149860000Y-118992142D01*
X150145714Y-120063571D01*
X150502857Y-118563571D01*
X151931428Y-120063571D02*
X151431428Y-119349285D01*
X151074285Y-120063571D02*
X151074285Y-118563571D01*
X151645714Y-118563571D01*
X151788571Y-118635000D01*
X151860000Y-118706428D01*
X151931428Y-118849285D01*
X151931428Y-119063571D01*
X151860000Y-119206428D01*
X151788571Y-119277857D01*
X151645714Y-119349285D01*
X151074285Y-119349285D01*
X161722857Y-54018571D02*
X161722857Y-52518571D01*
X162437142Y-54018571D02*
X162437142Y-52518571D01*
X163294285Y-54018571D01*
X163294285Y-52518571D01*
X163651428Y-54161428D02*
X164794285Y-54161428D01*
X166008571Y-54018571D02*
X165508571Y-53304285D01*
X165151428Y-54018571D02*
X165151428Y-52518571D01*
X165722857Y-52518571D01*
X165865714Y-52590000D01*
X165937142Y-52661428D01*
X166008571Y-52804285D01*
X166008571Y-53018571D01*
X165937142Y-53161428D01*
X165865714Y-53232857D01*
X165722857Y-53304285D01*
X165151428Y-53304285D01*
X126305714Y-54018571D02*
X126305714Y-52518571D01*
X127020000Y-54018571D02*
X127020000Y-52518571D01*
X127877142Y-54018571D01*
X127877142Y-52518571D01*
X128234285Y-54161428D02*
X129377142Y-54161428D01*
X130448571Y-54018571D02*
X129734285Y-54018571D01*
X129734285Y-52518571D01*
X116701428Y-108398571D02*
X116987142Y-108398571D01*
X117130000Y-108470000D01*
X117272857Y-108612857D01*
X117344285Y-108898571D01*
X117344285Y-109398571D01*
X117272857Y-109684285D01*
X117130000Y-109827142D01*
X116987142Y-109898571D01*
X116701428Y-109898571D01*
X116558571Y-109827142D01*
X116415714Y-109684285D01*
X116344285Y-109398571D01*
X116344285Y-108898571D01*
X116415714Y-108612857D01*
X116558571Y-108470000D01*
X116701428Y-108398571D01*
X117987142Y-108398571D02*
X117987142Y-109612857D01*
X118058571Y-109755714D01*
X118130000Y-109827142D01*
X118272857Y-109898571D01*
X118558571Y-109898571D01*
X118701428Y-109827142D01*
X118772857Y-109755714D01*
X118844285Y-109612857D01*
X118844285Y-108398571D01*
X119344285Y-108398571D02*
X120201428Y-108398571D01*
X119772857Y-109898571D02*
X119772857Y-108398571D01*
X120344285Y-110041428D02*
X121487142Y-110041428D01*
X122558571Y-109898571D02*
X121844285Y-109898571D01*
X121844285Y-108398571D01*
X180058571Y-108398571D02*
X180344285Y-108398571D01*
X180487142Y-108470000D01*
X180630000Y-108612857D01*
X180701428Y-108898571D01*
X180701428Y-109398571D01*
X180630000Y-109684285D01*
X180487142Y-109827142D01*
X180344285Y-109898571D01*
X180058571Y-109898571D01*
X179915714Y-109827142D01*
X179772857Y-109684285D01*
X179701428Y-109398571D01*
X179701428Y-108898571D01*
X179772857Y-108612857D01*
X179915714Y-108470000D01*
X180058571Y-108398571D01*
X181344285Y-108398571D02*
X181344285Y-109612857D01*
X181415714Y-109755714D01*
X181487142Y-109827142D01*
X181630000Y-109898571D01*
X181915714Y-109898571D01*
X182058571Y-109827142D01*
X182130000Y-109755714D01*
X182201428Y-109612857D01*
X182201428Y-108398571D01*
X182701428Y-108398571D02*
X183558571Y-108398571D01*
X183130000Y-109898571D02*
X183130000Y-108398571D01*
X183701428Y-110041428D02*
X184844285Y-110041428D01*
X186058571Y-109898571D02*
X185558571Y-109184285D01*
X185201428Y-109898571D02*
X185201428Y-108398571D01*
X185772857Y-108398571D01*
X185915714Y-108470000D01*
X185987142Y-108541428D01*
X186058571Y-108684285D01*
X186058571Y-108898571D01*
X185987142Y-109041428D01*
X185915714Y-109112857D01*
X185772857Y-109184285D01*
X185201428Y-109184285D01*
D12*
X163720000Y-80070000D02*
X165370000Y-80070000D01*
X163720000Y-69790000D02*
X163720000Y-80070000D01*
X169020000Y-69790000D02*
X163720000Y-69790000D01*
X169020000Y-80070000D02*
X169020000Y-69790000D01*
X167370000Y-80070000D02*
X169020000Y-80070000D01*
X165370000Y-80070000D02*
G75*
G02X167370000Y-80070000I1000000J0D01*
G01*
X128160000Y-80070000D02*
X129810000Y-80070000D01*
X128160000Y-69790000D02*
X128160000Y-80070000D01*
X133460000Y-69790000D02*
X128160000Y-69790000D01*
X133460000Y-80070000D02*
X133460000Y-69790000D01*
X131810000Y-80070000D02*
X133460000Y-80070000D01*
X129810000Y-80070000D02*
G75*
G02X131810000Y-80070000I1000000J0D01*
G01*
X127830000Y-103730000D02*
X127830000Y-102630000D01*
X126880000Y-103730000D02*
X127830000Y-103730000D01*
X126880000Y-105230000D02*
X126880000Y-103730000D01*
X136330000Y-103730000D02*
X136330000Y-98605000D01*
X137280000Y-103730000D02*
X136330000Y-103730000D01*
X137280000Y-105230000D02*
X137280000Y-103730000D01*
X114755534Y-121315000D02*
X114755534Y-123015000D01*
X113905534Y-122165000D02*
X115605534Y-122165000D01*
X131730000Y-126453000D02*
X131730000Y-127547000D01*
X131690000Y-126024000D02*
X131690000Y-127976000D01*
X131650000Y-125730000D02*
X131650000Y-128270000D01*
X131610000Y-125492000D02*
X131610000Y-128508000D01*
X131570000Y-125287000D02*
X131570000Y-128713000D01*
X131530000Y-125104000D02*
X131530000Y-128896000D01*
X131490000Y-124938000D02*
X131490000Y-129062000D01*
X131450000Y-124785000D02*
X131450000Y-129215000D01*
X131410000Y-124642000D02*
X131410000Y-129358000D01*
X131370000Y-124508000D02*
X131370000Y-129492000D01*
X131330000Y-124382000D02*
X131330000Y-129618000D01*
X131291000Y-124261000D02*
X131291000Y-129739000D01*
X131251000Y-124146000D02*
X131251000Y-129854000D01*
X131211000Y-124037000D02*
X131211000Y-129963000D01*
X131171000Y-123931000D02*
X131171000Y-130069000D01*
X131131000Y-123829000D02*
X131131000Y-130171000D01*
X131091000Y-123732000D02*
X131091000Y-130268000D01*
X131051000Y-123637000D02*
X131051000Y-130363000D01*
X131011000Y-123545000D02*
X131011000Y-130455000D01*
X130971000Y-123456000D02*
X130971000Y-130544000D01*
X130931000Y-123370000D02*
X130931000Y-130630000D01*
X130891000Y-123286000D02*
X130891000Y-130714000D01*
X130851000Y-123205000D02*
X130851000Y-130795000D01*
X130811000Y-123125000D02*
X130811000Y-130875000D01*
X130771000Y-123048000D02*
X130771000Y-130952000D01*
X130731000Y-122972000D02*
X130731000Y-131028000D01*
X130691000Y-122898000D02*
X130691000Y-131102000D01*
X130651000Y-122826000D02*
X130651000Y-131174000D01*
X130611000Y-122755000D02*
X130611000Y-131245000D01*
X130571000Y-122686000D02*
X130571000Y-131314000D01*
X130531000Y-122619000D02*
X130531000Y-131381000D01*
X130491000Y-122552000D02*
X130491000Y-131448000D01*
X130451000Y-122487000D02*
X130451000Y-131513000D01*
X130411000Y-122424000D02*
X130411000Y-131576000D01*
X130371000Y-122361000D02*
X130371000Y-131639000D01*
X130331000Y-122300000D02*
X130331000Y-131700000D01*
X130291000Y-122240000D02*
X130291000Y-131760000D01*
X130251000Y-122180000D02*
X130251000Y-131820000D01*
X130211000Y-122122000D02*
X130211000Y-131878000D01*
X130171000Y-122065000D02*
X130171000Y-131935000D01*
X130131000Y-122009000D02*
X130131000Y-131991000D01*
X130091000Y-121954000D02*
X130091000Y-132046000D01*
X130051000Y-121900000D02*
X130051000Y-132100000D01*
X130011000Y-121846000D02*
X130011000Y-132154000D01*
X129971000Y-121794000D02*
X129971000Y-132206000D01*
X129931000Y-121742000D02*
X129931000Y-132258000D01*
X129891000Y-121691000D02*
X129891000Y-132309000D01*
X129851000Y-121641000D02*
X129851000Y-132359000D01*
X129811000Y-121591000D02*
X129811000Y-132409000D01*
X129771000Y-121543000D02*
X129771000Y-132457000D01*
X129731000Y-121495000D02*
X129731000Y-132505000D01*
X129691000Y-121447000D02*
X129691000Y-132553000D01*
X129651000Y-121401000D02*
X129651000Y-132599000D01*
X129611000Y-121355000D02*
X129611000Y-132645000D01*
X129571000Y-121310000D02*
X129571000Y-132690000D01*
X129531000Y-121265000D02*
X129531000Y-132735000D01*
X129491000Y-121221000D02*
X129491000Y-132779000D01*
X129451000Y-121178000D02*
X129451000Y-132822000D01*
X129411000Y-121135000D02*
X129411000Y-132865000D01*
X129371000Y-121093000D02*
X129371000Y-132907000D01*
X129331000Y-121051000D02*
X129331000Y-132949000D01*
X129291000Y-121010000D02*
X129291000Y-132990000D01*
X129251000Y-120969000D02*
X129251000Y-133031000D01*
X129211000Y-120929000D02*
X129211000Y-133071000D01*
X129171000Y-120889000D02*
X129171000Y-133111000D01*
X129131000Y-120850000D02*
X129131000Y-133150000D01*
X129091000Y-120812000D02*
X129091000Y-133188000D01*
X129051000Y-120774000D02*
X129051000Y-133226000D01*
X129011000Y-120736000D02*
X129011000Y-133264000D01*
X128971000Y-120699000D02*
X128971000Y-133301000D01*
X128931000Y-120663000D02*
X128931000Y-133337000D01*
X128891000Y-120626000D02*
X128891000Y-133374000D01*
X128851000Y-120591000D02*
X128851000Y-133409000D01*
X128811000Y-120556000D02*
X128811000Y-133444000D01*
X128771000Y-120521000D02*
X128771000Y-133479000D01*
X128731000Y-120486000D02*
X128731000Y-133514000D01*
X128691000Y-120452000D02*
X128691000Y-133548000D01*
X128651000Y-120419000D02*
X128651000Y-133581000D01*
X128611000Y-120386000D02*
X128611000Y-133614000D01*
X128571000Y-120353000D02*
X128571000Y-133647000D01*
X128531000Y-120321000D02*
X128531000Y-133679000D01*
X128491000Y-120289000D02*
X128491000Y-133711000D01*
X128451000Y-120257000D02*
X128451000Y-133743000D01*
X128411000Y-120226000D02*
X128411000Y-133774000D01*
X128371000Y-120195000D02*
X128371000Y-133805000D01*
X128331000Y-120165000D02*
X128331000Y-133835000D01*
X128291000Y-128440000D02*
X128291000Y-133865000D01*
X128291000Y-120135000D02*
X128291000Y-125560000D01*
X128251000Y-128440000D02*
X128251000Y-133895000D01*
X128251000Y-120105000D02*
X128251000Y-125560000D01*
X128211000Y-128440000D02*
X128211000Y-133925000D01*
X128211000Y-120075000D02*
X128211000Y-125560000D01*
X128171000Y-128440000D02*
X128171000Y-133954000D01*
X128171000Y-120046000D02*
X128171000Y-125560000D01*
X128131000Y-128440000D02*
X128131000Y-133982000D01*
X128131000Y-120018000D02*
X128131000Y-125560000D01*
X128091000Y-128440000D02*
X128091000Y-134011000D01*
X128091000Y-119989000D02*
X128091000Y-125560000D01*
X128051000Y-128440000D02*
X128051000Y-134038000D01*
X128051000Y-119962000D02*
X128051000Y-125560000D01*
X128011000Y-128440000D02*
X128011000Y-134066000D01*
X128011000Y-119934000D02*
X128011000Y-125560000D01*
X127971000Y-128440000D02*
X127971000Y-134093000D01*
X127971000Y-119907000D02*
X127971000Y-125560000D01*
X127931000Y-128440000D02*
X127931000Y-134120000D01*
X127931000Y-119880000D02*
X127931000Y-125560000D01*
X127891000Y-128440000D02*
X127891000Y-134147000D01*
X127891000Y-119853000D02*
X127891000Y-125560000D01*
X127851000Y-128440000D02*
X127851000Y-134173000D01*
X127851000Y-119827000D02*
X127851000Y-125560000D01*
X127811000Y-128440000D02*
X127811000Y-134199000D01*
X127811000Y-119801000D02*
X127811000Y-125560000D01*
X127771000Y-128440000D02*
X127771000Y-134225000D01*
X127771000Y-119775000D02*
X127771000Y-125560000D01*
X127731000Y-128440000D02*
X127731000Y-134251000D01*
X127731000Y-119749000D02*
X127731000Y-125560000D01*
X127691000Y-128440000D02*
X127691000Y-134276000D01*
X127691000Y-119724000D02*
X127691000Y-125560000D01*
X127651000Y-128440000D02*
X127651000Y-134300000D01*
X127651000Y-119700000D02*
X127651000Y-125560000D01*
X127611000Y-128440000D02*
X127611000Y-134325000D01*
X127611000Y-119675000D02*
X127611000Y-125560000D01*
X127571000Y-128440000D02*
X127571000Y-134349000D01*
X127571000Y-119651000D02*
X127571000Y-125560000D01*
X127531000Y-128440000D02*
X127531000Y-134373000D01*
X127531000Y-119627000D02*
X127531000Y-125560000D01*
X127491000Y-128440000D02*
X127491000Y-134397000D01*
X127491000Y-119603000D02*
X127491000Y-125560000D01*
X127451000Y-128440000D02*
X127451000Y-134420000D01*
X127451000Y-119580000D02*
X127451000Y-125560000D01*
X127411000Y-128440000D02*
X127411000Y-134443000D01*
X127411000Y-119557000D02*
X127411000Y-125560000D01*
X127371000Y-128440000D02*
X127371000Y-134466000D01*
X127371000Y-119534000D02*
X127371000Y-125560000D01*
X127331000Y-128440000D02*
X127331000Y-134488000D01*
X127331000Y-119512000D02*
X127331000Y-125560000D01*
X127291000Y-128440000D02*
X127291000Y-134510000D01*
X127291000Y-119490000D02*
X127291000Y-125560000D01*
X127251000Y-128440000D02*
X127251000Y-134532000D01*
X127251000Y-119468000D02*
X127251000Y-125560000D01*
X127211000Y-128440000D02*
X127211000Y-134554000D01*
X127211000Y-119446000D02*
X127211000Y-125560000D01*
X127171000Y-128440000D02*
X127171000Y-134575000D01*
X127171000Y-119425000D02*
X127171000Y-125560000D01*
X127131000Y-128440000D02*
X127131000Y-134596000D01*
X127131000Y-119404000D02*
X127131000Y-125560000D01*
X127091000Y-128440000D02*
X127091000Y-134617000D01*
X127091000Y-119383000D02*
X127091000Y-125560000D01*
X127051000Y-128440000D02*
X127051000Y-134638000D01*
X127051000Y-119362000D02*
X127051000Y-125560000D01*
X127011000Y-128440000D02*
X127011000Y-134658000D01*
X127011000Y-119342000D02*
X127011000Y-125560000D01*
X126971000Y-128440000D02*
X126971000Y-134678000D01*
X126971000Y-119322000D02*
X126971000Y-125560000D01*
X126931000Y-128440000D02*
X126931000Y-134698000D01*
X126931000Y-119302000D02*
X126931000Y-125560000D01*
X126891000Y-128440000D02*
X126891000Y-134717000D01*
X126891000Y-119283000D02*
X126891000Y-125560000D01*
X126851000Y-128440000D02*
X126851000Y-134736000D01*
X126851000Y-119264000D02*
X126851000Y-125560000D01*
X126811000Y-128440000D02*
X126811000Y-134755000D01*
X126811000Y-119245000D02*
X126811000Y-125560000D01*
X126771000Y-128440000D02*
X126771000Y-134774000D01*
X126771000Y-119226000D02*
X126771000Y-125560000D01*
X126731000Y-128440000D02*
X126731000Y-134793000D01*
X126731000Y-119207000D02*
X126731000Y-125560000D01*
X126691000Y-128440000D02*
X126691000Y-134811000D01*
X126691000Y-119189000D02*
X126691000Y-125560000D01*
X126651000Y-128440000D02*
X126651000Y-134829000D01*
X126651000Y-119171000D02*
X126651000Y-125560000D01*
X126611000Y-128440000D02*
X126611000Y-134847000D01*
X126611000Y-119153000D02*
X126611000Y-125560000D01*
X126571000Y-128440000D02*
X126571000Y-134864000D01*
X126571000Y-119136000D02*
X126571000Y-125560000D01*
X126531000Y-128440000D02*
X126531000Y-134882000D01*
X126531000Y-119118000D02*
X126531000Y-125560000D01*
X126491000Y-128440000D02*
X126491000Y-134899000D01*
X126491000Y-119101000D02*
X126491000Y-125560000D01*
X126451000Y-128440000D02*
X126451000Y-134915000D01*
X126451000Y-119085000D02*
X126451000Y-125560000D01*
X126411000Y-128440000D02*
X126411000Y-134932000D01*
X126411000Y-119068000D02*
X126411000Y-125560000D01*
X126371000Y-128440000D02*
X126371000Y-134948000D01*
X126371000Y-119052000D02*
X126371000Y-125560000D01*
X126331000Y-128440000D02*
X126331000Y-134965000D01*
X126331000Y-119035000D02*
X126331000Y-125560000D01*
X126291000Y-128440000D02*
X126291000Y-134980000D01*
X126291000Y-119020000D02*
X126291000Y-125560000D01*
X126251000Y-128440000D02*
X126251000Y-134996000D01*
X126251000Y-119004000D02*
X126251000Y-125560000D01*
X126211000Y-128440000D02*
X126211000Y-135011000D01*
X126211000Y-118989000D02*
X126211000Y-125560000D01*
X126171000Y-128440000D02*
X126171000Y-135027000D01*
X126171000Y-118973000D02*
X126171000Y-125560000D01*
X126131000Y-128440000D02*
X126131000Y-135042000D01*
X126131000Y-118958000D02*
X126131000Y-125560000D01*
X126091000Y-128440000D02*
X126091000Y-135056000D01*
X126091000Y-118944000D02*
X126091000Y-125560000D01*
X126051000Y-128440000D02*
X126051000Y-135071000D01*
X126051000Y-118929000D02*
X126051000Y-125560000D01*
X126011000Y-128440000D02*
X126011000Y-135085000D01*
X126011000Y-118915000D02*
X126011000Y-125560000D01*
X125971000Y-128440000D02*
X125971000Y-135099000D01*
X125971000Y-118901000D02*
X125971000Y-125560000D01*
X125931000Y-128440000D02*
X125931000Y-135113000D01*
X125931000Y-118887000D02*
X125931000Y-125560000D01*
X125891000Y-128440000D02*
X125891000Y-135127000D01*
X125891000Y-118873000D02*
X125891000Y-125560000D01*
X125851000Y-128440000D02*
X125851000Y-135140000D01*
X125851000Y-118860000D02*
X125851000Y-125560000D01*
X125811000Y-128440000D02*
X125811000Y-135153000D01*
X125811000Y-118847000D02*
X125811000Y-125560000D01*
X125771000Y-128440000D02*
X125771000Y-135166000D01*
X125771000Y-118834000D02*
X125771000Y-125560000D01*
X125731000Y-128440000D02*
X125731000Y-135179000D01*
X125731000Y-118821000D02*
X125731000Y-125560000D01*
X125691000Y-128440000D02*
X125691000Y-135192000D01*
X125691000Y-118808000D02*
X125691000Y-125560000D01*
X125651000Y-128440000D02*
X125651000Y-135204000D01*
X125651000Y-118796000D02*
X125651000Y-125560000D01*
X125611000Y-128440000D02*
X125611000Y-135216000D01*
X125611000Y-118784000D02*
X125611000Y-125560000D01*
X125571000Y-128440000D02*
X125571000Y-135228000D01*
X125571000Y-118772000D02*
X125571000Y-125560000D01*
X125531000Y-128440000D02*
X125531000Y-135240000D01*
X125531000Y-118760000D02*
X125531000Y-125560000D01*
X125491000Y-128440000D02*
X125491000Y-135251000D01*
X125491000Y-118749000D02*
X125491000Y-125560000D01*
X125451000Y-128440000D02*
X125451000Y-135262000D01*
X125451000Y-118738000D02*
X125451000Y-125560000D01*
X125411000Y-118726000D02*
X125411000Y-135274000D01*
X125371000Y-118716000D02*
X125371000Y-135284000D01*
X125331000Y-118705000D02*
X125331000Y-135295000D01*
X125291000Y-118695000D02*
X125291000Y-135305000D01*
X125251000Y-118684000D02*
X125251000Y-135316000D01*
X125211000Y-118674000D02*
X125211000Y-135326000D01*
X125171000Y-118664000D02*
X125171000Y-135336000D01*
X125131000Y-118655000D02*
X125131000Y-135345000D01*
X125091000Y-118645000D02*
X125091000Y-135355000D01*
X125051000Y-118636000D02*
X125051000Y-135364000D01*
X125011000Y-118627000D02*
X125011000Y-135373000D01*
X124971000Y-118618000D02*
X124971000Y-135382000D01*
X124931000Y-118610000D02*
X124931000Y-135390000D01*
X124891000Y-118601000D02*
X124891000Y-135399000D01*
X124851000Y-118593000D02*
X124851000Y-135407000D01*
X124811000Y-118585000D02*
X124811000Y-135415000D01*
X124771000Y-118577000D02*
X124771000Y-135423000D01*
X124731000Y-118569000D02*
X124731000Y-135431000D01*
X124691000Y-118562000D02*
X124691000Y-135438000D01*
X124651000Y-118555000D02*
X124651000Y-135445000D01*
X124611000Y-118548000D02*
X124611000Y-135452000D01*
X124571000Y-118541000D02*
X124571000Y-135459000D01*
X124531000Y-118534000D02*
X124531000Y-135466000D01*
X124491000Y-118527000D02*
X124491000Y-135473000D01*
X124451000Y-118521000D02*
X124451000Y-135479000D01*
X124411000Y-118515000D02*
X124411000Y-135485000D01*
X124371000Y-118509000D02*
X124371000Y-135491000D01*
X124331000Y-118503000D02*
X124331000Y-135497000D01*
X124291000Y-118498000D02*
X124291000Y-135502000D01*
X124251000Y-118493000D02*
X124251000Y-135507000D01*
X124211000Y-118487000D02*
X124211000Y-135513000D01*
X124171000Y-118482000D02*
X124171000Y-135518000D01*
X124131000Y-118478000D02*
X124131000Y-135522000D01*
X124091000Y-118473000D02*
X124091000Y-135527000D01*
X124051000Y-118469000D02*
X124051000Y-135531000D01*
X124011000Y-118465000D02*
X124011000Y-135535000D01*
X123971000Y-118461000D02*
X123971000Y-135539000D01*
X123931000Y-118457000D02*
X123931000Y-135543000D01*
X123891000Y-118453000D02*
X123891000Y-135547000D01*
X123851000Y-118450000D02*
X123851000Y-135550000D01*
X123810000Y-118446000D02*
X123810000Y-135554000D01*
X123770000Y-118443000D02*
X123770000Y-135557000D01*
X123730000Y-118440000D02*
X123730000Y-135560000D01*
X123690000Y-118438000D02*
X123690000Y-135562000D01*
X123650000Y-118435000D02*
X123650000Y-135565000D01*
X123610000Y-118433000D02*
X123610000Y-135567000D01*
X123570000Y-118431000D02*
X123570000Y-135569000D01*
X123530000Y-118429000D02*
X123530000Y-135571000D01*
X123490000Y-118427000D02*
X123490000Y-135573000D01*
X123450000Y-118425000D02*
X123450000Y-135575000D01*
X123410000Y-118424000D02*
X123410000Y-135576000D01*
X123370000Y-118423000D02*
X123370000Y-135577000D01*
X123330000Y-118422000D02*
X123330000Y-135578000D01*
X123290000Y-118421000D02*
X123290000Y-135579000D01*
X123250000Y-118420000D02*
X123250000Y-135580000D01*
X123210000Y-118420000D02*
X123210000Y-135580000D01*
X123170000Y-118420000D02*
X123170000Y-135580000D01*
X123130000Y-118419000D02*
X123130000Y-135581000D01*
X131750000Y-127000000D02*
G75*
G03X131750000Y-127000000I-8620000J0D01*
G01*
X150315534Y-121315000D02*
X150315534Y-123015000D01*
X149465534Y-122165000D02*
X151165534Y-122165000D01*
X167290000Y-126453000D02*
X167290000Y-127547000D01*
X167250000Y-126024000D02*
X167250000Y-127976000D01*
X167210000Y-125730000D02*
X167210000Y-128270000D01*
X167170000Y-125492000D02*
X167170000Y-128508000D01*
X167130000Y-125287000D02*
X167130000Y-128713000D01*
X167090000Y-125104000D02*
X167090000Y-128896000D01*
X167050000Y-124938000D02*
X167050000Y-129062000D01*
X167010000Y-124785000D02*
X167010000Y-129215000D01*
X166970000Y-124642000D02*
X166970000Y-129358000D01*
X166930000Y-124508000D02*
X166930000Y-129492000D01*
X166890000Y-124382000D02*
X166890000Y-129618000D01*
X166851000Y-124261000D02*
X166851000Y-129739000D01*
X166811000Y-124146000D02*
X166811000Y-129854000D01*
X166771000Y-124037000D02*
X166771000Y-129963000D01*
X166731000Y-123931000D02*
X166731000Y-130069000D01*
X166691000Y-123829000D02*
X166691000Y-130171000D01*
X166651000Y-123732000D02*
X166651000Y-130268000D01*
X166611000Y-123637000D02*
X166611000Y-130363000D01*
X166571000Y-123545000D02*
X166571000Y-130455000D01*
X166531000Y-123456000D02*
X166531000Y-130544000D01*
X166491000Y-123370000D02*
X166491000Y-130630000D01*
X166451000Y-123286000D02*
X166451000Y-130714000D01*
X166411000Y-123205000D02*
X166411000Y-130795000D01*
X166371000Y-123125000D02*
X166371000Y-130875000D01*
X166331000Y-123048000D02*
X166331000Y-130952000D01*
X166291000Y-122972000D02*
X166291000Y-131028000D01*
X166251000Y-122898000D02*
X166251000Y-131102000D01*
X166211000Y-122826000D02*
X166211000Y-131174000D01*
X166171000Y-122755000D02*
X166171000Y-131245000D01*
X166131000Y-122686000D02*
X166131000Y-131314000D01*
X166091000Y-122619000D02*
X166091000Y-131381000D01*
X166051000Y-122552000D02*
X166051000Y-131448000D01*
X166011000Y-122487000D02*
X166011000Y-131513000D01*
X165971000Y-122424000D02*
X165971000Y-131576000D01*
X165931000Y-122361000D02*
X165931000Y-131639000D01*
X165891000Y-122300000D02*
X165891000Y-131700000D01*
X165851000Y-122240000D02*
X165851000Y-131760000D01*
X165811000Y-122180000D02*
X165811000Y-131820000D01*
X165771000Y-122122000D02*
X165771000Y-131878000D01*
X165731000Y-122065000D02*
X165731000Y-131935000D01*
X165691000Y-122009000D02*
X165691000Y-131991000D01*
X165651000Y-121954000D02*
X165651000Y-132046000D01*
X165611000Y-121900000D02*
X165611000Y-132100000D01*
X165571000Y-121846000D02*
X165571000Y-132154000D01*
X165531000Y-121794000D02*
X165531000Y-132206000D01*
X165491000Y-121742000D02*
X165491000Y-132258000D01*
X165451000Y-121691000D02*
X165451000Y-132309000D01*
X165411000Y-121641000D02*
X165411000Y-132359000D01*
X165371000Y-121591000D02*
X165371000Y-132409000D01*
X165331000Y-121543000D02*
X165331000Y-132457000D01*
X165291000Y-121495000D02*
X165291000Y-132505000D01*
X165251000Y-121447000D02*
X165251000Y-132553000D01*
X165211000Y-121401000D02*
X165211000Y-132599000D01*
X165171000Y-121355000D02*
X165171000Y-132645000D01*
X165131000Y-121310000D02*
X165131000Y-132690000D01*
X165091000Y-121265000D02*
X165091000Y-132735000D01*
X165051000Y-121221000D02*
X165051000Y-132779000D01*
X165011000Y-121178000D02*
X165011000Y-132822000D01*
X164971000Y-121135000D02*
X164971000Y-132865000D01*
X164931000Y-121093000D02*
X164931000Y-132907000D01*
X164891000Y-121051000D02*
X164891000Y-132949000D01*
X164851000Y-121010000D02*
X164851000Y-132990000D01*
X164811000Y-120969000D02*
X164811000Y-133031000D01*
X164771000Y-120929000D02*
X164771000Y-133071000D01*
X164731000Y-120889000D02*
X164731000Y-133111000D01*
X164691000Y-120850000D02*
X164691000Y-133150000D01*
X164651000Y-120812000D02*
X164651000Y-133188000D01*
X164611000Y-120774000D02*
X164611000Y-133226000D01*
X164571000Y-120736000D02*
X164571000Y-133264000D01*
X164531000Y-120699000D02*
X164531000Y-133301000D01*
X164491000Y-120663000D02*
X164491000Y-133337000D01*
X164451000Y-120626000D02*
X164451000Y-133374000D01*
X164411000Y-120591000D02*
X164411000Y-133409000D01*
X164371000Y-120556000D02*
X164371000Y-133444000D01*
X164331000Y-120521000D02*
X164331000Y-133479000D01*
X164291000Y-120486000D02*
X164291000Y-133514000D01*
X164251000Y-120452000D02*
X164251000Y-133548000D01*
X164211000Y-120419000D02*
X164211000Y-133581000D01*
X164171000Y-120386000D02*
X164171000Y-133614000D01*
X164131000Y-120353000D02*
X164131000Y-133647000D01*
X164091000Y-120321000D02*
X164091000Y-133679000D01*
X164051000Y-120289000D02*
X164051000Y-133711000D01*
X164011000Y-120257000D02*
X164011000Y-133743000D01*
X163971000Y-120226000D02*
X163971000Y-133774000D01*
X163931000Y-120195000D02*
X163931000Y-133805000D01*
X163891000Y-120165000D02*
X163891000Y-133835000D01*
X163851000Y-128440000D02*
X163851000Y-133865000D01*
X163851000Y-120135000D02*
X163851000Y-125560000D01*
X163811000Y-128440000D02*
X163811000Y-133895000D01*
X163811000Y-120105000D02*
X163811000Y-125560000D01*
X163771000Y-128440000D02*
X163771000Y-133925000D01*
X163771000Y-120075000D02*
X163771000Y-125560000D01*
X163731000Y-128440000D02*
X163731000Y-133954000D01*
X163731000Y-120046000D02*
X163731000Y-125560000D01*
X163691000Y-128440000D02*
X163691000Y-133982000D01*
X163691000Y-120018000D02*
X163691000Y-125560000D01*
X163651000Y-128440000D02*
X163651000Y-134011000D01*
X163651000Y-119989000D02*
X163651000Y-125560000D01*
X163611000Y-128440000D02*
X163611000Y-134038000D01*
X163611000Y-119962000D02*
X163611000Y-125560000D01*
X163571000Y-128440000D02*
X163571000Y-134066000D01*
X163571000Y-119934000D02*
X163571000Y-125560000D01*
X163531000Y-128440000D02*
X163531000Y-134093000D01*
X163531000Y-119907000D02*
X163531000Y-125560000D01*
X163491000Y-128440000D02*
X163491000Y-134120000D01*
X163491000Y-119880000D02*
X163491000Y-125560000D01*
X163451000Y-128440000D02*
X163451000Y-134147000D01*
X163451000Y-119853000D02*
X163451000Y-125560000D01*
X163411000Y-128440000D02*
X163411000Y-134173000D01*
X163411000Y-119827000D02*
X163411000Y-125560000D01*
X163371000Y-128440000D02*
X163371000Y-134199000D01*
X163371000Y-119801000D02*
X163371000Y-125560000D01*
X163331000Y-128440000D02*
X163331000Y-134225000D01*
X163331000Y-119775000D02*
X163331000Y-125560000D01*
X163291000Y-128440000D02*
X163291000Y-134251000D01*
X163291000Y-119749000D02*
X163291000Y-125560000D01*
X163251000Y-128440000D02*
X163251000Y-134276000D01*
X163251000Y-119724000D02*
X163251000Y-125560000D01*
X163211000Y-128440000D02*
X163211000Y-134300000D01*
X163211000Y-119700000D02*
X163211000Y-125560000D01*
X163171000Y-128440000D02*
X163171000Y-134325000D01*
X163171000Y-119675000D02*
X163171000Y-125560000D01*
X163131000Y-128440000D02*
X163131000Y-134349000D01*
X163131000Y-119651000D02*
X163131000Y-125560000D01*
X163091000Y-128440000D02*
X163091000Y-134373000D01*
X163091000Y-119627000D02*
X163091000Y-125560000D01*
X163051000Y-128440000D02*
X163051000Y-134397000D01*
X163051000Y-119603000D02*
X163051000Y-125560000D01*
X163011000Y-128440000D02*
X163011000Y-134420000D01*
X163011000Y-119580000D02*
X163011000Y-125560000D01*
X162971000Y-128440000D02*
X162971000Y-134443000D01*
X162971000Y-119557000D02*
X162971000Y-125560000D01*
X162931000Y-128440000D02*
X162931000Y-134466000D01*
X162931000Y-119534000D02*
X162931000Y-125560000D01*
X162891000Y-128440000D02*
X162891000Y-134488000D01*
X162891000Y-119512000D02*
X162891000Y-125560000D01*
X162851000Y-128440000D02*
X162851000Y-134510000D01*
X162851000Y-119490000D02*
X162851000Y-125560000D01*
X162811000Y-128440000D02*
X162811000Y-134532000D01*
X162811000Y-119468000D02*
X162811000Y-125560000D01*
X162771000Y-128440000D02*
X162771000Y-134554000D01*
X162771000Y-119446000D02*
X162771000Y-125560000D01*
X162731000Y-128440000D02*
X162731000Y-134575000D01*
X162731000Y-119425000D02*
X162731000Y-125560000D01*
X162691000Y-128440000D02*
X162691000Y-134596000D01*
X162691000Y-119404000D02*
X162691000Y-125560000D01*
X162651000Y-128440000D02*
X162651000Y-134617000D01*
X162651000Y-119383000D02*
X162651000Y-125560000D01*
X162611000Y-128440000D02*
X162611000Y-134638000D01*
X162611000Y-119362000D02*
X162611000Y-125560000D01*
X162571000Y-128440000D02*
X162571000Y-134658000D01*
X162571000Y-119342000D02*
X162571000Y-125560000D01*
X162531000Y-128440000D02*
X162531000Y-134678000D01*
X162531000Y-119322000D02*
X162531000Y-125560000D01*
X162491000Y-128440000D02*
X162491000Y-134698000D01*
X162491000Y-119302000D02*
X162491000Y-125560000D01*
X162451000Y-128440000D02*
X162451000Y-134717000D01*
X162451000Y-119283000D02*
X162451000Y-125560000D01*
X162411000Y-128440000D02*
X162411000Y-134736000D01*
X162411000Y-119264000D02*
X162411000Y-125560000D01*
X162371000Y-128440000D02*
X162371000Y-134755000D01*
X162371000Y-119245000D02*
X162371000Y-125560000D01*
X162331000Y-128440000D02*
X162331000Y-134774000D01*
X162331000Y-119226000D02*
X162331000Y-125560000D01*
X162291000Y-128440000D02*
X162291000Y-134793000D01*
X162291000Y-119207000D02*
X162291000Y-125560000D01*
X162251000Y-128440000D02*
X162251000Y-134811000D01*
X162251000Y-119189000D02*
X162251000Y-125560000D01*
X162211000Y-128440000D02*
X162211000Y-134829000D01*
X162211000Y-119171000D02*
X162211000Y-125560000D01*
X162171000Y-128440000D02*
X162171000Y-134847000D01*
X162171000Y-119153000D02*
X162171000Y-125560000D01*
X162131000Y-128440000D02*
X162131000Y-134864000D01*
X162131000Y-119136000D02*
X162131000Y-125560000D01*
X162091000Y-128440000D02*
X162091000Y-134882000D01*
X162091000Y-119118000D02*
X162091000Y-125560000D01*
X162051000Y-128440000D02*
X162051000Y-134899000D01*
X162051000Y-119101000D02*
X162051000Y-125560000D01*
X162011000Y-128440000D02*
X162011000Y-134915000D01*
X162011000Y-119085000D02*
X162011000Y-125560000D01*
X161971000Y-128440000D02*
X161971000Y-134932000D01*
X161971000Y-119068000D02*
X161971000Y-125560000D01*
X161931000Y-128440000D02*
X161931000Y-134948000D01*
X161931000Y-119052000D02*
X161931000Y-125560000D01*
X161891000Y-128440000D02*
X161891000Y-134965000D01*
X161891000Y-119035000D02*
X161891000Y-125560000D01*
X161851000Y-128440000D02*
X161851000Y-134980000D01*
X161851000Y-119020000D02*
X161851000Y-125560000D01*
X161811000Y-128440000D02*
X161811000Y-134996000D01*
X161811000Y-119004000D02*
X161811000Y-125560000D01*
X161771000Y-128440000D02*
X161771000Y-135011000D01*
X161771000Y-118989000D02*
X161771000Y-125560000D01*
X161731000Y-128440000D02*
X161731000Y-135027000D01*
X161731000Y-118973000D02*
X161731000Y-125560000D01*
X161691000Y-128440000D02*
X161691000Y-135042000D01*
X161691000Y-118958000D02*
X161691000Y-125560000D01*
X161651000Y-128440000D02*
X161651000Y-135056000D01*
X161651000Y-118944000D02*
X161651000Y-125560000D01*
X161611000Y-128440000D02*
X161611000Y-135071000D01*
X161611000Y-118929000D02*
X161611000Y-125560000D01*
X161571000Y-128440000D02*
X161571000Y-135085000D01*
X161571000Y-118915000D02*
X161571000Y-125560000D01*
X161531000Y-128440000D02*
X161531000Y-135099000D01*
X161531000Y-118901000D02*
X161531000Y-125560000D01*
X161491000Y-128440000D02*
X161491000Y-135113000D01*
X161491000Y-118887000D02*
X161491000Y-125560000D01*
X161451000Y-128440000D02*
X161451000Y-135127000D01*
X161451000Y-118873000D02*
X161451000Y-125560000D01*
X161411000Y-128440000D02*
X161411000Y-135140000D01*
X161411000Y-118860000D02*
X161411000Y-125560000D01*
X161371000Y-128440000D02*
X161371000Y-135153000D01*
X161371000Y-118847000D02*
X161371000Y-125560000D01*
X161331000Y-128440000D02*
X161331000Y-135166000D01*
X161331000Y-118834000D02*
X161331000Y-125560000D01*
X161291000Y-128440000D02*
X161291000Y-135179000D01*
X161291000Y-118821000D02*
X161291000Y-125560000D01*
X161251000Y-128440000D02*
X161251000Y-135192000D01*
X161251000Y-118808000D02*
X161251000Y-125560000D01*
X161211000Y-128440000D02*
X161211000Y-135204000D01*
X161211000Y-118796000D02*
X161211000Y-125560000D01*
X161171000Y-128440000D02*
X161171000Y-135216000D01*
X161171000Y-118784000D02*
X161171000Y-125560000D01*
X161131000Y-128440000D02*
X161131000Y-135228000D01*
X161131000Y-118772000D02*
X161131000Y-125560000D01*
X161091000Y-128440000D02*
X161091000Y-135240000D01*
X161091000Y-118760000D02*
X161091000Y-125560000D01*
X161051000Y-128440000D02*
X161051000Y-135251000D01*
X161051000Y-118749000D02*
X161051000Y-125560000D01*
X161011000Y-128440000D02*
X161011000Y-135262000D01*
X161011000Y-118738000D02*
X161011000Y-125560000D01*
X160971000Y-118726000D02*
X160971000Y-135274000D01*
X160931000Y-118716000D02*
X160931000Y-135284000D01*
X160891000Y-118705000D02*
X160891000Y-135295000D01*
X160851000Y-118695000D02*
X160851000Y-135305000D01*
X160811000Y-118684000D02*
X160811000Y-135316000D01*
X160771000Y-118674000D02*
X160771000Y-135326000D01*
X160731000Y-118664000D02*
X160731000Y-135336000D01*
X160691000Y-118655000D02*
X160691000Y-135345000D01*
X160651000Y-118645000D02*
X160651000Y-135355000D01*
X160611000Y-118636000D02*
X160611000Y-135364000D01*
X160571000Y-118627000D02*
X160571000Y-135373000D01*
X160531000Y-118618000D02*
X160531000Y-135382000D01*
X160491000Y-118610000D02*
X160491000Y-135390000D01*
X160451000Y-118601000D02*
X160451000Y-135399000D01*
X160411000Y-118593000D02*
X160411000Y-135407000D01*
X160371000Y-118585000D02*
X160371000Y-135415000D01*
X160331000Y-118577000D02*
X160331000Y-135423000D01*
X160291000Y-118569000D02*
X160291000Y-135431000D01*
X160251000Y-118562000D02*
X160251000Y-135438000D01*
X160211000Y-118555000D02*
X160211000Y-135445000D01*
X160171000Y-118548000D02*
X160171000Y-135452000D01*
X160131000Y-118541000D02*
X160131000Y-135459000D01*
X160091000Y-118534000D02*
X160091000Y-135466000D01*
X160051000Y-118527000D02*
X160051000Y-135473000D01*
X160011000Y-118521000D02*
X160011000Y-135479000D01*
X159971000Y-118515000D02*
X159971000Y-135485000D01*
X159931000Y-118509000D02*
X159931000Y-135491000D01*
X159891000Y-118503000D02*
X159891000Y-135497000D01*
X159851000Y-118498000D02*
X159851000Y-135502000D01*
X159811000Y-118493000D02*
X159811000Y-135507000D01*
X159771000Y-118487000D02*
X159771000Y-135513000D01*
X159731000Y-118482000D02*
X159731000Y-135518000D01*
X159691000Y-118478000D02*
X159691000Y-135522000D01*
X159651000Y-118473000D02*
X159651000Y-135527000D01*
X159611000Y-118469000D02*
X159611000Y-135531000D01*
X159571000Y-118465000D02*
X159571000Y-135535000D01*
X159531000Y-118461000D02*
X159531000Y-135539000D01*
X159491000Y-118457000D02*
X159491000Y-135543000D01*
X159451000Y-118453000D02*
X159451000Y-135547000D01*
X159411000Y-118450000D02*
X159411000Y-135550000D01*
X159370000Y-118446000D02*
X159370000Y-135554000D01*
X159330000Y-118443000D02*
X159330000Y-135557000D01*
X159290000Y-118440000D02*
X159290000Y-135560000D01*
X159250000Y-118438000D02*
X159250000Y-135562000D01*
X159210000Y-118435000D02*
X159210000Y-135565000D01*
X159170000Y-118433000D02*
X159170000Y-135567000D01*
X159130000Y-118431000D02*
X159130000Y-135569000D01*
X159090000Y-118429000D02*
X159090000Y-135571000D01*
X159050000Y-118427000D02*
X159050000Y-135573000D01*
X159010000Y-118425000D02*
X159010000Y-135575000D01*
X158970000Y-118424000D02*
X158970000Y-135576000D01*
X158930000Y-118423000D02*
X158930000Y-135577000D01*
X158890000Y-118422000D02*
X158890000Y-135578000D01*
X158850000Y-118421000D02*
X158850000Y-135579000D01*
X158810000Y-118420000D02*
X158810000Y-135580000D01*
X158770000Y-118420000D02*
X158770000Y-135580000D01*
X158730000Y-118420000D02*
X158730000Y-135580000D01*
X158690000Y-118419000D02*
X158690000Y-135581000D01*
X167310000Y-127000000D02*
G75*
G03X167310000Y-127000000I-8620000J0D01*
G01*
X144550000Y-109010000D02*
X144550000Y-110260000D01*
X145800000Y-109010000D02*
X144550000Y-109010000D01*
X154200000Y-114510000D02*
X149900000Y-114510000D01*
X154200000Y-111560000D02*
X154200000Y-114510000D01*
X154950000Y-111560000D02*
X154200000Y-111560000D01*
X145600000Y-114510000D02*
X149900000Y-114510000D01*
X145600000Y-111560000D02*
X145600000Y-114510000D01*
X144850000Y-111560000D02*
X145600000Y-111560000D01*
X154950000Y-109310000D02*
X153150000Y-109310000D01*
X154950000Y-110060000D02*
X154950000Y-109310000D01*
X153150000Y-110060000D02*
X154950000Y-110060000D01*
X153150000Y-109310000D02*
X153150000Y-110060000D01*
X146650000Y-109310000D02*
X144850000Y-109310000D01*
X146650000Y-110060000D02*
X146650000Y-109310000D01*
X144850000Y-110060000D02*
X146650000Y-110060000D01*
X144850000Y-109310000D02*
X144850000Y-110060000D01*
X151650000Y-109310000D02*
X148150000Y-109310000D01*
X151650000Y-110060000D02*
X151650000Y-109310000D01*
X148150000Y-110060000D02*
X151650000Y-110060000D01*
X148150000Y-109310000D02*
X148150000Y-110060000D01*
X154960000Y-109300000D02*
X144840000Y-109300000D01*
X154960000Y-115270000D02*
X154960000Y-109300000D01*
X144840000Y-115270000D02*
X154960000Y-115270000D01*
X144840000Y-109300000D02*
X144840000Y-115270000D01*
X132655534Y-121315000D02*
X132655534Y-123015000D01*
X131805534Y-122165000D02*
X133505534Y-122165000D01*
X149630000Y-126453000D02*
X149630000Y-127547000D01*
X149590000Y-126024000D02*
X149590000Y-127976000D01*
X149550000Y-125730000D02*
X149550000Y-128270000D01*
X149510000Y-125492000D02*
X149510000Y-128508000D01*
X149470000Y-125287000D02*
X149470000Y-128713000D01*
X149430000Y-125104000D02*
X149430000Y-128896000D01*
X149390000Y-124938000D02*
X149390000Y-129062000D01*
X149350000Y-124785000D02*
X149350000Y-129215000D01*
X149310000Y-124642000D02*
X149310000Y-129358000D01*
X149270000Y-124508000D02*
X149270000Y-129492000D01*
X149230000Y-124382000D02*
X149230000Y-129618000D01*
X149191000Y-124261000D02*
X149191000Y-129739000D01*
X149151000Y-124146000D02*
X149151000Y-129854000D01*
X149111000Y-124037000D02*
X149111000Y-129963000D01*
X149071000Y-123931000D02*
X149071000Y-130069000D01*
X149031000Y-123829000D02*
X149031000Y-130171000D01*
X148991000Y-123732000D02*
X148991000Y-130268000D01*
X148951000Y-123637000D02*
X148951000Y-130363000D01*
X148911000Y-123545000D02*
X148911000Y-130455000D01*
X148871000Y-123456000D02*
X148871000Y-130544000D01*
X148831000Y-123370000D02*
X148831000Y-130630000D01*
X148791000Y-123286000D02*
X148791000Y-130714000D01*
X148751000Y-123205000D02*
X148751000Y-130795000D01*
X148711000Y-123125000D02*
X148711000Y-130875000D01*
X148671000Y-123048000D02*
X148671000Y-130952000D01*
X148631000Y-122972000D02*
X148631000Y-131028000D01*
X148591000Y-122898000D02*
X148591000Y-131102000D01*
X148551000Y-122826000D02*
X148551000Y-131174000D01*
X148511000Y-122755000D02*
X148511000Y-131245000D01*
X148471000Y-122686000D02*
X148471000Y-131314000D01*
X148431000Y-122619000D02*
X148431000Y-131381000D01*
X148391000Y-122552000D02*
X148391000Y-131448000D01*
X148351000Y-122487000D02*
X148351000Y-131513000D01*
X148311000Y-122424000D02*
X148311000Y-131576000D01*
X148271000Y-122361000D02*
X148271000Y-131639000D01*
X148231000Y-122300000D02*
X148231000Y-131700000D01*
X148191000Y-122240000D02*
X148191000Y-131760000D01*
X148151000Y-122180000D02*
X148151000Y-131820000D01*
X148111000Y-122122000D02*
X148111000Y-131878000D01*
X148071000Y-122065000D02*
X148071000Y-131935000D01*
X148031000Y-122009000D02*
X148031000Y-131991000D01*
X147991000Y-121954000D02*
X147991000Y-132046000D01*
X147951000Y-121900000D02*
X147951000Y-132100000D01*
X147911000Y-121846000D02*
X147911000Y-132154000D01*
X147871000Y-121794000D02*
X147871000Y-132206000D01*
X147831000Y-121742000D02*
X147831000Y-132258000D01*
X147791000Y-121691000D02*
X147791000Y-132309000D01*
X147751000Y-121641000D02*
X147751000Y-132359000D01*
X147711000Y-121591000D02*
X147711000Y-132409000D01*
X147671000Y-121543000D02*
X147671000Y-132457000D01*
X147631000Y-121495000D02*
X147631000Y-132505000D01*
X147591000Y-121447000D02*
X147591000Y-132553000D01*
X147551000Y-121401000D02*
X147551000Y-132599000D01*
X147511000Y-121355000D02*
X147511000Y-132645000D01*
X147471000Y-121310000D02*
X147471000Y-132690000D01*
X147431000Y-121265000D02*
X147431000Y-132735000D01*
X147391000Y-121221000D02*
X147391000Y-132779000D01*
X147351000Y-121178000D02*
X147351000Y-132822000D01*
X147311000Y-121135000D02*
X147311000Y-132865000D01*
X147271000Y-121093000D02*
X147271000Y-132907000D01*
X147231000Y-121051000D02*
X147231000Y-132949000D01*
X147191000Y-121010000D02*
X147191000Y-132990000D01*
X147151000Y-120969000D02*
X147151000Y-133031000D01*
X147111000Y-120929000D02*
X147111000Y-133071000D01*
X147071000Y-120889000D02*
X147071000Y-133111000D01*
X147031000Y-120850000D02*
X147031000Y-133150000D01*
X146991000Y-120812000D02*
X146991000Y-133188000D01*
X146951000Y-120774000D02*
X146951000Y-133226000D01*
X146911000Y-120736000D02*
X146911000Y-133264000D01*
X146871000Y-120699000D02*
X146871000Y-133301000D01*
X146831000Y-120663000D02*
X146831000Y-133337000D01*
X146791000Y-120626000D02*
X146791000Y-133374000D01*
X146751000Y-120591000D02*
X146751000Y-133409000D01*
X146711000Y-120556000D02*
X146711000Y-133444000D01*
X146671000Y-120521000D02*
X146671000Y-133479000D01*
X146631000Y-120486000D02*
X146631000Y-133514000D01*
X146591000Y-120452000D02*
X146591000Y-133548000D01*
X146551000Y-120419000D02*
X146551000Y-133581000D01*
X146511000Y-120386000D02*
X146511000Y-133614000D01*
X146471000Y-120353000D02*
X146471000Y-133647000D01*
X146431000Y-120321000D02*
X146431000Y-133679000D01*
X146391000Y-120289000D02*
X146391000Y-133711000D01*
X146351000Y-120257000D02*
X146351000Y-133743000D01*
X146311000Y-120226000D02*
X146311000Y-133774000D01*
X146271000Y-120195000D02*
X146271000Y-133805000D01*
X146231000Y-120165000D02*
X146231000Y-133835000D01*
X146191000Y-128440000D02*
X146191000Y-133865000D01*
X146191000Y-120135000D02*
X146191000Y-125560000D01*
X146151000Y-128440000D02*
X146151000Y-133895000D01*
X146151000Y-120105000D02*
X146151000Y-125560000D01*
X146111000Y-128440000D02*
X146111000Y-133925000D01*
X146111000Y-120075000D02*
X146111000Y-125560000D01*
X146071000Y-128440000D02*
X146071000Y-133954000D01*
X146071000Y-120046000D02*
X146071000Y-125560000D01*
X146031000Y-128440000D02*
X146031000Y-133982000D01*
X146031000Y-120018000D02*
X146031000Y-125560000D01*
X145991000Y-128440000D02*
X145991000Y-134011000D01*
X145991000Y-119989000D02*
X145991000Y-125560000D01*
X145951000Y-128440000D02*
X145951000Y-134038000D01*
X145951000Y-119962000D02*
X145951000Y-125560000D01*
X145911000Y-128440000D02*
X145911000Y-134066000D01*
X145911000Y-119934000D02*
X145911000Y-125560000D01*
X145871000Y-128440000D02*
X145871000Y-134093000D01*
X145871000Y-119907000D02*
X145871000Y-125560000D01*
X145831000Y-128440000D02*
X145831000Y-134120000D01*
X145831000Y-119880000D02*
X145831000Y-125560000D01*
X145791000Y-128440000D02*
X145791000Y-134147000D01*
X145791000Y-119853000D02*
X145791000Y-125560000D01*
X145751000Y-128440000D02*
X145751000Y-134173000D01*
X145751000Y-119827000D02*
X145751000Y-125560000D01*
X145711000Y-128440000D02*
X145711000Y-134199000D01*
X145711000Y-119801000D02*
X145711000Y-125560000D01*
X145671000Y-128440000D02*
X145671000Y-134225000D01*
X145671000Y-119775000D02*
X145671000Y-125560000D01*
X145631000Y-128440000D02*
X145631000Y-134251000D01*
X145631000Y-119749000D02*
X145631000Y-125560000D01*
X145591000Y-128440000D02*
X145591000Y-134276000D01*
X145591000Y-119724000D02*
X145591000Y-125560000D01*
X145551000Y-128440000D02*
X145551000Y-134300000D01*
X145551000Y-119700000D02*
X145551000Y-125560000D01*
X145511000Y-128440000D02*
X145511000Y-134325000D01*
X145511000Y-119675000D02*
X145511000Y-125560000D01*
X145471000Y-128440000D02*
X145471000Y-134349000D01*
X145471000Y-119651000D02*
X145471000Y-125560000D01*
X145431000Y-128440000D02*
X145431000Y-134373000D01*
X145431000Y-119627000D02*
X145431000Y-125560000D01*
X145391000Y-128440000D02*
X145391000Y-134397000D01*
X145391000Y-119603000D02*
X145391000Y-125560000D01*
X145351000Y-128440000D02*
X145351000Y-134420000D01*
X145351000Y-119580000D02*
X145351000Y-125560000D01*
X145311000Y-128440000D02*
X145311000Y-134443000D01*
X145311000Y-119557000D02*
X145311000Y-125560000D01*
X145271000Y-128440000D02*
X145271000Y-134466000D01*
X145271000Y-119534000D02*
X145271000Y-125560000D01*
X145231000Y-128440000D02*
X145231000Y-134488000D01*
X145231000Y-119512000D02*
X145231000Y-125560000D01*
X145191000Y-128440000D02*
X145191000Y-134510000D01*
X145191000Y-119490000D02*
X145191000Y-125560000D01*
X145151000Y-128440000D02*
X145151000Y-134532000D01*
X145151000Y-119468000D02*
X145151000Y-125560000D01*
X145111000Y-128440000D02*
X145111000Y-134554000D01*
X145111000Y-119446000D02*
X145111000Y-125560000D01*
X145071000Y-128440000D02*
X145071000Y-134575000D01*
X145071000Y-119425000D02*
X145071000Y-125560000D01*
X145031000Y-128440000D02*
X145031000Y-134596000D01*
X145031000Y-119404000D02*
X145031000Y-125560000D01*
X144991000Y-128440000D02*
X144991000Y-134617000D01*
X144991000Y-119383000D02*
X144991000Y-125560000D01*
X144951000Y-128440000D02*
X144951000Y-134638000D01*
X144951000Y-119362000D02*
X144951000Y-125560000D01*
X144911000Y-128440000D02*
X144911000Y-134658000D01*
X144911000Y-119342000D02*
X144911000Y-125560000D01*
X144871000Y-128440000D02*
X144871000Y-134678000D01*
X144871000Y-119322000D02*
X144871000Y-125560000D01*
X144831000Y-128440000D02*
X144831000Y-134698000D01*
X144831000Y-119302000D02*
X144831000Y-125560000D01*
X144791000Y-128440000D02*
X144791000Y-134717000D01*
X144791000Y-119283000D02*
X144791000Y-125560000D01*
X144751000Y-128440000D02*
X144751000Y-134736000D01*
X144751000Y-119264000D02*
X144751000Y-125560000D01*
X144711000Y-128440000D02*
X144711000Y-134755000D01*
X144711000Y-119245000D02*
X144711000Y-125560000D01*
X144671000Y-128440000D02*
X144671000Y-134774000D01*
X144671000Y-119226000D02*
X144671000Y-125560000D01*
X144631000Y-128440000D02*
X144631000Y-134793000D01*
X144631000Y-119207000D02*
X144631000Y-125560000D01*
X144591000Y-128440000D02*
X144591000Y-134811000D01*
X144591000Y-119189000D02*
X144591000Y-125560000D01*
X144551000Y-128440000D02*
X144551000Y-134829000D01*
X144551000Y-119171000D02*
X144551000Y-125560000D01*
X144511000Y-128440000D02*
X144511000Y-134847000D01*
X144511000Y-119153000D02*
X144511000Y-125560000D01*
X144471000Y-128440000D02*
X144471000Y-134864000D01*
X144471000Y-119136000D02*
X144471000Y-125560000D01*
X144431000Y-128440000D02*
X144431000Y-134882000D01*
X144431000Y-119118000D02*
X144431000Y-125560000D01*
X144391000Y-128440000D02*
X144391000Y-134899000D01*
X144391000Y-119101000D02*
X144391000Y-125560000D01*
X144351000Y-128440000D02*
X144351000Y-134915000D01*
X144351000Y-119085000D02*
X144351000Y-125560000D01*
X144311000Y-128440000D02*
X144311000Y-134932000D01*
X144311000Y-119068000D02*
X144311000Y-125560000D01*
X144271000Y-128440000D02*
X144271000Y-134948000D01*
X144271000Y-119052000D02*
X144271000Y-125560000D01*
X144231000Y-128440000D02*
X144231000Y-134965000D01*
X144231000Y-119035000D02*
X144231000Y-125560000D01*
X144191000Y-128440000D02*
X144191000Y-134980000D01*
X144191000Y-119020000D02*
X144191000Y-125560000D01*
X144151000Y-128440000D02*
X144151000Y-134996000D01*
X144151000Y-119004000D02*
X144151000Y-125560000D01*
X144111000Y-128440000D02*
X144111000Y-135011000D01*
X144111000Y-118989000D02*
X144111000Y-125560000D01*
X144071000Y-128440000D02*
X144071000Y-135027000D01*
X144071000Y-118973000D02*
X144071000Y-125560000D01*
X144031000Y-128440000D02*
X144031000Y-135042000D01*
X144031000Y-118958000D02*
X144031000Y-125560000D01*
X143991000Y-128440000D02*
X143991000Y-135056000D01*
X143991000Y-118944000D02*
X143991000Y-125560000D01*
X143951000Y-128440000D02*
X143951000Y-135071000D01*
X143951000Y-118929000D02*
X143951000Y-125560000D01*
X143911000Y-128440000D02*
X143911000Y-135085000D01*
X143911000Y-118915000D02*
X143911000Y-125560000D01*
X143871000Y-128440000D02*
X143871000Y-135099000D01*
X143871000Y-118901000D02*
X143871000Y-125560000D01*
X143831000Y-128440000D02*
X143831000Y-135113000D01*
X143831000Y-118887000D02*
X143831000Y-125560000D01*
X143791000Y-128440000D02*
X143791000Y-135127000D01*
X143791000Y-118873000D02*
X143791000Y-125560000D01*
X143751000Y-128440000D02*
X143751000Y-135140000D01*
X143751000Y-118860000D02*
X143751000Y-125560000D01*
X143711000Y-128440000D02*
X143711000Y-135153000D01*
X143711000Y-118847000D02*
X143711000Y-125560000D01*
X143671000Y-128440000D02*
X143671000Y-135166000D01*
X143671000Y-118834000D02*
X143671000Y-125560000D01*
X143631000Y-128440000D02*
X143631000Y-135179000D01*
X143631000Y-118821000D02*
X143631000Y-125560000D01*
X143591000Y-128440000D02*
X143591000Y-135192000D01*
X143591000Y-118808000D02*
X143591000Y-125560000D01*
X143551000Y-128440000D02*
X143551000Y-135204000D01*
X143551000Y-118796000D02*
X143551000Y-125560000D01*
X143511000Y-128440000D02*
X143511000Y-135216000D01*
X143511000Y-118784000D02*
X143511000Y-125560000D01*
X143471000Y-128440000D02*
X143471000Y-135228000D01*
X143471000Y-118772000D02*
X143471000Y-125560000D01*
X143431000Y-128440000D02*
X143431000Y-135240000D01*
X143431000Y-118760000D02*
X143431000Y-125560000D01*
X143391000Y-128440000D02*
X143391000Y-135251000D01*
X143391000Y-118749000D02*
X143391000Y-125560000D01*
X143351000Y-128440000D02*
X143351000Y-135262000D01*
X143351000Y-118738000D02*
X143351000Y-125560000D01*
X143311000Y-118726000D02*
X143311000Y-135274000D01*
X143271000Y-118716000D02*
X143271000Y-135284000D01*
X143231000Y-118705000D02*
X143231000Y-135295000D01*
X143191000Y-118695000D02*
X143191000Y-135305000D01*
X143151000Y-118684000D02*
X143151000Y-135316000D01*
X143111000Y-118674000D02*
X143111000Y-135326000D01*
X143071000Y-118664000D02*
X143071000Y-135336000D01*
X143031000Y-118655000D02*
X143031000Y-135345000D01*
X142991000Y-118645000D02*
X142991000Y-135355000D01*
X142951000Y-118636000D02*
X142951000Y-135364000D01*
X142911000Y-118627000D02*
X142911000Y-135373000D01*
X142871000Y-118618000D02*
X142871000Y-135382000D01*
X142831000Y-118610000D02*
X142831000Y-135390000D01*
X142791000Y-118601000D02*
X142791000Y-135399000D01*
X142751000Y-118593000D02*
X142751000Y-135407000D01*
X142711000Y-118585000D02*
X142711000Y-135415000D01*
X142671000Y-118577000D02*
X142671000Y-135423000D01*
X142631000Y-118569000D02*
X142631000Y-135431000D01*
X142591000Y-118562000D02*
X142591000Y-135438000D01*
X142551000Y-118555000D02*
X142551000Y-135445000D01*
X142511000Y-118548000D02*
X142511000Y-135452000D01*
X142471000Y-118541000D02*
X142471000Y-135459000D01*
X142431000Y-118534000D02*
X142431000Y-135466000D01*
X142391000Y-118527000D02*
X142391000Y-135473000D01*
X142351000Y-118521000D02*
X142351000Y-135479000D01*
X142311000Y-118515000D02*
X142311000Y-135485000D01*
X142271000Y-118509000D02*
X142271000Y-135491000D01*
X142231000Y-118503000D02*
X142231000Y-135497000D01*
X142191000Y-118498000D02*
X142191000Y-135502000D01*
X142151000Y-118493000D02*
X142151000Y-135507000D01*
X142111000Y-118487000D02*
X142111000Y-135513000D01*
X142071000Y-118482000D02*
X142071000Y-135518000D01*
X142031000Y-118478000D02*
X142031000Y-135522000D01*
X141991000Y-118473000D02*
X141991000Y-135527000D01*
X141951000Y-118469000D02*
X141951000Y-135531000D01*
X141911000Y-118465000D02*
X141911000Y-135535000D01*
X141871000Y-118461000D02*
X141871000Y-135539000D01*
X141831000Y-118457000D02*
X141831000Y-135543000D01*
X141791000Y-118453000D02*
X141791000Y-135547000D01*
X141751000Y-118450000D02*
X141751000Y-135550000D01*
X141710000Y-118446000D02*
X141710000Y-135554000D01*
X141670000Y-118443000D02*
X141670000Y-135557000D01*
X141630000Y-118440000D02*
X141630000Y-135560000D01*
X141590000Y-118438000D02*
X141590000Y-135562000D01*
X141550000Y-118435000D02*
X141550000Y-135565000D01*
X141510000Y-118433000D02*
X141510000Y-135567000D01*
X141470000Y-118431000D02*
X141470000Y-135569000D01*
X141430000Y-118429000D02*
X141430000Y-135571000D01*
X141390000Y-118427000D02*
X141390000Y-135573000D01*
X141350000Y-118425000D02*
X141350000Y-135575000D01*
X141310000Y-118424000D02*
X141310000Y-135576000D01*
X141270000Y-118423000D02*
X141270000Y-135577000D01*
X141230000Y-118422000D02*
X141230000Y-135578000D01*
X141190000Y-118421000D02*
X141190000Y-135579000D01*
X141150000Y-118420000D02*
X141150000Y-135580000D01*
X141110000Y-118420000D02*
X141110000Y-135580000D01*
X141070000Y-118420000D02*
X141070000Y-135580000D01*
X141030000Y-118419000D02*
X141030000Y-135581000D01*
X149650000Y-127000000D02*
G75*
G03X149650000Y-127000000I-8620000J0D01*
G01*
X175570000Y-56090000D02*
X175570000Y-54840000D01*
X174320000Y-56090000D02*
X175570000Y-56090000D01*
X168420000Y-50590000D02*
X171470000Y-50590000D01*
X168420000Y-53540000D02*
X168420000Y-50590000D01*
X167670000Y-53540000D02*
X168420000Y-53540000D01*
X174520000Y-50590000D02*
X171470000Y-50590000D01*
X174520000Y-53540000D02*
X174520000Y-50590000D01*
X175270000Y-53540000D02*
X174520000Y-53540000D01*
X167670000Y-55790000D02*
X169470000Y-55790000D01*
X167670000Y-55040000D02*
X167670000Y-55790000D01*
X169470000Y-55040000D02*
X167670000Y-55040000D01*
X169470000Y-55790000D02*
X169470000Y-55040000D01*
X173470000Y-55790000D02*
X175270000Y-55790000D01*
X173470000Y-55040000D02*
X173470000Y-55790000D01*
X175270000Y-55040000D02*
X173470000Y-55040000D01*
X175270000Y-55790000D02*
X175270000Y-55040000D01*
X170970000Y-55790000D02*
X171970000Y-55790000D01*
X170970000Y-55040000D02*
X170970000Y-55790000D01*
X171970000Y-55040000D02*
X170970000Y-55040000D01*
X171970000Y-55790000D02*
X171970000Y-55040000D01*
X167660000Y-55800000D02*
X175280000Y-55800000D01*
X167660000Y-49830000D02*
X167660000Y-55800000D01*
X175280000Y-49830000D02*
X167660000Y-49830000D01*
X175280000Y-55800000D02*
X175280000Y-49830000D01*
X159080000Y-76200000D02*
X158130000Y-76200000D01*
X153340000Y-76200000D02*
X154290000Y-76200000D01*
X158130000Y-75280000D02*
X154290000Y-75280000D01*
X158130000Y-77120000D02*
X158130000Y-75280000D01*
X154290000Y-77120000D02*
X158130000Y-77120000D01*
X154290000Y-75280000D02*
X154290000Y-77120000D01*
X116970000Y-84150000D02*
X116970000Y-78410000D01*
X124410000Y-84150000D02*
X124410000Y-78410000D01*
X124410000Y-78410000D02*
X116970000Y-78410000D01*
X124410000Y-84150000D02*
X116970000Y-84150000D01*
X172720000Y-77140000D02*
X172720000Y-78090000D01*
X172720000Y-82880000D02*
X172720000Y-81930000D01*
X171800000Y-78090000D02*
X171800000Y-81930000D01*
X173640000Y-78090000D02*
X171800000Y-78090000D01*
X173640000Y-81930000D02*
X173640000Y-78090000D01*
X171800000Y-81930000D02*
X173640000Y-81930000D01*
X175260000Y-82880000D02*
X175260000Y-81930000D01*
X175260000Y-77140000D02*
X175260000Y-78090000D01*
X176180000Y-81930000D02*
X176180000Y-78090000D01*
X174340000Y-81930000D02*
X176180000Y-81930000D01*
X174340000Y-78090000D02*
X174340000Y-81930000D01*
X176180000Y-78090000D02*
X174340000Y-78090000D01*
X153340000Y-71120000D02*
X154290000Y-71120000D01*
X159080000Y-71120000D02*
X158130000Y-71120000D01*
X154290000Y-72040000D02*
X158130000Y-72040000D01*
X154290000Y-70200000D02*
X154290000Y-72040000D01*
X158130000Y-70200000D02*
X154290000Y-70200000D01*
X158130000Y-72040000D02*
X158130000Y-70200000D01*
X153340000Y-73660000D02*
X154290000Y-73660000D01*
X159080000Y-73660000D02*
X158130000Y-73660000D01*
X154290000Y-74580000D02*
X158130000Y-74580000D01*
X154290000Y-72740000D02*
X154290000Y-74580000D01*
X158130000Y-72740000D02*
X154290000Y-72740000D01*
X158130000Y-74580000D02*
X158130000Y-72740000D01*
X179400000Y-73660000D02*
X178450000Y-73660000D01*
X173660000Y-73660000D02*
X174610000Y-73660000D01*
X178450000Y-72740000D02*
X174610000Y-72740000D01*
X178450000Y-74580000D02*
X178450000Y-72740000D01*
X174610000Y-74580000D02*
X178450000Y-74580000D01*
X174610000Y-72740000D02*
X174610000Y-74580000D01*
X137160000Y-77140000D02*
X137160000Y-78090000D01*
X137160000Y-82880000D02*
X137160000Y-81930000D01*
X136240000Y-78090000D02*
X136240000Y-81930000D01*
X138080000Y-78090000D02*
X136240000Y-78090000D01*
X138080000Y-81930000D02*
X138080000Y-78090000D01*
X136240000Y-81930000D02*
X138080000Y-81930000D01*
X123520000Y-76200000D02*
X122570000Y-76200000D01*
X117780000Y-76200000D02*
X118730000Y-76200000D01*
X122570000Y-75280000D02*
X118730000Y-75280000D01*
X122570000Y-77120000D02*
X122570000Y-75280000D01*
X118730000Y-77120000D02*
X122570000Y-77120000D01*
X118730000Y-75280000D02*
X118730000Y-77120000D01*
X139700000Y-82880000D02*
X139700000Y-81930000D01*
X139700000Y-77140000D02*
X139700000Y-78090000D01*
X140620000Y-81930000D02*
X140620000Y-78090000D01*
X138780000Y-81930000D02*
X140620000Y-81930000D01*
X138780000Y-78090000D02*
X138780000Y-81930000D01*
X140620000Y-78090000D02*
X138780000Y-78090000D01*
X117780000Y-71120000D02*
X118730000Y-71120000D01*
X123520000Y-71120000D02*
X122570000Y-71120000D01*
X118730000Y-72040000D02*
X122570000Y-72040000D01*
X118730000Y-70200000D02*
X118730000Y-72040000D01*
X122570000Y-70200000D02*
X118730000Y-70200000D01*
X122570000Y-72040000D02*
X122570000Y-70200000D01*
X117780000Y-73660000D02*
X118730000Y-73660000D01*
X123520000Y-73660000D02*
X122570000Y-73660000D01*
X118730000Y-74580000D02*
X122570000Y-74580000D01*
X118730000Y-72740000D02*
X118730000Y-74580000D01*
X122570000Y-72740000D02*
X118730000Y-72740000D01*
X122570000Y-74580000D02*
X122570000Y-72740000D01*
X143840000Y-73660000D02*
X142890000Y-73660000D01*
X138100000Y-73660000D02*
X139050000Y-73660000D01*
X142890000Y-72740000D02*
X139050000Y-72740000D01*
X142890000Y-74580000D02*
X142890000Y-72740000D01*
X139050000Y-74580000D02*
X142890000Y-74580000D01*
X139050000Y-72740000D02*
X139050000Y-74580000D01*
X152400000Y-105740000D02*
X152400000Y-104790000D01*
X152400000Y-100000000D02*
X152400000Y-100950000D01*
X153320000Y-104790000D02*
X153320000Y-100950000D01*
X151480000Y-104790000D02*
X153320000Y-104790000D01*
X151480000Y-100950000D02*
X151480000Y-104790000D01*
X153320000Y-100950000D02*
X151480000Y-100950000D01*
X147320000Y-100000000D02*
X147320000Y-100950000D01*
X147320000Y-105740000D02*
X147320000Y-104790000D01*
X146400000Y-100950000D02*
X146400000Y-104790000D01*
X148240000Y-100950000D02*
X146400000Y-100950000D01*
X148240000Y-104790000D02*
X148240000Y-100950000D01*
X146400000Y-104790000D02*
X148240000Y-104790000D01*
X140010000Y-56090000D02*
X140010000Y-54840000D01*
X138760000Y-56090000D02*
X140010000Y-56090000D01*
X132860000Y-50590000D02*
X135910000Y-50590000D01*
X132860000Y-53540000D02*
X132860000Y-50590000D01*
X132110000Y-53540000D02*
X132860000Y-53540000D01*
X138960000Y-50590000D02*
X135910000Y-50590000D01*
X138960000Y-53540000D02*
X138960000Y-50590000D01*
X139710000Y-53540000D02*
X138960000Y-53540000D01*
X132110000Y-55790000D02*
X133910000Y-55790000D01*
X132110000Y-55040000D02*
X132110000Y-55790000D01*
X133910000Y-55040000D02*
X132110000Y-55040000D01*
X133910000Y-55790000D02*
X133910000Y-55040000D01*
X137910000Y-55790000D02*
X139710000Y-55790000D01*
X137910000Y-55040000D02*
X137910000Y-55790000D01*
X139710000Y-55040000D02*
X137910000Y-55040000D01*
X139710000Y-55790000D02*
X139710000Y-55040000D01*
X135410000Y-55790000D02*
X136410000Y-55790000D01*
X135410000Y-55040000D02*
X135410000Y-55790000D01*
X136410000Y-55040000D02*
X135410000Y-55040000D01*
X136410000Y-55790000D02*
X136410000Y-55040000D01*
X132100000Y-55800000D02*
X139720000Y-55800000D01*
X132100000Y-49830000D02*
X132100000Y-55800000D01*
X139720000Y-49830000D02*
X132100000Y-49830000D01*
X139720000Y-55800000D02*
X139720000Y-49830000D01*
X166510000Y-97640000D02*
X166510000Y-95400000D01*
X171350000Y-97640000D02*
X171350000Y-95400000D01*
X171350000Y-95400000D02*
X166510000Y-95400000D01*
X171350000Y-97640000D02*
X166510000Y-97640000D01*
X135750000Y-66190000D02*
X135750000Y-68430000D01*
X130910000Y-66190000D02*
X130910000Y-68430000D01*
X130910000Y-68430000D02*
X135750000Y-68430000D01*
X130910000Y-66190000D02*
X135750000Y-66190000D01*
X128220000Y-63170000D02*
X128220000Y-68910000D01*
X120780000Y-63170000D02*
X120780000Y-68910000D01*
X120780000Y-68910000D02*
X128220000Y-68910000D01*
X120780000Y-63170000D02*
X128220000Y-63170000D01*
X171310000Y-66190000D02*
X171310000Y-68430000D01*
X166470000Y-66190000D02*
X166470000Y-68430000D01*
X166470000Y-68430000D02*
X171310000Y-68430000D01*
X166470000Y-66190000D02*
X171310000Y-66190000D01*
X163625000Y-103730000D02*
X163625000Y-102630000D01*
X162675000Y-103730000D02*
X163625000Y-103730000D01*
X162675000Y-105230000D02*
X162675000Y-103730000D01*
X172125000Y-103730000D02*
X172125000Y-98605000D01*
X173075000Y-103730000D02*
X172125000Y-103730000D01*
X173075000Y-105230000D02*
X173075000Y-103730000D01*
X177530000Y-100900000D02*
X177530000Y-102300000D01*
X176830000Y-103000000D02*
X176230000Y-103000000D01*
X175530000Y-102300000D02*
X175530000Y-100900000D01*
X176230000Y-100200000D02*
X176830000Y-100200000D01*
X176830000Y-100200000D02*
G75*
G02X177530000Y-100900000I0J-700000D01*
G01*
X175530000Y-100900000D02*
G75*
G02X176230000Y-100200000I700000J0D01*
G01*
X176230000Y-103000000D02*
G75*
G02X175530000Y-102300000I0J700000D01*
G01*
X177530000Y-102300000D02*
G75*
G02X176830000Y-103000000I-700000J0D01*
G01*
X140700000Y-100900000D02*
X140700000Y-102300000D01*
X140000000Y-103000000D02*
X139400000Y-103000000D01*
X138700000Y-102300000D02*
X138700000Y-100900000D01*
X139400000Y-100200000D02*
X140000000Y-100200000D01*
X140000000Y-100200000D02*
G75*
G02X140700000Y-100900000I0J-700000D01*
G01*
X138700000Y-100900000D02*
G75*
G02X139400000Y-100200000I700000J0D01*
G01*
X139400000Y-103000000D02*
G75*
G02X138700000Y-102300000I0J700000D01*
G01*
X140700000Y-102300000D02*
G75*
G02X140000000Y-103000000I-700000J0D01*
G01*
X180130000Y-106990000D02*
X181380000Y-106990000D01*
X180130000Y-105740000D02*
X180130000Y-106990000D01*
X185630000Y-99840000D02*
X185630000Y-102890000D01*
X182680000Y-99840000D02*
X185630000Y-99840000D01*
X182680000Y-99090000D02*
X182680000Y-99840000D01*
X185630000Y-105940000D02*
X185630000Y-102890000D01*
X182680000Y-105940000D02*
X185630000Y-105940000D01*
X182680000Y-106690000D02*
X182680000Y-105940000D01*
X180430000Y-99090000D02*
X180430000Y-100890000D01*
X181180000Y-99090000D02*
X180430000Y-99090000D01*
X181180000Y-100890000D02*
X181180000Y-99090000D01*
X180430000Y-100890000D02*
X181180000Y-100890000D01*
X180430000Y-104890000D02*
X180430000Y-106690000D01*
X181180000Y-104890000D02*
X180430000Y-104890000D01*
X181180000Y-106690000D02*
X181180000Y-104890000D01*
X180430000Y-106690000D02*
X181180000Y-106690000D01*
X180430000Y-102390000D02*
X180430000Y-103390000D01*
X181180000Y-102390000D02*
X180430000Y-102390000D01*
X181180000Y-103390000D02*
X181180000Y-102390000D01*
X180430000Y-103390000D02*
X181180000Y-103390000D01*
X180420000Y-99080000D02*
X180420000Y-106700000D01*
X186390000Y-99080000D02*
X180420000Y-99080000D01*
X186390000Y-106700000D02*
X186390000Y-99080000D01*
X180420000Y-106700000D02*
X186390000Y-106700000D01*
X116630000Y-106990000D02*
X117880000Y-106990000D01*
X116630000Y-105740000D02*
X116630000Y-106990000D01*
X122130000Y-99840000D02*
X122130000Y-102890000D01*
X119180000Y-99840000D02*
X122130000Y-99840000D01*
X119180000Y-99090000D02*
X119180000Y-99840000D01*
X122130000Y-105940000D02*
X122130000Y-102890000D01*
X119180000Y-105940000D02*
X122130000Y-105940000D01*
X119180000Y-106690000D02*
X119180000Y-105940000D01*
X116930000Y-99090000D02*
X116930000Y-100890000D01*
X117680000Y-99090000D02*
X116930000Y-99090000D01*
X117680000Y-100890000D02*
X117680000Y-99090000D01*
X116930000Y-100890000D02*
X117680000Y-100890000D01*
X116930000Y-104890000D02*
X116930000Y-106690000D01*
X117680000Y-104890000D02*
X116930000Y-104890000D01*
X117680000Y-106690000D02*
X117680000Y-104890000D01*
X116930000Y-106690000D02*
X117680000Y-106690000D01*
X116930000Y-102390000D02*
X116930000Y-103390000D01*
X117680000Y-102390000D02*
X116930000Y-102390000D01*
X117680000Y-103390000D02*
X117680000Y-102390000D01*
X116930000Y-103390000D02*
X117680000Y-103390000D01*
X116920000Y-99080000D02*
X116920000Y-106700000D01*
X122890000Y-99080000D02*
X116920000Y-99080000D01*
X122890000Y-106700000D02*
X122890000Y-99080000D01*
X116920000Y-106700000D02*
X122890000Y-106700000D01*
X153480000Y-96810000D02*
X153636000Y-96810000D01*
X151164000Y-96810000D02*
X151320000Y-96810000D01*
X153479837Y-94208870D02*
G75*
G02X153480000Y-96290961I-1079837J-1041130D01*
G01*
X151320163Y-94208870D02*
G75*
G03X151320000Y-96290961I1079837J-1041130D01*
G01*
X153478608Y-93577665D02*
G75*
G02X153635516Y-96810000I-1078608J-1672335D01*
G01*
X151321392Y-93577665D02*
G75*
G03X151164484Y-96810000I1078608J-1672335D01*
G01*
X146240000Y-93690000D02*
X146084000Y-93690000D01*
X148556000Y-93690000D02*
X148400000Y-93690000D01*
X146240163Y-96291130D02*
G75*
G02X146240000Y-94209039I1079837J1041130D01*
G01*
X148399837Y-96291130D02*
G75*
G03X148400000Y-94209039I-1079837J1041130D01*
G01*
X146241392Y-96922335D02*
G75*
G02X146084484Y-93690000I1078608J1672335D01*
G01*
X148398608Y-96922335D02*
G75*
G03X148555516Y-93690000I-1078608J1672335D01*
G01*
X172115241Y-93594000D02*
X172115241Y-92964000D01*
X172430241Y-93279000D02*
X171800241Y-93279000D01*
X165689000Y-91842000D02*
X165689000Y-91038000D01*
X165729000Y-92073000D02*
X165729000Y-90807000D01*
X165769000Y-92242000D02*
X165769000Y-90638000D01*
X165809000Y-92380000D02*
X165809000Y-90500000D01*
X165849000Y-92499000D02*
X165849000Y-90381000D01*
X165889000Y-92605000D02*
X165889000Y-90275000D01*
X165929000Y-92702000D02*
X165929000Y-90178000D01*
X165969000Y-92790000D02*
X165969000Y-90090000D01*
X166009000Y-92872000D02*
X166009000Y-90008000D01*
X166049000Y-92949000D02*
X166049000Y-89931000D01*
X166089000Y-93021000D02*
X166089000Y-89859000D01*
X166129000Y-93090000D02*
X166129000Y-89790000D01*
X166169000Y-93154000D02*
X166169000Y-89726000D01*
X166209000Y-93216000D02*
X166209000Y-89664000D01*
X166249000Y-93274000D02*
X166249000Y-89606000D01*
X166289000Y-93330000D02*
X166289000Y-89550000D01*
X166329000Y-93384000D02*
X166329000Y-89496000D01*
X166369000Y-93435000D02*
X166369000Y-89445000D01*
X166409000Y-93484000D02*
X166409000Y-89396000D01*
X166449000Y-93532000D02*
X166449000Y-89348000D01*
X166489000Y-93577000D02*
X166489000Y-89303000D01*
X166529000Y-93622000D02*
X166529000Y-89258000D01*
X166569000Y-93664000D02*
X166569000Y-89216000D01*
X166609000Y-93705000D02*
X166609000Y-89175000D01*
X166649000Y-90400000D02*
X166649000Y-89135000D01*
X166649000Y-93745000D02*
X166649000Y-92480000D01*
X166689000Y-90400000D02*
X166689000Y-89097000D01*
X166689000Y-93783000D02*
X166689000Y-92480000D01*
X166729000Y-90400000D02*
X166729000Y-89060000D01*
X166729000Y-93820000D02*
X166729000Y-92480000D01*
X166769000Y-90400000D02*
X166769000Y-89024000D01*
X166769000Y-93856000D02*
X166769000Y-92480000D01*
X166809000Y-90400000D02*
X166809000Y-88990000D01*
X166809000Y-93890000D02*
X166809000Y-92480000D01*
X166849000Y-90400000D02*
X166849000Y-88956000D01*
X166849000Y-93924000D02*
X166849000Y-92480000D01*
X166889000Y-90400000D02*
X166889000Y-88924000D01*
X166889000Y-93956000D02*
X166889000Y-92480000D01*
X166929000Y-90400000D02*
X166929000Y-88892000D01*
X166929000Y-93988000D02*
X166929000Y-92480000D01*
X166969000Y-90400000D02*
X166969000Y-88862000D01*
X166969000Y-94018000D02*
X166969000Y-92480000D01*
X167009000Y-90400000D02*
X167009000Y-88833000D01*
X167009000Y-94047000D02*
X167009000Y-92480000D01*
X167049000Y-90400000D02*
X167049000Y-88804000D01*
X167049000Y-94076000D02*
X167049000Y-92480000D01*
X167089000Y-90400000D02*
X167089000Y-88776000D01*
X167089000Y-94104000D02*
X167089000Y-92480000D01*
X167129000Y-90400000D02*
X167129000Y-88750000D01*
X167129000Y-94130000D02*
X167129000Y-92480000D01*
X167169000Y-90400000D02*
X167169000Y-88724000D01*
X167169000Y-94156000D02*
X167169000Y-92480000D01*
X167209000Y-90400000D02*
X167209000Y-88698000D01*
X167209000Y-94182000D02*
X167209000Y-92480000D01*
X167249000Y-90400000D02*
X167249000Y-88674000D01*
X167249000Y-94206000D02*
X167249000Y-92480000D01*
X167289000Y-90400000D02*
X167289000Y-88650000D01*
X167289000Y-94230000D02*
X167289000Y-92480000D01*
X167329000Y-90400000D02*
X167329000Y-88628000D01*
X167329000Y-94252000D02*
X167329000Y-92480000D01*
X167369000Y-90400000D02*
X167369000Y-88606000D01*
X167369000Y-94274000D02*
X167369000Y-92480000D01*
X167409000Y-90400000D02*
X167409000Y-88584000D01*
X167409000Y-94296000D02*
X167409000Y-92480000D01*
X167449000Y-90400000D02*
X167449000Y-88564000D01*
X167449000Y-94316000D02*
X167449000Y-92480000D01*
X167489000Y-90400000D02*
X167489000Y-88544000D01*
X167489000Y-94336000D02*
X167489000Y-92480000D01*
X167529000Y-90400000D02*
X167529000Y-88524000D01*
X167529000Y-94356000D02*
X167529000Y-92480000D01*
X167569000Y-90400000D02*
X167569000Y-88506000D01*
X167569000Y-94374000D02*
X167569000Y-92480000D01*
X167609000Y-90400000D02*
X167609000Y-88488000D01*
X167609000Y-94392000D02*
X167609000Y-92480000D01*
X167649000Y-90400000D02*
X167649000Y-88470000D01*
X167649000Y-94410000D02*
X167649000Y-92480000D01*
X167689000Y-90400000D02*
X167689000Y-88454000D01*
X167689000Y-94426000D02*
X167689000Y-92480000D01*
X167729000Y-90400000D02*
X167729000Y-88438000D01*
X167729000Y-94442000D02*
X167729000Y-92480000D01*
X167769000Y-90400000D02*
X167769000Y-88422000D01*
X167769000Y-94458000D02*
X167769000Y-92480000D01*
X167809000Y-90400000D02*
X167809000Y-88407000D01*
X167809000Y-94473000D02*
X167809000Y-92480000D01*
X167849000Y-90400000D02*
X167849000Y-88393000D01*
X167849000Y-94487000D02*
X167849000Y-92480000D01*
X167889000Y-90400000D02*
X167889000Y-88379000D01*
X167889000Y-94501000D02*
X167889000Y-92480000D01*
X167929000Y-90400000D02*
X167929000Y-88366000D01*
X167929000Y-94514000D02*
X167929000Y-92480000D01*
X167969000Y-90400000D02*
X167969000Y-88354000D01*
X167969000Y-94526000D02*
X167969000Y-92480000D01*
X168009000Y-90400000D02*
X168009000Y-88342000D01*
X168009000Y-94538000D02*
X168009000Y-92480000D01*
X168049000Y-90400000D02*
X168049000Y-88330000D01*
X168049000Y-94550000D02*
X168049000Y-92480000D01*
X168089000Y-90400000D02*
X168089000Y-88319000D01*
X168089000Y-94561000D02*
X168089000Y-92480000D01*
X168129000Y-90400000D02*
X168129000Y-88309000D01*
X168129000Y-94571000D02*
X168129000Y-92480000D01*
X168169000Y-90400000D02*
X168169000Y-88299000D01*
X168169000Y-94581000D02*
X168169000Y-92480000D01*
X168209000Y-90400000D02*
X168209000Y-88290000D01*
X168209000Y-94590000D02*
X168209000Y-92480000D01*
X168250000Y-90400000D02*
X168250000Y-88281000D01*
X168250000Y-94599000D02*
X168250000Y-92480000D01*
X168290000Y-90400000D02*
X168290000Y-88273000D01*
X168290000Y-94607000D02*
X168290000Y-92480000D01*
X168330000Y-90400000D02*
X168330000Y-88265000D01*
X168330000Y-94615000D02*
X168330000Y-92480000D01*
X168370000Y-90400000D02*
X168370000Y-88258000D01*
X168370000Y-94622000D02*
X168370000Y-92480000D01*
X168410000Y-90400000D02*
X168410000Y-88251000D01*
X168410000Y-94629000D02*
X168410000Y-92480000D01*
X168450000Y-90400000D02*
X168450000Y-88245000D01*
X168450000Y-94635000D02*
X168450000Y-92480000D01*
X168490000Y-90400000D02*
X168490000Y-88239000D01*
X168490000Y-94641000D02*
X168490000Y-92480000D01*
X168530000Y-90400000D02*
X168530000Y-88234000D01*
X168530000Y-94646000D02*
X168530000Y-92480000D01*
X168570000Y-90400000D02*
X168570000Y-88229000D01*
X168570000Y-94651000D02*
X168570000Y-92480000D01*
X168610000Y-90400000D02*
X168610000Y-88225000D01*
X168610000Y-94655000D02*
X168610000Y-92480000D01*
X168650000Y-90400000D02*
X168650000Y-88222000D01*
X168650000Y-94658000D02*
X168650000Y-92480000D01*
X168690000Y-90400000D02*
X168690000Y-88218000D01*
X168690000Y-94662000D02*
X168690000Y-92480000D01*
X168730000Y-94664000D02*
X168730000Y-88216000D01*
X168770000Y-94667000D02*
X168770000Y-88213000D01*
X168810000Y-94668000D02*
X168810000Y-88212000D01*
X168850000Y-94670000D02*
X168850000Y-88210000D01*
X168890000Y-94670000D02*
X168890000Y-88210000D01*
X168930000Y-94670000D02*
X168930000Y-88210000D01*
X172200000Y-91440000D02*
G75*
G03X172200000Y-91440000I-3270000J0D01*
G01*
X164960000Y-95400000D02*
X164960000Y-97640000D01*
X160120000Y-95400000D02*
X160120000Y-97640000D01*
X160120000Y-97640000D02*
X164960000Y-97640000D01*
X160120000Y-95400000D02*
X164960000Y-95400000D01*
X164495241Y-93594000D02*
X164495241Y-92964000D01*
X164810241Y-93279000D02*
X164180241Y-93279000D01*
X158069000Y-91842000D02*
X158069000Y-91038000D01*
X158109000Y-92073000D02*
X158109000Y-90807000D01*
X158149000Y-92242000D02*
X158149000Y-90638000D01*
X158189000Y-92380000D02*
X158189000Y-90500000D01*
X158229000Y-92499000D02*
X158229000Y-90381000D01*
X158269000Y-92605000D02*
X158269000Y-90275000D01*
X158309000Y-92702000D02*
X158309000Y-90178000D01*
X158349000Y-92790000D02*
X158349000Y-90090000D01*
X158389000Y-92872000D02*
X158389000Y-90008000D01*
X158429000Y-92949000D02*
X158429000Y-89931000D01*
X158469000Y-93021000D02*
X158469000Y-89859000D01*
X158509000Y-93090000D02*
X158509000Y-89790000D01*
X158549000Y-93154000D02*
X158549000Y-89726000D01*
X158589000Y-93216000D02*
X158589000Y-89664000D01*
X158629000Y-93274000D02*
X158629000Y-89606000D01*
X158669000Y-93330000D02*
X158669000Y-89550000D01*
X158709000Y-93384000D02*
X158709000Y-89496000D01*
X158749000Y-93435000D02*
X158749000Y-89445000D01*
X158789000Y-93484000D02*
X158789000Y-89396000D01*
X158829000Y-93532000D02*
X158829000Y-89348000D01*
X158869000Y-93577000D02*
X158869000Y-89303000D01*
X158909000Y-93622000D02*
X158909000Y-89258000D01*
X158949000Y-93664000D02*
X158949000Y-89216000D01*
X158989000Y-93705000D02*
X158989000Y-89175000D01*
X159029000Y-90400000D02*
X159029000Y-89135000D01*
X159029000Y-93745000D02*
X159029000Y-92480000D01*
X159069000Y-90400000D02*
X159069000Y-89097000D01*
X159069000Y-93783000D02*
X159069000Y-92480000D01*
X159109000Y-90400000D02*
X159109000Y-89060000D01*
X159109000Y-93820000D02*
X159109000Y-92480000D01*
X159149000Y-90400000D02*
X159149000Y-89024000D01*
X159149000Y-93856000D02*
X159149000Y-92480000D01*
X159189000Y-90400000D02*
X159189000Y-88990000D01*
X159189000Y-93890000D02*
X159189000Y-92480000D01*
X159229000Y-90400000D02*
X159229000Y-88956000D01*
X159229000Y-93924000D02*
X159229000Y-92480000D01*
X159269000Y-90400000D02*
X159269000Y-88924000D01*
X159269000Y-93956000D02*
X159269000Y-92480000D01*
X159309000Y-90400000D02*
X159309000Y-88892000D01*
X159309000Y-93988000D02*
X159309000Y-92480000D01*
X159349000Y-90400000D02*
X159349000Y-88862000D01*
X159349000Y-94018000D02*
X159349000Y-92480000D01*
X159389000Y-90400000D02*
X159389000Y-88833000D01*
X159389000Y-94047000D02*
X159389000Y-92480000D01*
X159429000Y-90400000D02*
X159429000Y-88804000D01*
X159429000Y-94076000D02*
X159429000Y-92480000D01*
X159469000Y-90400000D02*
X159469000Y-88776000D01*
X159469000Y-94104000D02*
X159469000Y-92480000D01*
X159509000Y-90400000D02*
X159509000Y-88750000D01*
X159509000Y-94130000D02*
X159509000Y-92480000D01*
X159549000Y-90400000D02*
X159549000Y-88724000D01*
X159549000Y-94156000D02*
X159549000Y-92480000D01*
X159589000Y-90400000D02*
X159589000Y-88698000D01*
X159589000Y-94182000D02*
X159589000Y-92480000D01*
X159629000Y-90400000D02*
X159629000Y-88674000D01*
X159629000Y-94206000D02*
X159629000Y-92480000D01*
X159669000Y-90400000D02*
X159669000Y-88650000D01*
X159669000Y-94230000D02*
X159669000Y-92480000D01*
X159709000Y-90400000D02*
X159709000Y-88628000D01*
X159709000Y-94252000D02*
X159709000Y-92480000D01*
X159749000Y-90400000D02*
X159749000Y-88606000D01*
X159749000Y-94274000D02*
X159749000Y-92480000D01*
X159789000Y-90400000D02*
X159789000Y-88584000D01*
X159789000Y-94296000D02*
X159789000Y-92480000D01*
X159829000Y-90400000D02*
X159829000Y-88564000D01*
X159829000Y-94316000D02*
X159829000Y-92480000D01*
X159869000Y-90400000D02*
X159869000Y-88544000D01*
X159869000Y-94336000D02*
X159869000Y-92480000D01*
X159909000Y-90400000D02*
X159909000Y-88524000D01*
X159909000Y-94356000D02*
X159909000Y-92480000D01*
X159949000Y-90400000D02*
X159949000Y-88506000D01*
X159949000Y-94374000D02*
X159949000Y-92480000D01*
X159989000Y-90400000D02*
X159989000Y-88488000D01*
X159989000Y-94392000D02*
X159989000Y-92480000D01*
X160029000Y-90400000D02*
X160029000Y-88470000D01*
X160029000Y-94410000D02*
X160029000Y-92480000D01*
X160069000Y-90400000D02*
X160069000Y-88454000D01*
X160069000Y-94426000D02*
X160069000Y-92480000D01*
X160109000Y-90400000D02*
X160109000Y-88438000D01*
X160109000Y-94442000D02*
X160109000Y-92480000D01*
X160149000Y-90400000D02*
X160149000Y-88422000D01*
X160149000Y-94458000D02*
X160149000Y-92480000D01*
X160189000Y-90400000D02*
X160189000Y-88407000D01*
X160189000Y-94473000D02*
X160189000Y-92480000D01*
X160229000Y-90400000D02*
X160229000Y-88393000D01*
X160229000Y-94487000D02*
X160229000Y-92480000D01*
X160269000Y-90400000D02*
X160269000Y-88379000D01*
X160269000Y-94501000D02*
X160269000Y-92480000D01*
X160309000Y-90400000D02*
X160309000Y-88366000D01*
X160309000Y-94514000D02*
X160309000Y-92480000D01*
X160349000Y-90400000D02*
X160349000Y-88354000D01*
X160349000Y-94526000D02*
X160349000Y-92480000D01*
X160389000Y-90400000D02*
X160389000Y-88342000D01*
X160389000Y-94538000D02*
X160389000Y-92480000D01*
X160429000Y-90400000D02*
X160429000Y-88330000D01*
X160429000Y-94550000D02*
X160429000Y-92480000D01*
X160469000Y-90400000D02*
X160469000Y-88319000D01*
X160469000Y-94561000D02*
X160469000Y-92480000D01*
X160509000Y-90400000D02*
X160509000Y-88309000D01*
X160509000Y-94571000D02*
X160509000Y-92480000D01*
X160549000Y-90400000D02*
X160549000Y-88299000D01*
X160549000Y-94581000D02*
X160549000Y-92480000D01*
X160589000Y-90400000D02*
X160589000Y-88290000D01*
X160589000Y-94590000D02*
X160589000Y-92480000D01*
X160630000Y-90400000D02*
X160630000Y-88281000D01*
X160630000Y-94599000D02*
X160630000Y-92480000D01*
X160670000Y-90400000D02*
X160670000Y-88273000D01*
X160670000Y-94607000D02*
X160670000Y-92480000D01*
X160710000Y-90400000D02*
X160710000Y-88265000D01*
X160710000Y-94615000D02*
X160710000Y-92480000D01*
X160750000Y-90400000D02*
X160750000Y-88258000D01*
X160750000Y-94622000D02*
X160750000Y-92480000D01*
X160790000Y-90400000D02*
X160790000Y-88251000D01*
X160790000Y-94629000D02*
X160790000Y-92480000D01*
X160830000Y-90400000D02*
X160830000Y-88245000D01*
X160830000Y-94635000D02*
X160830000Y-92480000D01*
X160870000Y-90400000D02*
X160870000Y-88239000D01*
X160870000Y-94641000D02*
X160870000Y-92480000D01*
X160910000Y-90400000D02*
X160910000Y-88234000D01*
X160910000Y-94646000D02*
X160910000Y-92480000D01*
X160950000Y-90400000D02*
X160950000Y-88229000D01*
X160950000Y-94651000D02*
X160950000Y-92480000D01*
X160990000Y-90400000D02*
X160990000Y-88225000D01*
X160990000Y-94655000D02*
X160990000Y-92480000D01*
X161030000Y-90400000D02*
X161030000Y-88222000D01*
X161030000Y-94658000D02*
X161030000Y-92480000D01*
X161070000Y-90400000D02*
X161070000Y-88218000D01*
X161070000Y-94662000D02*
X161070000Y-92480000D01*
X161110000Y-94664000D02*
X161110000Y-88216000D01*
X161150000Y-94667000D02*
X161150000Y-88213000D01*
X161190000Y-94668000D02*
X161190000Y-88212000D01*
X161230000Y-94670000D02*
X161230000Y-88210000D01*
X161270000Y-94670000D02*
X161270000Y-88210000D01*
X161310000Y-94670000D02*
X161310000Y-88210000D01*
X164580000Y-91440000D02*
G75*
G03X164580000Y-91440000I-3270000J0D01*
G01*
X161430000Y-83670000D02*
X161430000Y-81430000D01*
X166270000Y-83670000D02*
X166270000Y-81430000D01*
X166270000Y-81430000D02*
X161430000Y-81430000D01*
X166270000Y-83670000D02*
X161430000Y-83670000D01*
X163780000Y-63170000D02*
X163780000Y-68910000D01*
X156340000Y-63170000D02*
X156340000Y-68910000D01*
X156340000Y-68910000D02*
X163780000Y-68910000D01*
X156340000Y-63170000D02*
X163780000Y-63170000D01*
X152530000Y-84150000D02*
X152530000Y-78410000D01*
X159970000Y-84150000D02*
X159970000Y-78410000D01*
X159970000Y-78410000D02*
X152530000Y-78410000D01*
X159970000Y-84150000D02*
X152530000Y-84150000D01*
X173940000Y-57240000D02*
X173940000Y-64680000D01*
X166500000Y-57240000D02*
X166500000Y-64680000D01*
X166500000Y-64680000D02*
X173940000Y-64680000D01*
X166500000Y-57240000D02*
X173940000Y-57240000D01*
X136555241Y-93594000D02*
X136555241Y-92964000D01*
X136870241Y-93279000D02*
X136240241Y-93279000D01*
X130129000Y-91842000D02*
X130129000Y-91038000D01*
X130169000Y-92073000D02*
X130169000Y-90807000D01*
X130209000Y-92242000D02*
X130209000Y-90638000D01*
X130249000Y-92380000D02*
X130249000Y-90500000D01*
X130289000Y-92499000D02*
X130289000Y-90381000D01*
X130329000Y-92605000D02*
X130329000Y-90275000D01*
X130369000Y-92702000D02*
X130369000Y-90178000D01*
X130409000Y-92790000D02*
X130409000Y-90090000D01*
X130449000Y-92872000D02*
X130449000Y-90008000D01*
X130489000Y-92949000D02*
X130489000Y-89931000D01*
X130529000Y-93021000D02*
X130529000Y-89859000D01*
X130569000Y-93090000D02*
X130569000Y-89790000D01*
X130609000Y-93154000D02*
X130609000Y-89726000D01*
X130649000Y-93216000D02*
X130649000Y-89664000D01*
X130689000Y-93274000D02*
X130689000Y-89606000D01*
X130729000Y-93330000D02*
X130729000Y-89550000D01*
X130769000Y-93384000D02*
X130769000Y-89496000D01*
X130809000Y-93435000D02*
X130809000Y-89445000D01*
X130849000Y-93484000D02*
X130849000Y-89396000D01*
X130889000Y-93532000D02*
X130889000Y-89348000D01*
X130929000Y-93577000D02*
X130929000Y-89303000D01*
X130969000Y-93622000D02*
X130969000Y-89258000D01*
X131009000Y-93664000D02*
X131009000Y-89216000D01*
X131049000Y-93705000D02*
X131049000Y-89175000D01*
X131089000Y-90400000D02*
X131089000Y-89135000D01*
X131089000Y-93745000D02*
X131089000Y-92480000D01*
X131129000Y-90400000D02*
X131129000Y-89097000D01*
X131129000Y-93783000D02*
X131129000Y-92480000D01*
X131169000Y-90400000D02*
X131169000Y-89060000D01*
X131169000Y-93820000D02*
X131169000Y-92480000D01*
X131209000Y-90400000D02*
X131209000Y-89024000D01*
X131209000Y-93856000D02*
X131209000Y-92480000D01*
X131249000Y-90400000D02*
X131249000Y-88990000D01*
X131249000Y-93890000D02*
X131249000Y-92480000D01*
X131289000Y-90400000D02*
X131289000Y-88956000D01*
X131289000Y-93924000D02*
X131289000Y-92480000D01*
X131329000Y-90400000D02*
X131329000Y-88924000D01*
X131329000Y-93956000D02*
X131329000Y-92480000D01*
X131369000Y-90400000D02*
X131369000Y-88892000D01*
X131369000Y-93988000D02*
X131369000Y-92480000D01*
X131409000Y-90400000D02*
X131409000Y-88862000D01*
X131409000Y-94018000D02*
X131409000Y-92480000D01*
X131449000Y-90400000D02*
X131449000Y-88833000D01*
X131449000Y-94047000D02*
X131449000Y-92480000D01*
X131489000Y-90400000D02*
X131489000Y-88804000D01*
X131489000Y-94076000D02*
X131489000Y-92480000D01*
X131529000Y-90400000D02*
X131529000Y-88776000D01*
X131529000Y-94104000D02*
X131529000Y-92480000D01*
X131569000Y-90400000D02*
X131569000Y-88750000D01*
X131569000Y-94130000D02*
X131569000Y-92480000D01*
X131609000Y-90400000D02*
X131609000Y-88724000D01*
X131609000Y-94156000D02*
X131609000Y-92480000D01*
X131649000Y-90400000D02*
X131649000Y-88698000D01*
X131649000Y-94182000D02*
X131649000Y-92480000D01*
X131689000Y-90400000D02*
X131689000Y-88674000D01*
X131689000Y-94206000D02*
X131689000Y-92480000D01*
X131729000Y-90400000D02*
X131729000Y-88650000D01*
X131729000Y-94230000D02*
X131729000Y-92480000D01*
X131769000Y-90400000D02*
X131769000Y-88628000D01*
X131769000Y-94252000D02*
X131769000Y-92480000D01*
X131809000Y-90400000D02*
X131809000Y-88606000D01*
X131809000Y-94274000D02*
X131809000Y-92480000D01*
X131849000Y-90400000D02*
X131849000Y-88584000D01*
X131849000Y-94296000D02*
X131849000Y-92480000D01*
X131889000Y-90400000D02*
X131889000Y-88564000D01*
X131889000Y-94316000D02*
X131889000Y-92480000D01*
X131929000Y-90400000D02*
X131929000Y-88544000D01*
X131929000Y-94336000D02*
X131929000Y-92480000D01*
X131969000Y-90400000D02*
X131969000Y-88524000D01*
X131969000Y-94356000D02*
X131969000Y-92480000D01*
X132009000Y-90400000D02*
X132009000Y-88506000D01*
X132009000Y-94374000D02*
X132009000Y-92480000D01*
X132049000Y-90400000D02*
X132049000Y-88488000D01*
X132049000Y-94392000D02*
X132049000Y-92480000D01*
X132089000Y-90400000D02*
X132089000Y-88470000D01*
X132089000Y-94410000D02*
X132089000Y-92480000D01*
X132129000Y-90400000D02*
X132129000Y-88454000D01*
X132129000Y-94426000D02*
X132129000Y-92480000D01*
X132169000Y-90400000D02*
X132169000Y-88438000D01*
X132169000Y-94442000D02*
X132169000Y-92480000D01*
X132209000Y-90400000D02*
X132209000Y-88422000D01*
X132209000Y-94458000D02*
X132209000Y-92480000D01*
X132249000Y-90400000D02*
X132249000Y-88407000D01*
X132249000Y-94473000D02*
X132249000Y-92480000D01*
X132289000Y-90400000D02*
X132289000Y-88393000D01*
X132289000Y-94487000D02*
X132289000Y-92480000D01*
X132329000Y-90400000D02*
X132329000Y-88379000D01*
X132329000Y-94501000D02*
X132329000Y-92480000D01*
X132369000Y-90400000D02*
X132369000Y-88366000D01*
X132369000Y-94514000D02*
X132369000Y-92480000D01*
X132409000Y-90400000D02*
X132409000Y-88354000D01*
X132409000Y-94526000D02*
X132409000Y-92480000D01*
X132449000Y-90400000D02*
X132449000Y-88342000D01*
X132449000Y-94538000D02*
X132449000Y-92480000D01*
X132489000Y-90400000D02*
X132489000Y-88330000D01*
X132489000Y-94550000D02*
X132489000Y-92480000D01*
X132529000Y-90400000D02*
X132529000Y-88319000D01*
X132529000Y-94561000D02*
X132529000Y-92480000D01*
X132569000Y-90400000D02*
X132569000Y-88309000D01*
X132569000Y-94571000D02*
X132569000Y-92480000D01*
X132609000Y-90400000D02*
X132609000Y-88299000D01*
X132609000Y-94581000D02*
X132609000Y-92480000D01*
X132649000Y-90400000D02*
X132649000Y-88290000D01*
X132649000Y-94590000D02*
X132649000Y-92480000D01*
X132690000Y-90400000D02*
X132690000Y-88281000D01*
X132690000Y-94599000D02*
X132690000Y-92480000D01*
X132730000Y-90400000D02*
X132730000Y-88273000D01*
X132730000Y-94607000D02*
X132730000Y-92480000D01*
X132770000Y-90400000D02*
X132770000Y-88265000D01*
X132770000Y-94615000D02*
X132770000Y-92480000D01*
X132810000Y-90400000D02*
X132810000Y-88258000D01*
X132810000Y-94622000D02*
X132810000Y-92480000D01*
X132850000Y-90400000D02*
X132850000Y-88251000D01*
X132850000Y-94629000D02*
X132850000Y-92480000D01*
X132890000Y-90400000D02*
X132890000Y-88245000D01*
X132890000Y-94635000D02*
X132890000Y-92480000D01*
X132930000Y-90400000D02*
X132930000Y-88239000D01*
X132930000Y-94641000D02*
X132930000Y-92480000D01*
X132970000Y-90400000D02*
X132970000Y-88234000D01*
X132970000Y-94646000D02*
X132970000Y-92480000D01*
X133010000Y-90400000D02*
X133010000Y-88229000D01*
X133010000Y-94651000D02*
X133010000Y-92480000D01*
X133050000Y-90400000D02*
X133050000Y-88225000D01*
X133050000Y-94655000D02*
X133050000Y-92480000D01*
X133090000Y-90400000D02*
X133090000Y-88222000D01*
X133090000Y-94658000D02*
X133090000Y-92480000D01*
X133130000Y-90400000D02*
X133130000Y-88218000D01*
X133130000Y-94662000D02*
X133130000Y-92480000D01*
X133170000Y-94664000D02*
X133170000Y-88216000D01*
X133210000Y-94667000D02*
X133210000Y-88213000D01*
X133250000Y-94668000D02*
X133250000Y-88212000D01*
X133290000Y-94670000D02*
X133290000Y-88210000D01*
X133330000Y-94670000D02*
X133330000Y-88210000D01*
X133370000Y-94670000D02*
X133370000Y-88210000D01*
X136640000Y-91440000D02*
G75*
G03X136640000Y-91440000I-3270000J0D01*
G01*
X130950000Y-97640000D02*
X130950000Y-95400000D01*
X135790000Y-97640000D02*
X135790000Y-95400000D01*
X135790000Y-95400000D02*
X130950000Y-95400000D01*
X135790000Y-97640000D02*
X130950000Y-97640000D01*
X129400000Y-95400000D02*
X129400000Y-97640000D01*
X124560000Y-95400000D02*
X124560000Y-97640000D01*
X124560000Y-97640000D02*
X129400000Y-97640000D01*
X124560000Y-95400000D02*
X129400000Y-95400000D01*
X128935241Y-93594000D02*
X128935241Y-92964000D01*
X129250241Y-93279000D02*
X128620241Y-93279000D01*
X122509000Y-91842000D02*
X122509000Y-91038000D01*
X122549000Y-92073000D02*
X122549000Y-90807000D01*
X122589000Y-92242000D02*
X122589000Y-90638000D01*
X122629000Y-92380000D02*
X122629000Y-90500000D01*
X122669000Y-92499000D02*
X122669000Y-90381000D01*
X122709000Y-92605000D02*
X122709000Y-90275000D01*
X122749000Y-92702000D02*
X122749000Y-90178000D01*
X122789000Y-92790000D02*
X122789000Y-90090000D01*
X122829000Y-92872000D02*
X122829000Y-90008000D01*
X122869000Y-92949000D02*
X122869000Y-89931000D01*
X122909000Y-93021000D02*
X122909000Y-89859000D01*
X122949000Y-93090000D02*
X122949000Y-89790000D01*
X122989000Y-93154000D02*
X122989000Y-89726000D01*
X123029000Y-93216000D02*
X123029000Y-89664000D01*
X123069000Y-93274000D02*
X123069000Y-89606000D01*
X123109000Y-93330000D02*
X123109000Y-89550000D01*
X123149000Y-93384000D02*
X123149000Y-89496000D01*
X123189000Y-93435000D02*
X123189000Y-89445000D01*
X123229000Y-93484000D02*
X123229000Y-89396000D01*
X123269000Y-93532000D02*
X123269000Y-89348000D01*
X123309000Y-93577000D02*
X123309000Y-89303000D01*
X123349000Y-93622000D02*
X123349000Y-89258000D01*
X123389000Y-93664000D02*
X123389000Y-89216000D01*
X123429000Y-93705000D02*
X123429000Y-89175000D01*
X123469000Y-90400000D02*
X123469000Y-89135000D01*
X123469000Y-93745000D02*
X123469000Y-92480000D01*
X123509000Y-90400000D02*
X123509000Y-89097000D01*
X123509000Y-93783000D02*
X123509000Y-92480000D01*
X123549000Y-90400000D02*
X123549000Y-89060000D01*
X123549000Y-93820000D02*
X123549000Y-92480000D01*
X123589000Y-90400000D02*
X123589000Y-89024000D01*
X123589000Y-93856000D02*
X123589000Y-92480000D01*
X123629000Y-90400000D02*
X123629000Y-88990000D01*
X123629000Y-93890000D02*
X123629000Y-92480000D01*
X123669000Y-90400000D02*
X123669000Y-88956000D01*
X123669000Y-93924000D02*
X123669000Y-92480000D01*
X123709000Y-90400000D02*
X123709000Y-88924000D01*
X123709000Y-93956000D02*
X123709000Y-92480000D01*
X123749000Y-90400000D02*
X123749000Y-88892000D01*
X123749000Y-93988000D02*
X123749000Y-92480000D01*
X123789000Y-90400000D02*
X123789000Y-88862000D01*
X123789000Y-94018000D02*
X123789000Y-92480000D01*
X123829000Y-90400000D02*
X123829000Y-88833000D01*
X123829000Y-94047000D02*
X123829000Y-92480000D01*
X123869000Y-90400000D02*
X123869000Y-88804000D01*
X123869000Y-94076000D02*
X123869000Y-92480000D01*
X123909000Y-90400000D02*
X123909000Y-88776000D01*
X123909000Y-94104000D02*
X123909000Y-92480000D01*
X123949000Y-90400000D02*
X123949000Y-88750000D01*
X123949000Y-94130000D02*
X123949000Y-92480000D01*
X123989000Y-90400000D02*
X123989000Y-88724000D01*
X123989000Y-94156000D02*
X123989000Y-92480000D01*
X124029000Y-90400000D02*
X124029000Y-88698000D01*
X124029000Y-94182000D02*
X124029000Y-92480000D01*
X124069000Y-90400000D02*
X124069000Y-88674000D01*
X124069000Y-94206000D02*
X124069000Y-92480000D01*
X124109000Y-90400000D02*
X124109000Y-88650000D01*
X124109000Y-94230000D02*
X124109000Y-92480000D01*
X124149000Y-90400000D02*
X124149000Y-88628000D01*
X124149000Y-94252000D02*
X124149000Y-92480000D01*
X124189000Y-90400000D02*
X124189000Y-88606000D01*
X124189000Y-94274000D02*
X124189000Y-92480000D01*
X124229000Y-90400000D02*
X124229000Y-88584000D01*
X124229000Y-94296000D02*
X124229000Y-92480000D01*
X124269000Y-90400000D02*
X124269000Y-88564000D01*
X124269000Y-94316000D02*
X124269000Y-92480000D01*
X124309000Y-90400000D02*
X124309000Y-88544000D01*
X124309000Y-94336000D02*
X124309000Y-92480000D01*
X124349000Y-90400000D02*
X124349000Y-88524000D01*
X124349000Y-94356000D02*
X124349000Y-92480000D01*
X124389000Y-90400000D02*
X124389000Y-88506000D01*
X124389000Y-94374000D02*
X124389000Y-92480000D01*
X124429000Y-90400000D02*
X124429000Y-88488000D01*
X124429000Y-94392000D02*
X124429000Y-92480000D01*
X124469000Y-90400000D02*
X124469000Y-88470000D01*
X124469000Y-94410000D02*
X124469000Y-92480000D01*
X124509000Y-90400000D02*
X124509000Y-88454000D01*
X124509000Y-94426000D02*
X124509000Y-92480000D01*
X124549000Y-90400000D02*
X124549000Y-88438000D01*
X124549000Y-94442000D02*
X124549000Y-92480000D01*
X124589000Y-90400000D02*
X124589000Y-88422000D01*
X124589000Y-94458000D02*
X124589000Y-92480000D01*
X124629000Y-90400000D02*
X124629000Y-88407000D01*
X124629000Y-94473000D02*
X124629000Y-92480000D01*
X124669000Y-90400000D02*
X124669000Y-88393000D01*
X124669000Y-94487000D02*
X124669000Y-92480000D01*
X124709000Y-90400000D02*
X124709000Y-88379000D01*
X124709000Y-94501000D02*
X124709000Y-92480000D01*
X124749000Y-90400000D02*
X124749000Y-88366000D01*
X124749000Y-94514000D02*
X124749000Y-92480000D01*
X124789000Y-90400000D02*
X124789000Y-88354000D01*
X124789000Y-94526000D02*
X124789000Y-92480000D01*
X124829000Y-90400000D02*
X124829000Y-88342000D01*
X124829000Y-94538000D02*
X124829000Y-92480000D01*
X124869000Y-90400000D02*
X124869000Y-88330000D01*
X124869000Y-94550000D02*
X124869000Y-92480000D01*
X124909000Y-90400000D02*
X124909000Y-88319000D01*
X124909000Y-94561000D02*
X124909000Y-92480000D01*
X124949000Y-90400000D02*
X124949000Y-88309000D01*
X124949000Y-94571000D02*
X124949000Y-92480000D01*
X124989000Y-90400000D02*
X124989000Y-88299000D01*
X124989000Y-94581000D02*
X124989000Y-92480000D01*
X125029000Y-90400000D02*
X125029000Y-88290000D01*
X125029000Y-94590000D02*
X125029000Y-92480000D01*
X125070000Y-90400000D02*
X125070000Y-88281000D01*
X125070000Y-94599000D02*
X125070000Y-92480000D01*
X125110000Y-90400000D02*
X125110000Y-88273000D01*
X125110000Y-94607000D02*
X125110000Y-92480000D01*
X125150000Y-90400000D02*
X125150000Y-88265000D01*
X125150000Y-94615000D02*
X125150000Y-92480000D01*
X125190000Y-90400000D02*
X125190000Y-88258000D01*
X125190000Y-94622000D02*
X125190000Y-92480000D01*
X125230000Y-90400000D02*
X125230000Y-88251000D01*
X125230000Y-94629000D02*
X125230000Y-92480000D01*
X125270000Y-90400000D02*
X125270000Y-88245000D01*
X125270000Y-94635000D02*
X125270000Y-92480000D01*
X125310000Y-90400000D02*
X125310000Y-88239000D01*
X125310000Y-94641000D02*
X125310000Y-92480000D01*
X125350000Y-90400000D02*
X125350000Y-88234000D01*
X125350000Y-94646000D02*
X125350000Y-92480000D01*
X125390000Y-90400000D02*
X125390000Y-88229000D01*
X125390000Y-94651000D02*
X125390000Y-92480000D01*
X125430000Y-90400000D02*
X125430000Y-88225000D01*
X125430000Y-94655000D02*
X125430000Y-92480000D01*
X125470000Y-90400000D02*
X125470000Y-88222000D01*
X125470000Y-94658000D02*
X125470000Y-92480000D01*
X125510000Y-90400000D02*
X125510000Y-88218000D01*
X125510000Y-94662000D02*
X125510000Y-92480000D01*
X125550000Y-94664000D02*
X125550000Y-88216000D01*
X125590000Y-94667000D02*
X125590000Y-88213000D01*
X125630000Y-94668000D02*
X125630000Y-88212000D01*
X125670000Y-94670000D02*
X125670000Y-88210000D01*
X125710000Y-94670000D02*
X125710000Y-88210000D01*
X125750000Y-94670000D02*
X125750000Y-88210000D01*
X129020000Y-91440000D02*
G75*
G03X129020000Y-91440000I-3270000J0D01*
G01*
X125870000Y-83670000D02*
X125870000Y-81430000D01*
X130710000Y-83670000D02*
X130710000Y-81430000D01*
X130710000Y-81430000D02*
X125870000Y-81430000D01*
X130710000Y-83670000D02*
X125870000Y-83670000D01*
X138380000Y-57240000D02*
X138380000Y-64680000D01*
X130940000Y-57240000D02*
X130940000Y-64680000D01*
X130940000Y-64680000D02*
X138380000Y-64680000D01*
X130940000Y-57240000D02*
X138380000Y-57240000D01*
X168095534Y-121315000D02*
X168095534Y-123015000D01*
X167245534Y-122165000D02*
X168945534Y-122165000D01*
X185070000Y-126453000D02*
X185070000Y-127547000D01*
X185030000Y-126024000D02*
X185030000Y-127976000D01*
X184990000Y-125730000D02*
X184990000Y-128270000D01*
X184950000Y-125492000D02*
X184950000Y-128508000D01*
X184910000Y-125287000D02*
X184910000Y-128713000D01*
X184870000Y-125104000D02*
X184870000Y-128896000D01*
X184830000Y-124938000D02*
X184830000Y-129062000D01*
X184790000Y-124785000D02*
X184790000Y-129215000D01*
X184750000Y-124642000D02*
X184750000Y-129358000D01*
X184710000Y-124508000D02*
X184710000Y-129492000D01*
X184670000Y-124382000D02*
X184670000Y-129618000D01*
X184631000Y-124261000D02*
X184631000Y-129739000D01*
X184591000Y-124146000D02*
X184591000Y-129854000D01*
X184551000Y-124037000D02*
X184551000Y-129963000D01*
X184511000Y-123931000D02*
X184511000Y-130069000D01*
X184471000Y-123829000D02*
X184471000Y-130171000D01*
X184431000Y-123732000D02*
X184431000Y-130268000D01*
X184391000Y-123637000D02*
X184391000Y-130363000D01*
X184351000Y-123545000D02*
X184351000Y-130455000D01*
X184311000Y-123456000D02*
X184311000Y-130544000D01*
X184271000Y-123370000D02*
X184271000Y-130630000D01*
X184231000Y-123286000D02*
X184231000Y-130714000D01*
X184191000Y-123205000D02*
X184191000Y-130795000D01*
X184151000Y-123125000D02*
X184151000Y-130875000D01*
X184111000Y-123048000D02*
X184111000Y-130952000D01*
X184071000Y-122972000D02*
X184071000Y-131028000D01*
X184031000Y-122898000D02*
X184031000Y-131102000D01*
X183991000Y-122826000D02*
X183991000Y-131174000D01*
X183951000Y-122755000D02*
X183951000Y-131245000D01*
X183911000Y-122686000D02*
X183911000Y-131314000D01*
X183871000Y-122619000D02*
X183871000Y-131381000D01*
X183831000Y-122552000D02*
X183831000Y-131448000D01*
X183791000Y-122487000D02*
X183791000Y-131513000D01*
X183751000Y-122424000D02*
X183751000Y-131576000D01*
X183711000Y-122361000D02*
X183711000Y-131639000D01*
X183671000Y-122300000D02*
X183671000Y-131700000D01*
X183631000Y-122240000D02*
X183631000Y-131760000D01*
X183591000Y-122180000D02*
X183591000Y-131820000D01*
X183551000Y-122122000D02*
X183551000Y-131878000D01*
X183511000Y-122065000D02*
X183511000Y-131935000D01*
X183471000Y-122009000D02*
X183471000Y-131991000D01*
X183431000Y-121954000D02*
X183431000Y-132046000D01*
X183391000Y-121900000D02*
X183391000Y-132100000D01*
X183351000Y-121846000D02*
X183351000Y-132154000D01*
X183311000Y-121794000D02*
X183311000Y-132206000D01*
X183271000Y-121742000D02*
X183271000Y-132258000D01*
X183231000Y-121691000D02*
X183231000Y-132309000D01*
X183191000Y-121641000D02*
X183191000Y-132359000D01*
X183151000Y-121591000D02*
X183151000Y-132409000D01*
X183111000Y-121543000D02*
X183111000Y-132457000D01*
X183071000Y-121495000D02*
X183071000Y-132505000D01*
X183031000Y-121447000D02*
X183031000Y-132553000D01*
X182991000Y-121401000D02*
X182991000Y-132599000D01*
X182951000Y-121355000D02*
X182951000Y-132645000D01*
X182911000Y-121310000D02*
X182911000Y-132690000D01*
X182871000Y-121265000D02*
X182871000Y-132735000D01*
X182831000Y-121221000D02*
X182831000Y-132779000D01*
X182791000Y-121178000D02*
X182791000Y-132822000D01*
X182751000Y-121135000D02*
X182751000Y-132865000D01*
X182711000Y-121093000D02*
X182711000Y-132907000D01*
X182671000Y-121051000D02*
X182671000Y-132949000D01*
X182631000Y-121010000D02*
X182631000Y-132990000D01*
X182591000Y-120969000D02*
X182591000Y-133031000D01*
X182551000Y-120929000D02*
X182551000Y-133071000D01*
X182511000Y-120889000D02*
X182511000Y-133111000D01*
X182471000Y-120850000D02*
X182471000Y-133150000D01*
X182431000Y-120812000D02*
X182431000Y-133188000D01*
X182391000Y-120774000D02*
X182391000Y-133226000D01*
X182351000Y-120736000D02*
X182351000Y-133264000D01*
X182311000Y-120699000D02*
X182311000Y-133301000D01*
X182271000Y-120663000D02*
X182271000Y-133337000D01*
X182231000Y-120626000D02*
X182231000Y-133374000D01*
X182191000Y-120591000D02*
X182191000Y-133409000D01*
X182151000Y-120556000D02*
X182151000Y-133444000D01*
X182111000Y-120521000D02*
X182111000Y-133479000D01*
X182071000Y-120486000D02*
X182071000Y-133514000D01*
X182031000Y-120452000D02*
X182031000Y-133548000D01*
X181991000Y-120419000D02*
X181991000Y-133581000D01*
X181951000Y-120386000D02*
X181951000Y-133614000D01*
X181911000Y-120353000D02*
X181911000Y-133647000D01*
X181871000Y-120321000D02*
X181871000Y-133679000D01*
X181831000Y-120289000D02*
X181831000Y-133711000D01*
X181791000Y-120257000D02*
X181791000Y-133743000D01*
X181751000Y-120226000D02*
X181751000Y-133774000D01*
X181711000Y-120195000D02*
X181711000Y-133805000D01*
X181671000Y-120165000D02*
X181671000Y-133835000D01*
X181631000Y-128440000D02*
X181631000Y-133865000D01*
X181631000Y-120135000D02*
X181631000Y-125560000D01*
X181591000Y-128440000D02*
X181591000Y-133895000D01*
X181591000Y-120105000D02*
X181591000Y-125560000D01*
X181551000Y-128440000D02*
X181551000Y-133925000D01*
X181551000Y-120075000D02*
X181551000Y-125560000D01*
X181511000Y-128440000D02*
X181511000Y-133954000D01*
X181511000Y-120046000D02*
X181511000Y-125560000D01*
X181471000Y-128440000D02*
X181471000Y-133982000D01*
X181471000Y-120018000D02*
X181471000Y-125560000D01*
X181431000Y-128440000D02*
X181431000Y-134011000D01*
X181431000Y-119989000D02*
X181431000Y-125560000D01*
X181391000Y-128440000D02*
X181391000Y-134038000D01*
X181391000Y-119962000D02*
X181391000Y-125560000D01*
X181351000Y-128440000D02*
X181351000Y-134066000D01*
X181351000Y-119934000D02*
X181351000Y-125560000D01*
X181311000Y-128440000D02*
X181311000Y-134093000D01*
X181311000Y-119907000D02*
X181311000Y-125560000D01*
X181271000Y-128440000D02*
X181271000Y-134120000D01*
X181271000Y-119880000D02*
X181271000Y-125560000D01*
X181231000Y-128440000D02*
X181231000Y-134147000D01*
X181231000Y-119853000D02*
X181231000Y-125560000D01*
X181191000Y-128440000D02*
X181191000Y-134173000D01*
X181191000Y-119827000D02*
X181191000Y-125560000D01*
X181151000Y-128440000D02*
X181151000Y-134199000D01*
X181151000Y-119801000D02*
X181151000Y-125560000D01*
X181111000Y-128440000D02*
X181111000Y-134225000D01*
X181111000Y-119775000D02*
X181111000Y-125560000D01*
X181071000Y-128440000D02*
X181071000Y-134251000D01*
X181071000Y-119749000D02*
X181071000Y-125560000D01*
X181031000Y-128440000D02*
X181031000Y-134276000D01*
X181031000Y-119724000D02*
X181031000Y-125560000D01*
X180991000Y-128440000D02*
X180991000Y-134300000D01*
X180991000Y-119700000D02*
X180991000Y-125560000D01*
X180951000Y-128440000D02*
X180951000Y-134325000D01*
X180951000Y-119675000D02*
X180951000Y-125560000D01*
X180911000Y-128440000D02*
X180911000Y-134349000D01*
X180911000Y-119651000D02*
X180911000Y-125560000D01*
X180871000Y-128440000D02*
X180871000Y-134373000D01*
X180871000Y-119627000D02*
X180871000Y-125560000D01*
X180831000Y-128440000D02*
X180831000Y-134397000D01*
X180831000Y-119603000D02*
X180831000Y-125560000D01*
X180791000Y-128440000D02*
X180791000Y-134420000D01*
X180791000Y-119580000D02*
X180791000Y-125560000D01*
X180751000Y-128440000D02*
X180751000Y-134443000D01*
X180751000Y-119557000D02*
X180751000Y-125560000D01*
X180711000Y-128440000D02*
X180711000Y-134466000D01*
X180711000Y-119534000D02*
X180711000Y-125560000D01*
X180671000Y-128440000D02*
X180671000Y-134488000D01*
X180671000Y-119512000D02*
X180671000Y-125560000D01*
X180631000Y-128440000D02*
X180631000Y-134510000D01*
X180631000Y-119490000D02*
X180631000Y-125560000D01*
X180591000Y-128440000D02*
X180591000Y-134532000D01*
X180591000Y-119468000D02*
X180591000Y-125560000D01*
X180551000Y-128440000D02*
X180551000Y-134554000D01*
X180551000Y-119446000D02*
X180551000Y-125560000D01*
X180511000Y-128440000D02*
X180511000Y-134575000D01*
X180511000Y-119425000D02*
X180511000Y-125560000D01*
X180471000Y-128440000D02*
X180471000Y-134596000D01*
X180471000Y-119404000D02*
X180471000Y-125560000D01*
X180431000Y-128440000D02*
X180431000Y-134617000D01*
X180431000Y-119383000D02*
X180431000Y-125560000D01*
X180391000Y-128440000D02*
X180391000Y-134638000D01*
X180391000Y-119362000D02*
X180391000Y-125560000D01*
X180351000Y-128440000D02*
X180351000Y-134658000D01*
X180351000Y-119342000D02*
X180351000Y-125560000D01*
X180311000Y-128440000D02*
X180311000Y-134678000D01*
X180311000Y-119322000D02*
X180311000Y-125560000D01*
X180271000Y-128440000D02*
X180271000Y-134698000D01*
X180271000Y-119302000D02*
X180271000Y-125560000D01*
X180231000Y-128440000D02*
X180231000Y-134717000D01*
X180231000Y-119283000D02*
X180231000Y-125560000D01*
X180191000Y-128440000D02*
X180191000Y-134736000D01*
X180191000Y-119264000D02*
X180191000Y-125560000D01*
X180151000Y-128440000D02*
X180151000Y-134755000D01*
X180151000Y-119245000D02*
X180151000Y-125560000D01*
X180111000Y-128440000D02*
X180111000Y-134774000D01*
X180111000Y-119226000D02*
X180111000Y-125560000D01*
X180071000Y-128440000D02*
X180071000Y-134793000D01*
X180071000Y-119207000D02*
X180071000Y-125560000D01*
X180031000Y-128440000D02*
X180031000Y-134811000D01*
X180031000Y-119189000D02*
X180031000Y-125560000D01*
X179991000Y-128440000D02*
X179991000Y-134829000D01*
X179991000Y-119171000D02*
X179991000Y-125560000D01*
X179951000Y-128440000D02*
X179951000Y-134847000D01*
X179951000Y-119153000D02*
X179951000Y-125560000D01*
X179911000Y-128440000D02*
X179911000Y-134864000D01*
X179911000Y-119136000D02*
X179911000Y-125560000D01*
X179871000Y-128440000D02*
X179871000Y-134882000D01*
X179871000Y-119118000D02*
X179871000Y-125560000D01*
X179831000Y-128440000D02*
X179831000Y-134899000D01*
X179831000Y-119101000D02*
X179831000Y-125560000D01*
X179791000Y-128440000D02*
X179791000Y-134915000D01*
X179791000Y-119085000D02*
X179791000Y-125560000D01*
X179751000Y-128440000D02*
X179751000Y-134932000D01*
X179751000Y-119068000D02*
X179751000Y-125560000D01*
X179711000Y-128440000D02*
X179711000Y-134948000D01*
X179711000Y-119052000D02*
X179711000Y-125560000D01*
X179671000Y-128440000D02*
X179671000Y-134965000D01*
X179671000Y-119035000D02*
X179671000Y-125560000D01*
X179631000Y-128440000D02*
X179631000Y-134980000D01*
X179631000Y-119020000D02*
X179631000Y-125560000D01*
X179591000Y-128440000D02*
X179591000Y-134996000D01*
X179591000Y-119004000D02*
X179591000Y-125560000D01*
X179551000Y-128440000D02*
X179551000Y-135011000D01*
X179551000Y-118989000D02*
X179551000Y-125560000D01*
X179511000Y-128440000D02*
X179511000Y-135027000D01*
X179511000Y-118973000D02*
X179511000Y-125560000D01*
X179471000Y-128440000D02*
X179471000Y-135042000D01*
X179471000Y-118958000D02*
X179471000Y-125560000D01*
X179431000Y-128440000D02*
X179431000Y-135056000D01*
X179431000Y-118944000D02*
X179431000Y-125560000D01*
X179391000Y-128440000D02*
X179391000Y-135071000D01*
X179391000Y-118929000D02*
X179391000Y-125560000D01*
X179351000Y-128440000D02*
X179351000Y-135085000D01*
X179351000Y-118915000D02*
X179351000Y-125560000D01*
X179311000Y-128440000D02*
X179311000Y-135099000D01*
X179311000Y-118901000D02*
X179311000Y-125560000D01*
X179271000Y-128440000D02*
X179271000Y-135113000D01*
X179271000Y-118887000D02*
X179271000Y-125560000D01*
X179231000Y-128440000D02*
X179231000Y-135127000D01*
X179231000Y-118873000D02*
X179231000Y-125560000D01*
X179191000Y-128440000D02*
X179191000Y-135140000D01*
X179191000Y-118860000D02*
X179191000Y-125560000D01*
X179151000Y-128440000D02*
X179151000Y-135153000D01*
X179151000Y-118847000D02*
X179151000Y-125560000D01*
X179111000Y-128440000D02*
X179111000Y-135166000D01*
X179111000Y-118834000D02*
X179111000Y-125560000D01*
X179071000Y-128440000D02*
X179071000Y-135179000D01*
X179071000Y-118821000D02*
X179071000Y-125560000D01*
X179031000Y-128440000D02*
X179031000Y-135192000D01*
X179031000Y-118808000D02*
X179031000Y-125560000D01*
X178991000Y-128440000D02*
X178991000Y-135204000D01*
X178991000Y-118796000D02*
X178991000Y-125560000D01*
X178951000Y-128440000D02*
X178951000Y-135216000D01*
X178951000Y-118784000D02*
X178951000Y-125560000D01*
X178911000Y-128440000D02*
X178911000Y-135228000D01*
X178911000Y-118772000D02*
X178911000Y-125560000D01*
X178871000Y-128440000D02*
X178871000Y-135240000D01*
X178871000Y-118760000D02*
X178871000Y-125560000D01*
X178831000Y-128440000D02*
X178831000Y-135251000D01*
X178831000Y-118749000D02*
X178831000Y-125560000D01*
X178791000Y-128440000D02*
X178791000Y-135262000D01*
X178791000Y-118738000D02*
X178791000Y-125560000D01*
X178751000Y-118726000D02*
X178751000Y-135274000D01*
X178711000Y-118716000D02*
X178711000Y-135284000D01*
X178671000Y-118705000D02*
X178671000Y-135295000D01*
X178631000Y-118695000D02*
X178631000Y-135305000D01*
X178591000Y-118684000D02*
X178591000Y-135316000D01*
X178551000Y-118674000D02*
X178551000Y-135326000D01*
X178511000Y-118664000D02*
X178511000Y-135336000D01*
X178471000Y-118655000D02*
X178471000Y-135345000D01*
X178431000Y-118645000D02*
X178431000Y-135355000D01*
X178391000Y-118636000D02*
X178391000Y-135364000D01*
X178351000Y-118627000D02*
X178351000Y-135373000D01*
X178311000Y-118618000D02*
X178311000Y-135382000D01*
X178271000Y-118610000D02*
X178271000Y-135390000D01*
X178231000Y-118601000D02*
X178231000Y-135399000D01*
X178191000Y-118593000D02*
X178191000Y-135407000D01*
X178151000Y-118585000D02*
X178151000Y-135415000D01*
X178111000Y-118577000D02*
X178111000Y-135423000D01*
X178071000Y-118569000D02*
X178071000Y-135431000D01*
X178031000Y-118562000D02*
X178031000Y-135438000D01*
X177991000Y-118555000D02*
X177991000Y-135445000D01*
X177951000Y-118548000D02*
X177951000Y-135452000D01*
X177911000Y-118541000D02*
X177911000Y-135459000D01*
X177871000Y-118534000D02*
X177871000Y-135466000D01*
X177831000Y-118527000D02*
X177831000Y-135473000D01*
X177791000Y-118521000D02*
X177791000Y-135479000D01*
X177751000Y-118515000D02*
X177751000Y-135485000D01*
X177711000Y-118509000D02*
X177711000Y-135491000D01*
X177671000Y-118503000D02*
X177671000Y-135497000D01*
X177631000Y-118498000D02*
X177631000Y-135502000D01*
X177591000Y-118493000D02*
X177591000Y-135507000D01*
X177551000Y-118487000D02*
X177551000Y-135513000D01*
X177511000Y-118482000D02*
X177511000Y-135518000D01*
X177471000Y-118478000D02*
X177471000Y-135522000D01*
X177431000Y-118473000D02*
X177431000Y-135527000D01*
X177391000Y-118469000D02*
X177391000Y-135531000D01*
X177351000Y-118465000D02*
X177351000Y-135535000D01*
X177311000Y-118461000D02*
X177311000Y-135539000D01*
X177271000Y-118457000D02*
X177271000Y-135543000D01*
X177231000Y-118453000D02*
X177231000Y-135547000D01*
X177191000Y-118450000D02*
X177191000Y-135550000D01*
X177150000Y-118446000D02*
X177150000Y-135554000D01*
X177110000Y-118443000D02*
X177110000Y-135557000D01*
X177070000Y-118440000D02*
X177070000Y-135560000D01*
X177030000Y-118438000D02*
X177030000Y-135562000D01*
X176990000Y-118435000D02*
X176990000Y-135565000D01*
X176950000Y-118433000D02*
X176950000Y-135567000D01*
X176910000Y-118431000D02*
X176910000Y-135569000D01*
X176870000Y-118429000D02*
X176870000Y-135571000D01*
X176830000Y-118427000D02*
X176830000Y-135573000D01*
X176790000Y-118425000D02*
X176790000Y-135575000D01*
X176750000Y-118424000D02*
X176750000Y-135576000D01*
X176710000Y-118423000D02*
X176710000Y-135577000D01*
X176670000Y-118422000D02*
X176670000Y-135578000D01*
X176630000Y-118421000D02*
X176630000Y-135579000D01*
X176590000Y-118420000D02*
X176590000Y-135580000D01*
X176550000Y-118420000D02*
X176550000Y-135580000D01*
X176510000Y-118420000D02*
X176510000Y-135580000D01*
X176470000Y-118419000D02*
X176470000Y-135581000D01*
X185090000Y-127000000D02*
G75*
G03X185090000Y-127000000I-8620000J0D01*
G01*
D13*
X165608095Y-80522380D02*
X165608095Y-81331904D01*
X165655714Y-81427142D01*
X165703333Y-81474761D01*
X165798571Y-81522380D01*
X165989047Y-81522380D01*
X166084285Y-81474761D01*
X166131904Y-81427142D01*
X166179523Y-81331904D01*
X166179523Y-80522380D01*
X166560476Y-80522380D02*
X167179523Y-80522380D01*
X166846190Y-80903333D01*
X166989047Y-80903333D01*
X167084285Y-80950952D01*
X167131904Y-80998571D01*
X167179523Y-81093809D01*
X167179523Y-81331904D01*
X167131904Y-81427142D01*
X167084285Y-81474761D01*
X166989047Y-81522380D01*
X166703333Y-81522380D01*
X166608095Y-81474761D01*
X166560476Y-81427142D01*
X131318095Y-80522380D02*
X131318095Y-81331904D01*
X131365714Y-81427142D01*
X131413333Y-81474761D01*
X131508571Y-81522380D01*
X131699047Y-81522380D01*
X131794285Y-81474761D01*
X131841904Y-81427142D01*
X131889523Y-81331904D01*
X131889523Y-80522380D01*
X132889523Y-81522380D02*
X132318095Y-81522380D01*
X132603809Y-81522380D02*
X132603809Y-80522380D01*
X132508571Y-80665238D01*
X132413333Y-80760476D01*
X132318095Y-80808095D01*
X138182380Y-107441904D02*
X138991904Y-107441904D01*
X139087142Y-107394285D01*
X139134761Y-107346666D01*
X139182380Y-107251428D01*
X139182380Y-107060952D01*
X139134761Y-106965714D01*
X139087142Y-106918095D01*
X138991904Y-106870476D01*
X138182380Y-106870476D01*
X138277619Y-106441904D02*
X138230000Y-106394285D01*
X138182380Y-106299047D01*
X138182380Y-106060952D01*
X138230000Y-105965714D01*
X138277619Y-105918095D01*
X138372857Y-105870476D01*
X138468095Y-105870476D01*
X138610952Y-105918095D01*
X139182380Y-106489523D01*
X139182380Y-105870476D01*
X122963333Y-117607142D02*
X122915714Y-117654761D01*
X122772857Y-117702380D01*
X122677619Y-117702380D01*
X122534761Y-117654761D01*
X122439523Y-117559523D01*
X122391904Y-117464285D01*
X122344285Y-117273809D01*
X122344285Y-117130952D01*
X122391904Y-116940476D01*
X122439523Y-116845238D01*
X122534761Y-116750000D01*
X122677619Y-116702380D01*
X122772857Y-116702380D01*
X122915714Y-116750000D01*
X122963333Y-116797619D01*
X123915714Y-117702380D02*
X123344285Y-117702380D01*
X123630000Y-117702380D02*
X123630000Y-116702380D01*
X123534761Y-116845238D01*
X123439523Y-116940476D01*
X123344285Y-116988095D01*
X158523333Y-117607142D02*
X158475714Y-117654761D01*
X158332857Y-117702380D01*
X158237619Y-117702380D01*
X158094761Y-117654761D01*
X157999523Y-117559523D01*
X157951904Y-117464285D01*
X157904285Y-117273809D01*
X157904285Y-117130952D01*
X157951904Y-116940476D01*
X157999523Y-116845238D01*
X158094761Y-116750000D01*
X158237619Y-116702380D01*
X158332857Y-116702380D01*
X158475714Y-116750000D01*
X158523333Y-116797619D01*
X158904285Y-116797619D02*
X158951904Y-116750000D01*
X159047142Y-116702380D01*
X159285238Y-116702380D01*
X159380476Y-116750000D01*
X159428095Y-116797619D01*
X159475714Y-116892857D01*
X159475714Y-116988095D01*
X159428095Y-117130952D01*
X158856666Y-117702380D01*
X159475714Y-117702380D01*
X149566666Y-107662380D02*
X149566666Y-108376666D01*
X149519047Y-108519523D01*
X149423809Y-108614761D01*
X149280952Y-108662380D01*
X149185714Y-108662380D01*
X150566666Y-108662380D02*
X149995238Y-108662380D01*
X150280952Y-108662380D02*
X150280952Y-107662380D01*
X150185714Y-107805238D01*
X150090476Y-107900476D01*
X149995238Y-107948095D01*
X140863333Y-117607142D02*
X140815714Y-117654761D01*
X140672857Y-117702380D01*
X140577619Y-117702380D01*
X140434761Y-117654761D01*
X140339523Y-117559523D01*
X140291904Y-117464285D01*
X140244285Y-117273809D01*
X140244285Y-117130952D01*
X140291904Y-116940476D01*
X140339523Y-116845238D01*
X140434761Y-116750000D01*
X140577619Y-116702380D01*
X140672857Y-116702380D01*
X140815714Y-116750000D01*
X140863333Y-116797619D01*
X141196666Y-116702380D02*
X141815714Y-116702380D01*
X141482380Y-117083333D01*
X141625238Y-117083333D01*
X141720476Y-117130952D01*
X141768095Y-117178571D01*
X141815714Y-117273809D01*
X141815714Y-117511904D01*
X141768095Y-117607142D01*
X141720476Y-117654761D01*
X141625238Y-117702380D01*
X141339523Y-117702380D01*
X141244285Y-117654761D01*
X141196666Y-117607142D01*
X177466666Y-52792380D02*
X177466666Y-53506666D01*
X177419047Y-53649523D01*
X177323809Y-53744761D01*
X177180952Y-53792380D01*
X177085714Y-53792380D01*
X178371428Y-53125714D02*
X178371428Y-53792380D01*
X178133333Y-52744761D02*
X177895238Y-53459047D01*
X178514285Y-53459047D01*
X149217142Y-76652380D02*
X148883809Y-76176190D01*
X148645714Y-76652380D02*
X148645714Y-75652380D01*
X149026666Y-75652380D01*
X149121904Y-75700000D01*
X149169523Y-75747619D01*
X149217142Y-75842857D01*
X149217142Y-75985714D01*
X149169523Y-76080952D01*
X149121904Y-76128571D01*
X149026666Y-76176190D01*
X148645714Y-76176190D01*
X150169523Y-76652380D02*
X149598095Y-76652380D01*
X149883809Y-76652380D02*
X149883809Y-75652380D01*
X149788571Y-75795238D01*
X149693333Y-75890476D01*
X149598095Y-75938095D01*
X150502857Y-75652380D02*
X151121904Y-75652380D01*
X150788571Y-76033333D01*
X150931428Y-76033333D01*
X151026666Y-76080952D01*
X151074285Y-76128571D01*
X151121904Y-76223809D01*
X151121904Y-76461904D01*
X151074285Y-76557142D01*
X151026666Y-76604761D01*
X150931428Y-76652380D01*
X150645714Y-76652380D01*
X150550476Y-76604761D01*
X150502857Y-76557142D01*
X114133333Y-81637142D02*
X114085714Y-81684761D01*
X113942857Y-81732380D01*
X113847619Y-81732380D01*
X113704761Y-81684761D01*
X113609523Y-81589523D01*
X113561904Y-81494285D01*
X113514285Y-81303809D01*
X113514285Y-81160952D01*
X113561904Y-80970476D01*
X113609523Y-80875238D01*
X113704761Y-80780000D01*
X113847619Y-80732380D01*
X113942857Y-80732380D01*
X114085714Y-80780000D01*
X114133333Y-80827619D01*
X114990476Y-80732380D02*
X114800000Y-80732380D01*
X114704761Y-80780000D01*
X114657142Y-80827619D01*
X114561904Y-80970476D01*
X114514285Y-81160952D01*
X114514285Y-81541904D01*
X114561904Y-81637142D01*
X114609523Y-81684761D01*
X114704761Y-81732380D01*
X114895238Y-81732380D01*
X114990476Y-81684761D01*
X115038095Y-81637142D01*
X115085714Y-81541904D01*
X115085714Y-81303809D01*
X115038095Y-81208571D01*
X114990476Y-81160952D01*
X114895238Y-81113333D01*
X114704761Y-81113333D01*
X114609523Y-81160952D01*
X114561904Y-81208571D01*
X114514285Y-81303809D01*
X171252380Y-83192857D02*
X170776190Y-83526190D01*
X171252380Y-83764285D02*
X170252380Y-83764285D01*
X170252380Y-83383333D01*
X170300000Y-83288095D01*
X170347619Y-83240476D01*
X170442857Y-83192857D01*
X170585714Y-83192857D01*
X170680952Y-83240476D01*
X170728571Y-83288095D01*
X170776190Y-83383333D01*
X170776190Y-83764285D01*
X171252380Y-82240476D02*
X171252380Y-82811904D01*
X171252380Y-82526190D02*
X170252380Y-82526190D01*
X170395238Y-82621428D01*
X170490476Y-82716666D01*
X170538095Y-82811904D01*
X170585714Y-81383333D02*
X171252380Y-81383333D01*
X170204761Y-81621428D02*
X170919047Y-81859523D01*
X170919047Y-81240476D01*
X177632380Y-80652857D02*
X177156190Y-80986190D01*
X177632380Y-81224285D02*
X176632380Y-81224285D01*
X176632380Y-80843333D01*
X176680000Y-80748095D01*
X176727619Y-80700476D01*
X176822857Y-80652857D01*
X176965714Y-80652857D01*
X177060952Y-80700476D01*
X177108571Y-80748095D01*
X177156190Y-80843333D01*
X177156190Y-81224285D01*
X177632380Y-79700476D02*
X177632380Y-80271904D01*
X177632380Y-79986190D02*
X176632380Y-79986190D01*
X176775238Y-80081428D01*
X176870476Y-80176666D01*
X176918095Y-80271904D01*
X176727619Y-79319523D02*
X176680000Y-79271904D01*
X176632380Y-79176666D01*
X176632380Y-78938571D01*
X176680000Y-78843333D01*
X176727619Y-78795714D01*
X176822857Y-78748095D01*
X176918095Y-78748095D01*
X177060952Y-78795714D01*
X177632380Y-79367142D01*
X177632380Y-78748095D01*
X149217142Y-71572380D02*
X148883809Y-71096190D01*
X148645714Y-71572380D02*
X148645714Y-70572380D01*
X149026666Y-70572380D01*
X149121904Y-70620000D01*
X149169523Y-70667619D01*
X149217142Y-70762857D01*
X149217142Y-70905714D01*
X149169523Y-71000952D01*
X149121904Y-71048571D01*
X149026666Y-71096190D01*
X148645714Y-71096190D01*
X150169523Y-71572380D02*
X149598095Y-71572380D01*
X149883809Y-71572380D02*
X149883809Y-70572380D01*
X149788571Y-70715238D01*
X149693333Y-70810476D01*
X149598095Y-70858095D01*
X151121904Y-71572380D02*
X150550476Y-71572380D01*
X150836190Y-71572380D02*
X150836190Y-70572380D01*
X150740952Y-70715238D01*
X150645714Y-70810476D01*
X150550476Y-70858095D01*
X149217142Y-74112380D02*
X148883809Y-73636190D01*
X148645714Y-74112380D02*
X148645714Y-73112380D01*
X149026666Y-73112380D01*
X149121904Y-73160000D01*
X149169523Y-73207619D01*
X149217142Y-73302857D01*
X149217142Y-73445714D01*
X149169523Y-73540952D01*
X149121904Y-73588571D01*
X149026666Y-73636190D01*
X148645714Y-73636190D01*
X150169523Y-74112380D02*
X149598095Y-74112380D01*
X149883809Y-74112380D02*
X149883809Y-73112380D01*
X149788571Y-73255238D01*
X149693333Y-73350476D01*
X149598095Y-73398095D01*
X150788571Y-73112380D02*
X150883809Y-73112380D01*
X150979047Y-73160000D01*
X151026666Y-73207619D01*
X151074285Y-73302857D01*
X151121904Y-73493333D01*
X151121904Y-73731428D01*
X151074285Y-73921904D01*
X151026666Y-74017142D01*
X150979047Y-74064761D01*
X150883809Y-74112380D01*
X150788571Y-74112380D01*
X150693333Y-74064761D01*
X150645714Y-74017142D01*
X150598095Y-73921904D01*
X150550476Y-73731428D01*
X150550476Y-73493333D01*
X150598095Y-73302857D01*
X150645714Y-73207619D01*
X150693333Y-73160000D01*
X150788571Y-73112380D01*
X176363333Y-72192380D02*
X176030000Y-71716190D01*
X175791904Y-72192380D02*
X175791904Y-71192380D01*
X176172857Y-71192380D01*
X176268095Y-71240000D01*
X176315714Y-71287619D01*
X176363333Y-71382857D01*
X176363333Y-71525714D01*
X176315714Y-71620952D01*
X176268095Y-71668571D01*
X176172857Y-71716190D01*
X175791904Y-71716190D01*
X176839523Y-72192380D02*
X177030000Y-72192380D01*
X177125238Y-72144761D01*
X177172857Y-72097142D01*
X177268095Y-71954285D01*
X177315714Y-71763809D01*
X177315714Y-71382857D01*
X177268095Y-71287619D01*
X177220476Y-71240000D01*
X177125238Y-71192380D01*
X176934761Y-71192380D01*
X176839523Y-71240000D01*
X176791904Y-71287619D01*
X176744285Y-71382857D01*
X176744285Y-71620952D01*
X176791904Y-71716190D01*
X176839523Y-71763809D01*
X176934761Y-71811428D01*
X177125238Y-71811428D01*
X177220476Y-71763809D01*
X177268095Y-71716190D01*
X177315714Y-71620952D01*
X135692380Y-81446666D02*
X135216190Y-81780000D01*
X135692380Y-82018095D02*
X134692380Y-82018095D01*
X134692380Y-81637142D01*
X134740000Y-81541904D01*
X134787619Y-81494285D01*
X134882857Y-81446666D01*
X135025714Y-81446666D01*
X135120952Y-81494285D01*
X135168571Y-81541904D01*
X135216190Y-81637142D01*
X135216190Y-82018095D01*
X135120952Y-80875238D02*
X135073333Y-80970476D01*
X135025714Y-81018095D01*
X134930476Y-81065714D01*
X134882857Y-81065714D01*
X134787619Y-81018095D01*
X134740000Y-80970476D01*
X134692380Y-80875238D01*
X134692380Y-80684761D01*
X134740000Y-80589523D01*
X134787619Y-80541904D01*
X134882857Y-80494285D01*
X134930476Y-80494285D01*
X135025714Y-80541904D01*
X135073333Y-80589523D01*
X135120952Y-80684761D01*
X135120952Y-80875238D01*
X135168571Y-80970476D01*
X135216190Y-81018095D01*
X135311428Y-81065714D01*
X135501904Y-81065714D01*
X135597142Y-81018095D01*
X135644761Y-80970476D01*
X135692380Y-80875238D01*
X135692380Y-80684761D01*
X135644761Y-80589523D01*
X135597142Y-80541904D01*
X135501904Y-80494285D01*
X135311428Y-80494285D01*
X135216190Y-80541904D01*
X135168571Y-80589523D01*
X135120952Y-80684761D01*
X114133333Y-76652380D02*
X113800000Y-76176190D01*
X113561904Y-76652380D02*
X113561904Y-75652380D01*
X113942857Y-75652380D01*
X114038095Y-75700000D01*
X114085714Y-75747619D01*
X114133333Y-75842857D01*
X114133333Y-75985714D01*
X114085714Y-76080952D01*
X114038095Y-76128571D01*
X113942857Y-76176190D01*
X113561904Y-76176190D01*
X114466666Y-75652380D02*
X115133333Y-75652380D01*
X114704761Y-76652380D01*
X142072380Y-80176666D02*
X141596190Y-80510000D01*
X142072380Y-80748095D02*
X141072380Y-80748095D01*
X141072380Y-80367142D01*
X141120000Y-80271904D01*
X141167619Y-80224285D01*
X141262857Y-80176666D01*
X141405714Y-80176666D01*
X141500952Y-80224285D01*
X141548571Y-80271904D01*
X141596190Y-80367142D01*
X141596190Y-80748095D01*
X141072380Y-79319523D02*
X141072380Y-79510000D01*
X141120000Y-79605238D01*
X141167619Y-79652857D01*
X141310476Y-79748095D01*
X141500952Y-79795714D01*
X141881904Y-79795714D01*
X141977142Y-79748095D01*
X142024761Y-79700476D01*
X142072380Y-79605238D01*
X142072380Y-79414761D01*
X142024761Y-79319523D01*
X141977142Y-79271904D01*
X141881904Y-79224285D01*
X141643809Y-79224285D01*
X141548571Y-79271904D01*
X141500952Y-79319523D01*
X141453333Y-79414761D01*
X141453333Y-79605238D01*
X141500952Y-79700476D01*
X141548571Y-79748095D01*
X141643809Y-79795714D01*
X114133333Y-71572380D02*
X113800000Y-71096190D01*
X113561904Y-71572380D02*
X113561904Y-70572380D01*
X113942857Y-70572380D01*
X114038095Y-70620000D01*
X114085714Y-70667619D01*
X114133333Y-70762857D01*
X114133333Y-70905714D01*
X114085714Y-71000952D01*
X114038095Y-71048571D01*
X113942857Y-71096190D01*
X113561904Y-71096190D01*
X115038095Y-70572380D02*
X114561904Y-70572380D01*
X114514285Y-71048571D01*
X114561904Y-71000952D01*
X114657142Y-70953333D01*
X114895238Y-70953333D01*
X114990476Y-71000952D01*
X115038095Y-71048571D01*
X115085714Y-71143809D01*
X115085714Y-71381904D01*
X115038095Y-71477142D01*
X114990476Y-71524761D01*
X114895238Y-71572380D01*
X114657142Y-71572380D01*
X114561904Y-71524761D01*
X114514285Y-71477142D01*
X114133333Y-74112380D02*
X113800000Y-73636190D01*
X113561904Y-74112380D02*
X113561904Y-73112380D01*
X113942857Y-73112380D01*
X114038095Y-73160000D01*
X114085714Y-73207619D01*
X114133333Y-73302857D01*
X114133333Y-73445714D01*
X114085714Y-73540952D01*
X114038095Y-73588571D01*
X113942857Y-73636190D01*
X113561904Y-73636190D01*
X114990476Y-73445714D02*
X114990476Y-74112380D01*
X114752380Y-73064761D02*
X114514285Y-73779047D01*
X115133333Y-73779047D01*
X140803333Y-72192380D02*
X140470000Y-71716190D01*
X140231904Y-72192380D02*
X140231904Y-71192380D01*
X140612857Y-71192380D01*
X140708095Y-71240000D01*
X140755714Y-71287619D01*
X140803333Y-71382857D01*
X140803333Y-71525714D01*
X140755714Y-71620952D01*
X140708095Y-71668571D01*
X140612857Y-71716190D01*
X140231904Y-71716190D01*
X141136666Y-71192380D02*
X141755714Y-71192380D01*
X141422380Y-71573333D01*
X141565238Y-71573333D01*
X141660476Y-71620952D01*
X141708095Y-71668571D01*
X141755714Y-71763809D01*
X141755714Y-72001904D01*
X141708095Y-72097142D01*
X141660476Y-72144761D01*
X141565238Y-72192380D01*
X141279523Y-72192380D01*
X141184285Y-72144761D01*
X141136666Y-72097142D01*
X154772380Y-103036666D02*
X154296190Y-103370000D01*
X154772380Y-103608095D02*
X153772380Y-103608095D01*
X153772380Y-103227142D01*
X153820000Y-103131904D01*
X153867619Y-103084285D01*
X153962857Y-103036666D01*
X154105714Y-103036666D01*
X154200952Y-103084285D01*
X154248571Y-103131904D01*
X154296190Y-103227142D01*
X154296190Y-103608095D01*
X153867619Y-102655714D02*
X153820000Y-102608095D01*
X153772380Y-102512857D01*
X153772380Y-102274761D01*
X153820000Y-102179523D01*
X153867619Y-102131904D01*
X153962857Y-102084285D01*
X154058095Y-102084285D01*
X154200952Y-102131904D01*
X154772380Y-102703333D01*
X154772380Y-102084285D01*
X145852380Y-103036666D02*
X145376190Y-103370000D01*
X145852380Y-103608095D02*
X144852380Y-103608095D01*
X144852380Y-103227142D01*
X144900000Y-103131904D01*
X144947619Y-103084285D01*
X145042857Y-103036666D01*
X145185714Y-103036666D01*
X145280952Y-103084285D01*
X145328571Y-103131904D01*
X145376190Y-103227142D01*
X145376190Y-103608095D01*
X145852380Y-102084285D02*
X145852380Y-102655714D01*
X145852380Y-102370000D02*
X144852380Y-102370000D01*
X144995238Y-102465238D01*
X145090476Y-102560476D01*
X145138095Y-102655714D01*
X140636666Y-52792380D02*
X140636666Y-53506666D01*
X140589047Y-53649523D01*
X140493809Y-53744761D01*
X140350952Y-53792380D01*
X140255714Y-53792380D01*
X141065238Y-52887619D02*
X141112857Y-52840000D01*
X141208095Y-52792380D01*
X141446190Y-52792380D01*
X141541428Y-52840000D01*
X141589047Y-52887619D01*
X141636666Y-52982857D01*
X141636666Y-53078095D01*
X141589047Y-53220952D01*
X141017619Y-53792380D01*
X141636666Y-53792380D01*
X166997142Y-94337142D02*
X166949523Y-94384761D01*
X166806666Y-94432380D01*
X166711428Y-94432380D01*
X166568571Y-94384761D01*
X166473333Y-94289523D01*
X166425714Y-94194285D01*
X166378095Y-94003809D01*
X166378095Y-93860952D01*
X166425714Y-93670476D01*
X166473333Y-93575238D01*
X166568571Y-93480000D01*
X166711428Y-93432380D01*
X166806666Y-93432380D01*
X166949523Y-93480000D01*
X166997142Y-93527619D01*
X167378095Y-93527619D02*
X167425714Y-93480000D01*
X167520952Y-93432380D01*
X167759047Y-93432380D01*
X167854285Y-93480000D01*
X167901904Y-93527619D01*
X167949523Y-93622857D01*
X167949523Y-93718095D01*
X167901904Y-93860952D01*
X167330476Y-94432380D01*
X167949523Y-94432380D01*
X168901904Y-94432380D02*
X168330476Y-94432380D01*
X168616190Y-94432380D02*
X168616190Y-93432380D01*
X168520952Y-93575238D01*
X168425714Y-93670476D01*
X168330476Y-93718095D01*
X136993333Y-67667142D02*
X136945714Y-67714761D01*
X136802857Y-67762380D01*
X136707619Y-67762380D01*
X136564761Y-67714761D01*
X136469523Y-67619523D01*
X136421904Y-67524285D01*
X136374285Y-67333809D01*
X136374285Y-67190952D01*
X136421904Y-67000476D01*
X136469523Y-66905238D01*
X136564761Y-66810000D01*
X136707619Y-66762380D01*
X136802857Y-66762380D01*
X136945714Y-66810000D01*
X136993333Y-66857619D01*
X137469523Y-67762380D02*
X137660000Y-67762380D01*
X137755238Y-67714761D01*
X137802857Y-67667142D01*
X137898095Y-67524285D01*
X137945714Y-67333809D01*
X137945714Y-66952857D01*
X137898095Y-66857619D01*
X137850476Y-66810000D01*
X137755238Y-66762380D01*
X137564761Y-66762380D01*
X137469523Y-66810000D01*
X137421904Y-66857619D01*
X137374285Y-66952857D01*
X137374285Y-67190952D01*
X137421904Y-67286190D01*
X137469523Y-67333809D01*
X137564761Y-67381428D01*
X137755238Y-67381428D01*
X137850476Y-67333809D01*
X137898095Y-67286190D01*
X137945714Y-67190952D01*
X124333333Y-62397142D02*
X124285714Y-62444761D01*
X124142857Y-62492380D01*
X124047619Y-62492380D01*
X123904761Y-62444761D01*
X123809523Y-62349523D01*
X123761904Y-62254285D01*
X123714285Y-62063809D01*
X123714285Y-61920952D01*
X123761904Y-61730476D01*
X123809523Y-61635238D01*
X123904761Y-61540000D01*
X124047619Y-61492380D01*
X124142857Y-61492380D01*
X124285714Y-61540000D01*
X124333333Y-61587619D01*
X124666666Y-61492380D02*
X125333333Y-61492380D01*
X124904761Y-62492380D01*
X172077142Y-67667142D02*
X172029523Y-67714761D01*
X171886666Y-67762380D01*
X171791428Y-67762380D01*
X171648571Y-67714761D01*
X171553333Y-67619523D01*
X171505714Y-67524285D01*
X171458095Y-67333809D01*
X171458095Y-67190952D01*
X171505714Y-67000476D01*
X171553333Y-66905238D01*
X171648571Y-66810000D01*
X171791428Y-66762380D01*
X171886666Y-66762380D01*
X172029523Y-66810000D01*
X172077142Y-66857619D01*
X173029523Y-67762380D02*
X172458095Y-67762380D01*
X172743809Y-67762380D02*
X172743809Y-66762380D01*
X172648571Y-66905238D01*
X172553333Y-67000476D01*
X172458095Y-67048095D01*
X173600952Y-67190952D02*
X173505714Y-67143333D01*
X173458095Y-67095714D01*
X173410476Y-67000476D01*
X173410476Y-66952857D01*
X173458095Y-66857619D01*
X173505714Y-66810000D01*
X173600952Y-66762380D01*
X173791428Y-66762380D01*
X173886666Y-66810000D01*
X173934285Y-66857619D01*
X173981904Y-66952857D01*
X173981904Y-67000476D01*
X173934285Y-67095714D01*
X173886666Y-67143333D01*
X173791428Y-67190952D01*
X173600952Y-67190952D01*
X173505714Y-67238571D01*
X173458095Y-67286190D01*
X173410476Y-67381428D01*
X173410476Y-67571904D01*
X173458095Y-67667142D01*
X173505714Y-67714761D01*
X173600952Y-67762380D01*
X173791428Y-67762380D01*
X173886666Y-67714761D01*
X173934285Y-67667142D01*
X173981904Y-67571904D01*
X173981904Y-67381428D01*
X173934285Y-67286190D01*
X173886666Y-67238571D01*
X173791428Y-67190952D01*
X173977380Y-107441904D02*
X174786904Y-107441904D01*
X174882142Y-107394285D01*
X174929761Y-107346666D01*
X174977380Y-107251428D01*
X174977380Y-107060952D01*
X174929761Y-106965714D01*
X174882142Y-106918095D01*
X174786904Y-106870476D01*
X173977380Y-106870476D01*
X174310714Y-105965714D02*
X174977380Y-105965714D01*
X173929761Y-106203809D02*
X174644047Y-106441904D01*
X174644047Y-105822857D01*
X177782380Y-102433333D02*
X178496666Y-102433333D01*
X178639523Y-102480952D01*
X178734761Y-102576190D01*
X178782380Y-102719047D01*
X178782380Y-102814285D01*
X178782380Y-101957142D02*
X177782380Y-101957142D01*
X177782380Y-101576190D01*
X177830000Y-101480952D01*
X177877619Y-101433333D01*
X177972857Y-101385714D01*
X178115714Y-101385714D01*
X178210952Y-101433333D01*
X178258571Y-101480952D01*
X178306190Y-101576190D01*
X178306190Y-101957142D01*
X178115714Y-100528571D02*
X178782380Y-100528571D01*
X177734761Y-100766666D02*
X178449047Y-101004761D01*
X178449047Y-100385714D01*
X140952380Y-102433333D02*
X141666666Y-102433333D01*
X141809523Y-102480952D01*
X141904761Y-102576190D01*
X141952380Y-102719047D01*
X141952380Y-102814285D01*
X141952380Y-101957142D02*
X140952380Y-101957142D01*
X140952380Y-101576190D01*
X141000000Y-101480952D01*
X141047619Y-101433333D01*
X141142857Y-101385714D01*
X141285714Y-101385714D01*
X141380952Y-101433333D01*
X141428571Y-101480952D01*
X141476190Y-101576190D01*
X141476190Y-101957142D01*
X141047619Y-101004761D02*
X141000000Y-100957142D01*
X140952380Y-100861904D01*
X140952380Y-100623809D01*
X141000000Y-100528571D01*
X141047619Y-100480952D01*
X141142857Y-100433333D01*
X141238095Y-100433333D01*
X141380952Y-100480952D01*
X141952380Y-101052380D01*
X141952380Y-100433333D01*
X187412380Y-103203333D02*
X188126666Y-103203333D01*
X188269523Y-103250952D01*
X188364761Y-103346190D01*
X188412380Y-103489047D01*
X188412380Y-103584285D01*
X187412380Y-102250952D02*
X187412380Y-102727142D01*
X187888571Y-102774761D01*
X187840952Y-102727142D01*
X187793333Y-102631904D01*
X187793333Y-102393809D01*
X187840952Y-102298571D01*
X187888571Y-102250952D01*
X187983809Y-102203333D01*
X188221904Y-102203333D01*
X188317142Y-102250952D01*
X188364761Y-102298571D01*
X188412380Y-102393809D01*
X188412380Y-102631904D01*
X188364761Y-102727142D01*
X188317142Y-102774761D01*
X115282380Y-103223333D02*
X115996666Y-103223333D01*
X116139523Y-103270952D01*
X116234761Y-103366190D01*
X116282380Y-103509047D01*
X116282380Y-103604285D01*
X115282380Y-102842380D02*
X115282380Y-102223333D01*
X115663333Y-102556666D01*
X115663333Y-102413809D01*
X115710952Y-102318571D01*
X115758571Y-102270952D01*
X115853809Y-102223333D01*
X116091904Y-102223333D01*
X116187142Y-102270952D01*
X116234761Y-102318571D01*
X116282380Y-102413809D01*
X116282380Y-102699523D01*
X116234761Y-102794761D01*
X116187142Y-102842380D01*
X150391904Y-91892380D02*
X150391904Y-90892380D01*
X150630000Y-90892380D01*
X150772857Y-90940000D01*
X150868095Y-91035238D01*
X150915714Y-91130476D01*
X150963333Y-91320952D01*
X150963333Y-91463809D01*
X150915714Y-91654285D01*
X150868095Y-91749523D01*
X150772857Y-91844761D01*
X150630000Y-91892380D01*
X150391904Y-91892380D01*
X151344285Y-90987619D02*
X151391904Y-90940000D01*
X151487142Y-90892380D01*
X151725238Y-90892380D01*
X151820476Y-90940000D01*
X151868095Y-90987619D01*
X151915714Y-91082857D01*
X151915714Y-91178095D01*
X151868095Y-91320952D01*
X151296666Y-91892380D01*
X151915714Y-91892380D01*
X145311904Y-91892380D02*
X145311904Y-90892380D01*
X145550000Y-90892380D01*
X145692857Y-90940000D01*
X145788095Y-91035238D01*
X145835714Y-91130476D01*
X145883333Y-91320952D01*
X145883333Y-91463809D01*
X145835714Y-91654285D01*
X145788095Y-91749523D01*
X145692857Y-91844761D01*
X145550000Y-91892380D01*
X145311904Y-91892380D01*
X146835714Y-91892380D02*
X146264285Y-91892380D01*
X146550000Y-91892380D02*
X146550000Y-90892380D01*
X146454761Y-91035238D01*
X146359523Y-91130476D01*
X146264285Y-91178095D01*
X173347142Y-94337142D02*
X173299523Y-94384761D01*
X173156666Y-94432380D01*
X173061428Y-94432380D01*
X172918571Y-94384761D01*
X172823333Y-94289523D01*
X172775714Y-94194285D01*
X172728095Y-94003809D01*
X172728095Y-93860952D01*
X172775714Y-93670476D01*
X172823333Y-93575238D01*
X172918571Y-93480000D01*
X173061428Y-93432380D01*
X173156666Y-93432380D01*
X173299523Y-93480000D01*
X173347142Y-93527619D01*
X173728095Y-93527619D02*
X173775714Y-93480000D01*
X173870952Y-93432380D01*
X174109047Y-93432380D01*
X174204285Y-93480000D01*
X174251904Y-93527619D01*
X174299523Y-93622857D01*
X174299523Y-93718095D01*
X174251904Y-93860952D01*
X173680476Y-94432380D01*
X174299523Y-94432380D01*
X174680476Y-93527619D02*
X174728095Y-93480000D01*
X174823333Y-93432380D01*
X175061428Y-93432380D01*
X175156666Y-93480000D01*
X175204285Y-93527619D01*
X175251904Y-93622857D01*
X175251904Y-93718095D01*
X175204285Y-93860952D01*
X174632857Y-94432380D01*
X175251904Y-94432380D01*
X160647142Y-94627142D02*
X160599523Y-94674761D01*
X160456666Y-94722380D01*
X160361428Y-94722380D01*
X160218571Y-94674761D01*
X160123333Y-94579523D01*
X160075714Y-94484285D01*
X160028095Y-94293809D01*
X160028095Y-94150952D01*
X160075714Y-93960476D01*
X160123333Y-93865238D01*
X160218571Y-93770000D01*
X160361428Y-93722380D01*
X160456666Y-93722380D01*
X160599523Y-93770000D01*
X160647142Y-93817619D01*
X161028095Y-93817619D02*
X161075714Y-93770000D01*
X161170952Y-93722380D01*
X161409047Y-93722380D01*
X161504285Y-93770000D01*
X161551904Y-93817619D01*
X161599523Y-93912857D01*
X161599523Y-94008095D01*
X161551904Y-94150952D01*
X160980476Y-94722380D01*
X161599523Y-94722380D01*
X162218571Y-93722380D02*
X162313809Y-93722380D01*
X162409047Y-93770000D01*
X162456666Y-93817619D01*
X162504285Y-93912857D01*
X162551904Y-94103333D01*
X162551904Y-94341428D01*
X162504285Y-94531904D01*
X162456666Y-94627142D01*
X162409047Y-94674761D01*
X162313809Y-94722380D01*
X162218571Y-94722380D01*
X162123333Y-94674761D01*
X162075714Y-94627142D01*
X162028095Y-94531904D01*
X161980476Y-94341428D01*
X161980476Y-94103333D01*
X162028095Y-93912857D01*
X162075714Y-93817619D01*
X162123333Y-93770000D01*
X162218571Y-93722380D01*
X155567142Y-94337142D02*
X155519523Y-94384761D01*
X155376666Y-94432380D01*
X155281428Y-94432380D01*
X155138571Y-94384761D01*
X155043333Y-94289523D01*
X154995714Y-94194285D01*
X154948095Y-94003809D01*
X154948095Y-93860952D01*
X154995714Y-93670476D01*
X155043333Y-93575238D01*
X155138571Y-93480000D01*
X155281428Y-93432380D01*
X155376666Y-93432380D01*
X155519523Y-93480000D01*
X155567142Y-93527619D01*
X156519523Y-94432380D02*
X155948095Y-94432380D01*
X156233809Y-94432380D02*
X156233809Y-93432380D01*
X156138571Y-93575238D01*
X156043333Y-93670476D01*
X155948095Y-93718095D01*
X156995714Y-94432380D02*
X157186190Y-94432380D01*
X157281428Y-94384761D01*
X157329047Y-94337142D01*
X157424285Y-94194285D01*
X157471904Y-94003809D01*
X157471904Y-93622857D01*
X157424285Y-93527619D01*
X157376666Y-93480000D01*
X157281428Y-93432380D01*
X157090952Y-93432380D01*
X156995714Y-93480000D01*
X156948095Y-93527619D01*
X156900476Y-93622857D01*
X156900476Y-93860952D01*
X156948095Y-93956190D01*
X156995714Y-94003809D01*
X157090952Y-94051428D01*
X157281428Y-94051428D01*
X157376666Y-94003809D01*
X157424285Y-93956190D01*
X157471904Y-93860952D01*
X163207142Y-85157142D02*
X163159523Y-85204761D01*
X163016666Y-85252380D01*
X162921428Y-85252380D01*
X162778571Y-85204761D01*
X162683333Y-85109523D01*
X162635714Y-85014285D01*
X162588095Y-84823809D01*
X162588095Y-84680952D01*
X162635714Y-84490476D01*
X162683333Y-84395238D01*
X162778571Y-84300000D01*
X162921428Y-84252380D01*
X163016666Y-84252380D01*
X163159523Y-84300000D01*
X163207142Y-84347619D01*
X164159523Y-85252380D02*
X163588095Y-85252380D01*
X163873809Y-85252380D02*
X163873809Y-84252380D01*
X163778571Y-84395238D01*
X163683333Y-84490476D01*
X163588095Y-84538095D01*
X164492857Y-84252380D02*
X165159523Y-84252380D01*
X164730952Y-85252380D01*
X159417142Y-62397142D02*
X159369523Y-62444761D01*
X159226666Y-62492380D01*
X159131428Y-62492380D01*
X158988571Y-62444761D01*
X158893333Y-62349523D01*
X158845714Y-62254285D01*
X158798095Y-62063809D01*
X158798095Y-61920952D01*
X158845714Y-61730476D01*
X158893333Y-61635238D01*
X158988571Y-61540000D01*
X159131428Y-61492380D01*
X159226666Y-61492380D01*
X159369523Y-61540000D01*
X159417142Y-61587619D01*
X160369523Y-62492380D02*
X159798095Y-62492380D01*
X160083809Y-62492380D02*
X160083809Y-61492380D01*
X159988571Y-61635238D01*
X159893333Y-61730476D01*
X159798095Y-61778095D01*
X161226666Y-61492380D02*
X161036190Y-61492380D01*
X160940952Y-61540000D01*
X160893333Y-61587619D01*
X160798095Y-61730476D01*
X160750476Y-61920952D01*
X160750476Y-62301904D01*
X160798095Y-62397142D01*
X160845714Y-62444761D01*
X160940952Y-62492380D01*
X161131428Y-62492380D01*
X161226666Y-62444761D01*
X161274285Y-62397142D01*
X161321904Y-62301904D01*
X161321904Y-62063809D01*
X161274285Y-61968571D01*
X161226666Y-61920952D01*
X161131428Y-61873333D01*
X160940952Y-61873333D01*
X160845714Y-61920952D01*
X160798095Y-61968571D01*
X160750476Y-62063809D01*
X155607142Y-85637142D02*
X155559523Y-85684761D01*
X155416666Y-85732380D01*
X155321428Y-85732380D01*
X155178571Y-85684761D01*
X155083333Y-85589523D01*
X155035714Y-85494285D01*
X154988095Y-85303809D01*
X154988095Y-85160952D01*
X155035714Y-84970476D01*
X155083333Y-84875238D01*
X155178571Y-84780000D01*
X155321428Y-84732380D01*
X155416666Y-84732380D01*
X155559523Y-84780000D01*
X155607142Y-84827619D01*
X156559523Y-85732380D02*
X155988095Y-85732380D01*
X156273809Y-85732380D02*
X156273809Y-84732380D01*
X156178571Y-84875238D01*
X156083333Y-84970476D01*
X155988095Y-85018095D01*
X157464285Y-84732380D02*
X156988095Y-84732380D01*
X156940476Y-85208571D01*
X156988095Y-85160952D01*
X157083333Y-85113333D01*
X157321428Y-85113333D01*
X157416666Y-85160952D01*
X157464285Y-85208571D01*
X157511904Y-85303809D01*
X157511904Y-85541904D01*
X157464285Y-85637142D01*
X157416666Y-85684761D01*
X157321428Y-85732380D01*
X157083333Y-85732380D01*
X156988095Y-85684761D01*
X156940476Y-85637142D01*
X174617142Y-61317142D02*
X174569523Y-61364761D01*
X174426666Y-61412380D01*
X174331428Y-61412380D01*
X174188571Y-61364761D01*
X174093333Y-61269523D01*
X174045714Y-61174285D01*
X173998095Y-60983809D01*
X173998095Y-60840952D01*
X174045714Y-60650476D01*
X174093333Y-60555238D01*
X174188571Y-60460000D01*
X174331428Y-60412380D01*
X174426666Y-60412380D01*
X174569523Y-60460000D01*
X174617142Y-60507619D01*
X175569523Y-61412380D02*
X174998095Y-61412380D01*
X175283809Y-61412380D02*
X175283809Y-60412380D01*
X175188571Y-60555238D01*
X175093333Y-60650476D01*
X174998095Y-60698095D01*
X176426666Y-60745714D02*
X176426666Y-61412380D01*
X176188571Y-60364761D02*
X175950476Y-61079047D01*
X176569523Y-61079047D01*
X137787142Y-93067142D02*
X137739523Y-93114761D01*
X137596666Y-93162380D01*
X137501428Y-93162380D01*
X137358571Y-93114761D01*
X137263333Y-93019523D01*
X137215714Y-92924285D01*
X137168095Y-92733809D01*
X137168095Y-92590952D01*
X137215714Y-92400476D01*
X137263333Y-92305238D01*
X137358571Y-92210000D01*
X137501428Y-92162380D01*
X137596666Y-92162380D01*
X137739523Y-92210000D01*
X137787142Y-92257619D01*
X138739523Y-93162380D02*
X138168095Y-93162380D01*
X138453809Y-93162380D02*
X138453809Y-92162380D01*
X138358571Y-92305238D01*
X138263333Y-92400476D01*
X138168095Y-92448095D01*
X139072857Y-92162380D02*
X139691904Y-92162380D01*
X139358571Y-92543333D01*
X139501428Y-92543333D01*
X139596666Y-92590952D01*
X139644285Y-92638571D01*
X139691904Y-92733809D01*
X139691904Y-92971904D01*
X139644285Y-93067142D01*
X139596666Y-93114761D01*
X139501428Y-93162380D01*
X139215714Y-93162380D01*
X139120476Y-93114761D01*
X139072857Y-93067142D01*
X131437142Y-94337142D02*
X131389523Y-94384761D01*
X131246666Y-94432380D01*
X131151428Y-94432380D01*
X131008571Y-94384761D01*
X130913333Y-94289523D01*
X130865714Y-94194285D01*
X130818095Y-94003809D01*
X130818095Y-93860952D01*
X130865714Y-93670476D01*
X130913333Y-93575238D01*
X131008571Y-93480000D01*
X131151428Y-93432380D01*
X131246666Y-93432380D01*
X131389523Y-93480000D01*
X131437142Y-93527619D01*
X132389523Y-94432380D02*
X131818095Y-94432380D01*
X132103809Y-94432380D02*
X132103809Y-93432380D01*
X132008571Y-93575238D01*
X131913333Y-93670476D01*
X131818095Y-93718095D01*
X132770476Y-93527619D02*
X132818095Y-93480000D01*
X132913333Y-93432380D01*
X133151428Y-93432380D01*
X133246666Y-93480000D01*
X133294285Y-93527619D01*
X133341904Y-93622857D01*
X133341904Y-93718095D01*
X133294285Y-93860952D01*
X132722857Y-94432380D01*
X133341904Y-94432380D01*
X125087142Y-94627142D02*
X125039523Y-94674761D01*
X124896666Y-94722380D01*
X124801428Y-94722380D01*
X124658571Y-94674761D01*
X124563333Y-94579523D01*
X124515714Y-94484285D01*
X124468095Y-94293809D01*
X124468095Y-94150952D01*
X124515714Y-93960476D01*
X124563333Y-93865238D01*
X124658571Y-93770000D01*
X124801428Y-93722380D01*
X124896666Y-93722380D01*
X125039523Y-93770000D01*
X125087142Y-93817619D01*
X126039523Y-94722380D02*
X125468095Y-94722380D01*
X125753809Y-94722380D02*
X125753809Y-93722380D01*
X125658571Y-93865238D01*
X125563333Y-93960476D01*
X125468095Y-94008095D01*
X126991904Y-94722380D02*
X126420476Y-94722380D01*
X126706190Y-94722380D02*
X126706190Y-93722380D01*
X126610952Y-93865238D01*
X126515714Y-93960476D01*
X126420476Y-94008095D01*
X120007142Y-93067142D02*
X119959523Y-93114761D01*
X119816666Y-93162380D01*
X119721428Y-93162380D01*
X119578571Y-93114761D01*
X119483333Y-93019523D01*
X119435714Y-92924285D01*
X119388095Y-92733809D01*
X119388095Y-92590952D01*
X119435714Y-92400476D01*
X119483333Y-92305238D01*
X119578571Y-92210000D01*
X119721428Y-92162380D01*
X119816666Y-92162380D01*
X119959523Y-92210000D01*
X120007142Y-92257619D01*
X120959523Y-93162380D02*
X120388095Y-93162380D01*
X120673809Y-93162380D02*
X120673809Y-92162380D01*
X120578571Y-92305238D01*
X120483333Y-92400476D01*
X120388095Y-92448095D01*
X121578571Y-92162380D02*
X121673809Y-92162380D01*
X121769047Y-92210000D01*
X121816666Y-92257619D01*
X121864285Y-92352857D01*
X121911904Y-92543333D01*
X121911904Y-92781428D01*
X121864285Y-92971904D01*
X121816666Y-93067142D01*
X121769047Y-93114761D01*
X121673809Y-93162380D01*
X121578571Y-93162380D01*
X121483333Y-93114761D01*
X121435714Y-93067142D01*
X121388095Y-92971904D01*
X121340476Y-92781428D01*
X121340476Y-92543333D01*
X121388095Y-92352857D01*
X121435714Y-92257619D01*
X121483333Y-92210000D01*
X121578571Y-92162380D01*
X129373333Y-85447142D02*
X129325714Y-85494761D01*
X129182857Y-85542380D01*
X129087619Y-85542380D01*
X128944761Y-85494761D01*
X128849523Y-85399523D01*
X128801904Y-85304285D01*
X128754285Y-85113809D01*
X128754285Y-84970952D01*
X128801904Y-84780476D01*
X128849523Y-84685238D01*
X128944761Y-84590000D01*
X129087619Y-84542380D01*
X129182857Y-84542380D01*
X129325714Y-84590000D01*
X129373333Y-84637619D01*
X129944761Y-84970952D02*
X129849523Y-84923333D01*
X129801904Y-84875714D01*
X129754285Y-84780476D01*
X129754285Y-84732857D01*
X129801904Y-84637619D01*
X129849523Y-84590000D01*
X129944761Y-84542380D01*
X130135238Y-84542380D01*
X130230476Y-84590000D01*
X130278095Y-84637619D01*
X130325714Y-84732857D01*
X130325714Y-84780476D01*
X130278095Y-84875714D01*
X130230476Y-84923333D01*
X130135238Y-84970952D01*
X129944761Y-84970952D01*
X129849523Y-85018571D01*
X129801904Y-85066190D01*
X129754285Y-85161428D01*
X129754285Y-85351904D01*
X129801904Y-85447142D01*
X129849523Y-85494761D01*
X129944761Y-85542380D01*
X130135238Y-85542380D01*
X130230476Y-85494761D01*
X130278095Y-85447142D01*
X130325714Y-85351904D01*
X130325714Y-85161428D01*
X130278095Y-85066190D01*
X130230476Y-85018571D01*
X130135238Y-84970952D01*
X139613333Y-61317142D02*
X139565714Y-61364761D01*
X139422857Y-61412380D01*
X139327619Y-61412380D01*
X139184761Y-61364761D01*
X139089523Y-61269523D01*
X139041904Y-61174285D01*
X138994285Y-60983809D01*
X138994285Y-60840952D01*
X139041904Y-60650476D01*
X139089523Y-60555238D01*
X139184761Y-60460000D01*
X139327619Y-60412380D01*
X139422857Y-60412380D01*
X139565714Y-60460000D01*
X139613333Y-60507619D01*
X140518095Y-60412380D02*
X140041904Y-60412380D01*
X139994285Y-60888571D01*
X140041904Y-60840952D01*
X140137142Y-60793333D01*
X140375238Y-60793333D01*
X140470476Y-60840952D01*
X140518095Y-60888571D01*
X140565714Y-60983809D01*
X140565714Y-61221904D01*
X140518095Y-61317142D01*
X140470476Y-61364761D01*
X140375238Y-61412380D01*
X140137142Y-61412380D01*
X140041904Y-61364761D01*
X139994285Y-61317142D01*
X176303333Y-117607142D02*
X176255714Y-117654761D01*
X176112857Y-117702380D01*
X176017619Y-117702380D01*
X175874761Y-117654761D01*
X175779523Y-117559523D01*
X175731904Y-117464285D01*
X175684285Y-117273809D01*
X175684285Y-117130952D01*
X175731904Y-116940476D01*
X175779523Y-116845238D01*
X175874761Y-116750000D01*
X176017619Y-116702380D01*
X176112857Y-116702380D01*
X176255714Y-116750000D01*
X176303333Y-116797619D01*
X177160476Y-117035714D02*
X177160476Y-117702380D01*
X176922380Y-116654761D02*
X176684285Y-117369047D01*
X177303333Y-117369047D01*
M02*
