G04 #@! TF.GenerationSoftware,KiCad,Pcbnew,(5.1.4)-1*
G04 #@! TF.CreationDate,2019-10-15T14:43:25+09:00*
G04 #@! TF.ProjectId,LME49600_HPA,4c4d4534-3936-4303-905f-4850412e6b69,rev?*
G04 #@! TF.SameCoordinates,Original*
G04 #@! TF.FileFunction,Soldermask,Top*
G04 #@! TF.FilePolarity,Negative*
%FSLAX46Y46*%
G04 Gerber Fmt 4.6, Leading zero omitted, Abs format (unit mm)*
G04 Created by KiCad (PCBNEW (5.1.4)-1) date 2019-10-15 14:43:25*
%MOMM*%
%LPD*%
G04 APERTURE LIST*
%ADD10O,1.600000X1.600000*%
%ADD11R,1.600000X1.600000*%
%ADD12R,10.800000X9.400000*%
%ADD13R,1.100000X4.600000*%
%ADD14C,2.400000*%
%ADD15R,2.400000X2.400000*%
%ADD16O,1.700000X1.950000*%
%ADD17C,0.100000*%
%ADD18C,1.700000*%
%ADD19C,3.200000*%
%ADD20O,1.700000X2.000000*%
%ADD21O,1.400000X1.400000*%
%ADD22C,1.400000*%
%ADD23C,1.600000*%
%ADD24C,0.500000*%
%ADD25O,2.000000X1.700000*%
%ADD26C,1.800000*%
%ADD27R,1.800000X1.800000*%
G04 APERTURE END LIST*
D10*
X162560000Y-78740000D03*
X170180000Y-71120000D03*
X162560000Y-76200000D03*
X170180000Y-73660000D03*
X162560000Y-73660000D03*
X170180000Y-76200000D03*
X162560000Y-71120000D03*
D11*
X170180000Y-78740000D03*
D10*
X127000000Y-78740000D03*
X134620000Y-71120000D03*
X127000000Y-76200000D03*
X134620000Y-73660000D03*
X127000000Y-73660000D03*
X134620000Y-76200000D03*
X127000000Y-71120000D03*
D11*
X134620000Y-78740000D03*
D12*
X132080000Y-110055000D03*
D13*
X128680000Y-100905000D03*
X130380000Y-100905000D03*
X132080000Y-100905000D03*
X133780000Y-100905000D03*
X135480000Y-100905000D03*
D14*
X126880000Y-127000000D03*
D15*
X119380000Y-127000000D03*
D14*
X162440000Y-127000000D03*
D15*
X154940000Y-127000000D03*
D16*
X152400000Y-111760000D03*
X149900000Y-111760000D03*
D17*
G36*
X148024504Y-110786204D02*
G01*
X148048773Y-110789804D01*
X148072571Y-110795765D01*
X148095671Y-110804030D01*
X148117849Y-110814520D01*
X148138893Y-110827133D01*
X148158598Y-110841747D01*
X148176777Y-110858223D01*
X148193253Y-110876402D01*
X148207867Y-110896107D01*
X148220480Y-110917151D01*
X148230970Y-110939329D01*
X148239235Y-110962429D01*
X148245196Y-110986227D01*
X148248796Y-111010496D01*
X148250000Y-111035000D01*
X148250000Y-112485000D01*
X148248796Y-112509504D01*
X148245196Y-112533773D01*
X148239235Y-112557571D01*
X148230970Y-112580671D01*
X148220480Y-112602849D01*
X148207867Y-112623893D01*
X148193253Y-112643598D01*
X148176777Y-112661777D01*
X148158598Y-112678253D01*
X148138893Y-112692867D01*
X148117849Y-112705480D01*
X148095671Y-112715970D01*
X148072571Y-112724235D01*
X148048773Y-112730196D01*
X148024504Y-112733796D01*
X148000000Y-112735000D01*
X146800000Y-112735000D01*
X146775496Y-112733796D01*
X146751227Y-112730196D01*
X146727429Y-112724235D01*
X146704329Y-112715970D01*
X146682151Y-112705480D01*
X146661107Y-112692867D01*
X146641402Y-112678253D01*
X146623223Y-112661777D01*
X146606747Y-112643598D01*
X146592133Y-112623893D01*
X146579520Y-112602849D01*
X146569030Y-112580671D01*
X146560765Y-112557571D01*
X146554804Y-112533773D01*
X146551204Y-112509504D01*
X146550000Y-112485000D01*
X146550000Y-111035000D01*
X146551204Y-111010496D01*
X146554804Y-110986227D01*
X146560765Y-110962429D01*
X146569030Y-110939329D01*
X146579520Y-110917151D01*
X146592133Y-110896107D01*
X146606747Y-110876402D01*
X146623223Y-110858223D01*
X146641402Y-110841747D01*
X146661107Y-110827133D01*
X146682151Y-110814520D01*
X146704329Y-110804030D01*
X146727429Y-110795765D01*
X146751227Y-110789804D01*
X146775496Y-110786204D01*
X146800000Y-110785000D01*
X148000000Y-110785000D01*
X148024504Y-110786204D01*
X148024504Y-110786204D01*
G37*
D18*
X147400000Y-111760000D03*
D14*
X144780000Y-127000000D03*
D15*
X137280000Y-127000000D03*
D19*
X111760000Y-134620000D03*
X187960000Y-134620000D03*
X187960000Y-50800000D03*
X111760000Y-50800000D03*
D20*
X170220000Y-53340000D03*
D17*
G36*
X173344504Y-52341204D02*
G01*
X173368773Y-52344804D01*
X173392571Y-52350765D01*
X173415671Y-52359030D01*
X173437849Y-52369520D01*
X173458893Y-52382133D01*
X173478598Y-52396747D01*
X173496777Y-52413223D01*
X173513253Y-52431402D01*
X173527867Y-52451107D01*
X173540480Y-52472151D01*
X173550970Y-52494329D01*
X173559235Y-52517429D01*
X173565196Y-52541227D01*
X173568796Y-52565496D01*
X173570000Y-52590000D01*
X173570000Y-54090000D01*
X173568796Y-54114504D01*
X173565196Y-54138773D01*
X173559235Y-54162571D01*
X173550970Y-54185671D01*
X173540480Y-54207849D01*
X173527867Y-54228893D01*
X173513253Y-54248598D01*
X173496777Y-54266777D01*
X173478598Y-54283253D01*
X173458893Y-54297867D01*
X173437849Y-54310480D01*
X173415671Y-54320970D01*
X173392571Y-54329235D01*
X173368773Y-54335196D01*
X173344504Y-54338796D01*
X173320000Y-54340000D01*
X172120000Y-54340000D01*
X172095496Y-54338796D01*
X172071227Y-54335196D01*
X172047429Y-54329235D01*
X172024329Y-54320970D01*
X172002151Y-54310480D01*
X171981107Y-54297867D01*
X171961402Y-54283253D01*
X171943223Y-54266777D01*
X171926747Y-54248598D01*
X171912133Y-54228893D01*
X171899520Y-54207849D01*
X171889030Y-54185671D01*
X171880765Y-54162571D01*
X171874804Y-54138773D01*
X171871204Y-54114504D01*
X171870000Y-54090000D01*
X171870000Y-52590000D01*
X171871204Y-52565496D01*
X171874804Y-52541227D01*
X171880765Y-52517429D01*
X171889030Y-52494329D01*
X171899520Y-52472151D01*
X171912133Y-52451107D01*
X171926747Y-52431402D01*
X171943223Y-52413223D01*
X171961402Y-52396747D01*
X171981107Y-52382133D01*
X172002151Y-52369520D01*
X172024329Y-52359030D01*
X172047429Y-52350765D01*
X172071227Y-52344804D01*
X172095496Y-52341204D01*
X172120000Y-52340000D01*
X173320000Y-52340000D01*
X173344504Y-52341204D01*
X173344504Y-52341204D01*
G37*
D18*
X172720000Y-53340000D03*
D21*
X160020000Y-76200000D03*
D22*
X152400000Y-76200000D03*
D23*
X118190000Y-81280000D03*
X123190000Y-81280000D03*
D21*
X172720000Y-76200000D03*
D22*
X172720000Y-83820000D03*
D21*
X175260000Y-83820000D03*
D22*
X175260000Y-76200000D03*
D21*
X152400000Y-71120000D03*
D22*
X160020000Y-71120000D03*
D21*
X152400000Y-73660000D03*
D22*
X160020000Y-73660000D03*
D21*
X180340000Y-73660000D03*
D22*
X172720000Y-73660000D03*
D21*
X137160000Y-76200000D03*
D22*
X137160000Y-83820000D03*
D21*
X124460000Y-76200000D03*
D22*
X116840000Y-76200000D03*
D21*
X139700000Y-83820000D03*
D22*
X139700000Y-76200000D03*
D21*
X116840000Y-71120000D03*
D22*
X124460000Y-71120000D03*
D21*
X116840000Y-73660000D03*
D22*
X124460000Y-73660000D03*
D21*
X144780000Y-73660000D03*
D22*
X137160000Y-73660000D03*
D21*
X152400000Y-106680000D03*
D22*
X152400000Y-99060000D03*
D21*
X147320000Y-99060000D03*
D22*
X147320000Y-106680000D03*
D20*
X134660000Y-53340000D03*
D17*
G36*
X137784504Y-52341204D02*
G01*
X137808773Y-52344804D01*
X137832571Y-52350765D01*
X137855671Y-52359030D01*
X137877849Y-52369520D01*
X137898893Y-52382133D01*
X137918598Y-52396747D01*
X137936777Y-52413223D01*
X137953253Y-52431402D01*
X137967867Y-52451107D01*
X137980480Y-52472151D01*
X137990970Y-52494329D01*
X137999235Y-52517429D01*
X138005196Y-52541227D01*
X138008796Y-52565496D01*
X138010000Y-52590000D01*
X138010000Y-54090000D01*
X138008796Y-54114504D01*
X138005196Y-54138773D01*
X137999235Y-54162571D01*
X137990970Y-54185671D01*
X137980480Y-54207849D01*
X137967867Y-54228893D01*
X137953253Y-54248598D01*
X137936777Y-54266777D01*
X137918598Y-54283253D01*
X137898893Y-54297867D01*
X137877849Y-54310480D01*
X137855671Y-54320970D01*
X137832571Y-54329235D01*
X137808773Y-54335196D01*
X137784504Y-54338796D01*
X137760000Y-54340000D01*
X136560000Y-54340000D01*
X136535496Y-54338796D01*
X136511227Y-54335196D01*
X136487429Y-54329235D01*
X136464329Y-54320970D01*
X136442151Y-54310480D01*
X136421107Y-54297867D01*
X136401402Y-54283253D01*
X136383223Y-54266777D01*
X136366747Y-54248598D01*
X136352133Y-54228893D01*
X136339520Y-54207849D01*
X136329030Y-54185671D01*
X136320765Y-54162571D01*
X136314804Y-54138773D01*
X136311204Y-54114504D01*
X136310000Y-54090000D01*
X136310000Y-52590000D01*
X136311204Y-52565496D01*
X136314804Y-52541227D01*
X136320765Y-52517429D01*
X136329030Y-52494329D01*
X136339520Y-52472151D01*
X136352133Y-52451107D01*
X136366747Y-52431402D01*
X136383223Y-52413223D01*
X136401402Y-52396747D01*
X136421107Y-52382133D01*
X136442151Y-52369520D01*
X136464329Y-52359030D01*
X136487429Y-52350765D01*
X136511227Y-52344804D01*
X136535496Y-52341204D01*
X136560000Y-52340000D01*
X137760000Y-52340000D01*
X137784504Y-52341204D01*
X137784504Y-52341204D01*
G37*
D18*
X137160000Y-53340000D03*
D22*
X167680000Y-96520000D03*
X170180000Y-96520000D03*
X134580000Y-67310000D03*
X132080000Y-67310000D03*
D23*
X127000000Y-66040000D03*
X122000000Y-66040000D03*
D22*
X170140000Y-67310000D03*
X167640000Y-67310000D03*
D12*
X167875000Y-110055000D03*
D13*
X164475000Y-100905000D03*
X166175000Y-100905000D03*
X167875000Y-100905000D03*
X169575000Y-100905000D03*
X171275000Y-100905000D03*
D24*
X176530000Y-102250000D03*
D17*
G36*
X177279398Y-102250000D02*
G01*
X177279398Y-102274534D01*
X177274588Y-102323365D01*
X177265016Y-102371490D01*
X177250772Y-102418445D01*
X177231995Y-102463778D01*
X177208864Y-102507051D01*
X177181604Y-102547850D01*
X177150476Y-102585779D01*
X177115779Y-102620476D01*
X177077850Y-102651604D01*
X177037051Y-102678864D01*
X176993778Y-102701995D01*
X176948445Y-102720772D01*
X176901490Y-102735016D01*
X176853365Y-102744588D01*
X176804534Y-102749398D01*
X176780000Y-102749398D01*
X176780000Y-102750000D01*
X176280000Y-102750000D01*
X176280000Y-102749398D01*
X176255466Y-102749398D01*
X176206635Y-102744588D01*
X176158510Y-102735016D01*
X176111555Y-102720772D01*
X176066222Y-102701995D01*
X176022949Y-102678864D01*
X175982150Y-102651604D01*
X175944221Y-102620476D01*
X175909524Y-102585779D01*
X175878396Y-102547850D01*
X175851136Y-102507051D01*
X175828005Y-102463778D01*
X175809228Y-102418445D01*
X175794984Y-102371490D01*
X175785412Y-102323365D01*
X175780602Y-102274534D01*
X175780602Y-102250000D01*
X175780000Y-102250000D01*
X175780000Y-101750000D01*
X177280000Y-101750000D01*
X177280000Y-102250000D01*
X177279398Y-102250000D01*
X177279398Y-102250000D01*
G37*
D24*
X176530000Y-100950000D03*
D17*
G36*
X175780000Y-101450000D02*
G01*
X175780000Y-100950000D01*
X175780602Y-100950000D01*
X175780602Y-100925466D01*
X175785412Y-100876635D01*
X175794984Y-100828510D01*
X175809228Y-100781555D01*
X175828005Y-100736222D01*
X175851136Y-100692949D01*
X175878396Y-100652150D01*
X175909524Y-100614221D01*
X175944221Y-100579524D01*
X175982150Y-100548396D01*
X176022949Y-100521136D01*
X176066222Y-100498005D01*
X176111555Y-100479228D01*
X176158510Y-100464984D01*
X176206635Y-100455412D01*
X176255466Y-100450602D01*
X176280000Y-100450602D01*
X176280000Y-100450000D01*
X176780000Y-100450000D01*
X176780000Y-100450602D01*
X176804534Y-100450602D01*
X176853365Y-100455412D01*
X176901490Y-100464984D01*
X176948445Y-100479228D01*
X176993778Y-100498005D01*
X177037051Y-100521136D01*
X177077850Y-100548396D01*
X177115779Y-100579524D01*
X177150476Y-100614221D01*
X177181604Y-100652150D01*
X177208864Y-100692949D01*
X177231995Y-100736222D01*
X177250772Y-100781555D01*
X177265016Y-100828510D01*
X177274588Y-100876635D01*
X177279398Y-100925466D01*
X177279398Y-100950000D01*
X177280000Y-100950000D01*
X177280000Y-101450000D01*
X175780000Y-101450000D01*
X175780000Y-101450000D01*
G37*
D24*
X139700000Y-102250000D03*
D17*
G36*
X140449398Y-102250000D02*
G01*
X140449398Y-102274534D01*
X140444588Y-102323365D01*
X140435016Y-102371490D01*
X140420772Y-102418445D01*
X140401995Y-102463778D01*
X140378864Y-102507051D01*
X140351604Y-102547850D01*
X140320476Y-102585779D01*
X140285779Y-102620476D01*
X140247850Y-102651604D01*
X140207051Y-102678864D01*
X140163778Y-102701995D01*
X140118445Y-102720772D01*
X140071490Y-102735016D01*
X140023365Y-102744588D01*
X139974534Y-102749398D01*
X139950000Y-102749398D01*
X139950000Y-102750000D01*
X139450000Y-102750000D01*
X139450000Y-102749398D01*
X139425466Y-102749398D01*
X139376635Y-102744588D01*
X139328510Y-102735016D01*
X139281555Y-102720772D01*
X139236222Y-102701995D01*
X139192949Y-102678864D01*
X139152150Y-102651604D01*
X139114221Y-102620476D01*
X139079524Y-102585779D01*
X139048396Y-102547850D01*
X139021136Y-102507051D01*
X138998005Y-102463778D01*
X138979228Y-102418445D01*
X138964984Y-102371490D01*
X138955412Y-102323365D01*
X138950602Y-102274534D01*
X138950602Y-102250000D01*
X138950000Y-102250000D01*
X138950000Y-101750000D01*
X140450000Y-101750000D01*
X140450000Y-102250000D01*
X140449398Y-102250000D01*
X140449398Y-102250000D01*
G37*
D24*
X139700000Y-100950000D03*
D17*
G36*
X138950000Y-101450000D02*
G01*
X138950000Y-100950000D01*
X138950602Y-100950000D01*
X138950602Y-100925466D01*
X138955412Y-100876635D01*
X138964984Y-100828510D01*
X138979228Y-100781555D01*
X138998005Y-100736222D01*
X139021136Y-100692949D01*
X139048396Y-100652150D01*
X139079524Y-100614221D01*
X139114221Y-100579524D01*
X139152150Y-100548396D01*
X139192949Y-100521136D01*
X139236222Y-100498005D01*
X139281555Y-100479228D01*
X139328510Y-100464984D01*
X139376635Y-100455412D01*
X139425466Y-100450602D01*
X139450000Y-100450602D01*
X139450000Y-100450000D01*
X139950000Y-100450000D01*
X139950000Y-100450602D01*
X139974534Y-100450602D01*
X140023365Y-100455412D01*
X140071490Y-100464984D01*
X140118445Y-100479228D01*
X140163778Y-100498005D01*
X140207051Y-100521136D01*
X140247850Y-100548396D01*
X140285779Y-100579524D01*
X140320476Y-100614221D01*
X140351604Y-100652150D01*
X140378864Y-100692949D01*
X140401995Y-100736222D01*
X140420772Y-100781555D01*
X140435016Y-100828510D01*
X140444588Y-100876635D01*
X140449398Y-100925466D01*
X140449398Y-100950000D01*
X140450000Y-100950000D01*
X140450000Y-101450000D01*
X138950000Y-101450000D01*
X138950000Y-101450000D01*
G37*
D25*
X182880000Y-101640000D03*
D17*
G36*
X183654504Y-103291204D02*
G01*
X183678773Y-103294804D01*
X183702571Y-103300765D01*
X183725671Y-103309030D01*
X183747849Y-103319520D01*
X183768893Y-103332133D01*
X183788598Y-103346747D01*
X183806777Y-103363223D01*
X183823253Y-103381402D01*
X183837867Y-103401107D01*
X183850480Y-103422151D01*
X183860970Y-103444329D01*
X183869235Y-103467429D01*
X183875196Y-103491227D01*
X183878796Y-103515496D01*
X183880000Y-103540000D01*
X183880000Y-104740000D01*
X183878796Y-104764504D01*
X183875196Y-104788773D01*
X183869235Y-104812571D01*
X183860970Y-104835671D01*
X183850480Y-104857849D01*
X183837867Y-104878893D01*
X183823253Y-104898598D01*
X183806777Y-104916777D01*
X183788598Y-104933253D01*
X183768893Y-104947867D01*
X183747849Y-104960480D01*
X183725671Y-104970970D01*
X183702571Y-104979235D01*
X183678773Y-104985196D01*
X183654504Y-104988796D01*
X183630000Y-104990000D01*
X182130000Y-104990000D01*
X182105496Y-104988796D01*
X182081227Y-104985196D01*
X182057429Y-104979235D01*
X182034329Y-104970970D01*
X182012151Y-104960480D01*
X181991107Y-104947867D01*
X181971402Y-104933253D01*
X181953223Y-104916777D01*
X181936747Y-104898598D01*
X181922133Y-104878893D01*
X181909520Y-104857849D01*
X181899030Y-104835671D01*
X181890765Y-104812571D01*
X181884804Y-104788773D01*
X181881204Y-104764504D01*
X181880000Y-104740000D01*
X181880000Y-103540000D01*
X181881204Y-103515496D01*
X181884804Y-103491227D01*
X181890765Y-103467429D01*
X181899030Y-103444329D01*
X181909520Y-103422151D01*
X181922133Y-103401107D01*
X181936747Y-103381402D01*
X181953223Y-103363223D01*
X181971402Y-103346747D01*
X181991107Y-103332133D01*
X182012151Y-103319520D01*
X182034329Y-103309030D01*
X182057429Y-103300765D01*
X182081227Y-103294804D01*
X182105496Y-103291204D01*
X182130000Y-103290000D01*
X183630000Y-103290000D01*
X183654504Y-103291204D01*
X183654504Y-103291204D01*
G37*
D18*
X182880000Y-104140000D03*
D25*
X119380000Y-101640000D03*
D17*
G36*
X120154504Y-103291204D02*
G01*
X120178773Y-103294804D01*
X120202571Y-103300765D01*
X120225671Y-103309030D01*
X120247849Y-103319520D01*
X120268893Y-103332133D01*
X120288598Y-103346747D01*
X120306777Y-103363223D01*
X120323253Y-103381402D01*
X120337867Y-103401107D01*
X120350480Y-103422151D01*
X120360970Y-103444329D01*
X120369235Y-103467429D01*
X120375196Y-103491227D01*
X120378796Y-103515496D01*
X120380000Y-103540000D01*
X120380000Y-104740000D01*
X120378796Y-104764504D01*
X120375196Y-104788773D01*
X120369235Y-104812571D01*
X120360970Y-104835671D01*
X120350480Y-104857849D01*
X120337867Y-104878893D01*
X120323253Y-104898598D01*
X120306777Y-104916777D01*
X120288598Y-104933253D01*
X120268893Y-104947867D01*
X120247849Y-104960480D01*
X120225671Y-104970970D01*
X120202571Y-104979235D01*
X120178773Y-104985196D01*
X120154504Y-104988796D01*
X120130000Y-104990000D01*
X118630000Y-104990000D01*
X118605496Y-104988796D01*
X118581227Y-104985196D01*
X118557429Y-104979235D01*
X118534329Y-104970970D01*
X118512151Y-104960480D01*
X118491107Y-104947867D01*
X118471402Y-104933253D01*
X118453223Y-104916777D01*
X118436747Y-104898598D01*
X118422133Y-104878893D01*
X118409520Y-104857849D01*
X118399030Y-104835671D01*
X118390765Y-104812571D01*
X118384804Y-104788773D01*
X118381204Y-104764504D01*
X118380000Y-104740000D01*
X118380000Y-103540000D01*
X118381204Y-103515496D01*
X118384804Y-103491227D01*
X118390765Y-103467429D01*
X118399030Y-103444329D01*
X118409520Y-103422151D01*
X118422133Y-103401107D01*
X118436747Y-103381402D01*
X118453223Y-103363223D01*
X118471402Y-103346747D01*
X118491107Y-103332133D01*
X118512151Y-103319520D01*
X118534329Y-103309030D01*
X118557429Y-103300765D01*
X118581227Y-103294804D01*
X118605496Y-103291204D01*
X118630000Y-103290000D01*
X120130000Y-103290000D01*
X120154504Y-103291204D01*
X120154504Y-103291204D01*
G37*
D18*
X119380000Y-104140000D03*
D26*
X152400000Y-93980000D03*
D27*
X152400000Y-96520000D03*
D26*
X147320000Y-96520000D03*
D27*
X147320000Y-93980000D03*
D23*
X167680000Y-91440000D03*
D11*
X170180000Y-91440000D03*
D22*
X163790000Y-96520000D03*
X161290000Y-96520000D03*
D23*
X160060000Y-91440000D03*
D11*
X162560000Y-91440000D03*
D22*
X162600000Y-82550000D03*
X165100000Y-82550000D03*
D23*
X162560000Y-66040000D03*
X157560000Y-66040000D03*
X153750000Y-81280000D03*
X158750000Y-81280000D03*
X172720000Y-60960000D03*
X167720000Y-60960000D03*
X132120000Y-91440000D03*
D11*
X134620000Y-91440000D03*
D22*
X132120000Y-96520000D03*
X134620000Y-96520000D03*
X128230000Y-96520000D03*
X125730000Y-96520000D03*
D23*
X124500000Y-91440000D03*
D11*
X127000000Y-91440000D03*
D22*
X127040000Y-82550000D03*
X129540000Y-82550000D03*
D23*
X137160000Y-60960000D03*
X132160000Y-60960000D03*
D14*
X180220000Y-127000000D03*
D15*
X172720000Y-127000000D03*
M02*
