G04 #@! TF.GenerationSoftware,KiCad,Pcbnew,(5.1.4)-1*
G04 #@! TF.CreationDate,2019-10-16T10:00:49+09:00*
G04 #@! TF.ProjectId,LME49600_HPA,4c4d4534-3936-4303-905f-4850412e6b69,rev?*
G04 #@! TF.SameCoordinates,Original*
G04 #@! TF.FileFunction,Legend,Bot*
G04 #@! TF.FilePolarity,Positive*
%FSLAX46Y46*%
G04 Gerber Fmt 4.6, Leading zero omitted, Abs format (unit mm)*
G04 Created by KiCad (PCBNEW (5.1.4)-1) date 2019-10-16 10:00:49*
%MOMM*%
%LPD*%
G04 APERTURE LIST*
%ADD10C,0.120000*%
%ADD11C,0.150000*%
G04 APERTURE END LIST*
D10*
X159450000Y-82820000D02*
X158050000Y-82820000D01*
X157350000Y-83520000D02*
X157350000Y-84120000D01*
X158050000Y-84820000D02*
X159450000Y-84820000D01*
X160150000Y-84120000D02*
X160150000Y-83520000D01*
X160150000Y-83520000D02*
G75*
G03X159450000Y-82820000I-700000J0D01*
G01*
X159450000Y-84820000D02*
G75*
G03X160150000Y-84120000I0J700000D01*
G01*
X157350000Y-84120000D02*
G75*
G03X158050000Y-84820000I700000J0D01*
G01*
X158050000Y-82820000D02*
G75*
G03X157350000Y-83520000I0J-700000D01*
G01*
X123890000Y-82820000D02*
X122490000Y-82820000D01*
X121790000Y-83520000D02*
X121790000Y-84120000D01*
X122490000Y-84820000D02*
X123890000Y-84820000D01*
X124590000Y-84120000D02*
X124590000Y-83520000D01*
X124590000Y-83520000D02*
G75*
G03X123890000Y-82820000I-700000J0D01*
G01*
X123890000Y-84820000D02*
G75*
G03X124590000Y-84120000I0J700000D01*
G01*
X121790000Y-84120000D02*
G75*
G03X122490000Y-84820000I700000J0D01*
G01*
X122490000Y-82820000D02*
G75*
G03X121790000Y-83520000I0J-700000D01*
G01*
D11*
X159583333Y-85812380D02*
X159583333Y-86526666D01*
X159630952Y-86669523D01*
X159726190Y-86764761D01*
X159869047Y-86812380D01*
X159964285Y-86812380D01*
X159107142Y-86812380D02*
X159107142Y-85812380D01*
X158726190Y-85812380D01*
X158630952Y-85860000D01*
X158583333Y-85907619D01*
X158535714Y-86002857D01*
X158535714Y-86145714D01*
X158583333Y-86240952D01*
X158630952Y-86288571D01*
X158726190Y-86336190D01*
X159107142Y-86336190D01*
X158202380Y-85812380D02*
X157583333Y-85812380D01*
X157916666Y-86193333D01*
X157773809Y-86193333D01*
X157678571Y-86240952D01*
X157630952Y-86288571D01*
X157583333Y-86383809D01*
X157583333Y-86621904D01*
X157630952Y-86717142D01*
X157678571Y-86764761D01*
X157773809Y-86812380D01*
X158059523Y-86812380D01*
X158154761Y-86764761D01*
X158202380Y-86717142D01*
X124023333Y-85812380D02*
X124023333Y-86526666D01*
X124070952Y-86669523D01*
X124166190Y-86764761D01*
X124309047Y-86812380D01*
X124404285Y-86812380D01*
X123547142Y-86812380D02*
X123547142Y-85812380D01*
X123166190Y-85812380D01*
X123070952Y-85860000D01*
X123023333Y-85907619D01*
X122975714Y-86002857D01*
X122975714Y-86145714D01*
X123023333Y-86240952D01*
X123070952Y-86288571D01*
X123166190Y-86336190D01*
X123547142Y-86336190D01*
X122023333Y-86812380D02*
X122594761Y-86812380D01*
X122309047Y-86812380D02*
X122309047Y-85812380D01*
X122404285Y-85955238D01*
X122499523Y-86050476D01*
X122594761Y-86098095D01*
M02*
