G04 #@! TF.GenerationSoftware,KiCad,Pcbnew,(5.1.4)-1*
G04 #@! TF.CreationDate,2019-10-15T14:43:25+09:00*
G04 #@! TF.ProjectId,LME49600_HPA,4c4d4534-3936-4303-905f-4850412e6b69,rev?*
G04 #@! TF.SameCoordinates,Original*
G04 #@! TF.FileFunction,Soldermask,Bot*
G04 #@! TF.FilePolarity,Negative*
%FSLAX46Y46*%
G04 Gerber Fmt 4.6, Leading zero omitted, Abs format (unit mm)*
G04 Created by KiCad (PCBNEW (5.1.4)-1) date 2019-10-15 14:43:25*
%MOMM*%
%LPD*%
G04 APERTURE LIST*
%ADD10O,1.600000X1.600000*%
%ADD11R,1.600000X1.600000*%
%ADD12C,2.400000*%
%ADD13R,2.400000X2.400000*%
%ADD14O,1.700000X1.950000*%
%ADD15C,0.100000*%
%ADD16C,1.700000*%
%ADD17C,3.200000*%
%ADD18O,1.700000X2.000000*%
%ADD19O,1.400000X1.400000*%
%ADD20C,1.400000*%
%ADD21C,1.600000*%
%ADD22C,0.500000*%
%ADD23O,2.000000X1.700000*%
%ADD24C,1.800000*%
%ADD25R,1.800000X1.800000*%
G04 APERTURE END LIST*
D10*
X162560000Y-78740000D03*
X170180000Y-71120000D03*
X162560000Y-76200000D03*
X170180000Y-73660000D03*
X162560000Y-73660000D03*
X170180000Y-76200000D03*
X162560000Y-71120000D03*
D11*
X170180000Y-78740000D03*
D10*
X127000000Y-78740000D03*
X134620000Y-71120000D03*
X127000000Y-76200000D03*
X134620000Y-73660000D03*
X127000000Y-73660000D03*
X134620000Y-76200000D03*
X127000000Y-71120000D03*
D11*
X134620000Y-78740000D03*
D12*
X126880000Y-127000000D03*
D13*
X119380000Y-127000000D03*
D12*
X162440000Y-127000000D03*
D13*
X154940000Y-127000000D03*
D14*
X152400000Y-111760000D03*
X149900000Y-111760000D03*
D15*
G36*
X148024504Y-110786204D02*
G01*
X148048773Y-110789804D01*
X148072571Y-110795765D01*
X148095671Y-110804030D01*
X148117849Y-110814520D01*
X148138893Y-110827133D01*
X148158598Y-110841747D01*
X148176777Y-110858223D01*
X148193253Y-110876402D01*
X148207867Y-110896107D01*
X148220480Y-110917151D01*
X148230970Y-110939329D01*
X148239235Y-110962429D01*
X148245196Y-110986227D01*
X148248796Y-111010496D01*
X148250000Y-111035000D01*
X148250000Y-112485000D01*
X148248796Y-112509504D01*
X148245196Y-112533773D01*
X148239235Y-112557571D01*
X148230970Y-112580671D01*
X148220480Y-112602849D01*
X148207867Y-112623893D01*
X148193253Y-112643598D01*
X148176777Y-112661777D01*
X148158598Y-112678253D01*
X148138893Y-112692867D01*
X148117849Y-112705480D01*
X148095671Y-112715970D01*
X148072571Y-112724235D01*
X148048773Y-112730196D01*
X148024504Y-112733796D01*
X148000000Y-112735000D01*
X146800000Y-112735000D01*
X146775496Y-112733796D01*
X146751227Y-112730196D01*
X146727429Y-112724235D01*
X146704329Y-112715970D01*
X146682151Y-112705480D01*
X146661107Y-112692867D01*
X146641402Y-112678253D01*
X146623223Y-112661777D01*
X146606747Y-112643598D01*
X146592133Y-112623893D01*
X146579520Y-112602849D01*
X146569030Y-112580671D01*
X146560765Y-112557571D01*
X146554804Y-112533773D01*
X146551204Y-112509504D01*
X146550000Y-112485000D01*
X146550000Y-111035000D01*
X146551204Y-111010496D01*
X146554804Y-110986227D01*
X146560765Y-110962429D01*
X146569030Y-110939329D01*
X146579520Y-110917151D01*
X146592133Y-110896107D01*
X146606747Y-110876402D01*
X146623223Y-110858223D01*
X146641402Y-110841747D01*
X146661107Y-110827133D01*
X146682151Y-110814520D01*
X146704329Y-110804030D01*
X146727429Y-110795765D01*
X146751227Y-110789804D01*
X146775496Y-110786204D01*
X146800000Y-110785000D01*
X148000000Y-110785000D01*
X148024504Y-110786204D01*
X148024504Y-110786204D01*
G37*
D16*
X147400000Y-111760000D03*
D12*
X144780000Y-127000000D03*
D13*
X137280000Y-127000000D03*
D17*
X111760000Y-134620000D03*
X187960000Y-134620000D03*
X187960000Y-50800000D03*
X111760000Y-50800000D03*
D18*
X170220000Y-53340000D03*
D15*
G36*
X173344504Y-52341204D02*
G01*
X173368773Y-52344804D01*
X173392571Y-52350765D01*
X173415671Y-52359030D01*
X173437849Y-52369520D01*
X173458893Y-52382133D01*
X173478598Y-52396747D01*
X173496777Y-52413223D01*
X173513253Y-52431402D01*
X173527867Y-52451107D01*
X173540480Y-52472151D01*
X173550970Y-52494329D01*
X173559235Y-52517429D01*
X173565196Y-52541227D01*
X173568796Y-52565496D01*
X173570000Y-52590000D01*
X173570000Y-54090000D01*
X173568796Y-54114504D01*
X173565196Y-54138773D01*
X173559235Y-54162571D01*
X173550970Y-54185671D01*
X173540480Y-54207849D01*
X173527867Y-54228893D01*
X173513253Y-54248598D01*
X173496777Y-54266777D01*
X173478598Y-54283253D01*
X173458893Y-54297867D01*
X173437849Y-54310480D01*
X173415671Y-54320970D01*
X173392571Y-54329235D01*
X173368773Y-54335196D01*
X173344504Y-54338796D01*
X173320000Y-54340000D01*
X172120000Y-54340000D01*
X172095496Y-54338796D01*
X172071227Y-54335196D01*
X172047429Y-54329235D01*
X172024329Y-54320970D01*
X172002151Y-54310480D01*
X171981107Y-54297867D01*
X171961402Y-54283253D01*
X171943223Y-54266777D01*
X171926747Y-54248598D01*
X171912133Y-54228893D01*
X171899520Y-54207849D01*
X171889030Y-54185671D01*
X171880765Y-54162571D01*
X171874804Y-54138773D01*
X171871204Y-54114504D01*
X171870000Y-54090000D01*
X171870000Y-52590000D01*
X171871204Y-52565496D01*
X171874804Y-52541227D01*
X171880765Y-52517429D01*
X171889030Y-52494329D01*
X171899520Y-52472151D01*
X171912133Y-52451107D01*
X171926747Y-52431402D01*
X171943223Y-52413223D01*
X171961402Y-52396747D01*
X171981107Y-52382133D01*
X172002151Y-52369520D01*
X172024329Y-52359030D01*
X172047429Y-52350765D01*
X172071227Y-52344804D01*
X172095496Y-52341204D01*
X172120000Y-52340000D01*
X173320000Y-52340000D01*
X173344504Y-52341204D01*
X173344504Y-52341204D01*
G37*
D16*
X172720000Y-53340000D03*
D19*
X160020000Y-76200000D03*
D20*
X152400000Y-76200000D03*
D21*
X118190000Y-81280000D03*
X123190000Y-81280000D03*
D19*
X172720000Y-76200000D03*
D20*
X172720000Y-83820000D03*
D19*
X175260000Y-83820000D03*
D20*
X175260000Y-76200000D03*
D19*
X152400000Y-71120000D03*
D20*
X160020000Y-71120000D03*
D19*
X152400000Y-73660000D03*
D20*
X160020000Y-73660000D03*
D19*
X180340000Y-73660000D03*
D20*
X172720000Y-73660000D03*
D19*
X137160000Y-76200000D03*
D20*
X137160000Y-83820000D03*
D19*
X124460000Y-76200000D03*
D20*
X116840000Y-76200000D03*
D19*
X139700000Y-83820000D03*
D20*
X139700000Y-76200000D03*
D19*
X116840000Y-71120000D03*
D20*
X124460000Y-71120000D03*
D19*
X116840000Y-73660000D03*
D20*
X124460000Y-73660000D03*
D19*
X144780000Y-73660000D03*
D20*
X137160000Y-73660000D03*
D19*
X152400000Y-106680000D03*
D20*
X152400000Y-99060000D03*
D19*
X147320000Y-99060000D03*
D20*
X147320000Y-106680000D03*
D18*
X134660000Y-53340000D03*
D15*
G36*
X137784504Y-52341204D02*
G01*
X137808773Y-52344804D01*
X137832571Y-52350765D01*
X137855671Y-52359030D01*
X137877849Y-52369520D01*
X137898893Y-52382133D01*
X137918598Y-52396747D01*
X137936777Y-52413223D01*
X137953253Y-52431402D01*
X137967867Y-52451107D01*
X137980480Y-52472151D01*
X137990970Y-52494329D01*
X137999235Y-52517429D01*
X138005196Y-52541227D01*
X138008796Y-52565496D01*
X138010000Y-52590000D01*
X138010000Y-54090000D01*
X138008796Y-54114504D01*
X138005196Y-54138773D01*
X137999235Y-54162571D01*
X137990970Y-54185671D01*
X137980480Y-54207849D01*
X137967867Y-54228893D01*
X137953253Y-54248598D01*
X137936777Y-54266777D01*
X137918598Y-54283253D01*
X137898893Y-54297867D01*
X137877849Y-54310480D01*
X137855671Y-54320970D01*
X137832571Y-54329235D01*
X137808773Y-54335196D01*
X137784504Y-54338796D01*
X137760000Y-54340000D01*
X136560000Y-54340000D01*
X136535496Y-54338796D01*
X136511227Y-54335196D01*
X136487429Y-54329235D01*
X136464329Y-54320970D01*
X136442151Y-54310480D01*
X136421107Y-54297867D01*
X136401402Y-54283253D01*
X136383223Y-54266777D01*
X136366747Y-54248598D01*
X136352133Y-54228893D01*
X136339520Y-54207849D01*
X136329030Y-54185671D01*
X136320765Y-54162571D01*
X136314804Y-54138773D01*
X136311204Y-54114504D01*
X136310000Y-54090000D01*
X136310000Y-52590000D01*
X136311204Y-52565496D01*
X136314804Y-52541227D01*
X136320765Y-52517429D01*
X136329030Y-52494329D01*
X136339520Y-52472151D01*
X136352133Y-52451107D01*
X136366747Y-52431402D01*
X136383223Y-52413223D01*
X136401402Y-52396747D01*
X136421107Y-52382133D01*
X136442151Y-52369520D01*
X136464329Y-52359030D01*
X136487429Y-52350765D01*
X136511227Y-52344804D01*
X136535496Y-52341204D01*
X136560000Y-52340000D01*
X137760000Y-52340000D01*
X137784504Y-52341204D01*
X137784504Y-52341204D01*
G37*
D16*
X137160000Y-53340000D03*
D20*
X167680000Y-96520000D03*
X170180000Y-96520000D03*
X134580000Y-67310000D03*
X132080000Y-67310000D03*
D21*
X127000000Y-66040000D03*
X122000000Y-66040000D03*
D20*
X170140000Y-67310000D03*
X167640000Y-67310000D03*
D22*
X158100000Y-83820000D03*
D15*
G36*
X158100000Y-84569398D02*
G01*
X158075466Y-84569398D01*
X158026635Y-84564588D01*
X157978510Y-84555016D01*
X157931555Y-84540772D01*
X157886222Y-84521995D01*
X157842949Y-84498864D01*
X157802150Y-84471604D01*
X157764221Y-84440476D01*
X157729524Y-84405779D01*
X157698396Y-84367850D01*
X157671136Y-84327051D01*
X157648005Y-84283778D01*
X157629228Y-84238445D01*
X157614984Y-84191490D01*
X157605412Y-84143365D01*
X157600602Y-84094534D01*
X157600602Y-84070000D01*
X157600000Y-84070000D01*
X157600000Y-83570000D01*
X157600602Y-83570000D01*
X157600602Y-83545466D01*
X157605412Y-83496635D01*
X157614984Y-83448510D01*
X157629228Y-83401555D01*
X157648005Y-83356222D01*
X157671136Y-83312949D01*
X157698396Y-83272150D01*
X157729524Y-83234221D01*
X157764221Y-83199524D01*
X157802150Y-83168396D01*
X157842949Y-83141136D01*
X157886222Y-83118005D01*
X157931555Y-83099228D01*
X157978510Y-83084984D01*
X158026635Y-83075412D01*
X158075466Y-83070602D01*
X158100000Y-83070602D01*
X158100000Y-83070000D01*
X158600000Y-83070000D01*
X158600000Y-84570000D01*
X158100000Y-84570000D01*
X158100000Y-84569398D01*
X158100000Y-84569398D01*
G37*
D22*
X159400000Y-83820000D03*
D15*
G36*
X158900000Y-83070000D02*
G01*
X159400000Y-83070000D01*
X159400000Y-83070602D01*
X159424534Y-83070602D01*
X159473365Y-83075412D01*
X159521490Y-83084984D01*
X159568445Y-83099228D01*
X159613778Y-83118005D01*
X159657051Y-83141136D01*
X159697850Y-83168396D01*
X159735779Y-83199524D01*
X159770476Y-83234221D01*
X159801604Y-83272150D01*
X159828864Y-83312949D01*
X159851995Y-83356222D01*
X159870772Y-83401555D01*
X159885016Y-83448510D01*
X159894588Y-83496635D01*
X159899398Y-83545466D01*
X159899398Y-83570000D01*
X159900000Y-83570000D01*
X159900000Y-84070000D01*
X159899398Y-84070000D01*
X159899398Y-84094534D01*
X159894588Y-84143365D01*
X159885016Y-84191490D01*
X159870772Y-84238445D01*
X159851995Y-84283778D01*
X159828864Y-84327051D01*
X159801604Y-84367850D01*
X159770476Y-84405779D01*
X159735779Y-84440476D01*
X159697850Y-84471604D01*
X159657051Y-84498864D01*
X159613778Y-84521995D01*
X159568445Y-84540772D01*
X159521490Y-84555016D01*
X159473365Y-84564588D01*
X159424534Y-84569398D01*
X159400000Y-84569398D01*
X159400000Y-84570000D01*
X158900000Y-84570000D01*
X158900000Y-83070000D01*
X158900000Y-83070000D01*
G37*
D22*
X122540000Y-83820000D03*
D15*
G36*
X122540000Y-84569398D02*
G01*
X122515466Y-84569398D01*
X122466635Y-84564588D01*
X122418510Y-84555016D01*
X122371555Y-84540772D01*
X122326222Y-84521995D01*
X122282949Y-84498864D01*
X122242150Y-84471604D01*
X122204221Y-84440476D01*
X122169524Y-84405779D01*
X122138396Y-84367850D01*
X122111136Y-84327051D01*
X122088005Y-84283778D01*
X122069228Y-84238445D01*
X122054984Y-84191490D01*
X122045412Y-84143365D01*
X122040602Y-84094534D01*
X122040602Y-84070000D01*
X122040000Y-84070000D01*
X122040000Y-83570000D01*
X122040602Y-83570000D01*
X122040602Y-83545466D01*
X122045412Y-83496635D01*
X122054984Y-83448510D01*
X122069228Y-83401555D01*
X122088005Y-83356222D01*
X122111136Y-83312949D01*
X122138396Y-83272150D01*
X122169524Y-83234221D01*
X122204221Y-83199524D01*
X122242150Y-83168396D01*
X122282949Y-83141136D01*
X122326222Y-83118005D01*
X122371555Y-83099228D01*
X122418510Y-83084984D01*
X122466635Y-83075412D01*
X122515466Y-83070602D01*
X122540000Y-83070602D01*
X122540000Y-83070000D01*
X123040000Y-83070000D01*
X123040000Y-84570000D01*
X122540000Y-84570000D01*
X122540000Y-84569398D01*
X122540000Y-84569398D01*
G37*
D22*
X123840000Y-83820000D03*
D15*
G36*
X123340000Y-83070000D02*
G01*
X123840000Y-83070000D01*
X123840000Y-83070602D01*
X123864534Y-83070602D01*
X123913365Y-83075412D01*
X123961490Y-83084984D01*
X124008445Y-83099228D01*
X124053778Y-83118005D01*
X124097051Y-83141136D01*
X124137850Y-83168396D01*
X124175779Y-83199524D01*
X124210476Y-83234221D01*
X124241604Y-83272150D01*
X124268864Y-83312949D01*
X124291995Y-83356222D01*
X124310772Y-83401555D01*
X124325016Y-83448510D01*
X124334588Y-83496635D01*
X124339398Y-83545466D01*
X124339398Y-83570000D01*
X124340000Y-83570000D01*
X124340000Y-84070000D01*
X124339398Y-84070000D01*
X124339398Y-84094534D01*
X124334588Y-84143365D01*
X124325016Y-84191490D01*
X124310772Y-84238445D01*
X124291995Y-84283778D01*
X124268864Y-84327051D01*
X124241604Y-84367850D01*
X124210476Y-84405779D01*
X124175779Y-84440476D01*
X124137850Y-84471604D01*
X124097051Y-84498864D01*
X124053778Y-84521995D01*
X124008445Y-84540772D01*
X123961490Y-84555016D01*
X123913365Y-84564588D01*
X123864534Y-84569398D01*
X123840000Y-84569398D01*
X123840000Y-84570000D01*
X123340000Y-84570000D01*
X123340000Y-83070000D01*
X123340000Y-83070000D01*
G37*
D23*
X182880000Y-101640000D03*
D15*
G36*
X183654504Y-103291204D02*
G01*
X183678773Y-103294804D01*
X183702571Y-103300765D01*
X183725671Y-103309030D01*
X183747849Y-103319520D01*
X183768893Y-103332133D01*
X183788598Y-103346747D01*
X183806777Y-103363223D01*
X183823253Y-103381402D01*
X183837867Y-103401107D01*
X183850480Y-103422151D01*
X183860970Y-103444329D01*
X183869235Y-103467429D01*
X183875196Y-103491227D01*
X183878796Y-103515496D01*
X183880000Y-103540000D01*
X183880000Y-104740000D01*
X183878796Y-104764504D01*
X183875196Y-104788773D01*
X183869235Y-104812571D01*
X183860970Y-104835671D01*
X183850480Y-104857849D01*
X183837867Y-104878893D01*
X183823253Y-104898598D01*
X183806777Y-104916777D01*
X183788598Y-104933253D01*
X183768893Y-104947867D01*
X183747849Y-104960480D01*
X183725671Y-104970970D01*
X183702571Y-104979235D01*
X183678773Y-104985196D01*
X183654504Y-104988796D01*
X183630000Y-104990000D01*
X182130000Y-104990000D01*
X182105496Y-104988796D01*
X182081227Y-104985196D01*
X182057429Y-104979235D01*
X182034329Y-104970970D01*
X182012151Y-104960480D01*
X181991107Y-104947867D01*
X181971402Y-104933253D01*
X181953223Y-104916777D01*
X181936747Y-104898598D01*
X181922133Y-104878893D01*
X181909520Y-104857849D01*
X181899030Y-104835671D01*
X181890765Y-104812571D01*
X181884804Y-104788773D01*
X181881204Y-104764504D01*
X181880000Y-104740000D01*
X181880000Y-103540000D01*
X181881204Y-103515496D01*
X181884804Y-103491227D01*
X181890765Y-103467429D01*
X181899030Y-103444329D01*
X181909520Y-103422151D01*
X181922133Y-103401107D01*
X181936747Y-103381402D01*
X181953223Y-103363223D01*
X181971402Y-103346747D01*
X181991107Y-103332133D01*
X182012151Y-103319520D01*
X182034329Y-103309030D01*
X182057429Y-103300765D01*
X182081227Y-103294804D01*
X182105496Y-103291204D01*
X182130000Y-103290000D01*
X183630000Y-103290000D01*
X183654504Y-103291204D01*
X183654504Y-103291204D01*
G37*
D16*
X182880000Y-104140000D03*
D23*
X119380000Y-101640000D03*
D15*
G36*
X120154504Y-103291204D02*
G01*
X120178773Y-103294804D01*
X120202571Y-103300765D01*
X120225671Y-103309030D01*
X120247849Y-103319520D01*
X120268893Y-103332133D01*
X120288598Y-103346747D01*
X120306777Y-103363223D01*
X120323253Y-103381402D01*
X120337867Y-103401107D01*
X120350480Y-103422151D01*
X120360970Y-103444329D01*
X120369235Y-103467429D01*
X120375196Y-103491227D01*
X120378796Y-103515496D01*
X120380000Y-103540000D01*
X120380000Y-104740000D01*
X120378796Y-104764504D01*
X120375196Y-104788773D01*
X120369235Y-104812571D01*
X120360970Y-104835671D01*
X120350480Y-104857849D01*
X120337867Y-104878893D01*
X120323253Y-104898598D01*
X120306777Y-104916777D01*
X120288598Y-104933253D01*
X120268893Y-104947867D01*
X120247849Y-104960480D01*
X120225671Y-104970970D01*
X120202571Y-104979235D01*
X120178773Y-104985196D01*
X120154504Y-104988796D01*
X120130000Y-104990000D01*
X118630000Y-104990000D01*
X118605496Y-104988796D01*
X118581227Y-104985196D01*
X118557429Y-104979235D01*
X118534329Y-104970970D01*
X118512151Y-104960480D01*
X118491107Y-104947867D01*
X118471402Y-104933253D01*
X118453223Y-104916777D01*
X118436747Y-104898598D01*
X118422133Y-104878893D01*
X118409520Y-104857849D01*
X118399030Y-104835671D01*
X118390765Y-104812571D01*
X118384804Y-104788773D01*
X118381204Y-104764504D01*
X118380000Y-104740000D01*
X118380000Y-103540000D01*
X118381204Y-103515496D01*
X118384804Y-103491227D01*
X118390765Y-103467429D01*
X118399030Y-103444329D01*
X118409520Y-103422151D01*
X118422133Y-103401107D01*
X118436747Y-103381402D01*
X118453223Y-103363223D01*
X118471402Y-103346747D01*
X118491107Y-103332133D01*
X118512151Y-103319520D01*
X118534329Y-103309030D01*
X118557429Y-103300765D01*
X118581227Y-103294804D01*
X118605496Y-103291204D01*
X118630000Y-103290000D01*
X120130000Y-103290000D01*
X120154504Y-103291204D01*
X120154504Y-103291204D01*
G37*
D16*
X119380000Y-104140000D03*
D24*
X152400000Y-93980000D03*
D25*
X152400000Y-96520000D03*
D24*
X147320000Y-96520000D03*
D25*
X147320000Y-93980000D03*
D21*
X167680000Y-91440000D03*
D11*
X170180000Y-91440000D03*
D20*
X163790000Y-96520000D03*
X161290000Y-96520000D03*
D21*
X160060000Y-91440000D03*
D11*
X162560000Y-91440000D03*
D20*
X162600000Y-82550000D03*
X165100000Y-82550000D03*
D21*
X162560000Y-66040000D03*
X157560000Y-66040000D03*
X153750000Y-81280000D03*
X158750000Y-81280000D03*
X172720000Y-60960000D03*
X167720000Y-60960000D03*
X132120000Y-91440000D03*
D11*
X134620000Y-91440000D03*
D20*
X132120000Y-96520000D03*
X134620000Y-96520000D03*
X128230000Y-96520000D03*
X125730000Y-96520000D03*
D21*
X124500000Y-91440000D03*
D11*
X127000000Y-91440000D03*
D20*
X127040000Y-82550000D03*
X129540000Y-82550000D03*
D21*
X137160000Y-60960000D03*
X132160000Y-60960000D03*
D12*
X180220000Y-127000000D03*
D13*
X172720000Y-127000000D03*
M02*
