  0
SECTION
  2
HEADER
  9
$ACADVER
  1
AC1018
  9
$ACADMAINTVER
 70
     0
  9
$DWGCODEPAGE
  3
ANSI_932
  9
$INSBASE
 10
0.0
 20
0.0
 30
0.0
  9
$EXTMIN
 10
1.000000000000000E+20
 20
1.000000000000000E+20
 30
1.000000000000000E+20
  9
$EXTMAX
 10
-1.000000000000000E+20
 20
-1.000000000000000E+20
 30
-1.000000000000000E+20
  9
$LIMMIN
 10
0.0
 20
0.0
  9
$LIMMAX
 10
12.0
 20
9.0
  9
$ORTHOMODE
 70
     0
  9
$REGENMODE
 70
     1
  9
$FILLMODE
 70
     1
  9
$QTEXTMODE
 70
     0
  9
$MIRRTEXT
 70
     1
  9
$LTSCALE
 40
1.0
  9
$ATTMODE
 70
     1
  9
$TEXTSIZE
 40
0.2
  9
$TRACEWID
 40
0.05
  9
$TEXTSTYLE
  7
Standard
  9
$CLAYER
  8
0
  9
$CELTYPE
  6
ByLayer
  9
$CECOLOR
 62
   256
  9
$CELTSCALE
 40
1.0
  9
$DISPSILH
 70
     0
  9
$DIMSCALE
 40
1.0
  9
$DIMASZ
 40
0.18
  9
$DIMEXO
 40
0.0625
  9
$DIMDLI
 40
0.38
  9
$DIMRND
 40
0.0
  9
$DIMDLE
 40
0.0
  9
$DIMEXE
 40
0.18
  9
$DIMTP
 40
0.0
  9
$DIMTM
 40
0.0
  9
$DIMTXT
 40
0.18
  9
$DIMCEN
 40
0.09
  9
$DIMTSZ
 40
0.0
  9
$DIMTOL
 70
     0
  9
$DIMLIM
 70
     0
  9
$DIMTIH
 70
     1
  9
$DIMTOH
 70
     1
  9
$DIMSE1
 70
     0
  9
$DIMSE2
 70
     0
  9
$DIMTAD
 70
     0
  9
$DIMZIN
 70
     0
  9
$DIMBLK
  1

  9
$DIMASO
 70
     1
  9
$DIMSHO
 70
     1
  9
$DIMPOST
  1

  9
$DIMAPOST
  1

  9
$DIMALT
 70
     0
  9
$DIMALTD
 70
     2
  9
$DIMALTF
 40
25.4
  9
$DIMLFAC
 40
1.0
  9
$DIMTOFL
 70
     0
  9
$DIMTVP
 40
0.0
  9
$DIMTIX
 70
     0
  9
$DIMSOXD
 70
     0
  9
$DIMSAH
 70
     0
  9
$DIMBLK1
  1

  9
$DIMBLK2
  1

  9
$DIMSTYLE
  2
Standard
  9
$DIMCLRD
 70
     0
  9
$DIMCLRE
 70
     0
  9
$DIMCLRT
 70
     0
  9
$DIMTFAC
 40
1.0
  9
$DIMGAP
 40
0.09
  9
$DIMJUST
 70
     0
  9
$DIMSD1
 70
     0
  9
$DIMSD2
 70
     0
  9
$DIMTOLJ
 70
     1
  9
$DIMTZIN
 70
     0
  9
$DIMALTZ
 70
     0
  9
$DIMALTTZ
 70
     0
  9
$DIMUPT
 70
     0
  9
$DIMDEC
 70
     4
  9
$DIMTDEC
 70
     4
  9
$DIMALTU
 70
     2
  9
$DIMALTTD
 70
     2
  9
$DIMTXSTY
  7
Standard
  9
$DIMAUNIT
 70
     0
  9
$DIMADEC
 70
     0
  9
$DIMALTRND
 40
0.0
  9
$DIMAZIN
 70
     0
  9
$DIMDSEP
 70
    46
  9
$DIMATFIT
 70
     3
  9
$DIMFRAC
 70
     0
  9
$DIMLDRBLK
  1

  9
$DIMLUNIT
 70
     2
  9
$DIMLWD
 70
    -2
  9
$DIMLWE
 70
    -2
  9
$DIMTMOVE
 70
     0
  9
$LUNITS
 70
     2
  9
$LUPREC
 70
     4
  9
$SKETCHINC
 40
0.1
  9
$FILLETRAD
 40
0.5
  9
$AUNITS
 70
     0
  9
$AUPREC
 70
     0
  9
$MENU
  1
.
  9
$ELEVATION
 40
0.0
  9
$PELEVATION
 40
0.0
  9
$THICKNESS
 40
0.0
  9
$LIMCHECK
 70
     0
  9
$CHAMFERA
 40
0.5
  9
$CHAMFERB
 40
0.5
  9
$CHAMFERC
 40
1.0
  9
$CHAMFERD
 40
0.0
  9
$SKPOLY
 70
     0
  9
$TDCREATE
 40
2458772.846865857
  9
$TDUCREATE
 40
2458772.471865857
  9
$TDUPDATE
 40
2458772.846865868
  9
$TDUUPDATE
 40
2458772.471865868
  9
$TDINDWG
 40
0.0000000116
  9
$TDUSRTIMER
 40
0.0000000116
  9
$USRTIMER
 70
     1
  9
$ANGBASE
 50
0.0
  9
$ANGDIR
 70
     0
  9
$PDMODE
 70
     0
  9
$PDSIZE
 40
0.0
  9
$PLINEWID
 40
0.0
  9
$SPLFRAME
 70
     0
  9
$SPLINETYPE
 70
     6
  9
$SPLINESEGS
 70
     8
  9
$HANDSEED
  5
68
  9
$SURFTAB1
 70
     6
  9
$SURFTAB2
 70
     6
  9
$SURFTYPE
 70
     6
  9
$SURFU
 70
     6
  9
$SURFV
 70
     6
  9
$UCSBASE
  2

  9
$UCSNAME
  2

  9
$UCSORG
 10
0.0
 20
0.0
 30
0.0
  9
$UCSXDIR
 10
1.0
 20
0.0
 30
0.0
  9
$UCSYDIR
 10
0.0
 20
1.0
 30
0.0
  9
$UCSORTHOREF
  2

  9
$UCSORTHOVIEW
 70
     0
  9
$UCSORGTOP
 10
0.0
 20
0.0
 30
0.0
  9
$UCSORGBOTTOM
 10
0.0
 20
0.0
 30
0.0
  9
$UCSORGLEFT
 10
0.0
 20
0.0
 30
0.0
  9
$UCSORGRIGHT
 10
0.0
 20
0.0
 30
0.0
  9
$UCSORGFRONT
 10
0.0
 20
0.0
 30
0.0
  9
$UCSORGBACK
 10
0.0
 20
0.0
 30
0.0
  9
$PUCSBASE
  2

  9
$PUCSNAME
  2

  9
$PUCSORG
 10
0.0
 20
0.0
 30
0.0
  9
$PUCSXDIR
 10
1.0
 20
0.0
 30
0.0
  9
$PUCSYDIR
 10
0.0
 20
1.0
 30
0.0
  9
$PUCSORTHOREF
  2

  9
$PUCSORTHOVIEW
 70
     0
  9
$PUCSORGTOP
 10
0.0
 20
0.0
 30
0.0
  9
$PUCSORGBOTTOM
 10
0.0
 20
0.0
 30
0.0
  9
$PUCSORGLEFT
 10
0.0
 20
0.0
 30
0.0
  9
$PUCSORGRIGHT
 10
0.0
 20
0.0
 30
0.0
  9
$PUCSORGFRONT
 10
0.0
 20
0.0
 30
0.0
  9
$PUCSORGBACK
 10
0.0
 20
0.0
 30
0.0
  9
$USERI1
 70
     0
  9
$USERI2
 70
     0
  9
$USERI3
 70
     0
  9
$USERI4
 70
     0
  9
$USERI5
 70
     0
  9
$USERR1
 40
0.0
  9
$USERR2
 40
0.0
  9
$USERR3
 40
0.0
  9
$USERR4
 40
0.0
  9
$USERR5
 40
0.0
  9
$WORLDVIEW
 70
     1
  9
$SHADEDGE
 70
     3
  9
$SHADEDIF
 70
    70
  9
$TILEMODE
 70
     1
  9
$MAXACTVP
 70
    64
  9
$PINSBASE
 10
0.0
 20
0.0
 30
0.0
  9
$PLIMCHECK
 70
     0
  9
$PEXTMIN
 10
1.000000000000000E+20
 20
1.000000000000000E+20
 30
1.000000000000000E+20
  9
$PEXTMAX
 10
-1.000000000000000E+20
 20
-1.000000000000000E+20
 30
-1.000000000000000E+20
  9
$PLIMMIN
 10
0.0
 20
0.0
  9
$PLIMMAX
 10
12.0
 20
9.0
  9
$UNITMODE
 70
     0
  9
$VISRETAIN
 70
     1
  9
$PLINEGEN
 70
     0
  9
$PSLTSCALE
 70
     1
  9
$TREEDEPTH
 70
  3020
  9
$CMLSTYLE
  2
Standard
  9
$CMLJUST
 70
     0
  9
$CMLSCALE
 40
1.0
  9
$PROXYGRAPHICS
 70
     1
  9
$MEASUREMENT
 70
     0
  9
$CELWEIGHT
370
    -1
  9
$ENDCAPS
280
     0
  9
$JOINSTYLE
280
     0
  9
$LWDISPLAY
290
     1
  9
$INSUNITS
 70
     1
  9
$HYPERLINKBASE
  1

  9
$STYLESHEET
  1

  9
$XEDIT
290
     1
  9
$CEPSNTYPE
380
     0
  9
$PSTYLEMODE
290
     1
  9
$FINGERPRINTGUID
  2
{0DCE7EEE-EFA9-40DC-9391-55A1226F66D8}
  9
$VERSIONGUID
  2
{FAEB1C32-E019-11D5-929B-00C0DF256EC4}
  9
$EXTNAMES
290
     1
  9
$PSVPSCALE
 40
0.0
  9
$OLESTARTUP
290
     0
  9
$SORTENTS
280
   127
  9
$INDEXCTL
280
     0
  9
$HIDETEXT
280
     1
  9
$XCLIPFRAME
290
     0
  9
$HALOGAP
280
     0
  9
$OBSCOLOR
 70
   257
  9
$OBSLTYPE
280
     0
  9
$INTERSECTIONDISPLAY
280
     0
  9
$INTERSECTIONCOLOR
 70
   257
  9
$DIMASSOC
280
     2
  9
$PROJECTNAME
  1

  0
ENDSEC
  0
SECTION
  2
CLASSES
  0
CLASS
  1
ACDBDICTIONARYWDFLT
  2
AcDbDictionaryWithDefault
  3
ObjectDBX Classes
 90
        0
 91
        3
280
     0
281
     0
  0
CLASS
  1
VISUALSTYLE
  2
AcDbVisualStyle
  3
ObjectDBX Classes
 90
     4095
 91
        3
280
     0
281
     0
  0
ENDSEC
  0
SECTION
  2
TABLES
  0
TABLE
  2
VPORT
  5
8
330
0
100
AcDbSymbolTable
 70
     1
  0
VPORT
  5
29
330
8
100
AcDbSymbolTableRecord
100
AcDbViewportTableRecord
  2
*Active
 70
     0
 10
0.0
 20
0.0
 11
1.0
 21
1.0
 12
0.0
 22
0.0
 13
0.0
 23
0.0
 14
0.5
 24
0.5
 15
0.5
 25
0.5
 16
0.0
 26
0.0
 36
1.0
 17
105.0008259828644
 27
-148.4999796178229
 37
0.0
 40
296.9999592356459
 41
0.7070763662937379
 42
50.0
 43
0.0
 44
0.0
 50
0.0
 51
0.0
 71
     0
 72
   100
 73
     1
 74
     3
 75
     0
 76
     0
 77
     0
 78
     0
281
     0
 65
     1
110
0.0
120
0.0
130
0.0
111
1.0
121
0.0
131
0.0
112
0.0
122
1.0
132
0.0
 79
     0
146
0.0
  0
ENDTAB
  0
TABLE
  2
LTYPE
  5
5
330
0
100
AcDbSymbolTable
 70
     1
  0
LTYPE
  5
14
330
5
100
AcDbSymbolTableRecord
100
AcDbLinetypeTableRecord
  2
ByBlock
 70
     0
  3

 72
    65
 73
     0
 40
0.0
  0
LTYPE
  5
15
330
5
100
AcDbSymbolTableRecord
100
AcDbLinetypeTableRecord
  2
ByLayer
 70
     0
  3

 72
    65
 73
     0
 40
0.0
  0
LTYPE
  5
16
330
5
100
AcDbSymbolTableRecord
100
AcDbLinetypeTableRecord
  2
Continuous
 70
     0
  3
Solid line
 72
    65
 73
     0
 40
0.0
  0
ENDTAB
  0
TABLE
  2
LAYER
  5
2
330
0
100
AcDbSymbolTable
 70
     2
  0
LAYER
  5
10
330
2
100
AcDbSymbolTableRecord
100
AcDbLayerTableRecord
  2
0
 70
     0
 62
     7
  6
Continuous
370
    -3
390
F
  0
LAYER
  5
3B
330
2
100
AcDbSymbolTableRecord
100
AcDbLayerTableRecord
  2
\U+30EC\U+30A4\U+30E4\U+30FC 1
 70
     0
 62
     7
  6
Continuous
370
    -3
390
F
  0
ENDTAB
  0
TABLE
  2
STYLE
  5
3
330
0
100
AcDbSymbolTable
 70
     1
  0
STYLE
  5
11
330
3
100
AcDbSymbolTableRecord
100
AcDbTextStyleTableRecord
  2
Standard
 70
     0
 40
0.0
 41
1.0
 50
0.0
 71
     0
 42
0.2
  3
txt
  4

  0
ENDTAB
  0
TABLE
  2
VIEW
  5
6
330
0
100
AcDbSymbolTable
 70
     0
  0
ENDTAB
  0
TABLE
  2
UCS
  5
7
330
0
100
AcDbSymbolTable
 70
     0
  0
ENDTAB
  0
TABLE
  2
APPID
  5
9
330
0
100
AcDbSymbolTable
 70
     1
  0
APPID
  5
12
330
9
100
AcDbSymbolTableRecord
100
AcDbRegAppTableRecord
  2
ACAD
 70
     0
  0
ENDTAB
  0
TABLE
  2
DIMSTYLE
  5
A
330
0
100
AcDbSymbolTable
 70
     1
100
AcDbDimStyleTable
  0
DIMSTYLE
105
27
330
A
100
AcDbSymbolTableRecord
100
AcDbDimStyleTableRecord
  2
Standard
 70
     0
340
11
  0
ENDTAB
  0
TABLE
  2
BLOCK_RECORD
  5
1
330
0
100
AcDbSymbolTable
 70
     3
  0
BLOCK_RECORD
  5
1F
330
1
100
AcDbSymbolTableRecord
100
AcDbBlockTableRecord
  2
*Model_Space
340
22
  0
BLOCK_RECORD
  5
1B
330
1
100
AcDbSymbolTableRecord
100
AcDbBlockTableRecord
  2
*Paper_Space
340
1E
  0
BLOCK_RECORD
  5
23
330
1
100
AcDbSymbolTableRecord
100
AcDbBlockTableRecord
  2
*Paper_Space0
340
26
  0
BLOCK_RECORD
  5
3C
330
1
100
AcDbSymbolTableRecord
100
AcDbBlockTableRecord
  2
block 2
340
0
102
{BLKREFS
331
3D
102
}
  0
BLOCK_RECORD
  5
4A
330
1
100
AcDbSymbolTableRecord
100
AcDbBlockTableRecord
  2
block 3
340
0
102
{BLKREFS
331
4B
102
}
  0
ENDTAB
  0
ENDSEC
  0
SECTION
  2
BLOCKS
  0
BLOCK
  5
20
330
1F
100
AcDbEntity
  8
0
100
AcDbBlockBegin
  2
*Model_Space
 70
     0
 71
     0
 10
0.0
 20
0.0
 30
0.0
  3
*Model_Space
  1

  0
ENDBLK
  5
21
330
1F
100
AcDbEntity
  8
0
100
AcDbBlockEnd
  0
BLOCK
  5
1C
330
1B
100
AcDbEntity
 67
     1
  8
0
100
AcDbBlockBegin
  2
*Paper_Space
 70
     0
 71
     0
 10
0.0
 20
0.0
 30
0.0
  3
*Paper_Space
  1

  0
ENDBLK
  5
1D
330
1B
100
AcDbEntity
 67
     1
  8
0
100
AcDbBlockEnd
  0
BLOCK
  5
24
330
23
100
AcDbEntity
  8
0
100
AcDbBlockBegin
  2
*Paper_Space0
 70
     0
 71
     0
 10
0.0
 20
0.0
 30
0.0
  3
*Paper_Space0
  1

  0
ENDBLK
  5
25
330
23
100
AcDbEntity
  8
0
100
AcDbBlockEnd
  0
BLOCK
  5
3E
330
3C
100
AcDbEntity
  8
0
100
AcDbBlockBegin
  2
block 2
 70
     0
 71
     0
 10
0.0
 20
0.0
 30
0.0
  3
block 2
  1

  0
SPLINE
  5
40
330
3C
100
AcDbEntity
  8
\U+30EC\U+30A4\U+30E4\U+30FC 1
370
     0
100
AcDbSpline
210
0.0
220
0.0
230
1.0
 70
    11
 71
     3
 72
    95
 73
    91
 74
     0
 42
0.0000000001
 43
0.0000000001
 40
0.0
 40
0.0
 40
0.0
 40
0.0
 40
1.0
 40
1.0
 40
1.0
 40
2.0
 40
2.0
 40
2.0
 40
3.0
 40
3.0
 40
3.0
 40
4.0
 40
4.0
 40
4.0
 40
5.0
 40
5.0
 40
5.0
 40
6.0
 40
6.0
 40
6.0
 40
7.0
 40
7.0
 40
7.0
 40
8.0
 40
8.0
 40
8.0
 40
9.0
 40
9.0
 40
9.0
 40
10.0
 40
10.0
 40
10.0
 40
11.0
 40
11.0
 40
11.0
 40
12.0
 40
12.0
 40
12.0
 40
13.0
 40
13.0
 40
13.0
 40
14.0
 40
14.0
 40
14.0
 40
15.0
 40
15.0
 40
15.0
 40
16.0
 40
16.0
 40
16.0
 40
17.0
 40
17.0
 40
17.0
 40
18.0
 40
18.0
 40
18.0
 40
19.0
 40
19.0
 40
19.0
 40
20.0
 40
20.0
 40
20.0
 40
21.0
 40
21.0
 40
21.0
 40
22.0
 40
22.0
 40
22.0
 40
23.0
 40
23.0
 40
23.0
 40
24.0
 40
24.0
 40
24.0
 40
25.0
 40
25.0
 40
25.0
 40
26.0
 40
26.0
 40
26.0
 40
27.0
 40
27.0
 40
27.0
 40
28.0
 40
28.0
 40
28.0
 40
29.0
 40
29.0
 40
29.0
 40
30.0
 40
30.0
 40
30.0
 40
30.0
 10
30.79501952355125
 20
-42.33695067300951
 30
0.0
 10
30.79501952355125
 20
-42.33695067300951
 30
0.0
 10
30.79501952355125
 20
-40.12072074734829
 30
0.0
 10
30.79501952355125
 20
-40.12072074734829
 30
0.0
 10
30.79501952355125
 20
-39.83426105774977
 30
0.0
 10
30.77486571496253
 20
-39.65253227090284
 30
0.0
 10
30.73438584301085
 20
-39.57518987725899
 30
0.0
 10
30.69390597105916
 20
-39.49801973838939
 30
0.0
 10
30.58417967985396
 20
-39.4354912553321
 30
0.0
 10
30.40503471462096
 20
-39.38777668286139
 30
0.0
 10
30.14510226025886
 20
-39.3147406585741
 30
0.0
 10
30.01504990569068
 20
-39.18830565426543
 30
0.0
 10
30.01504990569068
 20
-39.00847166993538
 30
0.0
 10
30.01504990569068
 20
-38.88220892040098
 30
0.0
 10
30.06999917868042
 20
-38.7852294824912
 30
0.0
 10
30.17972546988562
 20
-38.71787786575456
 30
0.0
 10
30.28945176109083
 20
-38.65035399424367
 30
0.0
 10
30.44844291773511
 20
-38.61676431326248
 30
0.0
 10
30.65635443026994
 20
-38.61676431326248
 30
0.0
 10
30.72577310429773
 20
-38.61676431326248
 30
0.0
 10
30.89751111423743
 20
-38.62089842784478
 30
0.0
 10
31.17208522441184
 20
-38.62933891178364
 30
0.0
 10
31.17208522441184
 20
-38.62933891178364
 30
0.0
 10
31.43201767877394
 20
-38.62933891178364
 30
0.0
 10
31.43201767877394
 20
-38.62933891178364
 30
0.0
 10
31.91157497032072
 20
-38.62658283539544
 30
0.0
 10
32.19252250714284
 20
-38.62296548513593
 30
0.0
 10
32.27486028924032
 20
-38.61883137055363
 30
0.0
 10
32.35719807133778
 20
-38.61452500119707
 30
0.0
 10
32.6510647162296
 20
-38.59006482325179
 30
0.0
 10
33.15663247869001
 20
-38.54510632716928
 30
0.0
 10
33.32423637404742
 20
-38.52822535929155
 30
0.0
 10
33.47737086836677
 20
-38.51978487535269
 30
0.0
 10
33.61603596164807
 20
-38.51978487535269
 30
0.0
 10
34.08973659086993
 20
-38.51978487535269
 30
0.0
 10
34.51141627826451
 20
-38.61400823687428
 30
0.0
 10
34.88124727860608
 20
-38.80211045036892
 30
0.0
 10
35.5254801343478
 20
-39.12801648327356
 30
0.0
 10
35.84759656221865
 20
-39.64478080606103
 30
0.0
 10
35.84759656221865
 20
-40.3525756735056
 30
0.0
 10
35.84759656221865
 20
-40.92549505270266
 30
0.0
 10
35.62228731748332
 20
-41.38472628088646
 30
0.0
 10
35.17166882801264
 20
-41.73026935805701
 30
0.0
 10
34.74688855468133
 20
-42.05324705979919
 30
0.0
 10
34.2327080535078
 20
-42.21482203805741
 30
0.0
 10
33.62895506971776
 20
-42.21482203805741
 30
0.0
 10
33.47582057539841
 20
-42.21482203805741
 30
0.0
 10
33.28806287145229
 20
-42.20500351592445
 30
0.0
 10
33.06568195787941
 20
-42.18519421688426
 30
0.0
 10
32.94717067318682
 20
-42.1767537329454
 30
0.0
 10
32.87344562980248
 20
-42.1726196183631
 30
0.0
 10
32.84467908250064
 20
-42.1726196183631
 30
0.0
 10
32.7607910074348
 20
-42.1726196183631
 30
0.0
 10
32.71893309728902
 20
-42.21895615263971
 30
0.0
 10
32.71893309728902
 20
-42.31162922119293
 30
0.0
 10
32.71893309728902
 20
-42.31162922119293
 30
0.0
 10
32.71893309728902
 20
-42.33695067300951
 30
0.0
 10
32.71893309728902
 20
-42.33695067300951
 30
0.0
 10
32.71893309728902
 20
-42.33695067300951
 30
0.0
 10
32.74924993755922
 20
-43.02786457257637
 30
0.0
 10
32.74924993755922
 20
-43.02786457257637
 30
0.0
 10
32.75510659988414
 20
-43.1627400608239
 30
0.0
 10
32.78025579692647
 20
-43.26316459421894
 30
0.0
 10
32.82521429300898
 20
-43.32913817276147
 30
0.0
 10
32.87000053431722
 20
-43.395111751304
 30
0.0
 10
32.96164007422487
 20
-43.46332464191195
 30
0.0
 10
33.10030516750618
 20
-43.53343233503679
 30
0.0
 10
33.28806287145229
 20
-43.63178981114066
 30
0.0
 10
33.38194172342535
 20
-43.73858777118341
 30
0.0
 10
33.38194172342535
 20
-43.85365396039076
 30
0.0
 10
33.38194172342535
 20
-44.03055961355833
 30
0.0
 10
33.24327663014405
 20
-44.16681313999997
 30
0.0
 10
32.96594644358143
 20
-44.26241453971565
 30
0.0
 10
32.68861625701882
 20
-44.35784368465707
 30
0.0
 10
32.29570311692608
 20
-44.40555825712778
 30
0.0
 10
31.78737927807746
 20
-44.40555825712778
 30
0.0
 10
30.7185384037787
 20
-44.40555825712778
 30
0.0
 10
30.18403183924219
 20
-44.2272745657661
 30
0.0
 10
30.18403183924219
 20
-43.87053492826848
 30
0.0
 10
30.18403183924219
 20
-43.78630234365412
 30
0.0
 10
30.20711397899336
 20
-43.72170680330569
 30
0.0
 10
30.25345051326997
 20
-43.67674830722318
 30
0.0
 10
30.29961479277232
 20
-43.63178981114066
 30
0.0
 10
30.40796304578343
 20
-43.56719427079223
 30
0.0
 10
30.57832301752903
 20
-43.48296168617787
 30
0.0
 10
30.68236490118358
 20
-43.4295627061565
 30
0.0
 10
30.74299858172397
 20
-43.3551486436751
 30
0.0
 10
30.76039631392448
 20
-43.25954724395942
 30
0.0
 10
30.777794046125
 20
-43.164118099018
 30
0.0
 10
30.78916286122632
 20
-42.85664332695945
 30
0.0
 10
30.79501952355125
 20
-42.33695067300951
 30
0.0
  0
SPLINE
  5
41
330
3C
100
AcDbEntity
  8
\U+30EC\U+30A4\U+30E4\U+30FC 1
370
     0
100
AcDbSpline
210
0.0
220
0.0
230
1.0
 70
    11
 71
     3
 72
    29
 73
    25
 74
     0
 42
0.0000000001
 43
0.0000000001
 40
0.0
 40
0.0
 40
0.0
 40
0.0
 40
1.0
 40
1.0
 40
1.0
 40
2.0
 40
2.0
 40
2.0
 40
3.0
 40
3.0
 40
3.0
 40
4.0
 40
4.0
 40
4.0
 40
5.0
 40
5.0
 40
5.0
 40
6.0
 40
6.0
 40
6.0
 40
7.0
 40
7.0
 40
7.0
 40
8.0
 40
8.0
 40
8.0
 40
8.0
 10
32.74924993755922
 20
-39.58569741848899
 30
0.0
 10
32.74924993755922
 20
-39.58569741848899
 30
0.0
 10
32.74924993755922
 20
-41.01816812125588
 30
0.0
 10
32.74924993755922
 20
-41.01816812125588
 30
0.0
 10
32.74924993755922
 20
-41.12772215768682
 30
0.0
 10
32.77388237027876
 20
-41.19369573622936
 30
0.0
 10
32.82297498094356
 20
-41.21626111165774
 30
0.0
 10
32.90669080123514
 20
-41.25553520018959
 30
0.0
 10
33.01211072308378
 20
-41.27517224445551
 30
0.0
 10
33.1392347464895
 20
-41.27517224445551
 30
0.0
 10
33.32992078159808
 20
-41.27517224445551
 30
0.0
 10
33.49028997643646
 20
-41.2233235574025
 30
0.0
 10
33.62034233100464
 20
-41.11928167374796
 30
0.0
 10
33.80810003495075
 20
-40.97045354878517
 30
0.0
 10
33.90197888692381
 20
-40.72051187133029
 30
0.0
 10
33.90197888692381
 20
-40.36945664138333
 30
0.0
 10
33.90197888692381
 20
-40.00427651994685
 30
0.0
 10
33.79208034094435
 20
-39.74020995100245
 30
0.0
 10
33.57262775853393
 20
-39.57725693455014
 30
0.0
 10
33.43396266525262
 20
-39.47338730566985
 30
0.0
 10
33.26635876989522
 20
-39.42136636384258
 30
0.0
 10
33.06998832723598
 20
-39.42136636384258
 30
0.0
 10
32.85622015237622
 20
-39.42136636384258
 30
0.0
 10
32.74924993755922
 20
-39.47614338205805
 30
0.0
 10
32.74924993755922
 20
-39.58569741848899
 30
0.0
  0
HATCH
  5
42
330
3C
100
AcDbEntity
  8
\U+30EC\U+30A4\U+30E4\U+30FC 1
 62
   250
100
AcDbHatch
 10
0.0
 20
0.0
 30
0.0
210
0.0
220
0.0
230
1.0
  2
SOLID
 70
     1
 71
     0
 91
        2
 92
        1
 93
        1
 72
     4
 94
        3
 73
     0
 74
     1
 95
       95
 96
       91
 40
0.0
 40
0.0
 40
0.0
 40
0.0
 40
1.0
 40
1.0
 40
1.0
 40
2.0
 40
2.0
 40
2.0
 40
3.0
 40
3.0
 40
3.0
 40
4.0
 40
4.0
 40
4.0
 40
5.0
 40
5.0
 40
5.0
 40
6.0
 40
6.0
 40
6.0
 40
7.0
 40
7.0
 40
7.0
 40
8.0
 40
8.0
 40
8.0
 40
9.0
 40
9.0
 40
9.0
 40
10.0
 40
10.0
 40
10.0
 40
11.0
 40
11.0
 40
11.0
 40
12.0
 40
12.0
 40
12.0
 40
13.0
 40
13.0
 40
13.0
 40
14.0
 40
14.0
 40
14.0
 40
15.0
 40
15.0
 40
15.0
 40
16.0
 40
16.0
 40
16.0
 40
17.0
 40
17.0
 40
17.0
 40
18.0
 40
18.0
 40
18.0
 40
19.0
 40
19.0
 40
19.0
 40
20.0
 40
20.0
 40
20.0
 40
21.0
 40
21.0
 40
21.0
 40
22.0
 40
22.0
 40
22.0
 40
23.0
 40
23.0
 40
23.0
 40
24.0
 40
24.0
 40
24.0
 40
25.0
 40
25.0
 40
25.0
 40
26.0
 40
26.0
 40
26.0
 40
27.0
 40
27.0
 40
27.0
 40
28.0
 40
28.0
 40
28.0
 40
29.0
 40
29.0
 40
29.0
 40
30.0
 40
30.0
 40
30.0
 40
30.0
 10
30.79501952355125
 20
-42.33695067300951
 10
30.79501952355125
 20
-42.33695067300951
 10
30.79501952355125
 20
-40.12072074734829
 10
30.79501952355125
 20
-40.12072074734829
 10
30.79501952355125
 20
-39.83426105774977
 10
30.77486571496253
 20
-39.65253227090284
 10
30.73438584301085
 20
-39.57518987725899
 10
30.69390597105916
 20
-39.49801973838939
 10
30.58417967985396
 20
-39.4354912553321
 10
30.40503471462096
 20
-39.38777668286139
 10
30.14510226025886
 20
-39.3147406585741
 10
30.01504990569068
 20
-39.18830565426543
 10
30.01504990569068
 20
-39.00847166993538
 10
30.01504990569068
 20
-38.88220892040098
 10
30.06999917868042
 20
-38.7852294824912
 10
30.17972546988562
 20
-38.71787786575456
 10
30.28945176109083
 20
-38.65035399424367
 10
30.44844291773511
 20
-38.61676431326248
 10
30.65635443026994
 20
-38.61676431326248
 10
30.72577310429773
 20
-38.61676431326248
 10
30.89751111423743
 20
-38.62089842784478
 10
31.17208522441184
 20
-38.62933891178364
 10
31.17208522441184
 20
-38.62933891178364
 10
31.43201767877394
 20
-38.62933891178364
 10
31.43201767877394
 20
-38.62933891178364
 10
31.91157497032072
 20
-38.62658283539544
 10
32.19252250714284
 20
-38.62296548513593
 10
32.27486028924032
 20
-38.61883137055363
 10
32.35719807133778
 20
-38.61452500119707
 10
32.6510647162296
 20
-38.59006482325179
 10
33.15663247869001
 20
-38.54510632716928
 10
33.32423637404742
 20
-38.52822535929155
 10
33.47737086836677
 20
-38.51978487535269
 10
33.61603596164807
 20
-38.51978487535269
 10
34.08973659086993
 20
-38.51978487535269
 10
34.51141627826451
 20
-38.61400823687428
 10
34.88124727860608
 20
-38.80211045036892
 10
35.5254801343478
 20
-39.12801648327356
 10
35.84759656221865
 20
-39.64478080606103
 10
35.84759656221865
 20
-40.3525756735056
 10
35.84759656221865
 20
-40.92549505270266
 10
35.62228731748332
 20
-41.38472628088646
 10
35.17166882801264
 20
-41.73026935805701
 10
34.74688855468133
 20
-42.05324705979919
 10
34.2327080535078
 20
-42.21482203805741
 10
33.62895506971776
 20
-42.21482203805741
 10
33.47582057539841
 20
-42.21482203805741
 10
33.28806287145229
 20
-42.20500351592445
 10
33.06568195787941
 20
-42.18519421688426
 10
32.94717067318682
 20
-42.1767537329454
 10
32.87344562980248
 20
-42.1726196183631
 10
32.84467908250064
 20
-42.1726196183631
 10
32.7607910074348
 20
-42.1726196183631
 10
32.71893309728902
 20
-42.21895615263971
 10
32.71893309728902
 20
-42.31162922119293
 10
32.71893309728902
 20
-42.31162922119293
 10
32.71893309728902
 20
-42.33695067300951
 10
32.71893309728902
 20
-42.33695067300951
 10
32.71893309728902
 20
-42.33695067300951
 10
32.74924993755922
 20
-43.02786457257637
 10
32.74924993755922
 20
-43.02786457257637
 10
32.75510659988414
 20
-43.1627400608239
 10
32.78025579692647
 20
-43.26316459421894
 10
32.82521429300898
 20
-43.32913817276147
 10
32.87000053431722
 20
-43.395111751304
 10
32.96164007422487
 20
-43.46332464191195
 10
33.10030516750618
 20
-43.53343233503679
 10
33.28806287145229
 20
-43.63178981114066
 10
33.38194172342535
 20
-43.73858777118341
 10
33.38194172342535
 20
-43.85365396039076
 10
33.38194172342535
 20
-44.03055961355833
 10
33.24327663014405
 20
-44.16681313999997
 10
32.96594644358143
 20
-44.26241453971565
 10
32.68861625701882
 20
-44.35784368465707
 10
32.29570311692608
 20
-44.40555825712778
 10
31.78737927807746
 20
-44.40555825712778
 10
30.7185384037787
 20
-44.40555825712778
 10
30.18403183924219
 20
-44.2272745657661
 10
30.18403183924219
 20
-43.87053492826848
 10
30.18403183924219
 20
-43.78630234365412
 10
30.20711397899336
 20
-43.72170680330569
 10
30.25345051326997
 20
-43.67674830722318
 10
30.29961479277232
 20
-43.63178981114066
 10
30.40796304578343
 20
-43.56719427079223
 10
30.57832301752903
 20
-43.48296168617787
 10
30.68236490118358
 20
-43.4295627061565
 10
30.74299858172397
 20
-43.3551486436751
 10
30.76039631392448
 20
-43.25954724395942
 10
30.777794046125
 20
-43.164118099018
 10
30.78916286122632
 20
-42.85664332695945
 10
30.79501952355125
 20
-42.33695067300951
 97
        0
 92
        1
 93
        1
 72
     4
 94
        3
 73
     0
 74
     1
 95
       29
 96
       25
 40
0.0
 40
0.0
 40
0.0
 40
0.0
 40
1.0
 40
1.0
 40
1.0
 40
2.0
 40
2.0
 40
2.0
 40
3.0
 40
3.0
 40
3.0
 40
4.0
 40
4.0
 40
4.0
 40
5.0
 40
5.0
 40
5.0
 40
6.0
 40
6.0
 40
6.0
 40
7.0
 40
7.0
 40
7.0
 40
8.0
 40
8.0
 40
8.0
 40
8.0
 10
32.74924993755922
 20
-39.58569741848899
 10
32.74924993755922
 20
-39.58569741848899
 10
32.74924993755922
 20
-41.01816812125588
 10
32.74924993755922
 20
-41.01816812125588
 10
32.74924993755922
 20
-41.12772215768682
 10
32.77388237027876
 20
-41.19369573622936
 10
32.82297498094356
 20
-41.21626111165774
 10
32.90669080123514
 20
-41.25553520018959
 10
33.01211072308378
 20
-41.27517224445551
 10
33.1392347464895
 20
-41.27517224445551
 10
33.32992078159808
 20
-41.27517224445551
 10
33.49028997643646
 20
-41.2233235574025
 10
33.62034233100464
 20
-41.11928167374796
 10
33.80810003495075
 20
-40.97045354878517
 10
33.90197888692381
 20
-40.72051187133029
 10
33.90197888692381
 20
-40.36945664138333
 10
33.90197888692381
 20
-40.00427651994685
 10
33.79208034094435
 20
-39.74020995100245
 10
33.57262775853393
 20
-39.57725693455014
 10
33.43396266525262
 20
-39.47338730566985
 10
33.26635876989522
 20
-39.42136636384258
 10
33.06998832723598
 20
-39.42136636384258
 10
32.85622015237622
 20
-39.42136636384258
 10
32.74924993755922
 20
-39.47614338205805
 10
32.74924993755922
 20
-39.58569741848899
 97
        0
 75
     2
 76
     1
 98
        0
  0
SPLINE
  5
43
330
3C
100
AcDbEntity
  8
\U+30EC\U+30A4\U+30E4\U+30FC 1
370
     0
100
AcDbSpline
210
0.0
220
0.0
230
1.0
 70
    11
 71
     3
 72
   134
 73
   130
 74
     0
 42
0.0000000001
 43
0.0000000001
 40
0.0
 40
0.0
 40
0.0
 40
0.0
 40
1.0
 40
1.0
 40
1.0
 40
2.0
 40
2.0
 40
2.0
 40
3.0
 40
3.0
 40
3.0
 40
4.0
 40
4.0
 40
4.0
 40
5.0
 40
5.0
 40
5.0
 40
6.0
 40
6.0
 40
6.0
 40
7.0
 40
7.0
 40
7.0
 40
8.0
 40
8.0
 40
8.0
 40
9.0
 40
9.0
 40
9.0
 40
10.0
 40
10.0
 40
10.0
 40
11.0
 40
11.0
 40
11.0
 40
12.0
 40
12.0
 40
12.0
 40
13.0
 40
13.0
 40
13.0
 40
14.0
 40
14.0
 40
14.0
 40
15.0
 40
15.0
 40
15.0
 40
16.0
 40
16.0
 40
16.0
 40
17.0
 40
17.0
 40
17.0
 40
18.0
 40
18.0
 40
18.0
 40
19.0
 40
19.0
 40
19.0
 40
20.0
 40
20.0
 40
20.0
 40
21.0
 40
21.0
 40
21.0
 40
22.0
 40
22.0
 40
22.0
 40
23.0
 40
23.0
 40
23.0
 40
24.0
 40
24.0
 40
24.0
 40
25.0
 40
25.0
 40
25.0
 40
26.0
 40
26.0
 40
26.0
 40
27.0
 40
27.0
 40
27.0
 40
28.0
 40
28.0
 40
28.0
 40
29.0
 40
29.0
 40
29.0
 40
30.0
 40
30.0
 40
30.0
 40
31.0
 40
31.0
 40
31.0
 40
32.0
 40
32.0
 40
32.0
 40
33.0
 40
33.0
 40
33.0
 40
34.0
 40
34.0
 40
34.0
 40
35.0
 40
35.0
 40
35.0
 40
36.0
 40
36.0
 40
36.0
 40
37.0
 40
37.0
 40
37.0
 40
38.0
 40
38.0
 40
38.0
 40
39.0
 40
39.0
 40
39.0
 40
40.0
 40
40.0
 40
40.0
 40
41.0
 40
41.0
 40
41.0
 40
42.0
 40
42.0
 40
42.0
 40
43.0
 40
43.0
 40
43.0
 40
43.0
 10
38.52546928290336
 20
-38.77265488397003
 30
0.0
 10
38.52546928290336
 20
-38.77265488397003
 30
0.0
 10
40.68330484008959
 20
-40.60957979670525
 30
0.0
 10
40.68330484008959
 20
-40.60957979670525
 30
0.0
 10
40.88553194507376
 20
-40.78097329709642
 30
0.0
 10
41.03143173887409
 20
-40.86658391990488
 30
0.0
 10
41.12100422149059
 20
-40.86658391990488
 30
0.0
 10
41.27121038464747
 20
-40.86658391990488
 30
0.0
 10
41.34631346622592
 20
-40.71069334919733
 30
0.0
 10
41.34631346622592
 20
-40.39891220778222
 30
0.0
 10
41.34631346622592
 20
-40.04492864667279
 30
0.0
 10
41.32460936466885
 20
-39.80342745315679
 30
0.0
 10
41.28137341632896
 20
-39.67423637245992
 30
0.0
 10
41.23796521321481
 20
-39.54504529176305
 30
0.0
 10
41.14701469240422
 20
-39.44806585385327
 30
0.0
 10
41.00834959912292
 20
-39.38347031350483
 30
0.0
 10
40.89569497675524
 20
-39.33024358825772
 30
0.0
 10
40.81628552582023
 20
-39.27322725797683
 30
0.0
 10
40.77012124631788
 20
-39.21293808698496
 30
0.0
 10
40.72378471204128
 20
-39.15247666121883
 30
0.0
 10
40.7007025722901
 20
-39.07461750325218
 30
0.0
 10
40.7007025722901
 20
-38.97901610353649
 30
0.0
 10
40.7007025722901
 20
-38.74302706279688
 30
0.0
 10
40.86675617467915
 20
-38.59144286144589
 30
0.0
 10
41.19903563423149
 20
-38.52409124470925
 30
0.0
 10
41.33477239635034
 20
-38.49601371650447
 30
0.0
 10
41.57162271096126
 20
-38.48188882501495
 30
0.0
 10
41.90958657806427
 20
-38.48188882501495
 30
0.0
 10
42.34590792127116
 20
-38.48188882501495
 30
0.0
 10
42.64769828577905
 20
-38.50721027683153
 30
0.0
 10
42.81530218113645
 20
-38.55768092569044
 30
0.0
 10
43.08109129782348
 20
-38.6364013575284
 30
0.0
 10
43.21389972877986
 20
-38.7852294824912
 30
0.0
 10
43.21389972877986
 20
-39.00433755535308
 30
0.0
 10
43.21389972877986
 20
-39.18692761607132
 30
0.0
 10
43.10555147576876
 20
-39.32455918070706
 30
0.0
 10
42.8890272245208
 20
-39.41723224926028
 30
0.0
 10
42.80238307306676
 20
-39.45375026140393
 30
0.0
 10
42.74312743072047
 20
-39.48613415896527
 30
0.0
 10
42.71126029748191
 20
-39.5140394323958
 30
0.0
 10
42.67956541901761
 20
-39.54228921537484
 30
0.0
 10
42.65200465513561
 20
-39.58431938029489
 30
0.0
 10
42.62892251538444
 20
-39.64047443670447
 30
0.0
 10
42.55106335741779
 20
-39.82582057381091
 30
0.0
 10
42.51041123069184
 20
-40.17704805853213
 30
0.0
 10
42.50765515430364
 20
-40.6938123813196
 30
0.0
 10
42.50765515430364
 20
-40.6938123813196
 30
0.0
 10
42.50765515430364
 20
-42.06719969651445
 30
0.0
 10
42.50765515430364
 20
-42.06719969651445
 30
0.0
 10
42.50765515430364
 20
-42.27786728543748
 30
0.0
 10
42.50903319249775
 20
-42.56587726800436
 30
0.0
 10
42.5119615236602
 20
-42.93105738944085
 30
0.0
 10
42.51488985482267
 20
-43.4254285915742
 30
0.0
 10
42.48457301455247
 20
-43.78199597429756
 30
0.0
 10
42.42101100284961
 20
-44.00110404715945
 30
0.0
 10
42.3429795901087
 20
-44.27361110004271
 30
0.0
 10
42.20138616566494
 20
-44.40986462648434
 30
0.0
 10
41.99640298429257
 20
-44.40986462648434
 30
0.0
 10
41.90683050167607
 20
-44.40986462648434
 30
0.0
 10
41.82948810803222
 20
-44.39143336563826
 30
0.0
 10
41.76454805813525
 20
-44.35508760826887
 30
0.0
 10
41.69943575346403
 20
-44.31856959612522
 30
0.0
 10
41.59177651954997
 20
-44.23433701151086
 30
0.0
 10
41.44174261116734
 20
-44.10221759965153
 30
0.0
 10
41.44174261116734
 20
-44.10221759965153
 30
0.0
 10
38.87204588871949
 20
-41.86497259153029
 30
0.0
 10
38.87204588871949
 20
-41.86497259153029
 30
0.0
 10
38.6929009234865
 20
-41.70770398262863
 30
0.0
 10
38.54424505329797
 20
-41.62915580556493
 30
0.0
 10
38.42573376860538
 20
-41.62915580556493
 30
0.0
 10
38.24951713453485
 20
-41.62915580556493
 30
0.0
 10
38.16149494488671
 20
-41.86652288449865
 30
0.0
 10
38.16149494488671
 20
-42.34108478759181
 30
0.0
 10
38.16149494488671
 20
-42.73158636084489
 30
0.0
 10
38.18388806554083
 20
-42.99840900617748
 30
0.0
 10
38.22867430684909
 20
-43.14172497836388
 30
0.0
 10
38.27346054815733
 20
-43.28486869577601
 30
0.0
 10
38.36510008806498
 20
-43.39028861762466
 30
0.0
 10
38.50376518134628
 20
-43.45764023436129
 30
0.0
 10
38.69720729284306
 20
-43.55031330291451
 30
0.0
 10
38.79418673075284
 20
-43.67106389967251
 30
0.0
 10
38.79418673075284
 20
-43.81989202463531
 30
0.0
 10
38.79418673075284
 20
-44.21039359788838
 30
0.0
 10
38.36217175690251
 20
-44.40555825712778
 30
0.0
 10
37.49848631875038
 20
-44.40555825712778
 30
0.0
 10
37.1085015098201
 20
-44.40555825712778
 30
0.0
 10
36.8058498714409
 20
-44.35560437259166
 30
0.0
 10
36.59070365838705
 20
-44.25604111306794
 30
0.0
 10
36.37538519055893
 20
-44.15630559876995
 30
0.0
 10
36.26789821141914
 20
-44.01522893864897
 30
0.0
 10
36.26789821141914
 20
-43.83263887793073
 30
0.0
 10
36.26789821141914
 20
-43.73720973298931
 30
0.0
 10
36.28805202000785
 20
-43.66555174689611
 30
0.0
 10
36.32853189195954
 20
-43.61766491965114
 30
0.0
 10
36.36901176391122
 20
-43.56995034718043
 30
0.0
 10
36.45996228472182
 20
-43.505354806832
 30
0.0
 10
36.60155570916559
 20
-43.42387829860584
 30
0.0
 10
36.73729247128443
 20
-43.34533012154214
 30
0.0
 10
36.8196302533819
 20
-43.20632051871231
 30
0.0
 10
36.848569055458
 20
-43.00684949011634
 30
0.0
 10
36.89766166612281
 20
-42.64442544506806
 30
0.0
 10
36.92212184406808
 20
-42.12352700769829
 30
0.0
 10
36.92212184406808
 20
-41.44380966845849
 30
0.0
 10
36.92212184406808
 20
-40.71913383313619
 30
0.0
 10
36.8788858957282
 20
-40.19100069524739
 30
0.0
 10
36.79224174427416
 20
-39.85958250956636
 30
0.0
 10
36.7603746110356
 20
-39.73883191280835
 30
0.0
 10
36.71989473908392
 20
-39.64891492064333
 30
0.0
 10
36.6708021284191
 20
-39.59000378784555
 30
0.0
 10
36.6217095177543
 20
-39.53092040027352
 30
0.0
 10
36.54092202862519
 20
-39.47476534386395
 30
0.0
 10
36.42826740625752
 20
-39.42136636384258
 30
0.0
 10
36.29821505168934
 20
-39.3596991546566
 30
0.0
 10
36.20778129520153
 20
-39.29923772889047
 30
0.0
 10
36.15731064634262
 20
-39.2403265960927
 30
0.0
 10
36.10683999748371
 20
-39.18124320852066
 30
0.0
 10
36.08151854566712
 20
-39.10958522242747
 30
0.0
 10
36.08151854566712
 20
-39.02535263781311
 30
0.0
 10
36.08151854566712
 20
-38.75577391609231
 30
0.0
 10
36.31991915324641
 20
-38.58575845389523
 30
0.0
 10
36.79654811363073
 20
-38.51565076077039
 30
0.0
 10
36.95829534666321
 20
-38.49308538534201
 30
0.0
 10
37.24130994077648
 20
-38.48188882501495
 30
0.0
 10
37.64576415074481
 20
-38.48188882501495
 30
0.0
 10
37.87693005780508
 20
-38.48188882501495
 30
0.0
 10
38.04522297225953
 20
-38.49945881198972
 30
0.0
 10
38.15064289410817
 20
-38.53459878593927
 30
0.0
 10
38.25606281595682
 20
-38.56973875988881
 30
0.0
 10
38.38094752729712
 20
-38.64897595604956
 30
0.0
 10
38.52546928290336
 20
-38.77265488397003
 30
0.0
  0
HATCH
  5
44
330
3C
100
AcDbEntity
  8
\U+30EC\U+30A4\U+30E4\U+30FC 1
 62
   250
100
AcDbHatch
 10
0.0
 20
0.0
 30
0.0
210
0.0
220
0.0
230
1.0
  2
SOLID
 70
     1
 71
     0
 91
        1
 92
        1
 93
        1
 72
     4
 94
        3
 73
     0
 74
     1
 95
      134
 96
      130
 40
0.0
 40
0.0
 40
0.0
 40
0.0
 40
1.0
 40
1.0
 40
1.0
 40
2.0
 40
2.0
 40
2.0
 40
3.0
 40
3.0
 40
3.0
 40
4.0
 40
4.0
 40
4.0
 40
5.0
 40
5.0
 40
5.0
 40
6.0
 40
6.0
 40
6.0
 40
7.0
 40
7.0
 40
7.0
 40
8.0
 40
8.0
 40
8.0
 40
9.0
 40
9.0
 40
9.0
 40
10.0
 40
10.0
 40
10.0
 40
11.0
 40
11.0
 40
11.0
 40
12.0
 40
12.0
 40
12.0
 40
13.0
 40
13.0
 40
13.0
 40
14.0
 40
14.0
 40
14.0
 40
15.0
 40
15.0
 40
15.0
 40
16.0
 40
16.0
 40
16.0
 40
17.0
 40
17.0
 40
17.0
 40
18.0
 40
18.0
 40
18.0
 40
19.0
 40
19.0
 40
19.0
 40
20.0
 40
20.0
 40
20.0
 40
21.0
 40
21.0
 40
21.0
 40
22.0
 40
22.0
 40
22.0
 40
23.0
 40
23.0
 40
23.0
 40
24.0
 40
24.0
 40
24.0
 40
25.0
 40
25.0
 40
25.0
 40
26.0
 40
26.0
 40
26.0
 40
27.0
 40
27.0
 40
27.0
 40
28.0
 40
28.0
 40
28.0
 40
29.0
 40
29.0
 40
29.0
 40
30.0
 40
30.0
 40
30.0
 40
31.0
 40
31.0
 40
31.0
 40
32.0
 40
32.0
 40
32.0
 40
33.0
 40
33.0
 40
33.0
 40
34.0
 40
34.0
 40
34.0
 40
35.0
 40
35.0
 40
35.0
 40
36.0
 40
36.0
 40
36.0
 40
37.0
 40
37.0
 40
37.0
 40
38.0
 40
38.0
 40
38.0
 40
39.0
 40
39.0
 40
39.0
 40
40.0
 40
40.0
 40
40.0
 40
41.0
 40
41.0
 40
41.0
 40
42.0
 40
42.0
 40
42.0
 40
43.0
 40
43.0
 40
43.0
 40
43.0
 10
38.52546928290336
 20
-38.77265488397003
 10
38.52546928290336
 20
-38.77265488397003
 10
40.68330484008959
 20
-40.60957979670525
 10
40.68330484008959
 20
-40.60957979670525
 10
40.88553194507376
 20
-40.78097329709642
 10
41.03143173887409
 20
-40.86658391990488
 10
41.12100422149059
 20
-40.86658391990488
 10
41.27121038464747
 20
-40.86658391990488
 10
41.34631346622592
 20
-40.71069334919733
 10
41.34631346622592
 20
-40.39891220778222
 10
41.34631346622592
 20
-40.04492864667279
 10
41.32460936466885
 20
-39.80342745315679
 10
41.28137341632896
 20
-39.67423637245992
 10
41.23796521321481
 20
-39.54504529176305
 10
41.14701469240422
 20
-39.44806585385327
 10
41.00834959912292
 20
-39.38347031350483
 10
40.89569497675524
 20
-39.33024358825772
 10
40.81628552582023
 20
-39.27322725797683
 10
40.77012124631788
 20
-39.21293808698496
 10
40.72378471204128
 20
-39.15247666121883
 10
40.7007025722901
 20
-39.07461750325218
 10
40.7007025722901
 20
-38.97901610353649
 10
40.7007025722901
 20
-38.74302706279688
 10
40.86675617467915
 20
-38.59144286144589
 10
41.19903563423149
 20
-38.52409124470925
 10
41.33477239635034
 20
-38.49601371650447
 10
41.57162271096126
 20
-38.48188882501495
 10
41.90958657806427
 20
-38.48188882501495
 10
42.34590792127116
 20
-38.48188882501495
 10
42.64769828577905
 20
-38.50721027683153
 10
42.81530218113645
 20
-38.55768092569044
 10
43.08109129782348
 20
-38.6364013575284
 10
43.21389972877986
 20
-38.7852294824912
 10
43.21389972877986
 20
-39.00433755535308
 10
43.21389972877986
 20
-39.18692761607132
 10
43.10555147576876
 20
-39.32455918070706
 10
42.8890272245208
 20
-39.41723224926028
 10
42.80238307306676
 20
-39.45375026140393
 10
42.74312743072047
 20
-39.48613415896527
 10
42.71126029748191
 20
-39.5140394323958
 10
42.67956541901761
 20
-39.54228921537484
 10
42.65200465513561
 20
-39.58431938029489
 10
42.62892251538444
 20
-39.64047443670447
 10
42.55106335741779
 20
-39.82582057381091
 10
42.51041123069184
 20
-40.17704805853213
 10
42.50765515430364
 20
-40.6938123813196
 10
42.50765515430364
 20
-40.6938123813196
 10
42.50765515430364
 20
-42.06719969651445
 10
42.50765515430364
 20
-42.06719969651445
 10
42.50765515430364
 20
-42.27786728543748
 10
42.50903319249775
 20
-42.56587726800436
 10
42.5119615236602
 20
-42.93105738944085
 10
42.51488985482267
 20
-43.4254285915742
 10
42.48457301455247
 20
-43.78199597429756
 10
42.42101100284961
 20
-44.00110404715945
 10
42.3429795901087
 20
-44.27361110004271
 10
42.20138616566494
 20
-44.40986462648434
 10
41.99640298429257
 20
-44.40986462648434
 10
41.90683050167607
 20
-44.40986462648434
 10
41.82948810803222
 20
-44.39143336563826
 10
41.76454805813525
 20
-44.35508760826887
 10
41.69943575346403
 20
-44.31856959612522
 10
41.59177651954997
 20
-44.23433701151086
 10
41.44174261116734
 20
-44.10221759965153
 10
41.44174261116734
 20
-44.10221759965153
 10
38.87204588871949
 20
-41.86497259153029
 10
38.87204588871949
 20
-41.86497259153029
 10
38.6929009234865
 20
-41.70770398262863
 10
38.54424505329797
 20
-41.62915580556493
 10
38.42573376860538
 20
-41.62915580556493
 10
38.24951713453485
 20
-41.62915580556493
 10
38.16149494488671
 20
-41.86652288449865
 10
38.16149494488671
 20
-42.34108478759181
 10
38.16149494488671
 20
-42.73158636084489
 10
38.18388806554083
 20
-42.99840900617748
 10
38.22867430684909
 20
-43.14172497836388
 10
38.27346054815733
 20
-43.28486869577601
 10
38.36510008806498
 20
-43.39028861762466
 10
38.50376518134628
 20
-43.45764023436129
 10
38.69720729284306
 20
-43.55031330291451
 10
38.79418673075284
 20
-43.67106389967251
 10
38.79418673075284
 20
-43.81989202463531
 10
38.79418673075284
 20
-44.21039359788838
 10
38.36217175690251
 20
-44.40555825712778
 10
37.49848631875038
 20
-44.40555825712778
 10
37.1085015098201
 20
-44.40555825712778
 10
36.8058498714409
 20
-44.35560437259166
 10
36.59070365838705
 20
-44.25604111306794
 10
36.37538519055893
 20
-44.15630559876995
 10
36.26789821141914
 20
-44.01522893864897
 10
36.26789821141914
 20
-43.83263887793073
 10
36.26789821141914
 20
-43.73720973298931
 10
36.28805202000785
 20
-43.66555174689611
 10
36.32853189195954
 20
-43.61766491965114
 10
36.36901176391122
 20
-43.56995034718043
 10
36.45996228472182
 20
-43.505354806832
 10
36.60155570916559
 20
-43.42387829860584
 10
36.73729247128443
 20
-43.34533012154214
 10
36.8196302533819
 20
-43.20632051871231
 10
36.848569055458
 20
-43.00684949011634
 10
36.89766166612281
 20
-42.64442544506806
 10
36.92212184406808
 20
-42.12352700769829
 10
36.92212184406808
 20
-41.44380966845849
 10
36.92212184406808
 20
-40.71913383313619
 10
36.8788858957282
 20
-40.19100069524739
 10
36.79224174427416
 20
-39.85958250956636
 10
36.7603746110356
 20
-39.73883191280835
 10
36.71989473908392
 20
-39.64891492064333
 10
36.6708021284191
 20
-39.59000378784555
 10
36.6217095177543
 20
-39.53092040027352
 10
36.54092202862519
 20
-39.47476534386395
 10
36.42826740625752
 20
-39.42136636384258
 10
36.29821505168934
 20
-39.3596991546566
 10
36.20778129520153
 20
-39.29923772889047
 10
36.15731064634262
 20
-39.2403265960927
 10
36.10683999748371
 20
-39.18124320852066
 10
36.08151854566712
 20
-39.10958522242747
 10
36.08151854566712
 20
-39.02535263781311
 10
36.08151854566712
 20
-38.75577391609231
 10
36.31991915324641
 20
-38.58575845389523
 10
36.79654811363073
 20
-38.51565076077039
 10
36.95829534666321
 20
-38.49308538534201
 10
37.24130994077648
 20
-38.48188882501495
 10
37.64576415074481
 20
-38.48188882501495
 10
37.87693005780508
 20
-38.48188882501495
 10
38.04522297225953
 20
-38.49945881198972
 10
38.15064289410817
 20
-38.53459878593927
 10
38.25606281595682
 20
-38.56973875988881
 10
38.38094752729712
 20
-38.64897595604956
 10
38.52546928290336
 20
-38.77265488397003
 97
        0
 75
     2
 76
     1
 98
        0
  0
SPLINE
  5
45
330
3C
100
AcDbEntity
  8
\U+30EC\U+30A4\U+30E4\U+30FC 1
370
     0
100
AcDbSpline
210
0.0
220
0.0
230
1.0
 70
    11
 71
     3
 72
    95
 73
    91
 74
     0
 42
0.0000000001
 43
0.0000000001
 40
0.0
 40
0.0
 40
0.0
 40
0.0
 40
1.0
 40
1.0
 40
1.0
 40
2.0
 40
2.0
 40
2.0
 40
3.0
 40
3.0
 40
3.0
 40
4.0
 40
4.0
 40
4.0
 40
5.0
 40
5.0
 40
5.0
 40
6.0
 40
6.0
 40
6.0
 40
7.0
 40
7.0
 40
7.0
 40
8.0
 40
8.0
 40
8.0
 40
9.0
 40
9.0
 40
9.0
 40
10.0
 40
10.0
 40
10.0
 40
11.0
 40
11.0
 40
11.0
 40
12.0
 40
12.0
 40
12.0
 40
13.0
 40
13.0
 40
13.0
 40
14.0
 40
14.0
 40
14.0
 40
15.0
 40
15.0
 40
15.0
 40
16.0
 40
16.0
 40
16.0
 40
17.0
 40
17.0
 40
17.0
 40
18.0
 40
18.0
 40
18.0
 40
19.0
 40
19.0
 40
19.0
 40
20.0
 40
20.0
 40
20.0
 40
21.0
 40
21.0
 40
21.0
 40
22.0
 40
22.0
 40
22.0
 40
23.0
 40
23.0
 40
23.0
 40
24.0
 40
24.0
 40
24.0
 40
25.0
 40
25.0
 40
25.0
 40
26.0
 40
26.0
 40
26.0
 40
27.0
 40
27.0
 40
27.0
 40
28.0
 40
28.0
 40
28.0
 40
29.0
 40
29.0
 40
29.0
 40
30.0
 40
30.0
 40
30.0
 40
30.0
 10
44.23226995421971
 20
-42.33695067300951
 30
0.0
 10
44.23226995421971
 20
-42.33695067300951
 30
0.0
 10
44.23226995421971
 20
-40.12072074734829
 30
0.0
 10
44.23226995421971
 20
-40.12072074734829
 30
0.0
 10
44.23226995421971
 20
-39.83426105774977
 30
0.0
 10
44.212116145631
 20
-39.65253227090284
 30
0.0
 10
44.17163627367932
 20
-39.57518987725899
 30
0.0
 10
44.13115640172763
 20
-39.49801973838939
 30
0.0
 10
44.02143011052242
 20
-39.4354912553321
 30
0.0
 10
43.84228514528943
 20
-39.38777668286139
 30
0.0
 10
43.58235269092733
 20
-39.3147406585741
 30
0.0
 10
43.45230033635915
 20
-39.18830565426543
 30
0.0
 10
43.45230033635915
 20
-39.00847166993538
 30
0.0
 10
43.45230033635915
 20
-38.88220892040098
 30
0.0
 10
43.50724960934888
 20
-38.7852294824912
 30
0.0
 10
43.61697590055409
 20
-38.71787786575456
 30
0.0
 10
43.7267021917593
 20
-38.65035399424367
 30
0.0
 10
43.88569334840358
 20
-38.61676431326248
 30
0.0
 10
44.09360486093841
 20
-38.61676431326248
 30
0.0
 10
44.16302353496619
 20
-38.61676431326248
 30
0.0
 10
44.33476154490589
 20
-38.62089842784478
 30
0.0
 10
44.60933565508031
 20
-38.62933891178364
 30
0.0
 10
44.60933565508031
 20
-38.62933891178364
 30
0.0
 10
44.86926810944241
 20
-38.62933891178364
 30
0.0
 10
44.86926810944241
 20
-38.62933891178364
 30
0.0
 10
45.34882540098918
 20
-38.62658283539544
 30
0.0
 10
45.62977293781131
 20
-38.62296548513593
 30
0.0
 10
45.71211071990878
 20
-38.61883137055363
 30
0.0
 10
45.79444850200625
 20
-38.61452500119707
 30
0.0
 10
46.08831514689806
 20
-38.59006482325179
 30
0.0
 10
46.59388290935848
 20
-38.54510632716928
 30
0.0
 10
46.76148680471588
 20
-38.52822535929155
 30
0.0
 10
46.91462129903523
 20
-38.51978487535269
 30
0.0
 10
47.05328639231654
 20
-38.51978487535269
 30
0.0
 10
47.5269870215384
 20
-38.51978487535269
 30
0.0
 10
47.94866670893298
 20
-38.61400823687428
 30
0.0
 10
48.31849770927455
 20
-38.80211045036892
 30
0.0
 10
48.96273056501627
 20
-39.12801648327356
 30
0.0
 10
49.28484699288713
 20
-39.64478080606103
 30
0.0
 10
49.28484699288713
 20
-40.3525756735056
 30
0.0
 10
49.28484699288713
 20
-40.92549505270266
 30
0.0
 10
49.05953774815178
 20
-41.38472628088646
 30
0.0
 10
48.60891925868111
 20
-41.73026935805701
 30
0.0
 10
48.1841389853498
 20
-42.05324705979919
 30
0.0
 10
47.66995848417626
 20
-42.21482203805741
 30
0.0
 10
47.06620550038623
 20
-42.21482203805741
 30
0.0
 10
46.91307100606687
 20
-42.21482203805741
 30
0.0
 10
46.72531330212076
 20
-42.20500351592445
 30
0.0
 10
46.50293238854788
 20
-42.18519421688426
 30
0.0
 10
46.38442110385529
 20
-42.1767537329454
 30
0.0
 10
46.31069606047094
 20
-42.1726196183631
 30
0.0
 10
46.2819295131691
 20
-42.1726196183631
 30
0.0
 10
46.19804143810327
 20
-42.1726196183631
 30
0.0
 10
46.15618352795748
 20
-42.21895615263971
 30
0.0
 10
46.15618352795748
 20
-42.31162922119293
 30
0.0
 10
46.15618352795748
 20
-42.31162922119293
 30
0.0
 10
46.15618352795748
 20
-42.33695067300951
 30
0.0
 10
46.15618352795748
 20
-42.33695067300951
 30
0.0
 10
46.15618352795748
 20
-42.33695067300951
 30
0.0
 10
46.18650036822768
 20
-43.02786457257637
 30
0.0
 10
46.18650036822768
 20
-43.02786457257637
 30
0.0
 10
46.19235703055261
 20
-43.1627400608239
 30
0.0
 10
46.21750622759493
 20
-43.26316459421894
 30
0.0
 10
46.26246472367744
 20
-43.32913817276147
 30
0.0
 10
46.30725096498569
 20
-43.395111751304
 30
0.0
 10
46.39889050489334
 20
-43.46332464191195
 30
0.0
 10
46.53755559817464
 20
-43.53343233503679
 30
0.0
 10
46.72531330212076
 20
-43.63178981114066
 30
0.0
 10
46.81919215409381
 20
-43.73858777118341
 30
0.0
 10
46.81919215409381
 20
-43.85365396039076
 30
0.0
 10
46.81919215409381
 20
-44.03055961355833
 30
0.0
 10
46.68052706081251
 20
-44.16681313999997
 30
0.0
 10
46.4031968742499
 20
-44.26241453971565
 30
0.0
 10
46.12586668768729
 20
-44.35784368465707
 30
0.0
 10
45.73295354759454
 20
-44.40555825712778
 30
0.0
 10
45.22462970874593
 20
-44.40555825712778
 30
0.0
 10
44.15578883444716
 20
-44.40555825712778
 30
0.0
 10
43.62128226991065
 20
-44.2272745657661
 30
0.0
 10
43.62128226991065
 20
-43.87053492826848
 30
0.0
 10
43.62128226991065
 20
-43.78630234365412
 30
0.0
 10
43.64436440966183
 20
-43.72170680330569
 30
0.0
 10
43.69070094393844
 20
-43.67674830722318
 30
0.0
 10
43.73686522344079
 20
-43.63178981114066
 30
0.0
 10
43.8452134764519
 20
-43.56719427079223
 30
0.0
 10
44.0155734481975
 20
-43.48296168617787
 30
0.0
 10
44.11961533185205
 20
-43.4295627061565
 30
0.0
 10
44.18024901239244
 20
-43.3551486436751
 30
0.0
 10
44.19764674459295
 20
-43.25954724395942
 30
0.0
 10
44.21504447679347
 20
-43.164118099018
 30
0.0
 10
44.22641329189479
 20
-42.85664332695945
 30
0.0
 10
44.23226995421971
 20
-42.33695067300951
 30
0.0
  0
SPLINE
  5
46
330
3C
100
AcDbEntity
  8
\U+30EC\U+30A4\U+30E4\U+30FC 1
370
     0
100
AcDbSpline
210
0.0
220
0.0
230
1.0
 70
    11
 71
     3
 72
    29
 73
    25
 74
     0
 42
0.0000000001
 43
0.0000000001
 40
0.0
 40
0.0
 40
0.0
 40
0.0
 40
1.0
 40
1.0
 40
1.0
 40
2.0
 40
2.0
 40
2.0
 40
3.0
 40
3.0
 40
3.0
 40
4.0
 40
4.0
 40
4.0
 40
5.0
 40
5.0
 40
5.0
 40
6.0
 40
6.0
 40
6.0
 40
7.0
 40
7.0
 40
7.0
 40
8.0
 40
8.0
 40
8.0
 40
8.0
 10
46.18650036822768
 20
-39.58569741848899
 30
0.0
 10
46.18650036822768
 20
-39.58569741848899
 30
0.0
 10
46.18650036822768
 20
-41.01816812125588
 30
0.0
 10
46.18650036822768
 20
-41.01816812125588
 30
0.0
 10
46.18650036822768
 20
-41.12772215768682
 30
0.0
 10
46.21113280094722
 20
-41.19369573622936
 30
0.0
 10
46.26022541161203
 20
-41.21626111165774
 30
0.0
 10
46.3439412319036
 20
-41.25553520018959
 30
0.0
 10
46.44936115375224
 20
-41.27517224445551
 30
0.0
 10
46.57648517715796
 20
-41.27517224445551
 30
0.0
 10
46.76717121226654
 20
-41.27517224445551
 30
0.0
 10
46.92754040710492
 20
-41.2233235574025
 30
0.0
 10
47.05759276167311
 20
-41.11928167374796
 30
0.0
 10
47.24535046561922
 20
-40.97045354878517
 30
0.0
 10
47.33922931759228
 20
-40.72051187133029
 30
0.0
 10
47.33922931759228
 20
-40.36945664138333
 30
0.0
 10
47.33922931759228
 20
-40.00427651994685
 30
0.0
 10
47.22933077161281
 20
-39.74020995100245
 30
0.0
 10
47.0098781892024
 20
-39.57725693455014
 30
0.0
 10
46.87121309592109
 20
-39.47338730566985
 30
0.0
 10
46.70360920056368
 20
-39.42136636384258
 30
0.0
 10
46.50723875790445
 20
-39.42136636384258
 30
0.0
 10
46.29347058304469
 20
-39.42136636384258
 30
0.0
 10
46.18650036822768
 20
-39.47614338205805
 30
0.0
 10
46.18650036822768
 20
-39.58569741848899
 30
0.0
  0
HATCH
  5
47
330
3C
100
AcDbEntity
  8
\U+30EC\U+30A4\U+30E4\U+30FC 1
 62
   250
100
AcDbHatch
 10
0.0
 20
0.0
 30
0.0
210
0.0
220
0.0
230
1.0
  2
SOLID
 70
     1
 71
     0
 91
        2
 92
        1
 93
        1
 72
     4
 94
        3
 73
     0
 74
     1
 95
       95
 96
       91
 40
0.0
 40
0.0
 40
0.0
 40
0.0
 40
1.0
 40
1.0
 40
1.0
 40
2.0
 40
2.0
 40
2.0
 40
3.0
 40
3.0
 40
3.0
 40
4.0
 40
4.0
 40
4.0
 40
5.0
 40
5.0
 40
5.0
 40
6.0
 40
6.0
 40
6.0
 40
7.0
 40
7.0
 40
7.0
 40
8.0
 40
8.0
 40
8.0
 40
9.0
 40
9.0
 40
9.0
 40
10.0
 40
10.0
 40
10.0
 40
11.0
 40
11.0
 40
11.0
 40
12.0
 40
12.0
 40
12.0
 40
13.0
 40
13.0
 40
13.0
 40
14.0
 40
14.0
 40
14.0
 40
15.0
 40
15.0
 40
15.0
 40
16.0
 40
16.0
 40
16.0
 40
17.0
 40
17.0
 40
17.0
 40
18.0
 40
18.0
 40
18.0
 40
19.0
 40
19.0
 40
19.0
 40
20.0
 40
20.0
 40
20.0
 40
21.0
 40
21.0
 40
21.0
 40
22.0
 40
22.0
 40
22.0
 40
23.0
 40
23.0
 40
23.0
 40
24.0
 40
24.0
 40
24.0
 40
25.0
 40
25.0
 40
25.0
 40
26.0
 40
26.0
 40
26.0
 40
27.0
 40
27.0
 40
27.0
 40
28.0
 40
28.0
 40
28.0
 40
29.0
 40
29.0
 40
29.0
 40
30.0
 40
30.0
 40
30.0
 40
30.0
 10
44.23226995421971
 20
-42.33695067300951
 10
44.23226995421971
 20
-42.33695067300951
 10
44.23226995421971
 20
-40.12072074734829
 10
44.23226995421971
 20
-40.12072074734829
 10
44.23226995421971
 20
-39.83426105774977
 10
44.212116145631
 20
-39.65253227090284
 10
44.17163627367932
 20
-39.57518987725899
 10
44.13115640172763
 20
-39.49801973838939
 10
44.02143011052242
 20
-39.4354912553321
 10
43.84228514528943
 20
-39.38777668286139
 10
43.58235269092733
 20
-39.3147406585741
 10
43.45230033635915
 20
-39.18830565426543
 10
43.45230033635915
 20
-39.00847166993538
 10
43.45230033635915
 20
-38.88220892040098
 10
43.50724960934888
 20
-38.7852294824912
 10
43.61697590055409
 20
-38.71787786575456
 10
43.7267021917593
 20
-38.65035399424367
 10
43.88569334840358
 20
-38.61676431326248
 10
44.09360486093841
 20
-38.61676431326248
 10
44.16302353496619
 20
-38.61676431326248
 10
44.33476154490589
 20
-38.62089842784478
 10
44.60933565508031
 20
-38.62933891178364
 10
44.60933565508031
 20
-38.62933891178364
 10
44.86926810944241
 20
-38.62933891178364
 10
44.86926810944241
 20
-38.62933891178364
 10
45.34882540098918
 20
-38.62658283539544
 10
45.62977293781131
 20
-38.62296548513593
 10
45.71211071990878
 20
-38.61883137055363
 10
45.79444850200625
 20
-38.61452500119707
 10
46.08831514689806
 20
-38.59006482325179
 10
46.59388290935848
 20
-38.54510632716928
 10
46.76148680471588
 20
-38.52822535929155
 10
46.91462129903523
 20
-38.51978487535269
 10
47.05328639231654
 20
-38.51978487535269
 10
47.5269870215384
 20
-38.51978487535269
 10
47.94866670893298
 20
-38.61400823687428
 10
48.31849770927455
 20
-38.80211045036892
 10
48.96273056501627
 20
-39.12801648327356
 10
49.28484699288713
 20
-39.64478080606103
 10
49.28484699288713
 20
-40.3525756735056
 10
49.28484699288713
 20
-40.92549505270266
 10
49.05953774815178
 20
-41.38472628088646
 10
48.60891925868111
 20
-41.73026935805701
 10
48.1841389853498
 20
-42.05324705979919
 10
47.66995848417626
 20
-42.21482203805741
 10
47.06620550038623
 20
-42.21482203805741
 10
46.91307100606687
 20
-42.21482203805741
 10
46.72531330212076
 20
-42.20500351592445
 10
46.50293238854788
 20
-42.18519421688426
 10
46.38442110385529
 20
-42.1767537329454
 10
46.31069606047094
 20
-42.1726196183631
 10
46.2819295131691
 20
-42.1726196183631
 10
46.19804143810327
 20
-42.1726196183631
 10
46.15618352795748
 20
-42.21895615263971
 10
46.15618352795748
 20
-42.31162922119293
 10
46.15618352795748
 20
-42.31162922119293
 10
46.15618352795748
 20
-42.33695067300951
 10
46.15618352795748
 20
-42.33695067300951
 10
46.15618352795748
 20
-42.33695067300951
 10
46.18650036822768
 20
-43.02786457257637
 10
46.18650036822768
 20
-43.02786457257637
 10
46.19235703055261
 20
-43.1627400608239
 10
46.21750622759493
 20
-43.26316459421894
 10
46.26246472367744
 20
-43.32913817276147
 10
46.30725096498569
 20
-43.395111751304
 10
46.39889050489334
 20
-43.46332464191195
 10
46.53755559817464
 20
-43.53343233503679
 10
46.72531330212076
 20
-43.63178981114066
 10
46.81919215409381
 20
-43.73858777118341
 10
46.81919215409381
 20
-43.85365396039076
 10
46.81919215409381
 20
-44.03055961355833
 10
46.68052706081251
 20
-44.16681313999997
 10
46.4031968742499
 20
-44.26241453971565
 10
46.12586668768729
 20
-44.35784368465707
 10
45.73295354759454
 20
-44.40555825712778
 10
45.22462970874593
 20
-44.40555825712778
 10
44.15578883444716
 20
-44.40555825712778
 10
43.62128226991065
 20
-44.2272745657661
 10
43.62128226991065
 20
-43.87053492826848
 10
43.62128226991065
 20
-43.78630234365412
 10
43.64436440966183
 20
-43.72170680330569
 10
43.69070094393844
 20
-43.67674830722318
 10
43.73686522344079
 20
-43.63178981114066
 10
43.8452134764519
 20
-43.56719427079223
 10
44.0155734481975
 20
-43.48296168617787
 10
44.11961533185205
 20
-43.4295627061565
 10
44.18024901239244
 20
-43.3551486436751
 10
44.19764674459295
 20
-43.25954724395942
 10
44.21504447679347
 20
-43.164118099018
 10
44.22641329189479
 20
-42.85664332695945
 10
44.23226995421971
 20
-42.33695067300951
 97
        0
 92
        1
 93
        1
 72
     4
 94
        3
 73
     0
 74
     1
 95
       29
 96
       25
 40
0.0
 40
0.0
 40
0.0
 40
0.0
 40
1.0
 40
1.0
 40
1.0
 40
2.0
 40
2.0
 40
2.0
 40
3.0
 40
3.0
 40
3.0
 40
4.0
 40
4.0
 40
4.0
 40
5.0
 40
5.0
 40
5.0
 40
6.0
 40
6.0
 40
6.0
 40
7.0
 40
7.0
 40
7.0
 40
8.0
 40
8.0
 40
8.0
 40
8.0
 10
46.18650036822768
 20
-39.58569741848899
 10
46.18650036822768
 20
-39.58569741848899
 10
46.18650036822768
 20
-41.01816812125588
 10
46.18650036822768
 20
-41.01816812125588
 10
46.18650036822768
 20
-41.12772215768682
 10
46.21113280094722
 20
-41.19369573622936
 10
46.26022541161203
 20
-41.21626111165774
 10
46.3439412319036
 20
-41.25553520018959
 10
46.44936115375224
 20
-41.27517224445551
 10
46.57648517715796
 20
-41.27517224445551
 10
46.76717121226654
 20
-41.27517224445551
 10
46.92754040710492
 20
-41.2233235574025
 10
47.05759276167311
 20
-41.11928167374796
 10
47.24535046561922
 20
-40.97045354878517
 10
47.33922931759228
 20
-40.72051187133029
 10
47.33922931759228
 20
-40.36945664138333
 10
47.33922931759228
 20
-40.00427651994685
 10
47.22933077161281
 20
-39.74020995100245
 10
47.0098781892024
 20
-39.57725693455014
 10
46.87121309592109
 20
-39.47338730566985
 10
46.70360920056368
 20
-39.42136636384258
 10
46.50723875790445
 20
-39.42136636384258
 10
46.29347058304469
 20
-39.42136636384258
 10
46.18650036822768
 20
-39.47614338205805
 10
46.18650036822768
 20
-39.58569741848899
 97
        0
 75
     2
 76
     1
 98
        0
  0
SPLINE
  5
48
330
3C
100
AcDbEntity
  8
\U+30EC\U+30A4\U+30E4\U+30FC 1
370
     0
100
AcDbSpline
210
0.0
220
0.0
230
1.0
 70
    11
 71
     3
 72
   134
 73
   130
 74
     0
 42
0.0000000001
 43
0.0000000001
 40
0.0
 40
0.0
 40
0.0
 40
0.0
 40
1.0
 40
1.0
 40
1.0
 40
2.0
 40
2.0
 40
2.0
 40
3.0
 40
3.0
 40
3.0
 40
4.0
 40
4.0
 40
4.0
 40
5.0
 40
5.0
 40
5.0
 40
6.0
 40
6.0
 40
6.0
 40
7.0
 40
7.0
 40
7.0
 40
8.0
 40
8.0
 40
8.0
 40
9.0
 40
9.0
 40
9.0
 40
10.0
 40
10.0
 40
10.0
 40
11.0
 40
11.0
 40
11.0
 40
12.0
 40
12.0
 40
12.0
 40
13.0
 40
13.0
 40
13.0
 40
14.0
 40
14.0
 40
14.0
 40
15.0
 40
15.0
 40
15.0
 40
16.0
 40
16.0
 40
16.0
 40
17.0
 40
17.0
 40
17.0
 40
18.0
 40
18.0
 40
18.0
 40
19.0
 40
19.0
 40
19.0
 40
20.0
 40
20.0
 40
20.0
 40
21.0
 40
21.0
 40
21.0
 40
22.0
 40
22.0
 40
22.0
 40
23.0
 40
23.0
 40
23.0
 40
24.0
 40
24.0
 40
24.0
 40
25.0
 40
25.0
 40
25.0
 40
26.0
 40
26.0
 40
26.0
 40
27.0
 40
27.0
 40
27.0
 40
28.0
 40
28.0
 40
28.0
 40
29.0
 40
29.0
 40
29.0
 40
30.0
 40
30.0
 40
30.0
 40
31.0
 40
31.0
 40
31.0
 40
32.0
 40
32.0
 40
32.0
 40
33.0
 40
33.0
 40
33.0
 40
34.0
 40
34.0
 40
34.0
 40
35.0
 40
35.0
 40
35.0
 40
36.0
 40
36.0
 40
36.0
 40
37.0
 40
37.0
 40
37.0
 40
38.0
 40
38.0
 40
38.0
 40
39.0
 40
39.0
 40
39.0
 40
40.0
 40
40.0
 40
40.0
 40
41.0
 40
41.0
 40
41.0
 40
42.0
 40
42.0
 40
42.0
 40
43.0
 40
43.0
 40
43.0
 40
43.0
 10
51.96271971357182
 20
-38.77265488397003
 30
0.0
 10
51.96271971357182
 20
-38.77265488397003
 30
0.0
 10
54.12055527075806
 20
-40.60957979670525
 30
0.0
 10
54.12055527075806
 20
-40.60957979670525
 30
0.0
 10
54.32278237574222
 20
-40.78097329709642
 30
0.0
 10
54.46868216954255
 20
-40.86658391990488
 30
0.0
 10
54.55825465215905
 20
-40.86658391990488
 30
0.0
 10
54.70846081531595
 20
-40.86658391990488
 30
0.0
 10
54.78356389689439
 20
-40.71069334919733
 30
0.0
 10
54.78356389689439
 20
-40.39891220778222
 30
0.0
 10
54.78356389689439
 20
-40.04492864667279
 30
0.0
 10
54.76185979533732
 20
-39.80342745315679
 30
0.0
 10
54.71862384699743
 20
-39.67423637245992
 30
0.0
 10
54.67521564388328
 20
-39.54504529176305
 30
0.0
 10
54.58426512307268
 20
-39.44806585385327
 30
0.0
 10
54.44560002979138
 20
-39.38347031350483
 30
0.0
 10
54.33294540742371
 20
-39.33024358825772
 30
0.0
 10
54.2535359564887
 20
-39.27322725797683
 30
0.0
 10
54.20737167698636
 20
-39.21293808698496
 30
0.0
 10
54.16103514270974
 20
-39.15247666121883
 30
0.0
 10
54.13795300295857
 20
-39.07461750325218
 30
0.0
 10
54.13795300295857
 20
-38.97901610353649
 30
0.0
 10
54.13795300295857
 20
-38.74302706279688
 30
0.0
 10
54.30400660534761
 20
-38.59144286144589
 30
0.0
 10
54.63628606489996
 20
-38.52409124470925
 30
0.0
 10
54.7720228270188
 20
-38.49601371650447
 30
0.0
 10
55.00887314162973
 20
-38.48188882501495
 30
0.0
 10
55.34683700873273
 20
-38.48188882501495
 30
0.0
 10
55.78315835193963
 20
-38.48188882501495
 30
0.0
 10
56.08494871644751
 20
-38.50721027683153
 30
0.0
 10
56.25255261180492
 20
-38.55768092569044
 30
0.0
 10
56.51834172849195
 20
-38.6364013575284
 30
0.0
 10
56.65115015944833
 20
-38.7852294824912
 30
0.0
 10
56.65115015944833
 20
-39.00433755535308
 30
0.0
 10
56.65115015944833
 20
-39.18692761607132
 30
0.0
 10
56.54280190643722
 20
-39.32455918070706
 30
0.0
 10
56.32627765518927
 20
-39.41723224926028
 30
0.0
 10
56.23963350373523
 20
-39.45375026140393
 30
0.0
 10
56.18037786138893
 20
-39.48613415896527
 30
0.0
 10
56.14851072815038
 20
-39.5140394323958
 30
0.0
 10
56.11681584968608
 20
-39.54228921537484
 30
0.0
 10
56.08925508580408
 20
-39.58431938029489
 30
0.0
 10
56.0661729460529
 20
-39.64047443670447
 30
0.0
 10
55.98831378808626
 20
-39.82582057381091
 30
0.0
 10
55.94766166136031
 20
-40.17704805853213
 30
0.0
 10
55.94490558497211
 20
-40.6938123813196
 30
0.0
 10
55.94490558497211
 20
-40.6938123813196
 30
0.0
 10
55.94490558497211
 20
-42.06719969651445
 30
0.0
 10
55.94490558497211
 20
-42.06719969651445
 30
0.0
 10
55.94490558497211
 20
-42.27786728543748
 30
0.0
 10
55.94628362316621
 20
-42.56587726800436
 30
0.0
 10
55.94921195432867
 20
-42.93105738944085
 30
0.0
 10
55.95214028549113
 20
-43.4254285915742
 30
0.0
 10
55.92182344522094
 20
-43.78199597429756
 30
0.0
 10
55.85826143351807
 20
-44.00110404715945
 30
0.0
 10
55.78023002077717
 20
-44.27361110004271
 30
0.0
 10
55.6386365963334
 20
-44.40986462648434
 30
0.0
 10
55.43365341496104
 20
-44.40986462648434
 30
0.0
 10
55.34408093234454
 20
-44.40986462648434
 30
0.0
 10
55.26673853870068
 20
-44.39143336563826
 30
0.0
 10
55.20179848880372
 20
-44.35508760826887
 30
0.0
 10
55.1366861841325
 20
-44.31856959612522
 30
0.0
 10
55.02902695021844
 20
-44.23433701151086
 30
0.0
 10
54.87899304183581
 20
-44.10221759965153
 30
0.0
 10
54.87899304183581
 20
-44.10221759965153
 30
0.0
 10
52.30929631938795
 20
-41.86497259153029
 30
0.0
 10
52.30929631938795
 20
-41.86497259153029
 30
0.0
 10
52.13015135415496
 20
-41.70770398262863
 30
0.0
 10
51.98149548396643
 20
-41.62915580556493
 30
0.0
 10
51.86298419927384
 20
-41.62915580556493
 30
0.0
 10
51.68676756520331
 20
-41.62915580556493
 30
0.0
 10
51.59874537555518
 20
-41.86652288449865
 30
0.0
 10
51.59874537555518
 20
-42.34108478759181
 30
0.0
 10
51.59874537555518
 20
-42.73158636084489
 30
0.0
 10
51.6211384962093
 20
-42.99840900617748
 30
0.0
 10
51.66592473751755
 20
-43.14172497836388
 30
0.0
 10
51.71071097882579
 20
-43.28486869577601
 30
0.0
 10
51.80235051873344
 20
-43.39028861762466
 30
0.0
 10
51.94101561201475
 20
-43.45764023436129
 30
0.0
 10
52.13445772351152
 20
-43.55031330291451
 30
0.0
 10
52.23143716142131
 20
-43.67106389967251
 30
0.0
 10
52.23143716142131
 20
-43.81989202463531
 30
0.0
 10
52.23143716142131
 20
-44.21039359788838
 30
0.0
 10
51.79942218757098
 20
-44.40555825712778
 30
0.0
 10
50.93573674941884
 20
-44.40555825712778
 30
0.0
 10
50.54575194048856
 20
-44.40555825712778
 30
0.0
 10
50.24310030210937
 20
-44.35560437259166
 30
0.0
 10
50.02795408905551
 20
-44.25604111306794
 30
0.0
 10
49.8126356212274
 20
-44.15630559876995
 30
0.0
 10
49.70514864208761
 20
-44.01522893864897
 30
0.0
 10
49.70514864208761
 20
-43.83263887793073
 30
0.0
 10
49.70514864208761
 20
-43.73720973298931
 30
0.0
 10
49.72530245067632
 20
-43.66555174689611
 30
0.0
 10
49.765782322628
 20
-43.61766491965114
 30
0.0
 10
49.80626219457969
 20
-43.56995034718043
 30
0.0
 10
49.89721271539028
 20
-43.505354806832
 30
0.0
 10
50.03880613983405
 20
-43.42387829860584
 30
0.0
 10
50.1745429019529
 20
-43.34533012154214
 30
0.0
 10
50.25688068405037
 20
-43.20632051871231
 30
0.0
 10
50.28581948612646
 20
-43.00684949011634
 30
0.0
 10
50.33491209679127
 20
-42.64442544506806
 30
0.0
 10
50.35937227473655
 20
-42.12352700769829
 30
0.0
 10
50.35937227473655
 20
-41.44380966845849
 30
0.0
 10
50.35937227473655
 20
-40.71913383313619
 30
0.0
 10
50.31613632639666
 20
-40.19100069524739
 30
0.0
 10
50.22949217494263
 20
-39.85958250956636
 30
0.0
 10
50.19762504170407
 20
-39.73883191280835
 30
0.0
 10
50.15714516975238
 20
-39.64891492064333
 30
0.0
 10
50.10805255908758
 20
-39.59000378784555
 30
0.0
 10
50.05895994842276
 20
-39.53092040027352
 30
0.0
 10
49.97817245929365
 20
-39.47476534386395
 30
0.0
 10
49.86551783692598
 20
-39.42136636384258
 30
0.0
 10
49.7354654823578
 20
-39.3596991546566
 30
0.0
 10
49.64503172586999
 20
-39.29923772889047
 30
0.0
 10
49.59456107701109
 20
-39.2403265960927
 30
0.0
 10
49.54409042815217
 20
-39.18124320852066
 30
0.0
 10
49.51876897633559
 20
-39.10958522242747
 30
0.0
 10
49.51876897633559
 20
-39.02535263781311
 30
0.0
 10
49.51876897633559
 20
-38.75577391609231
 30
0.0
 10
49.75716958391487
 20
-38.58575845389523
 30
0.0
 10
50.23379854429919
 20
-38.51565076077039
 30
0.0
 10
50.39554577733167
 20
-38.49308538534201
 30
0.0
 10
50.67856037144495
 20
-38.48188882501495
 30
0.0
 10
51.08301458141327
 20
-38.48188882501495
 30
0.0
 10
51.31418048847354
 20
-38.48188882501495
 30
0.0
 10
51.48247340292799
 20
-38.49945881198972
 30
0.0
 10
51.58789332477664
 20
-38.53459878593927
 30
0.0
 10
51.69331324662529
 20
-38.56973875988881
 30
0.0
 10
51.81819795796559
 20
-38.64897595604956
 30
0.0
 10
51.96271971357182
 20
-38.77265488397003
 30
0.0
  0
HATCH
  5
49
330
3C
100
AcDbEntity
  8
\U+30EC\U+30A4\U+30E4\U+30FC 1
 62
   250
100
AcDbHatch
 10
0.0
 20
0.0
 30
0.0
210
0.0
220
0.0
230
1.0
  2
SOLID
 70
     1
 71
     0
 91
        1
 92
        1
 93
        1
 72
     4
 94
        3
 73
     0
 74
     1
 95
      134
 96
      130
 40
0.0
 40
0.0
 40
0.0
 40
0.0
 40
1.0
 40
1.0
 40
1.0
 40
2.0
 40
2.0
 40
2.0
 40
3.0
 40
3.0
 40
3.0
 40
4.0
 40
4.0
 40
4.0
 40
5.0
 40
5.0
 40
5.0
 40
6.0
 40
6.0
 40
6.0
 40
7.0
 40
7.0
 40
7.0
 40
8.0
 40
8.0
 40
8.0
 40
9.0
 40
9.0
 40
9.0
 40
10.0
 40
10.0
 40
10.0
 40
11.0
 40
11.0
 40
11.0
 40
12.0
 40
12.0
 40
12.0
 40
13.0
 40
13.0
 40
13.0
 40
14.0
 40
14.0
 40
14.0
 40
15.0
 40
15.0
 40
15.0
 40
16.0
 40
16.0
 40
16.0
 40
17.0
 40
17.0
 40
17.0
 40
18.0
 40
18.0
 40
18.0
 40
19.0
 40
19.0
 40
19.0
 40
20.0
 40
20.0
 40
20.0
 40
21.0
 40
21.0
 40
21.0
 40
22.0
 40
22.0
 40
22.0
 40
23.0
 40
23.0
 40
23.0
 40
24.0
 40
24.0
 40
24.0
 40
25.0
 40
25.0
 40
25.0
 40
26.0
 40
26.0
 40
26.0
 40
27.0
 40
27.0
 40
27.0
 40
28.0
 40
28.0
 40
28.0
 40
29.0
 40
29.0
 40
29.0
 40
30.0
 40
30.0
 40
30.0
 40
31.0
 40
31.0
 40
31.0
 40
32.0
 40
32.0
 40
32.0
 40
33.0
 40
33.0
 40
33.0
 40
34.0
 40
34.0
 40
34.0
 40
35.0
 40
35.0
 40
35.0
 40
36.0
 40
36.0
 40
36.0
 40
37.0
 40
37.0
 40
37.0
 40
38.0
 40
38.0
 40
38.0
 40
39.0
 40
39.0
 40
39.0
 40
40.0
 40
40.0
 40
40.0
 40
41.0
 40
41.0
 40
41.0
 40
42.0
 40
42.0
 40
42.0
 40
43.0
 40
43.0
 40
43.0
 40
43.0
 10
51.96271971357182
 20
-38.77265488397003
 10
51.96271971357182
 20
-38.77265488397003
 10
54.12055527075806
 20
-40.60957979670525
 10
54.12055527075806
 20
-40.60957979670525
 10
54.32278237574222
 20
-40.78097329709642
 10
54.46868216954255
 20
-40.86658391990488
 10
54.55825465215905
 20
-40.86658391990488
 10
54.70846081531595
 20
-40.86658391990488
 10
54.78356389689439
 20
-40.71069334919733
 10
54.78356389689439
 20
-40.39891220778222
 10
54.78356389689439
 20
-40.04492864667279
 10
54.76185979533732
 20
-39.80342745315679
 10
54.71862384699743
 20
-39.67423637245992
 10
54.67521564388328
 20
-39.54504529176305
 10
54.58426512307268
 20
-39.44806585385327
 10
54.44560002979138
 20
-39.38347031350483
 10
54.33294540742371
 20
-39.33024358825772
 10
54.2535359564887
 20
-39.27322725797683
 10
54.20737167698636
 20
-39.21293808698496
 10
54.16103514270974
 20
-39.15247666121883
 10
54.13795300295857
 20
-39.07461750325218
 10
54.13795300295857
 20
-38.97901610353649
 10
54.13795300295857
 20
-38.74302706279688
 10
54.30400660534761
 20
-38.59144286144589
 10
54.63628606489996
 20
-38.52409124470925
 10
54.7720228270188
 20
-38.49601371650447
 10
55.00887314162973
 20
-38.48188882501495
 10
55.34683700873273
 20
-38.48188882501495
 10
55.78315835193963
 20
-38.48188882501495
 10
56.08494871644751
 20
-38.50721027683153
 10
56.25255261180492
 20
-38.55768092569044
 10
56.51834172849195
 20
-38.6364013575284
 10
56.65115015944833
 20
-38.7852294824912
 10
56.65115015944833
 20
-39.00433755535308
 10
56.65115015944833
 20
-39.18692761607132
 10
56.54280190643722
 20
-39.32455918070706
 10
56.32627765518927
 20
-39.41723224926028
 10
56.23963350373523
 20
-39.45375026140393
 10
56.18037786138893
 20
-39.48613415896527
 10
56.14851072815038
 20
-39.5140394323958
 10
56.11681584968608
 20
-39.54228921537484
 10
56.08925508580408
 20
-39.58431938029489
 10
56.0661729460529
 20
-39.64047443670447
 10
55.98831378808626
 20
-39.82582057381091
 10
55.94766166136031
 20
-40.17704805853213
 10
55.94490558497211
 20
-40.6938123813196
 10
55.94490558497211
 20
-40.6938123813196
 10
55.94490558497211
 20
-42.06719969651445
 10
55.94490558497211
 20
-42.06719969651445
 10
55.94490558497211
 20
-42.27786728543748
 10
55.94628362316621
 20
-42.56587726800436
 10
55.94921195432867
 20
-42.93105738944085
 10
55.95214028549113
 20
-43.4254285915742
 10
55.92182344522094
 20
-43.78199597429756
 10
55.85826143351807
 20
-44.00110404715945
 10
55.78023002077717
 20
-44.27361110004271
 10
55.6386365963334
 20
-44.40986462648434
 10
55.43365341496104
 20
-44.40986462648434
 10
55.34408093234454
 20
-44.40986462648434
 10
55.26673853870068
 20
-44.39143336563826
 10
55.20179848880372
 20
-44.35508760826887
 10
55.1366861841325
 20
-44.31856959612522
 10
55.02902695021844
 20
-44.23433701151086
 10
54.87899304183581
 20
-44.10221759965153
 10
54.87899304183581
 20
-44.10221759965153
 10
52.30929631938795
 20
-41.86497259153029
 10
52.30929631938795
 20
-41.86497259153029
 10
52.13015135415496
 20
-41.70770398262863
 10
51.98149548396643
 20
-41.62915580556493
 10
51.86298419927384
 20
-41.62915580556493
 10
51.68676756520331
 20
-41.62915580556493
 10
51.59874537555518
 20
-41.86652288449865
 10
51.59874537555518
 20
-42.34108478759181
 10
51.59874537555518
 20
-42.73158636084489
 10
51.6211384962093
 20
-42.99840900617748
 10
51.66592473751755
 20
-43.14172497836388
 10
51.71071097882579
 20
-43.28486869577601
 10
51.80235051873344
 20
-43.39028861762466
 10
51.94101561201475
 20
-43.45764023436129
 10
52.13445772351152
 20
-43.55031330291451
 10
52.23143716142131
 20
-43.67106389967251
 10
52.23143716142131
 20
-43.81989202463531
 10
52.23143716142131
 20
-44.21039359788838
 10
51.79942218757098
 20
-44.40555825712778
 10
50.93573674941884
 20
-44.40555825712778
 10
50.54575194048856
 20
-44.40555825712778
 10
50.24310030210937
 20
-44.35560437259166
 10
50.02795408905551
 20
-44.25604111306794
 10
49.8126356212274
 20
-44.15630559876995
 10
49.70514864208761
 20
-44.01522893864897
 10
49.70514864208761
 20
-43.83263887793073
 10
49.70514864208761
 20
-43.73720973298931
 10
49.72530245067632
 20
-43.66555174689611
 10
49.765782322628
 20
-43.61766491965114
 10
49.80626219457969
 20
-43.56995034718043
 10
49.89721271539028
 20
-43.505354806832
 10
50.03880613983405
 20
-43.42387829860584
 10
50.1745429019529
 20
-43.34533012154214
 10
50.25688068405037
 20
-43.20632051871231
 10
50.28581948612646
 20
-43.00684949011634
 10
50.33491209679127
 20
-42.64442544506806
 10
50.35937227473655
 20
-42.12352700769829
 10
50.35937227473655
 20
-41.44380966845849
 10
50.35937227473655
 20
-40.71913383313619
 10
50.31613632639666
 20
-40.19100069524739
 10
50.22949217494263
 20
-39.85958250956636
 10
50.19762504170407
 20
-39.73883191280835
 10
50.15714516975238
 20
-39.64891492064333
 10
50.10805255908758
 20
-39.59000378784555
 10
50.05895994842276
 20
-39.53092040027352
 10
49.97817245929365
 20
-39.47476534386395
 10
49.86551783692598
 20
-39.42136636384258
 10
49.7354654823578
 20
-39.3596991546566
 10
49.64503172586999
 20
-39.29923772889047
 10
49.59456107701109
 20
-39.2403265960927
 10
49.54409042815217
 20
-39.18124320852066
 10
49.51876897633559
 20
-39.10958522242747
 10
49.51876897633559
 20
-39.02535263781311
 10
49.51876897633559
 20
-38.75577391609231
 10
49.75716958391487
 20
-38.58575845389523
 10
50.23379854429919
 20
-38.51565076077039
 10
50.39554577733167
 20
-38.49308538534201
 10
50.67856037144495
 20
-38.48188882501495
 10
51.08301458141327
 20
-38.48188882501495
 10
51.31418048847354
 20
-38.48188882501495
 10
51.48247340292799
 20
-38.49945881198972
 10
51.58789332477664
 20
-38.53459878593927
 10
51.69331324662529
 20
-38.56973875988881
 10
51.81819795796559
 20
-38.64897595604956
 10
51.96271971357182
 20
-38.77265488397003
 97
        0
 75
     2
 76
     1
 98
        0
  0
ENDBLK
  5
3F
330
3C
100
AcDbEntity
  8
0
100
AcDbBlockEnd
  0
BLOCK
  5
4C
330
4A
100
AcDbEntity
  8
0
100
AcDbBlockBegin
  2
block 3
 70
     0
 71
     0
 10
0.0
 20
0.0
 30
0.0
  3
block 3
  1

  0
SPLINE
  5
4E
330
4A
100
AcDbEntity
  8
\U+30EC\U+30A4\U+30E4\U+30FC 1
 62
   250
370
     5
100
AcDbSpline
210
0.0
220
0.0
230
1.0
 70
    11
 71
     3
 72
    86
 73
    82
 74
     0
 42
0.0000000001
 43
0.0000000001
 40
0.0
 40
0.0
 40
0.0
 40
0.0
 40
1.0
 40
1.0
 40
1.0
 40
2.0
 40
2.0
 40
2.0
 40
3.0
 40
3.0
 40
3.0
 40
4.0
 40
4.0
 40
4.0
 40
5.0
 40
5.0
 40
5.0
 40
6.0
 40
6.0
 40
6.0
 40
7.0
 40
7.0
 40
7.0
 40
8.0
 40
8.0
 40
8.0
 40
9.0
 40
9.0
 40
9.0
 40
10.0
 40
10.0
 40
10.0
 40
11.0
 40
11.0
 40
11.0
 40
12.0
 40
12.0
 40
12.0
 40
13.0
 40
13.0
 40
13.0
 40
14.0
 40
14.0
 40
14.0
 40
15.0
 40
15.0
 40
15.0
 40
16.0
 40
16.0
 40
16.0
 40
17.0
 40
17.0
 40
17.0
 40
18.0
 40
18.0
 40
18.0
 40
19.0
 40
19.0
 40
19.0
 40
20.0
 40
20.0
 40
20.0
 40
21.0
 40
21.0
 40
21.0
 40
22.0
 40
22.0
 40
22.0
 40
23.0
 40
23.0
 40
23.0
 40
24.0
 40
24.0
 40
24.0
 40
25.0
 40
25.0
 40
25.0
 40
26.0
 40
26.0
 40
26.0
 40
27.0
 40
27.0
 40
27.0
 40
27.0
 10
31.23030733811256
 20
-47.05810952599589
 30
0.0
 10
31.20739745313565
 20
-47.01177299171928
 30
0.0
 10
31.16502277866708
 20
-46.90497503167654
 30
0.0
 10
31.09594861418782
 20
-46.90497503167654
 30
0.0
 10
30.9770928199467
 20
-46.90497503167654
 30
0.0
 10
31.01533337983297
 20
-47.37471380109035
 30
0.0
 10
31.01533337983297
 20
-47.49219155713737
 30
0.0
 10
31.01533337983297
 20
-47.87287460825748
 30
0.0
 10
31.26096868793129
 20
-47.69493542644432
 30
0.0
 10
31.26096868793129
 20
-47.88717175452126
 30
0.0
 10
31.26096868793129
 20
-48.08991562382822
 30
0.0
 10
30.85031330608951
 20
-48.09697806957298
 30
0.0
 10
30.7006239072554
 20
-48.09697806957298
 30
0.0
 10
30.56643743810492
 20
-48.09697806957298
 30
0.0
 10
30.21710475590059
 20
-48.08629827356871
 30
0.0
 10
30.21710475590059
 20
-47.90129664601079
 30
0.0
 10
30.21710475590059
 20
-47.69855277670383
 30
0.0
 10
30.44740938908954
 20
-47.86581216251272
 30
0.0
 10
30.47807073890826
 20
-47.57401257491205
 30
0.0
 10
30.50873208872698
 20
-47.27515054156663
 30
0.0
 10
30.54335529835375
 20
-46.94424912020838
 30
0.0
 10
30.54335529835375
 20
-46.42817381651796
 30
0.0
 10
30.54335529835375
 20
-46.21475015120673
 30
0.0
 10
30.52802462344438
 20
-46.10450709567873
 30
0.0
 10
30.48582220375008
 20
-46.02268607790405
 30
0.0
 10
30.44740938908954
 20
-45.94792750587413
 30
0.0
 10
30.22864582577617
 20
-45.92295056360607
 30
0.0
 10
30.22864582577617
 20
-45.77705076980574
 30
0.0
 10
30.22864582577617
 20
-45.57430690049878
 30
0.0
 10
30.58555771804806
 20
-45.52452527073692
 30
0.0
 10
30.89251572578382
 20
-45.52452527073692
 30
0.0
 10
31.34158392228613
 20
-45.52452527073692
 30
0.0
 10
31.33400471221858
 20
-45.59566649250733
 30
0.0
 10
31.44907090142593
 20
-45.77705076980574
 30
0.0
 10
31.58342962535067
 20
-45.98702933963172
 30
0.0
 10
31.82131346860717
 20
-46.57062851483304
 30
0.0
 10
31.99029540215868
 20
-46.60611299833111
 30
0.0
 10
32.10932345117406
 20
-46.63108994059917
 30
0.0
 10
32.26659206007572
 20
-46.20045300494294
 30
0.0
 10
32.40474038903423
 20
-45.96566974762317
 30
0.0
 10
32.60059406737069
 20
-45.63115097600541
 30
0.0
 10
32.60438367240446
 20
-45.52452527073692
 30
0.0
 10
33.11098496351045
 20
-45.52452527073692
 30
0.0
 10
33.27979464228769
 20
-45.52452527073692
 30
0.0
 10
33.66375053411878
 20
-45.5352050667412
 30
0.0
 10
33.66375053411878
 20
-45.7593085280567
 30
0.0
 10
33.66375053411878
 20
-45.90159097159752
 30
0.0
 10
33.49097899553351
 20
-45.93018526412509
 30
0.0
 10
33.45256618087297
 20
-46.05110811565736
 30
0.0
 10
33.42190483105425
 20
-46.15067137518108
 30
0.0
 10
33.3950330862693
 20
-46.57062851483304
 30
0.0
 10
33.3950330862693
 20
-46.73065320012289
 30
0.0
 10
33.3950330862693
 20
-46.78405218014426
 30
0.0
 10
33.41811522602048
 20
-47.17541502726865
 30
0.0
 10
33.43344590092983
 20
-47.5063164486269
 30
0.0
 10
33.44481471603116
 20
-47.76607664821474
 30
0.0
 10
33.67511934922011
 20
-47.70923257270811
 30
0.0
 10
33.67511934922011
 20
-47.86925725799797
 30
0.0
 10
33.67511934922011
 20
-48.10765786557725
 30
0.0
 10
33.14939777817099
 20
-48.09697806957298
 30
0.0
 10
32.98041584461948
 20
-48.09697806957298
 30
0.0
 10
32.82314723571783
 20
-48.09697806957298
 30
0.0
 10
32.29725340989444
 20
-48.11127521583677
 30
0.0
 10
32.29725340989444
 20
-47.88355440426175
 30
0.0
 10
32.29725340989444
 20
-47.75901420246997
 30
0.0
 10
32.47002494847972
 20
-47.73765461046142
 30
0.0
 10
32.49689669326467
 20
-47.62379420467391
 30
0.0
 10
32.51222736817403
 20
-47.56333277890778
 30
0.0
 10
32.5890529974951
 20
-46.95131156595315
 30
0.0
 10
32.45469427357035
 20
-46.95131156595315
 30
0.0
 10
32.33566622455498
 20
-46.95131156595315
 30
0.0
 10
32.21284857050582
 20
-47.26447074556236
 30
0.0
 10
32.12069226627538
 20
-47.44585502286076
 30
0.0
 10
32.03628742688677
 20
-47.60949705841013
 30
0.0
 10
31.89813909792824
 20
-48.0151570517983
 30
0.0
 10
31.77532144387909
 20
-48.00085990553451
 30
0.0
 10
31.71399874424164
 20
-47.99379745978975
 30
0.0
 10
31.68316513964865
 20
-48.00085990553451
 30
0.0
 10
31.45303276123397
 20
-47.52061359489068
 30
0.0
 10
31.45303276123397
 20
-47.52061359489068
 30
0.0
 10
31.23030733811256
 20
-47.05810952599589
 30
0.0
 10
31.23030733811256
 20
-47.05810952599589
 30
0.0
  0
HATCH
  5
4F
330
4A
100
AcDbEntity
  8
\U+30EC\U+30A4\U+30E4\U+30FC 1
 62
   250
100
AcDbHatch
 10
0.0
 20
0.0
 30
0.0
210
0.0
220
0.0
230
1.0
  2
SOLID
 70
     1
 71
     0
 91
        1
 92
        1
 93
        1
 72
     4
 94
        3
 73
     0
 74
     1
 95
       86
 96
       82
 40
0.0
 40
0.0
 40
0.0
 40
0.0
 40
1.0
 40
1.0
 40
1.0
 40
2.0
 40
2.0
 40
2.0
 40
3.0
 40
3.0
 40
3.0
 40
4.0
 40
4.0
 40
4.0
 40
5.0
 40
5.0
 40
5.0
 40
6.0
 40
6.0
 40
6.0
 40
7.0
 40
7.0
 40
7.0
 40
8.0
 40
8.0
 40
8.0
 40
9.0
 40
9.0
 40
9.0
 40
10.0
 40
10.0
 40
10.0
 40
11.0
 40
11.0
 40
11.0
 40
12.0
 40
12.0
 40
12.0
 40
13.0
 40
13.0
 40
13.0
 40
14.0
 40
14.0
 40
14.0
 40
15.0
 40
15.0
 40
15.0
 40
16.0
 40
16.0
 40
16.0
 40
17.0
 40
17.0
 40
17.0
 40
18.0
 40
18.0
 40
18.0
 40
19.0
 40
19.0
 40
19.0
 40
20.0
 40
20.0
 40
20.0
 40
21.0
 40
21.0
 40
21.0
 40
22.0
 40
22.0
 40
22.0
 40
23.0
 40
23.0
 40
23.0
 40
24.0
 40
24.0
 40
24.0
 40
25.0
 40
25.0
 40
25.0
 40
26.0
 40
26.0
 40
26.0
 40
27.0
 40
27.0
 40
27.0
 40
27.0
 10
31.23030733811256
 20
-47.05810952599589
 10
31.20739745313565
 20
-47.01177299171928
 10
31.16502277866708
 20
-46.90497503167654
 10
31.09594861418782
 20
-46.90497503167654
 10
30.9770928199467
 20
-46.90497503167654
 10
31.01533337983297
 20
-47.37471380109035
 10
31.01533337983297
 20
-47.49219155713737
 10
31.01533337983297
 20
-47.87287460825748
 10
31.26096868793129
 20
-47.69493542644432
 10
31.26096868793129
 20
-47.88717175452126
 10
31.26096868793129
 20
-48.08991562382822
 10
30.85031330608951
 20
-48.09697806957298
 10
30.7006239072554
 20
-48.09697806957298
 10
30.56643743810492
 20
-48.09697806957298
 10
30.21710475590059
 20
-48.08629827356871
 10
30.21710475590059
 20
-47.90129664601079
 10
30.21710475590059
 20
-47.69855277670383
 10
30.44740938908954
 20
-47.86581216251272
 10
30.47807073890826
 20
-47.57401257491205
 10
30.50873208872698
 20
-47.27515054156663
 10
30.54335529835375
 20
-46.94424912020838
 10
30.54335529835375
 20
-46.42817381651796
 10
30.54335529835375
 20
-46.21475015120673
 10
30.52802462344438
 20
-46.10450709567873
 10
30.48582220375008
 20
-46.02268607790405
 10
30.44740938908954
 20
-45.94792750587413
 10
30.22864582577617
 20
-45.92295056360607
 10
30.22864582577617
 20
-45.77705076980574
 10
30.22864582577617
 20
-45.57430690049878
 10
30.58555771804806
 20
-45.52452527073692
 10
30.89251572578382
 20
-45.52452527073692
 10
31.34158392228613
 20
-45.52452527073692
 10
31.33400471221858
 20
-45.59566649250733
 10
31.44907090142593
 20
-45.77705076980574
 10
31.58342962535067
 20
-45.98702933963172
 10
31.82131346860717
 20
-46.57062851483304
 10
31.99029540215868
 20
-46.60611299833111
 10
32.10932345117406
 20
-46.63108994059917
 10
32.26659206007572
 20
-46.20045300494294
 10
32.40474038903423
 20
-45.96566974762317
 10
32.60059406737069
 20
-45.63115097600541
 10
32.60438367240446
 20
-45.52452527073692
 10
33.11098496351045
 20
-45.52452527073692
 10
33.27979464228769
 20
-45.52452527073692
 10
33.66375053411878
 20
-45.5352050667412
 10
33.66375053411878
 20
-45.7593085280567
 10
33.66375053411878
 20
-45.90159097159752
 10
33.49097899553351
 20
-45.93018526412509
 10
33.45256618087297
 20
-46.05110811565736
 10
33.42190483105425
 20
-46.15067137518108
 10
33.3950330862693
 20
-46.57062851483304
 10
33.3950330862693
 20
-46.73065320012289
 10
33.3950330862693
 20
-46.78405218014426
 10
33.41811522602048
 20
-47.17541502726865
 10
33.43344590092983
 20
-47.5063164486269
 10
33.44481471603116
 20
-47.76607664821474
 10
33.67511934922011
 20
-47.70923257270811
 10
33.67511934922011
 20
-47.86925725799797
 10
33.67511934922011
 20
-48.10765786557725
 10
33.14939777817099
 20
-48.09697806957298
 10
32.98041584461948
 20
-48.09697806957298
 10
32.82314723571783
 20
-48.09697806957298
 10
32.29725340989444
 20
-48.11127521583677
 10
32.29725340989444
 20
-47.88355440426175
 10
32.29725340989444
 20
-47.75901420246997
 10
32.47002494847972
 20
-47.73765461046142
 10
32.49689669326467
 20
-47.62379420467391
 10
32.51222736817403
 20
-47.56333277890778
 10
32.5890529974951
 20
-46.95131156595315
 10
32.45469427357035
 20
-46.95131156595315
 10
32.33566622455498
 20
-46.95131156595315
 10
32.21284857050582
 20
-47.26447074556236
 10
32.12069226627538
 20
-47.44585502286076
 10
32.03628742688677
 20
-47.60949705841013
 10
31.89813909792824
 20
-48.0151570517983
 10
31.77532144387909
 20
-48.00085990553451
 10
31.71399874424164
 20
-47.99379745978975
 10
31.68316513964865
 20
-48.00085990553451
 10
31.45303276123397
 20
-47.52061359489068
 10
31.45303276123397
 20
-47.52061359489068
 10
31.23030733811256
 20
-47.05810952599589
 10
31.23030733811256
 20
-47.05810952599589
 97
        0
 75
     2
 76
     1
 98
        0
  0
SPLINE
  5
50
330
4A
100
AcDbEntity
  8
\U+30EC\U+30A4\U+30E4\U+30FC 1
 62
   250
370
     5
100
AcDbSpline
210
0.0
220
0.0
230
1.0
 70
    11
 71
     3
 72
    47
 73
    43
 74
     0
 42
0.0000000001
 43
0.0000000001
 40
0.0
 40
0.0
 40
0.0
 40
0.0
 40
1.0
 40
1.0
 40
1.0
 40
2.0
 40
2.0
 40
2.0
 40
3.0
 40
3.0
 40
3.0
 40
4.0
 40
4.0
 40
4.0
 40
5.0
 40
5.0
 40
5.0
 40
6.0
 40
6.0
 40
6.0
 40
7.0
 40
7.0
 40
7.0
 40
8.0
 40
8.0
 40
8.0
 40
9.0
 40
9.0
 40
9.0
 40
10.0
 40
10.0
 40
10.0
 40
11.0
 40
11.0
 40
11.0
 40
12.0
 40
12.0
 40
12.0
 40
13.0
 40
13.0
 40
13.0
 40
14.0
 40
14.0
 40
14.0
 40
14.0
 10
35.73132458959147
 20
-47.20745441528148
 30
0.0
 10
35.73132458959147
 20
-47.83377277449989
 30
0.0
 10
35.96162922278043
 20
-47.49219155713737
 30
0.0
 10
35.96162922278043
 20
-47.68425563044005
 30
0.0
 10
35.96162922278043
 20
-47.88717175452126
 30
0.0
 10
35.66225042511222
 20
-48.10765786557725
 30
0.0
 10
35.38199190738715
 20
-48.10765786557725
 30
0.0
 10
35.07882350468515
 20
-48.10765786557725
 30
0.0
 10
35.07107203984334
 20
-47.92627358827885
 30
0.0
 10
34.97512613057913
 20
-47.92627358827885
 30
0.0
 10
34.92913410585105
 20
-47.92627358827885
 30
0.0
 10
34.87918022131493
 20
-47.9724378677812
 30
0.0
 10
34.79477538192631
 20
-48.0151570517983
 30
0.0
 10
34.71037054253769
 20
-48.06149358607491
 30
0.0
 10
34.59530435333034
 20
-48.10765786557725
 30
0.0
 10
34.41874320971129
 20
-48.10765786557725
 30
0.0
 10
34.10007187732568
 20
-48.10765786557725
 30
0.0
 10
33.78157279971433
 20
-47.95107827577265
 30
0.0
 10
33.78157279971433
 20
-47.59881726240585
 30
0.0
 10
33.78157279971433
 20
-47.34629176333704
 30
0.0
 10
34.042538782722
 20
-47.03313258372783
 30
0.0
 10
34.7181220073795
 20
-47.03313258372783
 30
0.0
 10
34.83697780162062
 20
-47.03313258372783
 30
0.0
 10
34.89072129119052
 20
-47.04019502947259
 30
0.0
 10
34.89072129119052
 20
-46.91220973219556
 30
0.0
 10
34.89072129119052
 20
-46.79473197614854
 30
0.0
 10
34.88693168615674
 20
-46.54926892282449
 30
0.0
 10
34.71037054253769
 20
-46.54926892282449
 30
0.0
 10
34.48006590934874
 20
-46.54926892282449
 30
0.0
 10
34.45698376959756
 20
-46.93356932420411
 30
0.0
 10
34.11540255223504
 20
-46.93356932420411
 30
0.0
 10
33.99258489818588
 20
-46.93356932420411
 30
0.0
 10
33.90060084872971
 20
-46.85174830642943
 30
0.0
 10
33.90060084872971
 20
-46.73788790064192
 30
0.0
 10
33.90060084872971
 20
-46.43540851703698
 30
0.0
 10
34.54914007382799
 20
-46.23972709347479
 30
0.0
 10
34.91380343094169
 20
-46.23972709347479
 30
0.0
 10
35.13256699425506
 20
-46.23972709347479
 30
0.0
 10
35.73132458959147
 20
-46.31793076098997
 30
0.0
 10
35.73132458959147
 20
-46.85174830642943
 30
0.0
 10
35.73132458959147
 20
-46.85174830642943
 30
0.0
 10
35.73132458959147
 20
-47.20745441528148
 30
0.0
 10
35.73132458959147
 20
-47.20745441528148
 30
0.0
  0
SPLINE
  5
51
330
4A
100
AcDbEntity
  8
\U+30EC\U+30A4\U+30E4\U+30FC 1
 62
   250
370
     5
100
AcDbSpline
210
0.0
220
0.0
230
1.0
 70
    11
 71
     3
 72
    17
 73
    13
 74
     0
 42
0.0000000001
 43
0.0000000001
 40
0.0
 40
0.0
 40
0.0
 40
0.0
 40
1.0
 40
1.0
 40
1.0
 40
2.0
 40
2.0
 40
2.0
 40
3.0
 40
3.0
 40
3.0
 40
4.0
 40
4.0
 40
4.0
 40
4.0
 10
34.57980142364672
 20
-47.52061359489068
 30
0.0
 10
34.57980142364672
 20
-47.61311440866964
 30
0.0
 10
34.63354491321662
 20
-47.71267766819336
 30
0.0
 10
34.74499375216445
 20
-47.71267766819336
 30
0.0
 10
34.89072129119052
 20
-47.71267766819336
 30
0.0
 10
34.9022623610661
 20
-47.56677787439303
 30
0.0
 10
34.9022623610661
 20
-47.46015216912455
 30
0.0
 10
34.9022623610661
 20
-47.38177624683512
 30
0.0
 10
34.90605196609988
 20
-47.29289278331566
 30
0.0
 10
34.79856498696008
 20
-47.29289278331566
 30
0.0
 10
34.66816812284338
 20
-47.29289278331566
 30
0.0
 10
34.57980142364672
 20
-47.40675318910318
 30
0.0
 10
34.57980142364672
 20
-47.52061359489068
 30
0.0
  0
HATCH
  5
52
330
4A
100
AcDbEntity
  8
\U+30EC\U+30A4\U+30E4\U+30FC 1
 62
   250
100
AcDbHatch
 10
0.0
 20
0.0
 30
0.0
210
0.0
220
0.0
230
1.0
  2
SOLID
 70
     1
 71
     0
 91
        2
 92
        1
 93
        1
 72
     4
 94
        3
 73
     0
 74
     1
 95
       47
 96
       43
 40
0.0
 40
0.0
 40
0.0
 40
0.0
 40
1.0
 40
1.0
 40
1.0
 40
2.0
 40
2.0
 40
2.0
 40
3.0
 40
3.0
 40
3.0
 40
4.0
 40
4.0
 40
4.0
 40
5.0
 40
5.0
 40
5.0
 40
6.0
 40
6.0
 40
6.0
 40
7.0
 40
7.0
 40
7.0
 40
8.0
 40
8.0
 40
8.0
 40
9.0
 40
9.0
 40
9.0
 40
10.0
 40
10.0
 40
10.0
 40
11.0
 40
11.0
 40
11.0
 40
12.0
 40
12.0
 40
12.0
 40
13.0
 40
13.0
 40
13.0
 40
14.0
 40
14.0
 40
14.0
 40
14.0
 10
35.73132458959147
 20
-47.20745441528148
 10
35.73132458959147
 20
-47.83377277449989
 10
35.96162922278043
 20
-47.49219155713737
 10
35.96162922278043
 20
-47.68425563044005
 10
35.96162922278043
 20
-47.88717175452126
 10
35.66225042511222
 20
-48.10765786557725
 10
35.38199190738715
 20
-48.10765786557725
 10
35.07882350468515
 20
-48.10765786557725
 10
35.07107203984334
 20
-47.92627358827885
 10
34.97512613057913
 20
-47.92627358827885
 10
34.92913410585105
 20
-47.92627358827885
 10
34.87918022131493
 20
-47.9724378677812
 10
34.79477538192631
 20
-48.0151570517983
 10
34.71037054253769
 20
-48.06149358607491
 10
34.59530435333034
 20
-48.10765786557725
 10
34.41874320971129
 20
-48.10765786557725
 10
34.10007187732568
 20
-48.10765786557725
 10
33.78157279971433
 20
-47.95107827577265
 10
33.78157279971433
 20
-47.59881726240585
 10
33.78157279971433
 20
-47.34629176333704
 10
34.042538782722
 20
-47.03313258372783
 10
34.7181220073795
 20
-47.03313258372783
 10
34.83697780162062
 20
-47.03313258372783
 10
34.89072129119052
 20
-47.04019502947259
 10
34.89072129119052
 20
-46.91220973219556
 10
34.89072129119052
 20
-46.79473197614854
 10
34.88693168615674
 20
-46.54926892282449
 10
34.71037054253769
 20
-46.54926892282449
 10
34.48006590934874
 20
-46.54926892282449
 10
34.45698376959756
 20
-46.93356932420411
 10
34.11540255223504
 20
-46.93356932420411
 10
33.99258489818588
 20
-46.93356932420411
 10
33.90060084872971
 20
-46.85174830642943
 10
33.90060084872971
 20
-46.73788790064192
 10
33.90060084872971
 20
-46.43540851703698
 10
34.54914007382799
 20
-46.23972709347479
 10
34.91380343094169
 20
-46.23972709347479
 10
35.13256699425506
 20
-46.23972709347479
 10
35.73132458959147
 20
-46.31793076098997
 10
35.73132458959147
 20
-46.85174830642943
 10
35.73132458959147
 20
-46.85174830642943
 10
35.73132458959147
 20
-47.20745441528148
 10
35.73132458959147
 20
-47.20745441528148
 97
        0
 92
        1
 93
        1
 72
     4
 94
        3
 73
     0
 74
     1
 95
       17
 96
       13
 40
0.0
 40
0.0
 40
0.0
 40
0.0
 40
1.0
 40
1.0
 40
1.0
 40
2.0
 40
2.0
 40
2.0
 40
3.0
 40
3.0
 40
3.0
 40
4.0
 40
4.0
 40
4.0
 40
4.0
 10
34.57980142364672
 20
-47.52061359489068
 10
34.57980142364672
 20
-47.61311440866964
 10
34.63354491321662
 20
-47.71267766819336
 10
34.74499375216445
 20
-47.71267766819336
 10
34.89072129119052
 20
-47.71267766819336
 10
34.9022623610661
 20
-47.56677787439303
 10
34.9022623610661
 20
-47.46015216912455
 10
34.9022623610661
 20
-47.38177624683512
 10
34.90605196609988
 20
-47.29289278331566
 10
34.79856498696008
 20
-47.29289278331566
 10
34.66816812284338
 20
-47.29289278331566
 10
34.57980142364672
 20
-47.40675318910318
 10
34.57980142364672
 20
-47.52061359489068
 97
        0
 75
     2
 76
     1
 98
        0
  0
SPLINE
  5
53
330
4A
100
AcDbEntity
  8
\U+30EC\U+30A4\U+30E4\U+30FC 1
 62
   250
370
     5
100
AcDbSpline
210
0.0
220
0.0
230
1.0
 70
    11
 71
     3
 72
    65
 73
    61
 74
     0
 42
0.0000000001
 43
0.0000000001
 40
0.0
 40
0.0
 40
0.0
 40
0.0
 40
1.0
 40
1.0
 40
1.0
 40
2.0
 40
2.0
 40
2.0
 40
3.0
 40
3.0
 40
3.0
 40
4.0
 40
4.0
 40
4.0
 40
5.0
 40
5.0
 40
5.0
 40
6.0
 40
6.0
 40
6.0
 40
7.0
 40
7.0
 40
7.0
 40
8.0
 40
8.0
 40
8.0
 40
9.0
 40
9.0
 40
9.0
 40
10.0
 40
10.0
 40
10.0
 40
11.0
 40
11.0
 40
11.0
 40
12.0
 40
12.0
 40
12.0
 40
13.0
 40
13.0
 40
13.0
 40
14.0
 40
14.0
 40
14.0
 40
15.0
 40
15.0
 40
15.0
 40
16.0
 40
16.0
 40
16.0
 40
17.0
 40
17.0
 40
17.0
 40
18.0
 40
18.0
 40
18.0
 40
19.0
 40
19.0
 40
19.0
 40
20.0
 40
20.0
 40
20.0
 40
20.0
 10
37.15828313958196
 20
-47.4635972646098
 30
0.0
 10
37.15828313958196
 20
-47.80879583223183
 30
0.0
 10
37.28868000369867
 20
-47.74833440646569
 30
0.0
 10
37.28868000369867
 20
-47.88355440426175
 30
0.0
 10
37.28868000369867
 20
-48.104212770092
 30
0.0
 10
36.7782891075589
 20
-48.09697806957298
 30
0.0
 10
36.62084824388298
 20
-48.09697806957298
 30
0.0
 10
36.4673692400151
 20
-48.09697806957298
 30
0.0
 10
36.07600639289073
 20
-48.09697806957298
 30
0.0
 10
36.07600639289073
 20
-47.88355440426175
 30
0.0
 10
36.07600639289073
 20
-47.71267766819336
 30
0.0
 10
36.25239528173552
 20
-47.86581216251272
 30
0.0
 10
36.2639363516111
 20
-47.51699624463117
 30
0.0
 10
36.2639363516111
 20
-47.51699624463117
 30
0.0
 10
36.27926702652046
 20
-46.98335095396597
 30
0.0
 10
36.27926702652046
 20
-46.98335095396597
 30
0.0
 10
36.28701849136228
 20
-46.71997340411862
 30
0.0
 10
36.05292425313955
 20
-46.80541177215282
 30
0.0
 10
36.05292425313955
 20
-46.61679279433539
 30
0.0
 10
36.05292425313955
 20
-46.42817381651796
 30
0.0
 10
36.93555771646056
 20
-46.25040688947907
 30
0.0
 10
37.01238334578163
 20
-46.25040688947907
 30
0.0
 10
37.09678818517025
 20
-46.25040688947907
 30
0.0
 10
37.15053167474014
 20
-46.31793076098997
 30
0.0
 10
37.15053167474014
 20
-46.38907198276037
 30
0.0
 10
37.15053167474014
 20
-46.41043157476892
 30
0.0
 10
37.14674206970637
 20
-46.43179116677747
 30
0.0
 10
37.14674206970637
 20
-46.45315075878602
 30
0.0
 10
37.14674206970637
 20
-46.49586994280312
 30
0.0
 10
37.16586234964951
 20
-46.54565157256498
 30
0.0
 10
37.22356769902744
 20
-46.54565157256498
 30
0.0
 10
37.28489039866489
 20
-46.54565157256498
 30
0.0
 10
37.31951360829165
 20
-46.47089300053506
 30
0.0
 10
37.39616698283846
 20
-46.3963066832794
 30
0.0
 10
37.47299261215953
 20
-46.32499320673472
 30
0.0
 10
37.58805880136688
 20
-46.25040688947907
 30
0.0
 10
37.80682236468024
 20
-46.25040688947907
 30
0.0
 10
38.60143363835311
 20
-46.25040688947907
 30
0.0
 10
38.46707491442837
 20
-46.9726711579617
 30
0.0
 10
38.50548772908891
 20
-47.51355114914592
 30
0.0
 10
38.52460800903204
 20
-47.79449868596804
 30
0.0
 10
38.6818766179337
 20
-47.73059216471666
 30
0.0
 10
38.6818766179337
 20
-47.88355440426175
 30
0.0
 10
38.6818766179337
 20
-47.9476331802874
 30
0.0
 10
38.69737954761732
 20
-48.09697806957298
 30
0.0
 10
37.97580429823174
 20
-48.09697806957298
 30
0.0
 10
37.83765596927323
 20
-48.09697806957298
 30
0.0
 10
37.46920300712576
 20
-48.104212770092
 30
0.0
 10
37.46920300712576
 20
-47.9049139962703
 30
0.0
 10
37.46920300712576
 20
-47.77675644421901
 30
0.0
 10
37.59581026620869
 20
-47.83721786998514
 30
0.0
 10
37.61493054615183
 20
-47.60605196292488
 30
0.0
 10
37.63422308086923
 20
-47.3533542090818
 30
0.0
 10
37.74171006000902
 20
-46.78405218014426
 30
0.0
 10
37.3808363079291
 20
-46.78405218014426
 30
0.0
 10
37.13520099983079
 20
-46.78405218014426
 30
0.0
 10
37.15828313958196
 20
-47.02951523346832
 30
0.0
 10
37.15828313958196
 20
-47.18971217353243
 30
0.0
 10
37.15828313958196
 20
-47.18971217353243
 30
0.0
 10
37.15828313958196
 20
-47.4635972646098
 30
0.0
 10
37.15828313958196
 20
-47.4635972646098
 30
0.0
  0
HATCH
  5
54
330
4A
100
AcDbEntity
  8
\U+30EC\U+30A4\U+30E4\U+30FC 1
 62
   250
100
AcDbHatch
 10
0.0
 20
0.0
 30
0.0
210
0.0
220
0.0
230
1.0
  2
SOLID
 70
     1
 71
     0
 91
        1
 92
        1
 93
        1
 72
     4
 94
        3
 73
     0
 74
     1
 95
       65
 96
       61
 40
0.0
 40
0.0
 40
0.0
 40
0.0
 40
1.0
 40
1.0
 40
1.0
 40
2.0
 40
2.0
 40
2.0
 40
3.0
 40
3.0
 40
3.0
 40
4.0
 40
4.0
 40
4.0
 40
5.0
 40
5.0
 40
5.0
 40
6.0
 40
6.0
 40
6.0
 40
7.0
 40
7.0
 40
7.0
 40
8.0
 40
8.0
 40
8.0
 40
9.0
 40
9.0
 40
9.0
 40
10.0
 40
10.0
 40
10.0
 40
11.0
 40
11.0
 40
11.0
 40
12.0
 40
12.0
 40
12.0
 40
13.0
 40
13.0
 40
13.0
 40
14.0
 40
14.0
 40
14.0
 40
15.0
 40
15.0
 40
15.0
 40
16.0
 40
16.0
 40
16.0
 40
17.0
 40
17.0
 40
17.0
 40
18.0
 40
18.0
 40
18.0
 40
19.0
 40
19.0
 40
19.0
 40
20.0
 40
20.0
 40
20.0
 40
20.0
 10
37.15828313958196
 20
-47.4635972646098
 10
37.15828313958196
 20
-47.80879583223183
 10
37.28868000369867
 20
-47.74833440646569
 10
37.28868000369867
 20
-47.88355440426175
 10
37.28868000369867
 20
-48.104212770092
 10
36.7782891075589
 20
-48.09697806957298
 10
36.62084824388298
 20
-48.09697806957298
 10
36.4673692400151
 20
-48.09697806957298
 10
36.07600639289073
 20
-48.09697806957298
 10
36.07600639289073
 20
-47.88355440426175
 10
36.07600639289073
 20
-47.71267766819336
 10
36.25239528173552
 20
-47.86581216251272
 10
36.2639363516111
 20
-47.51699624463117
 10
36.2639363516111
 20
-47.51699624463117
 10
36.27926702652046
 20
-46.98335095396597
 10
36.27926702652046
 20
-46.98335095396597
 10
36.28701849136228
 20
-46.71997340411862
 10
36.05292425313955
 20
-46.80541177215282
 10
36.05292425313955
 20
-46.61679279433539
 10
36.05292425313955
 20
-46.42817381651796
 10
36.93555771646056
 20
-46.25040688947907
 10
37.01238334578163
 20
-46.25040688947907
 10
37.09678818517025
 20
-46.25040688947907
 10
37.15053167474014
 20
-46.31793076098997
 10
37.15053167474014
 20
-46.38907198276037
 10
37.15053167474014
 20
-46.41043157476892
 10
37.14674206970637
 20
-46.43179116677747
 10
37.14674206970637
 20
-46.45315075878602
 10
37.14674206970637
 20
-46.49586994280312
 10
37.16586234964951
 20
-46.54565157256498
 10
37.22356769902744
 20
-46.54565157256498
 10
37.28489039866489
 20
-46.54565157256498
 10
37.31951360829165
 20
-46.47089300053506
 10
37.39616698283846
 20
-46.3963066832794
 10
37.47299261215953
 20
-46.32499320673472
 10
37.58805880136688
 20
-46.25040688947907
 10
37.80682236468024
 20
-46.25040688947907
 10
38.60143363835311
 20
-46.25040688947907
 10
38.46707491442837
 20
-46.9726711579617
 10
38.50548772908891
 20
-47.51355114914592
 10
38.52460800903204
 20
-47.79449868596804
 10
38.6818766179337
 20
-47.73059216471666
 10
38.6818766179337
 20
-47.88355440426175
 10
38.6818766179337
 20
-47.9476331802874
 10
38.69737954761732
 20
-48.09697806957298
 10
37.97580429823174
 20
-48.09697806957298
 10
37.83765596927323
 20
-48.09697806957298
 10
37.46920300712576
 20
-48.104212770092
 10
37.46920300712576
 20
-47.9049139962703
 10
37.46920300712576
 20
-47.77675644421901
 10
37.59581026620869
 20
-47.83721786998514
 10
37.61493054615183
 20
-47.60605196292488
 10
37.63422308086923
 20
-47.3533542090818
 10
37.74171006000902
 20
-46.78405218014426
 10
37.3808363079291
 20
-46.78405218014426
 10
37.13520099983079
 20
-46.78405218014426
 10
37.15828313958196
 20
-47.02951523346832
 10
37.15828313958196
 20
-47.18971217353243
 10
37.15828313958196
 20
-47.18971217353243
 10
37.15828313958196
 20
-47.4635972646098
 10
37.15828313958196
 20
-47.4635972646098
 97
        0
 75
     2
 76
     1
 98
        0
  0
SPLINE
  5
55
330
4A
100
AcDbEntity
  8
\U+30EC\U+30A4\U+30E4\U+30FC 1
 62
   250
370
     5
100
AcDbSpline
210
0.0
220
0.0
230
1.0
 70
    11
 71
     3
 72
    59
 73
    55
 74
     0
 42
0.0000000001
 43
0.0000000001
 40
0.0
 40
0.0
 40
0.0
 40
0.0
 40
1.0
 40
1.0
 40
1.0
 40
2.0
 40
2.0
 40
2.0
 40
3.0
 40
3.0
 40
3.0
 40
4.0
 40
4.0
 40
4.0
 40
5.0
 40
5.0
 40
5.0
 40
6.0
 40
6.0
 40
6.0
 40
7.0
 40
7.0
 40
7.0
 40
8.0
 40
8.0
 40
8.0
 40
9.0
 40
9.0
 40
9.0
 40
10.0
 40
10.0
 40
10.0
 40
11.0
 40
11.0
 40
11.0
 40
12.0
 40
12.0
 40
12.0
 40
13.0
 40
13.0
 40
13.0
 40
14.0
 40
14.0
 40
14.0
 40
15.0
 40
15.0
 40
15.0
 40
16.0
 40
16.0
 40
16.0
 40
17.0
 40
17.0
 40
17.0
 40
18.0
 40
18.0
 40
18.0
 40
18.0
 10
39.87474092970145
 20
-47.28927543305615
 30
0.0
 10
39.87474092970145
 20
-47.43173013137124
 30
0.0
 10
39.88628199957704
 20
-47.65221624242722
 30
0.0
 10
40.09350449301482
 20
-47.65221624242722
 30
0.0
 10
40.36980115093186
 20
-47.65221624242722
 30
0.0
 10
40.33138833627132
 20
-47.31769747080946
 30
0.0
 10
40.33138833627132
 20
-47.14699298951534
 30
0.0
 10
40.33138833627132
 20
-47.02951523346832
 30
0.0
 10
40.3351779413051
 20
-46.87655299392323
 30
0.0
 10
40.31605766136196
 20
-46.76269258813572
 30
0.0
 10
40.28539631154324
 20
-46.58475340632256
 30
0.0
 10
40.09729409804859
 20
-46.6452148320887
 30
0.0
 10
40.09729409804859
 20
-46.49586994280312
 30
0.0
 10
40.09729409804859
 20
-46.28589137297714
 30
0.0
 10
40.8688232319703
 20
-46.25040688947907
 30
0.0
 10
41.01455077099637
 20
-46.25040688947907
 30
0.0
 10
41.15269909995488
 20
-46.25040688947907
 30
0.0
 10
41.21040444933282
 20
-46.32499320673472
 30
0.0
 10
41.21040444933282
 20
-46.44953340852651
 30
0.0
 10
41.21040444933282
 20
-46.56339381431401
 30
0.0
 10
41.202652984491
 20
-46.67380912461627
 30
0.0
 10
41.202652984491
 20
-46.78766953040378
 30
0.0
 10
41.202652984491
 20
-46.78766953040378
 30
0.0
 10
41.202652984491
 20
-47.50287135314164
 30
0.0
 10
41.202652984491
 20
-47.50287135314164
 30
0.0
 10
41.202652984491
 20
-47.71629501845288
 30
0.0
 10
41.41366508296256
 20
-47.61673175892916
 30
0.0
 10
41.41366508296256
 20
-47.78743624022328
 30
0.0
 10
41.41366508296256
 20
-48.02945419806208
 30
0.0
 10
40.73446450804555
 20
-48.09697806957298
 30
0.0
 10
40.52328015479974
 20
-48.09697806957298
 30
0.0
 10
40.22786321693956
 20
-48.09697806957298
 30
0.0
 10
40.42354464050175
 20
-47.88355440426175
 30
0.0
 10
40.27006563663387
 20
-47.88355440426175
 30
0.0
 10
40.22786321693956
 20
-47.88355440426175
 30
0.0
 10
40.16636826252785
 20
-47.93695338428312
 30
0.0
 10
40.07421195829742
 20
-47.9903523643045
 30
0.0
 10
39.98222790884125
 20
-48.04357908955161
 30
0.0
 10
39.8594102547921
 20
-48.09697806957298
 30
0.0
 10
39.69042832124059
 20
-48.09697806957298
 30
0.0
 10
38.96127386178746
 20
-48.09697806957298
 30
0.0
 10
39.0225965614249
 20
-47.56333277890778
 30
0.0
 10
39.0225965614249
 20
-47.02951523346832
 30
0.0
 10
39.0225965614249
 20
-46.48519014679884
 30
0.0
 10
38.75784097338346
 20
-46.72359075437813
 30
0.0
 10
38.75784097338346
 20
-46.48880749705835
 30
0.0
 10
38.75784097338346
 20
-46.26108668548334
 30
0.0
 10
39.72505153086735
 20
-46.25040688947907
 30
0.0
 10
39.75571288068608
 20
-46.25040688947907
 30
0.0
 10
39.86319985982587
 20
-46.25040688947907
 30
0.0
 10
39.87474092970145
 20
-46.29657116898142
 30
0.0
 10
39.87474092970145
 20
-46.38562688727512
 30
0.0
 10
39.87474092970145
 20
-46.38562688727512
 30
0.0
 10
39.87474092970145
 20
-47.28927543305615
 30
0.0
 10
39.87474092970145
 20
-47.28927543305615
 30
0.0
  0
HATCH
  5
56
330
4A
100
AcDbEntity
  8
\U+30EC\U+30A4\U+30E4\U+30FC 1
 62
   250
100
AcDbHatch
 10
0.0
 20
0.0
 30
0.0
210
0.0
220
0.0
230
1.0
  2
SOLID
 70
     1
 71
     0
 91
        1
 92
        1
 93
        1
 72
     4
 94
        3
 73
     0
 74
     1
 95
       59
 96
       55
 40
0.0
 40
0.0
 40
0.0
 40
0.0
 40
1.0
 40
1.0
 40
1.0
 40
2.0
 40
2.0
 40
2.0
 40
3.0
 40
3.0
 40
3.0
 40
4.0
 40
4.0
 40
4.0
 40
5.0
 40
5.0
 40
5.0
 40
6.0
 40
6.0
 40
6.0
 40
7.0
 40
7.0
 40
7.0
 40
8.0
 40
8.0
 40
8.0
 40
9.0
 40
9.0
 40
9.0
 40
10.0
 40
10.0
 40
10.0
 40
11.0
 40
11.0
 40
11.0
 40
12.0
 40
12.0
 40
12.0
 40
13.0
 40
13.0
 40
13.0
 40
14.0
 40
14.0
 40
14.0
 40
15.0
 40
15.0
 40
15.0
 40
16.0
 40
16.0
 40
16.0
 40
17.0
 40
17.0
 40
17.0
 40
18.0
 40
18.0
 40
18.0
 40
18.0
 10
39.87474092970145
 20
-47.28927543305615
 10
39.87474092970145
 20
-47.43173013137124
 10
39.88628199957704
 20
-47.65221624242722
 10
40.09350449301482
 20
-47.65221624242722
 10
40.36980115093186
 20
-47.65221624242722
 10
40.33138833627132
 20
-47.31769747080946
 10
40.33138833627132
 20
-47.14699298951534
 10
40.33138833627132
 20
-47.02951523346832
 10
40.3351779413051
 20
-46.87655299392323
 10
40.31605766136196
 20
-46.76269258813572
 10
40.28539631154324
 20
-46.58475340632256
 10
40.09729409804859
 20
-46.6452148320887
 10
40.09729409804859
 20
-46.49586994280312
 10
40.09729409804859
 20
-46.28589137297714
 10
40.8688232319703
 20
-46.25040688947907
 10
41.01455077099637
 20
-46.25040688947907
 10
41.15269909995488
 20
-46.25040688947907
 10
41.21040444933282
 20
-46.32499320673472
 10
41.21040444933282
 20
-46.44953340852651
 10
41.21040444933282
 20
-46.56339381431401
 10
41.202652984491
 20
-46.67380912461627
 10
41.202652984491
 20
-46.78766953040378
 10
41.202652984491
 20
-46.78766953040378
 10
41.202652984491
 20
-47.50287135314164
 10
41.202652984491
 20
-47.50287135314164
 10
41.202652984491
 20
-47.71629501845288
 10
41.41366508296256
 20
-47.61673175892916
 10
41.41366508296256
 20
-47.78743624022328
 10
41.41366508296256
 20
-48.02945419806208
 10
40.73446450804555
 20
-48.09697806957298
 10
40.52328015479974
 20
-48.09697806957298
 10
40.22786321693956
 20
-48.09697806957298
 10
40.42354464050175
 20
-47.88355440426175
 10
40.27006563663387
 20
-47.88355440426175
 10
40.22786321693956
 20
-47.88355440426175
 10
40.16636826252785
 20
-47.93695338428312
 10
40.07421195829742
 20
-47.9903523643045
 10
39.98222790884125
 20
-48.04357908955161
 10
39.8594102547921
 20
-48.09697806957298
 10
39.69042832124059
 20
-48.09697806957298
 10
38.96127386178746
 20
-48.09697806957298
 10
39.0225965614249
 20
-47.56333277890778
 10
39.0225965614249
 20
-47.02951523346832
 10
39.0225965614249
 20
-46.48519014679884
 10
38.75784097338346
 20
-46.72359075437813
 10
38.75784097338346
 20
-46.48880749705835
 10
38.75784097338346
 20
-46.26108668548334
 10
39.72505153086735
 20
-46.25040688947907
 10
39.75571288068608
 20
-46.25040688947907
 10
39.86319985982587
 20
-46.25040688947907
 10
39.87474092970145
 20
-46.29657116898142
 10
39.87474092970145
 20
-46.38562688727512
 10
39.87474092970145
 20
-46.38562688727512
 10
39.87474092970145
 20
-47.28927543305615
 10
39.87474092970145
 20
-47.28927543305615
 97
        0
 75
     2
 76
     1
 98
        0
  0
SPLINE
  5
57
330
4A
100
AcDbEntity
  8
\U+30EC\U+30A4\U+30E4\U+30FC 1
 62
   250
370
     5
100
AcDbSpline
210
0.0
220
0.0
230
1.0
 70
    11
 71
     3
 72
    71
 73
    67
 74
     0
 42
0.0000000001
 43
0.0000000001
 40
0.0
 40
0.0
 40
0.0
 40
0.0
 40
1.0
 40
1.0
 40
1.0
 40
2.0
 40
2.0
 40
2.0
 40
3.0
 40
3.0
 40
3.0
 40
4.0
 40
4.0
 40
4.0
 40
5.0
 40
5.0
 40
5.0
 40
6.0
 40
6.0
 40
6.0
 40
7.0
 40
7.0
 40
7.0
 40
8.0
 40
8.0
 40
8.0
 40
9.0
 40
9.0
 40
9.0
 40
10.0
 40
10.0
 40
10.0
 40
11.0
 40
11.0
 40
11.0
 40
12.0
 40
12.0
 40
12.0
 40
13.0
 40
13.0
 40
13.0
 40
14.0
 40
14.0
 40
14.0
 40
15.0
 40
15.0
 40
15.0
 40
16.0
 40
16.0
 40
16.0
 40
17.0
 40
17.0
 40
17.0
 40
18.0
 40
18.0
 40
18.0
 40
19.0
 40
19.0
 40
19.0
 40
20.0
 40
20.0
 40
20.0
 40
21.0
 40
21.0
 40
21.0
 40
22.0
 40
22.0
 40
22.0
 40
22.0
 10
41.80054930595612
 20
-47.13631319351106
 30
0.0
 10
41.80812851602366
 20
-47.02607013798307
 30
0.0
 10
41.76971570136313
 20
-46.96905380770218
 30
0.0
 10
41.64689804731398
 20
-46.96905380770218
 30
0.0
 10
41.60090602258589
 20
-46.96905380770218
 30
0.0
 10
41.4818779735705
 20
-46.98679604945122
 30
0.0
 10
41.4818779735705
 20
-46.92288952819983
 30
0.0
 10
41.4818779735705
 20
-46.64176973660345
 30
0.0
 10
41.45896808859359
 20
-46.60973034859062
 30
0.0
 10
41.57403427780094
 20
-46.60266790284587
 30
0.0
 10
41.62002630252902
 20
-46.59905055258635
 30
0.0
 10
41.68152125694073
 20
-46.59543320232684
 30
0.0
 10
41.68152125694073
 20
-46.5349717765607
 30
0.0
 10
41.68152125694073
 20
-46.46744790504981
 30
0.0
 10
41.5356214631404
 20
-46.335673002739
 30
0.0
 10
41.5356214631404
 20
-46.1115695414235
 30
0.0
 10
41.5356214631404
 20
-45.6881673062863
 30
0.0
 10
42.00777179939389
 20
-45.54588486274547
 30
0.0
 10
42.39155543645072
 20
-45.54588486274547
 30
0.0
 10
43.01718477657209
 20
-45.54588486274547
 30
0.0
 10
43.16291231559816
 20
-45.85180934183566
 30
0.0
 10
43.16291231559816
 20
-46.00477158138075
 30
0.0
 10
43.16291231559816
 20
-46.15428872544059
 30
0.0
 10
43.03251545148146
 20
-46.27882892723238
 30
0.0
 10
42.87128498277176
 20
-46.27882892723238
 30
0.0
 10
42.53745523025106
 20
-46.27882892723238
 30
0.0
 10
42.49525281055674
 20
-45.95860730187841
 30
0.0
 10
42.27631699246912
 20
-45.95860730187841
 30
0.0
 10
42.19966361792231
 20
-45.95860730187841
 30
0.0
 10
42.14592012835241
 20
-46.01545137738503
 30
0.0
 10
42.14592012835241
 20
-46.08659259915544
 30
0.0
 10
42.14592012835241
 20
-46.3108683152452
 30
0.0
 10
42.5450344403186
 20
-46.38562688727512
 30
0.0
 10
42.61410860479786
 20
-46.54203422230547
 30
0.0
 10
42.62564967467345
 20
-46.57062851483304
 30
0.0
 10
42.62943927970723
 20
-46.58130831083731
 30
0.0
 10
42.66785209436776
 20
-46.58130831083731
 30
0.0
 10
42.82908256307746
 20
-46.58130831083731
 30
0.0
 10
43.04784612639082
 20
-46.54203422230547
 30
0.0
 10
43.04009466154901
 20
-46.64883218234821
 30
0.0
 10
43.04009466154901
 20
-46.64883218234821
 30
0.0
 10
43.02097438160587
 20
-46.90859238193605
 30
0.0
 10
43.02097438160587
 20
-46.90859238193605
 30
0.0
 10
43.01718477657209
 20
-46.96199136195742
 30
0.0
 10
42.97498235687778
 20
-46.96905380770218
 30
0.0
 10
42.92123886730788
 20
-46.96905380770218
 30
0.0
 10
42.69472383915271
 20
-46.96905380770218
 30
0.0
 10
42.65631102449218
 20
-46.96560871221693
 30
0.0
 10
42.65631102449218
 20
-47.20039196953671
 30
0.0
 10
42.65631102449218
 20
-47.29995522906043
 30
0.0
 10
42.66785209436776
 20
-47.42449543085221
 30
0.0
 10
42.69472383915271
 20
-47.51699624463117
 30
0.0
 10
42.76379800363197
 20
-47.73059216471666
 30
0.0
 10
43.03630505651523
 20
-47.61673175892916
 30
0.0
 10
43.03630505651523
 20
-47.83721786998514
 30
0.0
 10
43.03630505651523
 20
-47.92265623801934
 30
0.0
 10
43.02872584644768
 20
-48.09697806957298
 30
0.0
 10
42.16504040829555
 20
-48.09697806957298
 30
0.0
 10
41.98090005460895
 20
-48.09697806957298
 30
0.0
 10
41.48583983337854
 20
-48.09353297408773
 30
0.0
 10
41.48583983337854
 20
-47.84445257050417
 30
0.0
 10
41.48583983337854
 20
-47.64515379668246
 30
0.0
 10
41.75438502645377
 20
-47.73765461046142
 30
0.0
 10
41.76971570136313
 20
-47.52061359489068
 30
0.0
 10
41.76971570136313
 20
-47.52061359489068
 30
0.0
 10
41.80054930595612
 20
-47.13631319351106
 30
0.0
 10
41.80054930595612
 20
-47.13631319351106
 30
0.0
  0
HATCH
  5
58
330
4A
100
AcDbEntity
  8
\U+30EC\U+30A4\U+30E4\U+30FC 1
 62
   250
100
AcDbHatch
 10
0.0
 20
0.0
 30
0.0
210
0.0
220
0.0
230
1.0
  2
SOLID
 70
     1
 71
     0
 91
        1
 92
        1
 93
        1
 72
     4
 94
        3
 73
     0
 74
     1
 95
       71
 96
       67
 40
0.0
 40
0.0
 40
0.0
 40
0.0
 40
1.0
 40
1.0
 40
1.0
 40
2.0
 40
2.0
 40
2.0
 40
3.0
 40
3.0
 40
3.0
 40
4.0
 40
4.0
 40
4.0
 40
5.0
 40
5.0
 40
5.0
 40
6.0
 40
6.0
 40
6.0
 40
7.0
 40
7.0
 40
7.0
 40
8.0
 40
8.0
 40
8.0
 40
9.0
 40
9.0
 40
9.0
 40
10.0
 40
10.0
 40
10.0
 40
11.0
 40
11.0
 40
11.0
 40
12.0
 40
12.0
 40
12.0
 40
13.0
 40
13.0
 40
13.0
 40
14.0
 40
14.0
 40
14.0
 40
15.0
 40
15.0
 40
15.0
 40
16.0
 40
16.0
 40
16.0
 40
17.0
 40
17.0
 40
17.0
 40
18.0
 40
18.0
 40
18.0
 40
19.0
 40
19.0
 40
19.0
 40
20.0
 40
20.0
 40
20.0
 40
21.0
 40
21.0
 40
21.0
 40
22.0
 40
22.0
 40
22.0
 40
22.0
 10
41.80054930595612
 20
-47.13631319351106
 10
41.80812851602366
 20
-47.02607013798307
 10
41.76971570136313
 20
-46.96905380770218
 10
41.64689804731398
 20
-46.96905380770218
 10
41.60090602258589
 20
-46.96905380770218
 10
41.4818779735705
 20
-46.98679604945122
 10
41.4818779735705
 20
-46.92288952819983
 10
41.4818779735705
 20
-46.64176973660345
 10
41.45896808859359
 20
-46.60973034859062
 10
41.57403427780094
 20
-46.60266790284587
 10
41.62002630252902
 20
-46.59905055258635
 10
41.68152125694073
 20
-46.59543320232684
 10
41.68152125694073
 20
-46.5349717765607
 10
41.68152125694073
 20
-46.46744790504981
 10
41.5356214631404
 20
-46.335673002739
 10
41.5356214631404
 20
-46.1115695414235
 10
41.5356214631404
 20
-45.6881673062863
 10
42.00777179939389
 20
-45.54588486274547
 10
42.39155543645072
 20
-45.54588486274547
 10
43.01718477657209
 20
-45.54588486274547
 10
43.16291231559816
 20
-45.85180934183566
 10
43.16291231559816
 20
-46.00477158138075
 10
43.16291231559816
 20
-46.15428872544059
 10
43.03251545148146
 20
-46.27882892723238
 10
42.87128498277176
 20
-46.27882892723238
 10
42.53745523025106
 20
-46.27882892723238
 10
42.49525281055674
 20
-45.95860730187841
 10
42.27631699246912
 20
-45.95860730187841
 10
42.19966361792231
 20
-45.95860730187841
 10
42.14592012835241
 20
-46.01545137738503
 10
42.14592012835241
 20
-46.08659259915544
 10
42.14592012835241
 20
-46.3108683152452
 10
42.5450344403186
 20
-46.38562688727512
 10
42.61410860479786
 20
-46.54203422230547
 10
42.62564967467345
 20
-46.57062851483304
 10
42.62943927970723
 20
-46.58130831083731
 10
42.66785209436776
 20
-46.58130831083731
 10
42.82908256307746
 20
-46.58130831083731
 10
43.04784612639082
 20
-46.54203422230547
 10
43.04009466154901
 20
-46.64883218234821
 10
43.04009466154901
 20
-46.64883218234821
 10
43.02097438160587
 20
-46.90859238193605
 10
43.02097438160587
 20
-46.90859238193605
 10
43.01718477657209
 20
-46.96199136195742
 10
42.97498235687778
 20
-46.96905380770218
 10
42.92123886730788
 20
-46.96905380770218
 10
42.69472383915271
 20
-46.96905380770218
 10
42.65631102449218
 20
-46.96560871221693
 10
42.65631102449218
 20
-47.20039196953671
 10
42.65631102449218
 20
-47.29995522906043
 10
42.66785209436776
 20
-47.42449543085221
 10
42.69472383915271
 20
-47.51699624463117
 10
42.76379800363197
 20
-47.73059216471666
 10
43.03630505651523
 20
-47.61673175892916
 10
43.03630505651523
 20
-47.83721786998514
 10
43.03630505651523
 20
-47.92265623801934
 10
43.02872584644768
 20
-48.09697806957298
 10
42.16504040829555
 20
-48.09697806957298
 10
41.98090005460895
 20
-48.09697806957298
 10
41.48583983337854
 20
-48.09353297408773
 10
41.48583983337854
 20
-47.84445257050417
 10
41.48583983337854
 20
-47.64515379668246
 10
41.75438502645377
 20
-47.73765461046142
 10
41.76971570136313
 20
-47.52061359489068
 10
41.76971570136313
 20
-47.52061359489068
 10
41.80054930595612
 20
-47.13631319351106
 10
41.80054930595612
 20
-47.13631319351106
 97
        0
 75
     2
 76
     1
 98
        0
  0
SPLINE
  5
59
330
4A
100
AcDbEntity
  8
\U+30EC\U+30A4\U+30E4\U+30FC 1
 62
   250
370
     5
100
AcDbSpline
210
0.0
220
0.0
230
1.0
 70
    11
 71
     3
 72
    47
 73
    43
 74
     0
 42
0.0000000001
 43
0.0000000001
 40
0.0
 40
0.0
 40
0.0
 40
0.0
 40
1.0
 40
1.0
 40
1.0
 40
2.0
 40
2.0
 40
2.0
 40
3.0
 40
3.0
 40
3.0
 40
4.0
 40
4.0
 40
4.0
 40
5.0
 40
5.0
 40
5.0
 40
6.0
 40
6.0
 40
6.0
 40
7.0
 40
7.0
 40
7.0
 40
8.0
 40
8.0
 40
8.0
 40
9.0
 40
9.0
 40
9.0
 40
10.0
 40
10.0
 40
10.0
 40
11.0
 40
11.0
 40
11.0
 40
12.0
 40
12.0
 40
12.0
 40
13.0
 40
13.0
 40
13.0
 40
14.0
 40
14.0
 40
14.0
 40
14.0
 10
45.16589083072242
 20
-47.20745441528148
 30
0.0
 10
45.16589083072242
 20
-47.83377277449989
 30
0.0
 10
45.39619546391137
 20
-47.49219155713737
 30
0.0
 10
45.39619546391137
 20
-47.68425563044005
 30
0.0
 10
45.39619546391137
 20
-47.88717175452126
 30
0.0
 10
45.09681666624316
 20
-48.10765786557725
 30
0.0
 10
44.81655814851808
 20
-48.10765786557725
 30
0.0
 10
44.5133897458161
 20
-48.10765786557725
 30
0.0
 10
44.50563828097429
 20
-47.92627358827885
 30
0.0
 10
44.40969237171008
 20
-47.92627358827885
 30
0.0
 10
44.36370034698199
 20
-47.92627358827885
 30
0.0
 10
44.31374646244587
 20
-47.9724378677812
 30
0.0
 10
44.22934162305725
 20
-48.0151570517983
 30
0.0
 10
44.14493678366863
 20
-48.06149358607491
 30
0.0
 10
44.02987059446129
 20
-48.10765786557725
 30
0.0
 10
43.85330945084223
 20
-48.10765786557725
 30
0.0
 10
43.53463811845662
 20
-48.10765786557725
 30
0.0
 10
43.21613904084527
 20
-47.95107827577265
 30
0.0
 10
43.21613904084527
 20
-47.59881726240585
 30
0.0
 10
43.21613904084527
 20
-47.34629176333704
 30
0.0
 10
43.47710502385295
 20
-47.03313258372783
 30
0.0
 10
44.15268824851044
 20
-47.03313258372783
 30
0.0
 10
44.27154404275156
 20
-47.03313258372783
 30
0.0
 10
44.32528753232146
 20
-47.04019502947259
 30
0.0
 10
44.32528753232146
 20
-46.91220973219556
 30
0.0
 10
44.32528753232146
 20
-46.79473197614854
 30
0.0
 10
44.32149792728768
 20
-46.54926892282449
 30
0.0
 10
44.14493678366863
 20
-46.54926892282449
 30
0.0
 10
43.91463215047968
 20
-46.54926892282449
 30
0.0
 10
43.8915500107285
 20
-46.93356932420411
 30
0.0
 10
43.54996879336598
 20
-46.93356932420411
 30
0.0
 10
43.42715113931683
 20
-46.93356932420411
 30
0.0
 10
43.33516708986065
 20
-46.85174830642943
 30
0.0
 10
43.33516708986065
 20
-46.73788790064192
 30
0.0
 10
43.33516708986065
 20
-46.43540851703698
 30
0.0
 10
43.98370631495894
 20
-46.23972709347479
 30
0.0
 10
44.34836967207263
 20
-46.23972709347479
 30
0.0
 10
44.567133235386
 20
-46.23972709347479
 30
0.0
 10
45.16589083072242
 20
-46.31793076098997
 30
0.0
 10
45.16589083072242
 20
-46.85174830642943
 30
0.0
 10
45.16589083072242
 20
-46.85174830642943
 30
0.0
 10
45.16589083072242
 20
-47.20745441528148
 30
0.0
 10
45.16589083072242
 20
-47.20745441528148
 30
0.0
  0
SPLINE
  5
5A
330
4A
100
AcDbEntity
  8
\U+30EC\U+30A4\U+30E4\U+30FC 1
 62
   250
370
     5
100
AcDbSpline
210
0.0
220
0.0
230
1.0
 70
    11
 71
     3
 72
    17
 73
    13
 74
     0
 42
0.0000000001
 43
0.0000000001
 40
0.0
 40
0.0
 40
0.0
 40
0.0
 40
1.0
 40
1.0
 40
1.0
 40
2.0
 40
2.0
 40
2.0
 40
3.0
 40
3.0
 40
3.0
 40
4.0
 40
4.0
 40
4.0
 40
4.0
 10
44.01436766477766
 20
-47.52061359489068
 30
0.0
 10
44.01436766477766
 20
-47.61311440866964
 30
0.0
 10
44.06811115434756
 20
-47.71267766819336
 30
0.0
 10
44.17955999329539
 20
-47.71267766819336
 30
0.0
 10
44.32528753232146
 20
-47.71267766819336
 30
0.0
 10
44.33682860219704
 20
-47.56677787439303
 30
0.0
 10
44.33682860219704
 20
-47.46015216912455
 30
0.0
 10
44.33682860219704
 20
-47.38177624683512
 30
0.0
 10
44.34061820723082
 20
-47.29289278331566
 30
0.0
 10
44.23313122809103
 20
-47.29289278331566
 30
0.0
 10
44.10273436397432
 20
-47.29289278331566
 30
0.0
 10
44.01436766477766
 20
-47.40675318910318
 30
0.0
 10
44.01436766477766
 20
-47.52061359489068
 30
0.0
  0
HATCH
  5
5B
330
4A
100
AcDbEntity
  8
\U+30EC\U+30A4\U+30E4\U+30FC 1
 62
   250
100
AcDbHatch
 10
0.0
 20
0.0
 30
0.0
210
0.0
220
0.0
230
1.0
  2
SOLID
 70
     1
 71
     0
 91
        2
 92
        1
 93
        1
 72
     4
 94
        3
 73
     0
 74
     1
 95
       47
 96
       43
 40
0.0
 40
0.0
 40
0.0
 40
0.0
 40
1.0
 40
1.0
 40
1.0
 40
2.0
 40
2.0
 40
2.0
 40
3.0
 40
3.0
 40
3.0
 40
4.0
 40
4.0
 40
4.0
 40
5.0
 40
5.0
 40
5.0
 40
6.0
 40
6.0
 40
6.0
 40
7.0
 40
7.0
 40
7.0
 40
8.0
 40
8.0
 40
8.0
 40
9.0
 40
9.0
 40
9.0
 40
10.0
 40
10.0
 40
10.0
 40
11.0
 40
11.0
 40
11.0
 40
12.0
 40
12.0
 40
12.0
 40
13.0
 40
13.0
 40
13.0
 40
14.0
 40
14.0
 40
14.0
 40
14.0
 10
45.16589083072242
 20
-47.20745441528148
 10
45.16589083072242
 20
-47.83377277449989
 10
45.39619546391137
 20
-47.49219155713737
 10
45.39619546391137
 20
-47.68425563044005
 10
45.39619546391137
 20
-47.88717175452126
 10
45.09681666624316
 20
-48.10765786557725
 10
44.81655814851808
 20
-48.10765786557725
 10
44.5133897458161
 20
-48.10765786557725
 10
44.50563828097429
 20
-47.92627358827885
 10
44.40969237171008
 20
-47.92627358827885
 10
44.36370034698199
 20
-47.92627358827885
 10
44.31374646244587
 20
-47.9724378677812
 10
44.22934162305725
 20
-48.0151570517983
 10
44.14493678366863
 20
-48.06149358607491
 10
44.02987059446129
 20
-48.10765786557725
 10
43.85330945084223
 20
-48.10765786557725
 10
43.53463811845662
 20
-48.10765786557725
 10
43.21613904084527
 20
-47.95107827577265
 10
43.21613904084527
 20
-47.59881726240585
 10
43.21613904084527
 20
-47.34629176333704
 10
43.47710502385295
 20
-47.03313258372783
 10
44.15268824851044
 20
-47.03313258372783
 10
44.27154404275156
 20
-47.03313258372783
 10
44.32528753232146
 20
-47.04019502947259
 10
44.32528753232146
 20
-46.91220973219556
 10
44.32528753232146
 20
-46.79473197614854
 10
44.32149792728768
 20
-46.54926892282449
 10
44.14493678366863
 20
-46.54926892282449
 10
43.91463215047968
 20
-46.54926892282449
 10
43.8915500107285
 20
-46.93356932420411
 10
43.54996879336598
 20
-46.93356932420411
 10
43.42715113931683
 20
-46.93356932420411
 10
43.33516708986065
 20
-46.85174830642943
 10
43.33516708986065
 20
-46.73788790064192
 10
43.33516708986065
 20
-46.43540851703698
 10
43.98370631495894
 20
-46.23972709347479
 10
44.34836967207263
 20
-46.23972709347479
 10
44.567133235386
 20
-46.23972709347479
 10
45.16589083072242
 20
-46.31793076098997
 10
45.16589083072242
 20
-46.85174830642943
 10
45.16589083072242
 20
-46.85174830642943
 10
45.16589083072242
 20
-47.20745441528148
 10
45.16589083072242
 20
-47.20745441528148
 97
        0
 92
        1
 93
        1
 72
     4
 94
        3
 73
     0
 74
     1
 95
       17
 96
       13
 40
0.0
 40
0.0
 40
0.0
 40
0.0
 40
1.0
 40
1.0
 40
1.0
 40
2.0
 40
2.0
 40
2.0
 40
3.0
 40
3.0
 40
3.0
 40
4.0
 40
4.0
 40
4.0
 40
4.0
 10
44.01436766477766
 20
-47.52061359489068
 10
44.01436766477766
 20
-47.61311440866964
 10
44.06811115434756
 20
-47.71267766819336
 10
44.17955999329539
 20
-47.71267766819336
 10
44.32528753232146
 20
-47.71267766819336
 10
44.33682860219704
 20
-47.56677787439303
 10
44.33682860219704
 20
-47.46015216912455
 10
44.33682860219704
 20
-47.38177624683512
 10
44.34061820723082
 20
-47.29289278331566
 10
44.23313122809103
 20
-47.29289278331566
 10
44.10273436397432
 20
-47.29289278331566
 10
44.01436766477766
 20
-47.40675318910318
 10
44.01436766477766
 20
-47.52061359489068
 97
        0
 75
     2
 76
     1
 98
        0
  0
SPLINE
  5
5C
330
4A
100
AcDbEntity
  8
\U+30EC\U+30A4\U+30E4\U+30FC 1
 62
   250
370
     5
100
AcDbSpline
210
0.0
220
0.0
230
1.0
 70
    11
 71
     3
 72
    35
 73
    31
 74
     0
 42
0.0000000001
 43
0.0000000001
 40
0.0
 40
0.0
 40
0.0
 40
0.0
 40
1.0
 40
1.0
 40
1.0
 40
2.0
 40
2.0
 40
2.0
 40
3.0
 40
3.0
 40
3.0
 40
4.0
 40
4.0
 40
4.0
 40
5.0
 40
5.0
 40
5.0
 40
6.0
 40
6.0
 40
6.0
 40
7.0
 40
7.0
 40
7.0
 40
8.0
 40
8.0
 40
8.0
 40
9.0
 40
9.0
 40
9.0
 40
10.0
 40
10.0
 40
10.0
 40
10.0
 10
46.63884140544098
 20
-46.23972709347479
 30
0.0
 10
47.21451686102623
 20
-46.23972709347479
 30
0.0
 10
47.51785751850248
 20
-46.5349717765607
 30
0.0
 10
47.51785751850248
 20
-46.78405218014426
 30
0.0
 10
47.51785751850248
 20
-46.98335095396597
 30
0.0
 10
47.35662704979279
 20
-47.13631319351106
 30
0.0
 10
47.1416530915132
 20
-47.13631319351106
 30
0.0
 10
46.72720810463765
 20
-47.13631319351106
 30
0.0
 10
46.91909992316606
 20
-46.69516871662482
 30
0.0
 10
46.61593152046407
 20
-46.69516871662482
 30
0.0
 10
46.44694958691257
 20
-46.69516871662482
 30
0.0
 10
46.35479328268214
 20
-46.85519340191468
 30
0.0
 10
46.35479328268214
 20
-46.9974758454555
 30
0.0
 10
46.35479328268214
 20
-47.26085339530285
 30
0.0
 10
46.56597763592795
 20
-47.52767604063544
 30
0.0
 10
46.86914603862994
 20
-47.52767604063544
 30
0.0
 10
47.11099174169448
 20
-47.52767604063544
 30
0.0
 10
47.19160697604932
 20
-47.43517522685649
 30
0.0
 10
47.27222221040417
 20
-47.43517522685649
 30
0.0
 10
47.37574732973593
 20
-47.43517522685649
 30
0.0
 10
47.44482149421518
 20
-47.54197318689923
 30
0.0
 10
47.44482149421518
 20
-47.62741155493342
 30
0.0
 10
47.44482149421518
 20
-47.83721786998514
 30
0.0
 10
47.09945067181889
 20
-48.10765786557725
 30
0.0
 10
46.56218803089418
 20
-48.10765786557725
 30
0.0
 10
45.98255071550089
 20
-48.10765786557725
 30
0.0
 10
45.51436223905544
 20
-47.71267766819336
 30
0.0
 10
45.51436223905544
 20
-47.16835258152388
 30
0.0
 10
45.51436223905544
 20
-46.65589462809297
 30
0.0
 10
45.99409178537648
 20
-46.23972709347479
 30
0.0
 10
46.63884140544098
 20
-46.23972709347479
 30
0.0
  0
HATCH
  5
5D
330
4A
100
AcDbEntity
  8
\U+30EC\U+30A4\U+30E4\U+30FC 1
 62
   250
100
AcDbHatch
 10
0.0
 20
0.0
 30
0.0
210
0.0
220
0.0
230
1.0
  2
SOLID
 70
     1
 71
     0
 91
        1
 92
        1
 93
        1
 72
     4
 94
        3
 73
     0
 74
     1
 95
       35
 96
       31
 40
0.0
 40
0.0
 40
0.0
 40
0.0
 40
1.0
 40
1.0
 40
1.0
 40
2.0
 40
2.0
 40
2.0
 40
3.0
 40
3.0
 40
3.0
 40
4.0
 40
4.0
 40
4.0
 40
5.0
 40
5.0
 40
5.0
 40
6.0
 40
6.0
 40
6.0
 40
7.0
 40
7.0
 40
7.0
 40
8.0
 40
8.0
 40
8.0
 40
9.0
 40
9.0
 40
9.0
 40
10.0
 40
10.0
 40
10.0
 40
10.0
 10
46.63884140544098
 20
-46.23972709347479
 10
47.21451686102623
 20
-46.23972709347479
 10
47.51785751850248
 20
-46.5349717765607
 10
47.51785751850248
 20
-46.78405218014426
 10
47.51785751850248
 20
-46.98335095396597
 10
47.35662704979279
 20
-47.13631319351106
 10
47.1416530915132
 20
-47.13631319351106
 10
46.72720810463765
 20
-47.13631319351106
 10
46.91909992316606
 20
-46.69516871662482
 10
46.61593152046407
 20
-46.69516871662482
 10
46.44694958691257
 20
-46.69516871662482
 10
46.35479328268214
 20
-46.85519340191468
 10
46.35479328268214
 20
-46.9974758454555
 10
46.35479328268214
 20
-47.26085339530285
 10
46.56597763592795
 20
-47.52767604063544
 10
46.86914603862994
 20
-47.52767604063544
 10
47.11099174169448
 20
-47.52767604063544
 10
47.19160697604932
 20
-47.43517522685649
 10
47.27222221040417
 20
-47.43517522685649
 10
47.37574732973593
 20
-47.43517522685649
 10
47.44482149421518
 20
-47.54197318689923
 10
47.44482149421518
 20
-47.62741155493342
 10
47.44482149421518
 20
-47.83721786998514
 10
47.09945067181889
 20
-48.10765786557725
 10
46.56218803089418
 20
-48.10765786557725
 10
45.98255071550089
 20
-48.10765786557725
 10
45.51436223905544
 20
-47.71267766819336
 10
45.51436223905544
 20
-47.16835258152388
 10
45.51436223905544
 20
-46.65589462809297
 10
45.99409178537648
 20
-46.23972709347479
 10
46.63884140544098
 20
-46.23972709347479
 97
        0
 75
     2
 76
     1
 98
        0
  0
SPLINE
  5
5E
330
4A
100
AcDbEntity
  8
\U+30EC\U+30A4\U+30E4\U+30FC 1
 62
   250
370
     5
100
AcDbSpline
210
0.0
220
0.0
230
1.0
 70
    11
 71
     3
 72
    71
 73
    67
 74
     0
 42
0.0000000001
 43
0.0000000001
 40
0.0
 40
0.0
 40
0.0
 40
0.0
 40
1.0
 40
1.0
 40
1.0
 40
2.0
 40
2.0
 40
2.0
 40
3.0
 40
3.0
 40
3.0
 40
4.0
 40
4.0
 40
4.0
 40
5.0
 40
5.0
 40
5.0
 40
6.0
 40
6.0
 40
6.0
 40
7.0
 40
7.0
 40
7.0
 40
8.0
 40
8.0
 40
8.0
 40
9.0
 40
9.0
 40
9.0
 40
10.0
 40
10.0
 40
10.0
 40
11.0
 40
11.0
 40
11.0
 40
12.0
 40
12.0
 40
12.0
 40
13.0
 40
13.0
 40
13.0
 40
14.0
 40
14.0
 40
14.0
 40
15.0
 40
15.0
 40
15.0
 40
16.0
 40
16.0
 40
16.0
 40
17.0
 40
17.0
 40
17.0
 40
18.0
 40
18.0
 40
18.0
 40
19.0
 40
19.0
 40
19.0
 40
20.0
 40
20.0
 40
20.0
 40
21.0
 40
21.0
 40
21.0
 40
22.0
 40
22.0
 40
22.0
 40
22.0
 10
48.81441920437626
 20
-47.28927543305615
 30
0.0
 10
48.81441920437626
 20
-47.52767604063544
 30
0.0
 10
48.92190618351605
 20
-47.58469237091633
 30
0.0
 10
49.02560355762208
 20
-47.58469237091633
 30
0.0
 10
49.14445935186319
 20
-47.58469237091633
 30
0.0
 10
49.21353351634245
 20
-47.50287135314164
 30
0.0
 10
49.28260768082171
 20
-47.50287135314164
 30
0.0
 10
49.35943331014278
 20
-47.50287135314164
 30
0.0
 10
49.41317679971268
 20
-47.60243461266536
 30
0.0
 10
49.41317679971268
 20
-47.66651338869102
 30
0.0
 10
49.41317679971268
 20
-47.90129664601079
 30
0.0
 10
48.97564967308595
 20
-48.10765786557725
 30
0.0
 10
48.58807643099534
 20
-48.10765786557725
 30
0.0
 10
48.39222275265889
 20
-48.10765786557725
 30
0.0
 10
47.90095213646227
 20
-48.02945419806208
 30
0.0
 10
47.90095213646227
 20
-47.4635972646098
 30
0.0
 10
47.90095213646227
 20
-47.4635972646098
 30
0.0
 10
47.90095213646227
 20
-46.73065320012289
 30
0.0
 10
47.90095213646227
 20
-46.73065320012289
 30
0.0
 10
47.90095213646227
 20
-46.66657442409725
 30
0.0
 10
47.90095213646227
 20
-46.64176973660345
 30
0.0
 10
47.88183185651913
 20
-46.63108994059917
 30
0.0
 10
47.86253932180173
 20
-46.6204101445949
 30
0.0
 10
47.82033690210742
 20
-46.62747259033966
 30
0.0
 10
47.73214245768502
 20
-46.62747259033966
 30
0.0
 10
47.63223468861278
 20
-46.62747259033966
 30
0.0
 10
47.58245305885092
 20
-46.63108994059917
 30
0.0
 10
47.56316052413352
 20
-46.61334769885013
 30
0.0
 10
47.53628877934857
 20
-46.58837075658207
 30
0.0
 10
47.54404024419038
 20
-46.55271401830974
 30
0.0
 10
47.54404024419038
 20
-46.47089300053506
 30
0.0
 10
47.54404024419038
 20
-46.4211113707732
 30
0.0
 10
47.53249917431479
 20
-46.38200953701561
 30
0.0
 10
47.57866345381714
 20
-46.3535874992623
 30
0.0
 10
47.57866345381714
 20
-46.3535874992623
 30
0.0
 10
48.4537177070706
 20
-45.83768445034614
 30
0.0
 10
48.4537177070706
 20
-45.83768445034614
 30
0.0
 10
48.54191215149299
 20
-45.78773056581002
 30
0.0
 10
48.53812254645922
 20
-45.79841036181429
 30
0.0
 10
48.65318873566657
 20
-45.79841036181429
 30
0.0
 10
48.80683999430871
 20
-45.79841036181429
 30
0.0
 10
48.81441920437626
 20
-45.78428547032476
 30
0.0
 10
48.81441920437626
 20
-45.94792750587413
 30
0.0
 10
48.81441920437626
 20
-46.05817056140213
 30
0.0
 10
48.80683999430871
 20
-46.16858587170438
 30
0.0
 10
48.82596027425185
 20
-46.21113280094722
 30
0.0
 10
48.83750134412743
 20
-46.23972709347479
 30
0.0
 10
48.86437308891238
 20
-46.23972709347479
 30
0.0
 10
48.96410860321036
 20
-46.23972709347479
 30
0.0
 10
48.96410860321036
 20
-46.23972709347479
 30
0.0
 10
49.23282605105985
 20
-46.23972709347479
 30
0.0
 10
49.23282605105985
 20
-46.23972709347479
 30
0.0
 10
49.39784612480332
 20
-46.23972709347479
 30
0.0
 10
49.39784612480332
 20
-46.25040688947907
 30
0.0
 10
49.39784612480332
 20
-46.41043157476892
 30
0.0
 10
49.39784612480332
 20
-46.61334769885013
 30
0.0
 10
49.37097438001837
 20
-46.62747259033966
 30
0.0
 10
49.22128498118426
 20
-46.62747259033966
 30
0.0
 10
49.22128498118426
 20
-46.62747259033966
 30
0.0
 10
48.95652939314282
 20
-46.62747259033966
 30
0.0
 10
48.95652939314282
 20
-46.62747259033966
 30
0.0
 10
48.82217066921807
 20
-46.62747259033966
 30
0.0
 10
48.81441920437626
 20
-46.63108994059917
 30
0.0
 10
48.81441920437626
 20
-46.7590752378762
 30
0.0
 10
48.81441920437626
 20
-46.7590752378762
 30
0.0
 10
48.81441920437626
 20
-47.28927543305615
 30
0.0
 10
48.81441920437626
 20
-47.28927543305615
 30
0.0
  0
HATCH
  5
5F
330
4A
100
AcDbEntity
  8
\U+30EC\U+30A4\U+30E4\U+30FC 1
 62
   250
100
AcDbHatch
 10
0.0
 20
0.0
 30
0.0
210
0.0
220
0.0
230
1.0
  2
SOLID
 70
     1
 71
     0
 91
        1
 92
        1
 93
        1
 72
     4
 94
        3
 73
     0
 74
     1
 95
       71
 96
       67
 40
0.0
 40
0.0
 40
0.0
 40
0.0
 40
1.0
 40
1.0
 40
1.0
 40
2.0
 40
2.0
 40
2.0
 40
3.0
 40
3.0
 40
3.0
 40
4.0
 40
4.0
 40
4.0
 40
5.0
 40
5.0
 40
5.0
 40
6.0
 40
6.0
 40
6.0
 40
7.0
 40
7.0
 40
7.0
 40
8.0
 40
8.0
 40
8.0
 40
9.0
 40
9.0
 40
9.0
 40
10.0
 40
10.0
 40
10.0
 40
11.0
 40
11.0
 40
11.0
 40
12.0
 40
12.0
 40
12.0
 40
13.0
 40
13.0
 40
13.0
 40
14.0
 40
14.0
 40
14.0
 40
15.0
 40
15.0
 40
15.0
 40
16.0
 40
16.0
 40
16.0
 40
17.0
 40
17.0
 40
17.0
 40
18.0
 40
18.0
 40
18.0
 40
19.0
 40
19.0
 40
19.0
 40
20.0
 40
20.0
 40
20.0
 40
21.0
 40
21.0
 40
21.0
 40
22.0
 40
22.0
 40
22.0
 40
22.0
 10
48.81441920437626
 20
-47.28927543305615
 10
48.81441920437626
 20
-47.52767604063544
 10
48.92190618351605
 20
-47.58469237091633
 10
49.02560355762208
 20
-47.58469237091633
 10
49.14445935186319
 20
-47.58469237091633
 10
49.21353351634245
 20
-47.50287135314164
 10
49.28260768082171
 20
-47.50287135314164
 10
49.35943331014278
 20
-47.50287135314164
 10
49.41317679971268
 20
-47.60243461266536
 10
49.41317679971268
 20
-47.66651338869102
 10
49.41317679971268
 20
-47.90129664601079
 10
48.97564967308595
 20
-48.10765786557725
 10
48.58807643099534
 20
-48.10765786557725
 10
48.39222275265889
 20
-48.10765786557725
 10
47.90095213646227
 20
-48.02945419806208
 10
47.90095213646227
 20
-47.4635972646098
 10
47.90095213646227
 20
-47.4635972646098
 10
47.90095213646227
 20
-46.73065320012289
 10
47.90095213646227
 20
-46.73065320012289
 10
47.90095213646227
 20
-46.66657442409725
 10
47.90095213646227
 20
-46.64176973660345
 10
47.88183185651913
 20
-46.63108994059917
 10
47.86253932180173
 20
-46.6204101445949
 10
47.82033690210742
 20
-46.62747259033966
 10
47.73214245768502
 20
-46.62747259033966
 10
47.63223468861278
 20
-46.62747259033966
 10
47.58245305885092
 20
-46.63108994059917
 10
47.56316052413352
 20
-46.61334769885013
 10
47.53628877934857
 20
-46.58837075658207
 10
47.54404024419038
 20
-46.55271401830974
 10
47.54404024419038
 20
-46.47089300053506
 10
47.54404024419038
 20
-46.4211113707732
 10
47.53249917431479
 20
-46.38200953701561
 10
47.57866345381714
 20
-46.3535874992623
 10
47.57866345381714
 20
-46.3535874992623
 10
48.4537177070706
 20
-45.83768445034614
 10
48.4537177070706
 20
-45.83768445034614
 10
48.54191215149299
 20
-45.78773056581002
 10
48.53812254645922
 20
-45.79841036181429
 10
48.65318873566657
 20
-45.79841036181429
 10
48.80683999430871
 20
-45.79841036181429
 10
48.81441920437626
 20
-45.78428547032476
 10
48.81441920437626
 20
-45.94792750587413
 10
48.81441920437626
 20
-46.05817056140213
 10
48.80683999430871
 20
-46.16858587170438
 10
48.82596027425185
 20
-46.21113280094722
 10
48.83750134412743
 20
-46.23972709347479
 10
48.86437308891238
 20
-46.23972709347479
 10
48.96410860321036
 20
-46.23972709347479
 10
48.96410860321036
 20
-46.23972709347479
 10
49.23282605105985
 20
-46.23972709347479
 10
49.23282605105985
 20
-46.23972709347479
 10
49.39784612480332
 20
-46.23972709347479
 10
49.39784612480332
 20
-46.25040688947907
 10
49.39784612480332
 20
-46.41043157476892
 10
49.39784612480332
 20
-46.61334769885013
 10
49.37097438001837
 20
-46.62747259033966
 10
49.22128498118426
 20
-46.62747259033966
 10
49.22128498118426
 20
-46.62747259033966
 10
48.95652939314282
 20
-46.62747259033966
 10
48.95652939314282
 20
-46.62747259033966
 10
48.82217066921807
 20
-46.62747259033966
 10
48.81441920437626
 20
-46.63108994059917
 10
48.81441920437626
 20
-46.7590752378762
 10
48.81441920437626
 20
-46.7590752378762
 10
48.81441920437626
 20
-47.28927543305615
 10
48.81441920437626
 20
-47.28927543305615
 97
        0
 75
     2
 76
     1
 98
        0
  0
SPLINE
  5
60
330
4A
100
AcDbEntity
  8
\U+30EC\U+30A4\U+30E4\U+30FC 1
 62
   250
370
     5
100
AcDbSpline
210
0.0
220
0.0
230
1.0
 70
    11
 71
     3
 72
    17
 73
    13
 74
     0
 42
0.0000000001
 43
0.0000000001
 40
0.0
 40
0.0
 40
0.0
 40
0.0
 40
1.0
 40
1.0
 40
1.0
 40
2.0
 40
2.0
 40
2.0
 40
3.0
 40
3.0
 40
3.0
 40
4.0
 40
4.0
 40
4.0
 40
4.0
 10
49.5086059446541
 20
-47.23587645303478
 30
0.0
 10
49.5086059446541
 20
-46.59905055258635
 30
0.0
 10
50.1111531450243
 20
-46.23972709347479
 30
0.0
 10
50.74453394998748
 20
-46.23972709347479
 30
0.0
 10
51.41615531483694
 20
-46.23972709347479
 30
0.0
 10
51.79993895189376
 20
-46.72720810463765
 30
0.0
 10
51.79993895189376
 20
-47.16835258152388
 30
0.0
 10
51.79993895189376
 20
-47.75195175672521
 30
0.0
 10
51.12435572723628
 20
-48.10765786557725
 30
0.0
 10
50.56022134152661
 20
-48.10765786557725
 30
0.0
 10
49.99212509600891
 20
-48.10765786557725
 30
0.0
 10
49.5086059446541
 20
-47.79811603622755
 30
0.0
 10
49.5086059446541
 20
-47.23587645303478
 30
0.0
  0
SPLINE
  5
61
330
4A
100
AcDbEntity
  8
\U+30EC\U+30A4\U+30E4\U+30FC 1
 62
   250
370
     5
100
AcDbSpline
210
0.0
220
0.0
230
1.0
 70
    11
 71
     3
 72
    17
 73
    13
 74
     0
 42
0.0000000001
 43
0.0000000001
 40
0.0
 40
0.0
 40
0.0
 40
0.0
 40
1.0
 40
1.0
 40
1.0
 40
2.0
 40
2.0
 40
2.0
 40
3.0
 40
3.0
 40
3.0
 40
4.0
 40
4.0
 40
4.0
 40
4.0
 10
50.57951387624401
 20
-46.65951197835248
 30
0.0
 10
50.45273436238682
 20
-46.65951197835248
 30
0.0
 10
50.38366019790756
 20
-46.76975503388048
 30
0.0
 10
50.39141166274937
 20
-46.87293564366372
 30
0.0
 10
50.40674233765873
 20
-47.09721135975348
 30
0.0
 10
50.475816502138
 20
-47.64515379668246
 30
0.0
 10
50.74057209017944
 20
-47.65945094294625
 30
0.0
 10
50.88647188397977
 20
-47.66651338869102
 30
0.0
 10
50.91713323379849
 20
-47.5526529829035
 30
0.0
 10
50.91713323379849
 20
-47.438792577116
 30
0.0
 10
50.91713323379849
 20
-47.27859563705188
 30
0.0
 10
50.84047985925169
 20
-46.65951197835248
 30
0.0
 10
50.57951387624401
 20
-46.65951197835248
 30
0.0
  0
HATCH
  5
62
330
4A
100
AcDbEntity
  8
\U+30EC\U+30A4\U+30E4\U+30FC 1
 62
   250
100
AcDbHatch
 10
0.0
 20
0.0
 30
0.0
210
0.0
220
0.0
230
1.0
  2
SOLID
 70
     1
 71
     0
 91
        2
 92
        1
 93
        1
 72
     4
 94
        3
 73
     0
 74
     1
 95
       17
 96
       13
 40
0.0
 40
0.0
 40
0.0
 40
0.0
 40
1.0
 40
1.0
 40
1.0
 40
2.0
 40
2.0
 40
2.0
 40
3.0
 40
3.0
 40
3.0
 40
4.0
 40
4.0
 40
4.0
 40
4.0
 10
49.5086059446541
 20
-47.23587645303478
 10
49.5086059446541
 20
-46.59905055258635
 10
50.1111531450243
 20
-46.23972709347479
 10
50.74453394998748
 20
-46.23972709347479
 10
51.41615531483694
 20
-46.23972709347479
 10
51.79993895189376
 20
-46.72720810463765
 10
51.79993895189376
 20
-47.16835258152388
 10
51.79993895189376
 20
-47.75195175672521
 10
51.12435572723628
 20
-48.10765786557725
 10
50.56022134152661
 20
-48.10765786557725
 10
49.99212509600891
 20
-48.10765786557725
 10
49.5086059446541
 20
-47.79811603622755
 10
49.5086059446541
 20
-47.23587645303478
 97
        0
 92
        1
 93
        1
 72
     4
 94
        3
 73
     0
 74
     1
 95
       17
 96
       13
 40
0.0
 40
0.0
 40
0.0
 40
0.0
 40
1.0
 40
1.0
 40
1.0
 40
2.0
 40
2.0
 40
2.0
 40
3.0
 40
3.0
 40
3.0
 40
4.0
 40
4.0
 40
4.0
 40
4.0
 10
50.57951387624401
 20
-46.65951197835248
 10
50.45273436238682
 20
-46.65951197835248
 10
50.38366019790756
 20
-46.76975503388048
 10
50.39141166274937
 20
-46.87293564366372
 10
50.40674233765873
 20
-47.09721135975348
 10
50.475816502138
 20
-47.64515379668246
 10
50.74057209017944
 20
-47.65945094294625
 10
50.88647188397977
 20
-47.66651338869102
 10
50.91713323379849
 20
-47.5526529829035
 10
50.91713323379849
 20
-47.438792577116
 10
50.91713323379849
 20
-47.27859563705188
 10
50.84047985925169
 20
-46.65951197835248
 10
50.57951387624401
 20
-46.65951197835248
 97
        0
 75
     2
 76
     1
 98
        0
  0
SPLINE
  5
63
330
4A
100
AcDbEntity
  8
\U+30EC\U+30A4\U+30E4\U+30FC 1
 62
   250
370
     5
100
AcDbSpline
210
0.0
220
0.0
230
1.0
 70
    11
 71
     3
 72
    53
 73
    49
 74
     0
 42
0.0000000001
 43
0.0000000001
 40
0.0
 40
0.0
 40
0.0
 40
0.0
 40
1.0
 40
1.0
 40
1.0
 40
2.0
 40
2.0
 40
2.0
 40
3.0
 40
3.0
 40
3.0
 40
4.0
 40
4.0
 40
4.0
 40
5.0
 40
5.0
 40
5.0
 40
6.0
 40
6.0
 40
6.0
 40
7.0
 40
7.0
 40
7.0
 40
8.0
 40
8.0
 40
8.0
 40
9.0
 40
9.0
 40
9.0
 40
10.0
 40
10.0
 40
10.0
 40
11.0
 40
11.0
 40
11.0
 40
12.0
 40
12.0
 40
12.0
 40
13.0
 40
13.0
 40
13.0
 40
14.0
 40
14.0
 40
14.0
 40
15.0
 40
15.0
 40
15.0
 40
16.0
 40
16.0
 40
16.0
 40
16.0
 10
52.16770289494418
 20
-46.97973360370646
 30
0.0
 10
52.16770289494418
 20
-46.63108994059917
 30
0.0
 10
51.92964679691342
 20
-46.82677136416137
 30
0.0
 10
51.92964679691342
 20
-46.60973034859062
 30
0.0
 10
51.92964679691342
 20
-46.32861055699424
 30
0.0
 10
52.82778318991806
 20
-46.25040688947907
 30
0.0
 10
52.86240639954482
 20
-46.25040688947907
 30
0.0
 10
53.00830619334515
 20
-46.25040688947907
 30
0.0
 10
53.01209579837892
 20
-46.28589137297714
 30
0.0
 10
53.02742647328829
 20
-46.40681422450941
 30
0.0
 10
53.03121607832206
 20
-46.44953340852651
 30
0.0
 10
53.02742647328829
 20
-46.53135442630119
 30
0.0
 10
53.09271103273377
 20
-46.53135442630119
 30
0.0
 10
53.18469508218994
 20
-46.53135442630119
 30
0.0
 10
53.24240043156787
 20
-46.25040688947907
 30
0.0
 10
53.57244057905481
 20
-46.25040688947907
 30
0.0
 10
53.82961695702871
 20
-46.25040688947907
 30
0.0
 10
53.99842663580595
 20
-46.42817381651796
 30
0.0
 10
53.99842663580595
 20
-46.66312932861199
 30
0.0
 10
53.99842663580595
 20
-46.90152993619129
 30
0.0
 10
53.77966307249259
 20
-47.08997665923445
 30
0.0
 10
53.52644855432673
 20
-47.08997665923445
 30
0.0
 10
53.27685138642038
 20
-47.08997665923445
 30
0.0
 10
53.20777722194111
 20
-46.8872327899275
 30
0.0
 10
53.10804170764313
 20
-46.8872327899275
 30
0.0
 10
53.00055472850334
 20
-46.8872327899275
 30
0.0
 10
53.01967500844647
 20
-47.12563339750679
 30
0.0
 10
53.01967500844647
 20
-47.18971217353243
 30
0.0
 10
53.01967500844647
 20
-47.29651013357518
 30
0.0
 10
53.03121607832206
 20
-47.44585502286076
 30
0.0
 10
53.05050861303946
 20
-47.58107502065682
 30
0.0
 10
53.07341849801637
 20
-47.73765461046142
 30
0.0
 10
53.36521808561703
 20
-47.64153644642295
 30
0.0
 10
53.36521808561703
 20
-47.85513236650844
 30
0.0
 10
53.36521808561703
 20
-48.07923582782394
 30
0.0
 10
53.02742647328829
 20
-48.09697806957298
 30
0.0
 10
52.60523002157092
 20
-48.09697806957298
 30
0.0
 10
52.42866887795186
 20
-48.09697806957298
 30
0.0
 10
51.90673691193651
 20
-48.104212770092
 30
0.0
 10
51.90673691193651
 20
-47.85857746199369
 30
0.0
 10
51.90673691193651
 20
-47.70923257270811
 30
0.0
 10
52.08329805555557
 20
-47.70923257270811
 30
0.0
 10
52.12550047524988
 20
-47.58469237091633
 30
0.0
 10
52.1561618250686
 20
-47.49563665262262
 30
0.0
 10
52.16770289494418
 20
-47.29289278331566
 30
0.0
 10
52.16770289494418
 20
-47.19332952379195
 30
0.0
 10
52.16770289494418
 20
-47.19332952379195
 30
0.0
 10
52.16770289494418
 20
-46.97973360370646
 30
0.0
 10
52.16770289494418
 20
-46.97973360370646
 30
0.0
  0
HATCH
  5
64
330
4A
100
AcDbEntity
  8
\U+30EC\U+30A4\U+30E4\U+30FC 1
 62
   250
100
AcDbHatch
 10
0.0
 20
0.0
 30
0.0
210
0.0
220
0.0
230
1.0
  2
SOLID
 70
     1
 71
     0
 91
        1
 92
        1
 93
        1
 72
     4
 94
        3
 73
     0
 74
     1
 95
       53
 96
       49
 40
0.0
 40
0.0
 40
0.0
 40
0.0
 40
1.0
 40
1.0
 40
1.0
 40
2.0
 40
2.0
 40
2.0
 40
3.0
 40
3.0
 40
3.0
 40
4.0
 40
4.0
 40
4.0
 40
5.0
 40
5.0
 40
5.0
 40
6.0
 40
6.0
 40
6.0
 40
7.0
 40
7.0
 40
7.0
 40
8.0
 40
8.0
 40
8.0
 40
9.0
 40
9.0
 40
9.0
 40
10.0
 40
10.0
 40
10.0
 40
11.0
 40
11.0
 40
11.0
 40
12.0
 40
12.0
 40
12.0
 40
13.0
 40
13.0
 40
13.0
 40
14.0
 40
14.0
 40
14.0
 40
15.0
 40
15.0
 40
15.0
 40
16.0
 40
16.0
 40
16.0
 40
16.0
 10
52.16770289494418
 20
-46.97973360370646
 10
52.16770289494418
 20
-46.63108994059917
 10
51.92964679691342
 20
-46.82677136416137
 10
51.92964679691342
 20
-46.60973034859062
 10
51.92964679691342
 20
-46.32861055699424
 10
52.82778318991806
 20
-46.25040688947907
 10
52.86240639954482
 20
-46.25040688947907
 10
53.00830619334515
 20
-46.25040688947907
 10
53.01209579837892
 20
-46.28589137297714
 10
53.02742647328829
 20
-46.40681422450941
 10
53.03121607832206
 20
-46.44953340852651
 10
53.02742647328829
 20
-46.53135442630119
 10
53.09271103273377
 20
-46.53135442630119
 10
53.18469508218994
 20
-46.53135442630119
 10
53.24240043156787
 20
-46.25040688947907
 10
53.57244057905481
 20
-46.25040688947907
 10
53.82961695702871
 20
-46.25040688947907
 10
53.99842663580595
 20
-46.42817381651796
 10
53.99842663580595
 20
-46.66312932861199
 10
53.99842663580595
 20
-46.90152993619129
 10
53.77966307249259
 20
-47.08997665923445
 10
53.52644855432673
 20
-47.08997665923445
 10
53.27685138642038
 20
-47.08997665923445
 10
53.20777722194111
 20
-46.8872327899275
 10
53.10804170764313
 20
-46.8872327899275
 10
53.00055472850334
 20
-46.8872327899275
 10
53.01967500844647
 20
-47.12563339750679
 10
53.01967500844647
 20
-47.18971217353243
 10
53.01967500844647
 20
-47.29651013357518
 10
53.03121607832206
 20
-47.44585502286076
 10
53.05050861303946
 20
-47.58107502065682
 10
53.07341849801637
 20
-47.73765461046142
 10
53.36521808561703
 20
-47.64153644642295
 10
53.36521808561703
 20
-47.85513236650844
 10
53.36521808561703
 20
-48.07923582782394
 10
53.02742647328829
 20
-48.09697806957298
 10
52.60523002157092
 20
-48.09697806957298
 10
52.42866887795186
 20
-48.09697806957298
 10
51.90673691193651
 20
-48.104212770092
 10
51.90673691193651
 20
-47.85857746199369
 10
51.90673691193651
 20
-47.70923257270811
 10
52.08329805555557
 20
-47.70923257270811
 10
52.12550047524988
 20
-47.58469237091633
 10
52.1561618250686
 20
-47.49563665262262
 10
52.16770289494418
 20
-47.29289278331566
 10
52.16770289494418
 20
-47.19332952379195
 10
52.16770289494418
 20
-47.19332952379195
 10
52.16770289494418
 20
-46.97973360370646
 10
52.16770289494418
 20
-46.97973360370646
 97
        0
 75
     2
 76
     1
 98
        0
  0
SPLINE
  5
65
330
4A
100
AcDbEntity
  8
\U+30EC\U+30A4\U+30E4\U+30FC 1
 62
   250
370
     5
100
AcDbSpline
210
0.0
220
0.0
230
1.0
 70
    11
 71
     3
 72
    62
 73
    58
 74
     0
 42
0.0000000001
 43
0.0000000001
 40
0.0
 40
0.0
 40
0.0
 40
0.0
 40
1.0
 40
1.0
 40
1.0
 40
2.0
 40
2.0
 40
2.0
 40
3.0
 40
3.0
 40
3.0
 40
4.0
 40
4.0
 40
4.0
 40
5.0
 40
5.0
 40
5.0
 40
6.0
 40
6.0
 40
6.0
 40
7.0
 40
7.0
 40
7.0
 40
8.0
 40
8.0
 40
8.0
 40
9.0
 40
9.0
 40
9.0
 40
10.0
 40
10.0
 40
10.0
 40
11.0
 40
11.0
 40
11.0
 40
12.0
 40
12.0
 40
12.0
 40
13.0
 40
13.0
 40
13.0
 40
14.0
 40
14.0
 40
14.0
 40
15.0
 40
15.0
 40
15.0
 40
16.0
 40
16.0
 40
16.0
 40
17.0
 40
17.0
 40
17.0
 40
18.0
 40
18.0
 40
18.0
 40
19.0
 40
19.0
 40
19.0
 40
19.0
 10
55.73251544830646
 20
-47.75901420246997
 30
0.0
 10
55.54441323481181
 20
-48.23219806736903
 30
0.0
 10
55.29877792671351
 20
-48.69470213626383
 30
0.0
 10
54.6733208413664
 20
-48.69470213626383
 30
0.0
 10
54.3968519286751
 20
-48.69470213626383
 30
0.0
 10
54.07060138622194
 20
-48.56309948872728
 30
0.0
 10
54.07060138622194
 20
-48.26785480564137
 30
0.0
 10
54.07060138622194
 20
-48.08991562382822
 30
0.0
 10
54.21650118002226
 20
-47.94039847976838
 30
0.0
 10
54.41218260358445
 20
-47.94039847976838
 30
0.0
 10
54.7692667506306
 20
-47.94039847976838
 30
0.0
 10
54.66935898155836
 20
-48.31763643540323
 30
0.0
 10
54.82679984523428
 20
-48.31763643540323
 30
0.0
 10
54.93032496456603
 20
-48.31763643540323
 30
0.0
 10
54.97648924406838
 20
-48.22513562162428
 30
0.0
 10
54.97648924406838
 20
-48.14331460384959
 30
0.0
 10
54.97648924406838
 20
-48.04357908955161
 30
0.0
 10
54.89966361474731
 20
-47.90835909175555
 30
0.0
 10
54.85367159001922
 20
-47.81947562823611
 30
0.0
 10
54.85367159001922
 20
-47.81947562823611
 30
0.0
 10
54.31623669432025
 20
-46.77698973439951
 30
0.0
 10
54.31623669432025
 20
-46.77698973439951
 30
0.0
 10
54.24337292480722
 20
-46.63453503608442
 30
0.0
 10
54.02460936149385
 20
-46.67725422010152
 30
0.0
 10
54.02460936149385
 20
-46.51361218455215
 30
0.0
 10
54.02460936149385
 20
-46.40681422450941
 30
0.0
 10
54.09368352597311
 20
-46.25040688947907
 30
0.0
 10
54.90345321978108
 20
-46.25040688947907
 30
0.0
 10
55.04935301358142
 20
-46.25040688947907
 30
0.0
 10
55.39472383597771
 20
-46.26453178096859
 30
0.0
 10
55.39472383597771
 20
-46.46744790504981
 30
0.0
 10
55.39472383597771
 20
-46.56339381431401
 30
0.0
 10
55.30652939155532
 20
-46.59198810684159
 30
0.0
 10
55.30652939155532
 20
-46.67725422010152
 30
0.0
 10
55.30652939155532
 20
-46.81247421789758
 30
0.0
 10
55.47533907033256
 20
-47.06155462148114
 30
0.0
 10
55.54062362977804
 20
-47.06155462148114
 30
0.0
 10
55.65586207375965
 20
-47.06155462148114
 30
0.0
 10
55.73630505334023
 20
-46.81609156815709
 30
0.0
 10
55.73630505334023
 20
-46.73065320012289
 30
0.0
 10
55.73630505334023
 20
-46.57062851483304
 30
0.0
 10
55.61348739929107
 20
-46.58130831083731
 30
0.0
 10
55.61348739929107
 20
-46.46021320453078
 30
0.0
 10
55.61348739929107
 20
-46.27176648148762
 30
0.0
 10
55.97436115137099
 20
-46.25040688947907
 30
0.0
 10
56.11250948032951
 20
-46.25040688947907
 30
0.0
 10
56.23911673941245
 20
-46.25040688947907
 30
0.0
 10
56.52316486217129
 20
-46.26814913122811
 30
0.0
 10
56.52316486217129
 20
-46.43179116677747
 30
0.0
 10
56.52316486217129
 20
-46.64176973660345
 30
0.0
 10
56.29286022898234
 20
-46.54926892282449
 30
0.0
 10
56.1585015050576
 20
-46.7590752378762
 30
0.0
 10
56.07409666566897
 20
-46.88361543966798
 30
0.0
 10
56.01277396603153
 20
-47.04019502947259
 30
0.0
 10
55.95903047646163
 20
-47.17903237752816
 30
0.0
 10
55.95903047646163
 20
-47.17903237752816
 30
0.0
 10
55.73251544830646
 20
-47.75901420246997
 30
0.0
 10
55.73251544830646
 20
-47.75901420246997
 30
0.0
  0
HATCH
  5
66
330
4A
100
AcDbEntity
  8
\U+30EC\U+30A4\U+30E4\U+30FC 1
 62
   250
100
AcDbHatch
 10
0.0
 20
0.0
 30
0.0
210
0.0
220
0.0
230
1.0
  2
SOLID
 70
     1
 71
     0
 91
        1
 92
        1
 93
        1
 72
     4
 94
        3
 73
     0
 74
     1
 95
       62
 96
       58
 40
0.0
 40
0.0
 40
0.0
 40
0.0
 40
1.0
 40
1.0
 40
1.0
 40
2.0
 40
2.0
 40
2.0
 40
3.0
 40
3.0
 40
3.0
 40
4.0
 40
4.0
 40
4.0
 40
5.0
 40
5.0
 40
5.0
 40
6.0
 40
6.0
 40
6.0
 40
7.0
 40
7.0
 40
7.0
 40
8.0
 40
8.0
 40
8.0
 40
9.0
 40
9.0
 40
9.0
 40
10.0
 40
10.0
 40
10.0
 40
11.0
 40
11.0
 40
11.0
 40
12.0
 40
12.0
 40
12.0
 40
13.0
 40
13.0
 40
13.0
 40
14.0
 40
14.0
 40
14.0
 40
15.0
 40
15.0
 40
15.0
 40
16.0
 40
16.0
 40
16.0
 40
17.0
 40
17.0
 40
17.0
 40
18.0
 40
18.0
 40
18.0
 40
19.0
 40
19.0
 40
19.0
 40
19.0
 10
55.73251544830646
 20
-47.75901420246997
 10
55.54441323481181
 20
-48.23219806736903
 10
55.29877792671351
 20
-48.69470213626383
 10
54.6733208413664
 20
-48.69470213626383
 10
54.3968519286751
 20
-48.69470213626383
 10
54.07060138622194
 20
-48.56309948872728
 10
54.07060138622194
 20
-48.26785480564137
 10
54.07060138622194
 20
-48.08991562382822
 10
54.21650118002226
 20
-47.94039847976838
 10
54.41218260358445
 20
-47.94039847976838
 10
54.7692667506306
 20
-47.94039847976838
 10
54.66935898155836
 20
-48.31763643540323
 10
54.82679984523428
 20
-48.31763643540323
 10
54.93032496456603
 20
-48.31763643540323
 10
54.97648924406838
 20
-48.22513562162428
 10
54.97648924406838
 20
-48.14331460384959
 10
54.97648924406838
 20
-48.04357908955161
 10
54.89966361474731
 20
-47.90835909175555
 10
54.85367159001922
 20
-47.81947562823611
 10
54.85367159001922
 20
-47.81947562823611
 10
54.31623669432025
 20
-46.77698973439951
 10
54.31623669432025
 20
-46.77698973439951
 10
54.24337292480722
 20
-46.63453503608442
 10
54.02460936149385
 20
-46.67725422010152
 10
54.02460936149385
 20
-46.51361218455215
 10
54.02460936149385
 20
-46.40681422450941
 10
54.09368352597311
 20
-46.25040688947907
 10
54.90345321978108
 20
-46.25040688947907
 10
55.04935301358142
 20
-46.25040688947907
 10
55.39472383597771
 20
-46.26453178096859
 10
55.39472383597771
 20
-46.46744790504981
 10
55.39472383597771
 20
-46.56339381431401
 10
55.30652939155532
 20
-46.59198810684159
 10
55.30652939155532
 20
-46.67725422010152
 10
55.30652939155532
 20
-46.81247421789758
 10
55.47533907033256
 20
-47.06155462148114
 10
55.54062362977804
 20
-47.06155462148114
 10
55.65586207375965
 20
-47.06155462148114
 10
55.73630505334023
 20
-46.81609156815709
 10
55.73630505334023
 20
-46.73065320012289
 10
55.73630505334023
 20
-46.57062851483304
 10
55.61348739929107
 20
-46.58130831083731
 10
55.61348739929107
 20
-46.46021320453078
 10
55.61348739929107
 20
-46.27176648148762
 10
55.97436115137099
 20
-46.25040688947907
 10
56.11250948032951
 20
-46.25040688947907
 10
56.23911673941245
 20
-46.25040688947907
 10
56.52316486217129
 20
-46.26814913122811
 10
56.52316486217129
 20
-46.43179116677747
 10
56.52316486217129
 20
-46.64176973660345
 10
56.29286022898234
 20
-46.54926892282449
 10
56.1585015050576
 20
-46.7590752378762
 10
56.07409666566897
 20
-46.88361543966798
 10
56.01277396603153
 20
-47.04019502947259
 10
55.95903047646163
 20
-47.17903237752816
 10
55.95903047646163
 20
-47.17903237752816
 10
55.73251544830646
 20
-47.75901420246997
 10
55.73251544830646
 20
-47.75901420246997
 97
        0
 75
     2
 76
     1
 98
        0
  0
ENDBLK
  5
4D
330
4A
100
AcDbEntity
  8
0
100
AcDbBlockEnd
  0
ENDSEC
  0
SECTION
  2
ENTITIES
  0
INSERT
  5
3D
330
1F
100
AcDbEntity
  8
\U+30EC\U+30A4\U+30E4\U+30FC 1
100
AcDbBlockReference
  2
block 2
 10
0.0
 20
0.0
 30
0.0
  0
INSERT
  5
4B
330
1F
100
AcDbEntity
  8
\U+30EC\U+30A4\U+30E4\U+30FC 1
100
AcDbBlockReference
  2
block 3
 10
0.0
 20
0.0
 30
0.0
  0
ENDSEC
  0
SECTION
  2
OBJECTS
  0
DICTIONARY
  5
C
330
0
100
AcDbDictionary
281
     1
  3
ACAD_GROUP
350
D
  3
ACAD_LAYOUT
350
1A
  3
ACAD_MLINESTYLE
350
17
  3
ACAD_PLOTSETTINGS
350
19
  3
ACAD_PLOTSTYLENAME
350
E
  3
ACAD_TABLESTYLE
350
67
  3
ACAD_VISUALSTYLE
350
2A
  0
DICTIONARY
  5
D
102
{ACAD_REACTORS
330
C
102
}
330
C
100
AcDbDictionary
281
     1
  0
DICTIONARY
  5
1A
102
{ACAD_REACTORS
330
C
102
}
330
C
100
AcDbDictionary
281
     1
  3
Layout1
350
1E
  3
Layout2
350
26
  3
Model
350
22
  0
DICTIONARY
  5
17
102
{ACAD_REACTORS
330
C
102
}
330
C
100
AcDbDictionary
281
     1
  3
Standard
350
18
  0
DICTIONARY
  5
19
102
{ACAD_REACTORS
330
C
102
}
330
C
100
AcDbDictionary
281
     1
  0
ACDBDICTIONARYWDFLT
  5
E
102
{ACAD_REACTORS
330
C
102
}
330
C
100
AcDbDictionary
281
     1
  3
Normal
350
F
100
AcDbDictionaryWithDefault
340
F
  0
DICTIONARY
  5
67
102
{ACAD_REACTORS
330
C
102
}
330
C
100
AcDbDictionary
281
     1
  0
DICTIONARY
  5
2A
102
{ACAD_REACTORS
330
C
102
}
330
C
100
AcDbDictionary
281
     1
  3
2dWireframe
350
2F
  3
3D Hidden
350
31
  3
3dWireframe
350
30
  3
Basic
350
32
  3
Brighten
350
36
  3
ColorChange
350
3A
  3
Conceptual
350
34
  3
Dim
350
35
  3
Facepattern
350
39
  3
Flat
350
2B
  3
FlatWithEdges
350
2C
  3
Gouraud
350
2D
  3
GouraudWithEdges
350
2E
  3
Linepattern
350
38
  3
Realistic
350
33
  3
Thicken
350
37
  0
LAYOUT
  5
1E
102
{ACAD_REACTORS
330
1A
102
}
330
1A
100
AcDbPlotSettings
  1

  2
none_device
  4

  6

 40
0.0
 41
0.0
 42
0.0
 43
0.0
 44
0.0
 45
0.0
 46
0.0
 47
0.0
 48
0.0
 49
0.0
140
0.0
141
0.0
142
1.0
143
1.0
 70
   688
 72
     0
 73
     0
 74
     5
  7

 75
    16
 76
     0
 77
     2
 78
   300
147
1.0
148
0.0
149
0.0
100
AcDbLayout
  1
Layout1
 70
     1
 71
     1
 10
0.0
 20
0.0
 11
12.0
 21
9.0
 12
0.0
 22
0.0
 32
0.0
 14
1.000000000000000E+20
 24
1.000000000000000E+20
 34
1.000000000000000E+20
 15
-1.000000000000000E+20
 25
-1.000000000000000E+20
 35
-1.000000000000000E+20
146
0.0
 13
0.0
 23
0.0
 33
0.0
 16
1.0
 26
0.0
 36
0.0
 17
0.0
 27
1.0
 37
0.0
 76
     0
330
1B
  0
LAYOUT
  5
26
102
{ACAD_REACTORS
330
1A
102
}
330
1A
100
AcDbPlotSettings
  1

  2
none_device
  4

  6

 40
0.0
 41
0.0
 42
0.0
 43
0.0
 44
0.0
 45
0.0
 46
0.0
 47
0.0
 48
0.0
 49
0.0
140
0.0
141
0.0
142
1.0
143
1.0
 70
   688
 72
     0
 73
     0
 74
     5
  7

 75
    16
 76
     0
 77
     2
 78
   300
147
1.0
148
0.0
149
0.0
100
AcDbLayout
  1
Layout2
 70
     1
 71
     2
 10
0.0
 20
0.0
 11
0.0
 21
0.0
 12
0.0
 22
0.0
 32
0.0
 14
0.0
 24
0.0
 34
0.0
 15
0.0
 25
0.0
 35
0.0
146
0.0
 13
0.0
 23
0.0
 33
0.0
 16
1.0
 26
0.0
 36
0.0
 17
0.0
 27
1.0
 37
0.0
 76
     0
330
23
  0
LAYOUT
  5
22
102
{ACAD_REACTORS
330
1A
102
}
330
1A
100
AcDbPlotSettings
  1

  2
none_device
  4

  6

 40
0.0
 41
0.0
 42
0.0
 43
0.0
 44
0.0
 45
0.0
 46
0.0
 47
0.0
 48
0.0
 49
0.0
140
0.0
141
0.0
142
1.0
143
1.0
 70
  1712
 72
     0
 73
     0
 74
     0
  7

 75
     0
 76
     0
 77
     2
 78
   300
147
1.0
148
0.0
149
0.0
100
AcDbLayout
  1
Model
 70
     1
 71
     0
 10
0.0
 20
0.0
 11
12.0
 21
9.0
 12
0.0
 22
0.0
 32
0.0
 14
1.000000000000000E+20
 24
1.000000000000000E+20
 34
1.000000000000000E+20
 15
-1.000000000000000E+20
 25
-1.000000000000000E+20
 35
-1.000000000000000E+20
146
0.0
 13
0.0
 23
0.0
 33
0.0
 16
1.0
 26
0.0
 36
0.0
 17
0.0
 27
1.0
 37
0.0
 76
     0
330
1F
331
29
  0
MLINESTYLE
  5
18
102
{ACAD_REACTORS
330
17
102
}
330
17
100
AcDbMlineStyle
  2
Standard
 70
     0
  3

 62
   256
 51
90.0
 52
90.0
 71
     2
 49
0.5
 62
   256
  6
BYLAYER
 49
-0.5
 62
   256
  6
BYLAYER
  0
ACDBPLACEHOLDER
  5
F
102
{ACAD_REACTORS
330
E
102
}
330
E
  0
VISUALSTYLE
  5
2F
102
{ACAD_REACTORS
330
2A
102
}
330
2A
100
AcDbVisualStyle
  2
2dWireframe
 70
     4
 71
     0
 72
     2
 73
     0
 90
        0
 40
-0.6
 41
-30.0
 62
     5
 63
     7
421
 16777215
 74
     1
 91
        4
 64
     7
 65
   257
 75
     1
175
     1
 42
1.0
 92
        0
 66
   257
 43
1.0
 76
     1
 77
     6
 78
     2
 67
     7
 79
     5
170
     0
171
     0
290
     0
174
     0
 93
        1
 44
0.0
173
     0
291
     0
 45
0.0
1001
ACAD
1000
AcDbSavedByObjectVersion
1070
     0
  0
VISUALSTYLE
  5
31
102
{ACAD_REACTORS
330
2A
102
}
330
2A
100
AcDbVisualStyle
  2
3D Hidden
 70
     6
 71
     1
 72
     2
 73
     2
 90
        0
 40
-0.6
 41
-30.0
 62
     5
 63
     7
421
 16777215
 74
     2
 91
        2
 64
     7
 65
   257
 75
     2
175
     1
 42
40.0
 92
        0
 66
   257
 43
1.0
 76
     1
 77
     6
 78
     2
 67
     7
 79
     3
170
     0
171
     0
290
     0
174
     0
 93
        1
 44
0.0
173
     0
291
     0
 45
0.0
1001
ACAD
1000
AcDbSavedByObjectVersion
1070
     0
  0
VISUALSTYLE
  5
30
102
{ACAD_REACTORS
330
2A
102
}
330
2A
100
AcDbVisualStyle
  2
3dWireframe
 70
     5
 71
     0
 72
     2
 73
     0
 90
        0
 40
-0.6
 41
-30.0
 62
     5
 63
     7
421
 16777215
 74
     1
 91
        4
 64
     7
 65
   257
 75
     1
175
     1
 42
1.0
 92
        0
 66
   257
 43
1.0
 76
     1
 77
     6
 78
     2
 67
     7
 79
     5
170
     0
171
     0
290
     0
174
     0
 93
        1
 44
0.0
173
     0
291
     0
 45
0.0
1001
ACAD
1000
AcDbSavedByObjectVersion
1070
     0
  0
VISUALSTYLE
  5
32
102
{ACAD_REACTORS
330
2A
102
}
330
2A
100
AcDbVisualStyle
  2
Basic
 70
     7
 71
     1
 72
     0
 73
     1
 90
        0
 40
-0.6
 41
-30.0
 62
     5
 63
     7
421
 16777215
 74
     0
 91
        4
 64
     7
 65
   257
 75
     1
175
     1
 42
1.0
 92
        8
 66
     7
 43
1.0
 76
     1
 77
     6
 78
     2
 67
     7
 79
     5
170
     0
171
     0
290
     0
174
     0
 93
        1
 44
0.0
173
     0
291
     1
 45
0.0
1001
ACAD
1000
AcDbSavedByObjectVersion
1070
     0
  0
VISUALSTYLE
  5
36
102
{ACAD_REACTORS
330
2A
102
}
330
2A
100
AcDbVisualStyle
  2
Brighten
 70
    12
 71
     2
 72
     2
 73
     0
 90
        0
 40
-0.6
 41
-30.0
 62
     5
 63
     7
421
 16777215
 74
     1
 91
        4
 64
     7
 65
   257
 75
     1
175
     1
 42
1.0
 92
        8
 66
     7
 43
1.0
 76
     1
 77
     6
 78
     2
 67
     7
 79
     5
170
     0
171
     0
290
     0
174
     0
 93
        1
 44
50.0
173
     0
291
     1
 45
0.0
1001
ACAD
1000
AcDbSavedByObjectVersion
1070
     0
  0
VISUALSTYLE
  5
3A
102
{ACAD_REACTORS
330
2A
102
}
330
2A
100
AcDbVisualStyle
  2
ColorChange
 70
    16
 71
     2
 72
     2
 73
     3
 90
        0
 40
-0.6
 41
-30.0
 62
     5
 63
     8
421
  8421504
 74
     1
 91
        4
 64
     7
 65
   257
 75
     1
175
     1
 42
1.0
 92
        8
 66
     8
424
  8421504
 43
1.0
 76
     1
 77
     6
 78
     2
 67
     7
 79
     5
170
     0
171
     0
290
     0
174
     0
 93
        1
 44
0.0
173
     0
291
     1
 45
0.0
1001
ACAD
1000
AcDbSavedByObjectVersion
1070
     0
  0
VISUALSTYLE
  5
34
102
{ACAD_REACTORS
330
2A
102
}
330
2A
100
AcDbVisualStyle
  2
Conceptual
 70
     9
 71
     3
 72
     2
 73
     0
 90
        0
 40
-0.6
 41
-30.0
 62
     5
 63
     7
421
 16777215
 74
     2
 91
        2
 64
     7
 65
   257
 75
     1
175
     1
 42
40.0
 92
        8
 66
     7
 43
1.0
 76
     1
 77
     6
 78
     2
 67
     7
 79
     3
170
     0
171
     0
290
     0
174
     0
 93
        1
 44
0.0
173
     0
291
     0
 45
0.0
1001
ACAD
1000
AcDbSavedByObjectVersion
1070
     0
  0
VISUALSTYLE
  5
35
102
{ACAD_REACTORS
330
2A
102
}
330
2A
100
AcDbVisualStyle
  2
Dim
 70
    11
 71
     2
 72
     2
 73
     0
 90
        0
 40
-0.6
 41
-30.0
 62
     5
 63
     7
421
 16777215
 74
     1
 91
        4
 64
     7
 65
   257
 75
     1
175
     1
 42
1.0
 92
        8
 66
     7
 43
1.0
 76
     1
 77
     6
 78
     2
 67
     7
 79
     5
170
     0
171
     0
290
     0
174
     0
 93
        1
 44
-50.0
173
     0
291
     1
 45
0.0
1001
ACAD
1000
AcDbSavedByObjectVersion
1070
     0
  0
VISUALSTYLE
  5
39
102
{ACAD_REACTORS
330
2A
102
}
330
2A
100
AcDbVisualStyle
  2
Facepattern
 70
    15
 71
     2
 72
     2
 73
     0
 90
        0
 40
-0.6
 41
-30.0
 62
     5
 63
     7
421
 16777215
 74
     1
 91
        4
 64
     7
 65
   257
 75
     1
175
     1
 42
1.0
 92
        8
 66
     7
 43
1.0
 76
     1
 77
     6
 78
     2
 67
     7
 79
     5
170
     0
171
     0
290
     0
174
     0
 93
        1
 44
0.0
173
     0
291
     1
 45
0.0
1001
ACAD
1000
AcDbSavedByObjectVersion
1070
     0
  0
VISUALSTYLE
  5
2B
102
{ACAD_REACTORS
330
2A
102
}
330
2A
100
AcDbVisualStyle
  2
Flat
 70
     0
 71
     2
 72
     1
 73
     1
 90
        2
 40
-0.6
 41
30.0
 62
     5
 63
     7
421
 16777215
 74
     0
 91
        4
 64
     7
 65
   257
 75
     1
175
     1
 42
1.0
 92
        8
 66
     7
 43
1.0
 76
     1
 77
     6
 78
     2
 67
     7
 79
     5
170
     0
171
     0
290
     0
174
     0
 93
       13
 44
0.0
173
     0
291
     1
 45
0.0
1001
ACAD
1000
AcDbSavedByObjectVersion
1070
     0
  0
VISUALSTYLE
  5
2C
102
{ACAD_REACTORS
330
2A
102
}
330
2A
100
AcDbVisualStyle
  2
FlatWithEdges
 70
     1
 71
     2
 72
     1
 73
     1
 90
        2
 40
-0.6
 41
30.0
 62
     5
 63
     7
421
 16777215
 74
     1
 91
        4
 64
     7
 65
   257
 75
     1
175
     1
 42
1.0
 92
        0
 66
   257
 43
1.0
 76
     1
 77
     6
 78
     2
 67
     7
 79
     5
170
     0
171
     0
290
     0
174
     0
 93
       13
 44
0.0
173
     0
291
     1
 45
0.0
1001
ACAD
1000
AcDbSavedByObjectVersion
1070
     0
  0
VISUALSTYLE
  5
2D
102
{ACAD_REACTORS
330
2A
102
}
330
2A
100
AcDbVisualStyle
  2
Gouraud
 70
     2
 71
     2
 72
     2
 73
     1
 90
        2
 40
-0.6
 41
30.0
 62
     5
 63
     7
421
 16777215
 74
     0
 91
        4
 64
     7
 65
   257
 75
     1
175
     1
 42
1.0
 92
        0
 66
     7
 43
1.0
 76
     1
 77
     6
 78
     2
 67
     7
 79
     5
170
     0
171
     0
290
     0
174
     0
 93
       13
 44
0.0
173
     0
291
     1
 45
0.0
1001
ACAD
1000
AcDbSavedByObjectVersion
1070
     0
  0
VISUALSTYLE
  5
2E
102
{ACAD_REACTORS
330
2A
102
}
330
2A
100
AcDbVisualStyle
  2
GouraudWithEdges
 70
     3
 71
     2
 72
     2
 73
     1
 90
        2
 40
-0.6
 41
30.0
 62
     5
 63
     7
421
 16777215
 74
     1
 91
        4
 64
     7
 65
   257
 75
     1
175
     1
 42
1.0
 92
        0
 66
   257
 43
1.0
 76
     1
 77
     6
 78
     2
 67
     7
 79
     5
170
     0
171
     0
290
     0
174
     0
 93
       13
 44
0.0
173
     0
291
     1
 45
0.0
1001
ACAD
1000
AcDbSavedByObjectVersion
1070
     0
  0
VISUALSTYLE
  5
38
102
{ACAD_REACTORS
330
2A
102
}
330
2A
100
AcDbVisualStyle
  2
Linepattern
 70
    14
 71
     2
 72
     2
 73
     0
 90
        0
 40
-0.6
 41
-30.0
 62
     5
 63
     7
421
 16777215
 74
     1
 91
        4
 64
     7
 65
   257
 75
     7
175
     7
 42
1.0
 92
        8
 66
     7
 43
1.0
 76
     1
 77
     6
 78
     2
 67
     7
 79
     5
170
     0
171
     0
290
     0
174
     0
 93
        1
 44
0.0
173
     0
291
     1
 45
0.0
1001
ACAD
1000
AcDbSavedByObjectVersion
1070
     0
  0
VISUALSTYLE
  5
33
102
{ACAD_REACTORS
330
2A
102
}
330
2A
100
AcDbVisualStyle
  2
Realistic
 70
     8
 71
     2
 72
     2
 73
     0
 90
        0
 40
-0.6
 41
-30.0
 62
     5
 63
     7
421
 16777215
 74
     1
 91
        0
 64
     7
 65
   257
 75
     1
175
     1
 42
1.0
 92
        8
 66
     8
424
  7895160
 43
1.0
 76
     1
 77
     6
 78
     2
 67
     7
 79
     5
170
     0
171
     0
290
     0
174
     0
 93
       13
 44
0.0
173
     0
291
     0
 45
0.0
1001
ACAD
1000
AcDbSavedByObjectVersion
1070
     0
  0
VISUALSTYLE
  5
37
102
{ACAD_REACTORS
330
2A
102
}
330
2A
100
AcDbVisualStyle
  2
Thicken
 70
    13
 71
     2
 72
     2
 73
     0
 90
        0
 40
-0.6
 41
-30.0
 62
     5
 63
     7
421
 16777215
 74
     1
 91
        4
 64
     7
 65
   257
 75
     1
175
     1
 42
1.0
 92
       12
 66
     7
 43
1.0
 76
     1
 77
     6
 78
     2
 67
     7
 79
     5
170
     0
171
     0
290
     0
174
     0
 93
        1
 44
0.0
173
     0
291
     1
 45
0.0
1001
ACAD
1000
AcDbSavedByObjectVersion
1070
     0
  0
ENDSEC
  0
EOF
